<svg width="1536" height="724" viewBox="0 0 1536 724" fill="none" xmlns="http://www.w3.org/2000/svg">
<path d="M342.566 608.131L342.409 605.37L344.727 606.89L345.559 605.445L343.084 604.204L345.559 602.963L344.727 601.517L342.409 603.038L342.566 600.276H340.909L341.059 603.038L338.741 601.517L337.909 602.963L340.391 604.204L337.909 605.445L338.741 606.89L341.059 605.37L340.909 608.131H342.566ZM332.141 608.131L331.984 605.37L334.302 606.89L335.134 605.445L332.659 604.204L335.134 602.963L334.302 601.517L331.984 603.038L332.141 600.276H330.484L330.634 603.038L328.316 601.517L327.484 602.963L329.966 604.204L327.484 605.445L328.316 606.89L330.634 605.37L330.484 608.131H332.141ZM321.716 608.131L321.559 605.37L323.877 606.89L324.709 605.445L322.234 604.204L324.709 602.963L323.877 601.517L321.559 603.038L321.716 600.276H320.059L320.209 603.038L317.891 601.517L317.059 602.963L319.541 604.204L317.059 605.445L317.891 606.89L320.209 605.37L320.059 608.131H321.716ZM311.291 608.131L311.134 605.37L313.452 606.89L314.284 605.445L311.809 604.204L314.284 602.963L313.452 601.517L311.134 603.038L311.291 600.276H309.634L309.784 603.038L307.466 601.517L306.634 602.963L309.116 604.204L306.634 605.445L307.466 606.89L309.784 605.37L309.634 608.131H311.291ZM300.866 608.131L300.709 605.37L303.027 606.89L303.859 605.445L301.384 604.204L303.859 602.963L303.027 601.517L300.709 603.038L300.866 600.276H299.209L299.359 603.038L297.041 601.517L296.209 602.963L298.691 604.204L296.209 605.445L297.041 606.89L299.359 605.37L299.209 608.131H300.866ZM290.441 608.131L290.284 605.37L292.602 606.89L293.434 605.445L290.959 604.204L293.434 602.963L292.602 601.517L290.284 603.038L290.441 600.276H288.784L288.934 603.038L286.616 601.517L285.784 602.963L288.266 604.204L285.784 605.445L286.616 606.89L288.934 605.37L288.784 608.131H290.441ZM280.016 608.131L279.859 605.37L282.177 606.89L283.009 605.445L280.534 604.204L283.009 602.963L282.177 601.517L279.859 603.038L280.016 600.276H278.359L278.509 603.038L276.191 601.517L275.359 602.963L277.841 604.204L275.359 605.445L276.191 606.89L278.509 605.37L278.359 608.131H280.016ZM269.591 608.131L269.434 605.37L271.752 606.89L272.584 605.445L270.109 604.204L272.584 602.963L271.752 601.517L269.434 603.038L269.591 600.276H267.934L268.084 603.038L265.766 601.517L264.934 602.963L267.416 604.204L264.934 605.445L265.766 606.89L268.084 605.37L267.934 608.131H269.591ZM259.166 608.131L259.009 605.37L261.327 606.89L262.159 605.445L259.684 604.204L262.159 602.963L261.327 601.517L259.009 603.038L259.166 600.276H257.509L257.659 603.038L255.341 601.517L254.509 602.963L256.991 604.204L254.509 605.445L255.341 606.89L257.659 605.37L257.509 608.131H259.166ZM248.741 608.131L248.584 605.37L250.902 606.89L251.734 605.445L249.259 604.204L251.734 602.963L250.902 601.517L248.584 603.038L248.741 600.276H247.084L247.234 603.038L244.916 601.517L244.084 602.963L246.566 604.204L244.084 605.445L244.916 606.89L247.234 605.37L247.084 608.131H248.741ZM238.316 608.131L238.159 605.37L240.477 606.89L241.309 605.445L238.834 604.204L241.309 602.963L240.477 601.517L238.159 603.038L238.316 600.276H236.659L236.809 603.038L234.491 601.517L233.659 602.963L236.141 604.204L233.659 605.445L234.491 606.89L236.809 605.37L236.659 608.131H238.316ZM227.891 608.131L227.734 605.37L230.052 606.89L230.884 605.445L228.409 604.204L230.884 602.963L230.052 601.517L227.734 603.038L227.891 600.276H226.234L226.384 603.038L224.066 601.517L223.234 602.963L225.716 604.204L223.234 605.445L224.066 606.89L226.384 605.37L226.234 608.131H227.891ZM217.466 608.131L217.309 605.37L219.627 606.89L220.459 605.445L217.984 604.204L220.459 602.963L219.627 601.517L217.309 603.038L217.466 600.276H215.809L215.959 603.038L213.641 601.517L212.809 602.963L215.291 604.204L212.809 605.445L213.641 606.89L215.959 605.37L215.809 608.131H217.466ZM207.041 608.131L206.884 605.37L209.202 606.89L210.034 605.445L207.559 604.204L210.034 602.963L209.202 601.517L206.884 603.038L207.041 600.276H205.384L205.534 603.038L203.216 601.517L202.384 602.963L204.866 604.204L202.384 605.445L203.216 606.89L205.534 605.37L205.384 608.131H207.041ZM342.566 631.131L342.409 628.37L344.727 629.89L345.559 628.445L343.084 627.204L345.559 625.963L344.727 624.517L342.409 626.038L342.566 623.276H340.909L341.059 626.038L338.741 624.517L337.909 625.963L340.391 627.204L337.909 628.445L338.741 629.89L341.059 628.37L340.909 631.131H342.566ZM332.141 631.131L331.984 628.37L334.302 629.89L335.134 628.445L332.659 627.204L335.134 625.963L334.302 624.517L331.984 626.038L332.141 623.276H330.484L330.634 626.038L328.316 624.517L327.484 625.963L329.966 627.204L327.484 628.445L328.316 629.89L330.634 628.37L330.484 631.131H332.141ZM321.716 631.131L321.559 628.37L323.877 629.89L324.709 628.445L322.234 627.204L324.709 625.963L323.877 624.517L321.559 626.038L321.716 623.276H320.059L320.209 626.038L317.891 624.517L317.059 625.963L319.541 627.204L317.059 628.445L317.891 629.89L320.209 628.37L320.059 631.131H321.716ZM311.291 631.131L311.134 628.37L313.452 629.89L314.284 628.445L311.809 627.204L314.284 625.963L313.452 624.517L311.134 626.038L311.291 623.276H309.634L309.784 626.038L307.466 624.517L306.634 625.963L309.116 627.204L306.634 628.445L307.466 629.89L309.784 628.37L309.634 631.131H311.291ZM300.866 631.131L300.709 628.37L303.027 629.89L303.859 628.445L301.384 627.204L303.859 625.963L303.027 624.517L300.709 626.038L300.866 623.276H299.209L299.359 626.038L297.041 624.517L296.209 625.963L298.691 627.204L296.209 628.445L297.041 629.89L299.359 628.37L299.209 631.131H300.866ZM290.441 631.131L290.284 628.37L292.602 629.89L293.434 628.445L290.959 627.204L293.434 625.963L292.602 624.517L290.284 626.038L290.441 623.276H288.784L288.934 626.038L286.616 624.517L285.784 625.963L288.266 627.204L285.784 628.445L286.616 629.89L288.934 628.37L288.784 631.131H290.441ZM280.016 631.131L279.859 628.37L282.177 629.89L283.009 628.445L280.534 627.204L283.009 625.963L282.177 624.517L279.859 626.038L280.016 623.276H278.359L278.509 626.038L276.191 624.517L275.359 625.963L277.841 627.204L275.359 628.445L276.191 629.89L278.509 628.37L278.359 631.131H280.016ZM269.591 631.131L269.434 628.37L271.752 629.89L272.584 628.445L270.109 627.204L272.584 625.963L271.752 624.517L269.434 626.038L269.591 623.276H267.934L268.084 626.038L265.766 624.517L264.934 625.963L267.416 627.204L264.934 628.445L265.766 629.89L268.084 628.37L267.934 631.131H269.591ZM259.166 631.131L259.009 628.37L261.327 629.89L262.159 628.445L259.684 627.204L262.159 625.963L261.327 624.517L259.009 626.038L259.166 623.276H257.509L257.659 626.038L255.341 624.517L254.509 625.963L256.991 627.204L254.509 628.445L255.341 629.89L257.659 628.37L257.509 631.131H259.166ZM248.741 631.131L248.584 628.37L250.902 629.89L251.734 628.445L249.259 627.204L251.734 625.963L250.902 624.517L248.584 626.038L248.741 623.276H247.084L247.234 626.038L244.916 624.517L244.084 625.963L246.566 627.204L244.084 628.445L244.916 629.89L247.234 628.37L247.084 631.131H248.741ZM238.316 631.131L238.159 628.37L240.477 629.89L241.309 628.445L238.834 627.204L241.309 625.963L240.477 624.517L238.159 626.038L238.316 623.276H236.659L236.809 626.038L234.491 624.517L233.659 625.963L236.141 627.204L233.659 628.445L234.491 629.89L236.809 628.37L236.659 631.131H238.316ZM227.891 631.131L227.734 628.37L230.052 629.89L230.884 628.445L228.409 627.204L230.884 625.963L230.052 624.517L227.734 626.038L227.891 623.276H226.234L226.384 626.038L224.066 624.517L223.234 625.963L225.716 627.204L223.234 628.445L224.066 629.89L226.384 628.37L226.234 631.131H227.891ZM217.466 631.131L217.309 628.37L219.627 629.89L220.459 628.445L217.984 627.204L220.459 625.963L219.627 624.517L217.309 626.038L217.466 623.276H215.809L215.959 626.038L213.641 624.517L212.809 625.963L215.291 627.204L212.809 628.445L213.641 629.89L215.959 628.37L215.809 631.131H217.466ZM207.041 631.131L206.884 628.37L209.202 629.89L210.034 628.445L207.559 627.204L210.034 625.963L209.202 624.517L206.884 626.038L207.041 623.276H205.384L205.534 626.038L203.216 624.517L202.384 625.963L204.866 627.204L202.384 628.445L203.216 629.89L205.534 628.37L205.384 631.131H207.041ZM342.566 654.131L342.409 651.37L344.727 652.89L345.559 651.445L343.084 650.204L345.559 648.963L344.727 647.517L342.409 649.038L342.566 646.276H340.909L341.059 649.038L338.741 647.517L337.909 648.963L340.391 650.204L337.909 651.445L338.741 652.89L341.059 651.37L340.909 654.131H342.566ZM332.141 654.131L331.984 651.37L334.302 652.89L335.134 651.445L332.659 650.204L335.134 648.963L334.302 647.517L331.984 649.038L332.141 646.276H330.484L330.634 649.038L328.316 647.517L327.484 648.963L329.966 650.204L327.484 651.445L328.316 652.89L330.634 651.37L330.484 654.131H332.141ZM321.716 654.131L321.559 651.37L323.877 652.89L324.709 651.445L322.234 650.204L324.709 648.963L323.877 647.517L321.559 649.038L321.716 646.276H320.059L320.209 649.038L317.891 647.517L317.059 648.963L319.541 650.204L317.059 651.445L317.891 652.89L320.209 651.37L320.059 654.131H321.716ZM311.291 654.131L311.134 651.37L313.452 652.89L314.284 651.445L311.809 650.204L314.284 648.963L313.452 647.517L311.134 649.038L311.291 646.276H309.634L309.784 649.038L307.466 647.517L306.634 648.963L309.116 650.204L306.634 651.445L307.466 652.89L309.784 651.37L309.634 654.131H311.291ZM300.866 654.131L300.709 651.37L303.027 652.89L303.859 651.445L301.384 650.204L303.859 648.963L303.027 647.517L300.709 649.038L300.866 646.276H299.209L299.359 649.038L297.041 647.517L296.209 648.963L298.691 650.204L296.209 651.445L297.041 652.89L299.359 651.37L299.209 654.131H300.866ZM290.441 654.131L290.284 651.37L292.602 652.89L293.434 651.445L290.959 650.204L293.434 648.963L292.602 647.517L290.284 649.038L290.441 646.276H288.784L288.934 649.038L286.616 647.517L285.784 648.963L288.266 650.204L285.784 651.445L286.616 652.89L288.934 651.37L288.784 654.131H290.441ZM280.016 654.131L279.859 651.37L282.177 652.89L283.009 651.445L280.534 650.204L283.009 648.963L282.177 647.517L279.859 649.038L280.016 646.276H278.359L278.509 649.038L276.191 647.517L275.359 648.963L277.841 650.204L275.359 651.445L276.191 652.89L278.509 651.37L278.359 654.131H280.016ZM269.591 654.131L269.434 651.37L271.752 652.89L272.584 651.445L270.109 650.204L272.584 648.963L271.752 647.517L269.434 649.038L269.591 646.276H267.934L268.084 649.038L265.766 647.517L264.934 648.963L267.416 650.204L264.934 651.445L265.766 652.89L268.084 651.37L267.934 654.131H269.591ZM259.166 654.131L259.009 651.37L261.327 652.89L262.159 651.445L259.684 650.204L262.159 648.963L261.327 647.517L259.009 649.038L259.166 646.276H257.509L257.659 649.038L255.341 647.517L254.509 648.963L256.991 650.204L254.509 651.445L255.341 652.89L257.659 651.37L257.509 654.131H259.166ZM248.741 654.131L248.584 651.37L250.902 652.89L251.734 651.445L249.259 650.204L251.734 648.963L250.902 647.517L248.584 649.038L248.741 646.276H247.084L247.234 649.038L244.916 647.517L244.084 648.963L246.566 650.204L244.084 651.445L244.916 652.89L247.234 651.37L247.084 654.131H248.741ZM238.316 654.131L238.159 651.37L240.477 652.89L241.309 651.445L238.834 650.204L241.309 648.963L240.477 647.517L238.159 649.038L238.316 646.276H236.659L236.809 649.038L234.491 647.517L233.659 648.963L236.141 650.204L233.659 651.445L234.491 652.89L236.809 651.37L236.659 654.131H238.316ZM227.891 654.131L227.734 651.37L230.052 652.89L230.884 651.445L228.409 650.204L230.884 648.963L230.052 647.517L227.734 649.038L227.891 646.276H226.234L226.384 649.038L224.066 647.517L223.234 648.963L225.716 650.204L223.234 651.445L224.066 652.89L226.384 651.37L226.234 654.131H227.891ZM217.466 654.131L217.309 651.37L219.627 652.89L220.459 651.445L217.984 650.204L220.459 648.963L219.627 647.517L217.309 649.038L217.466 646.276H215.809L215.959 649.038L213.641 647.517L212.809 648.963L215.291 650.204L212.809 651.445L213.641 652.89L215.959 651.37L215.809 654.131H217.466ZM207.041 654.131L206.884 651.37L209.202 652.89L210.034 651.445L207.559 650.204L210.034 648.963L209.202 647.517L206.884 649.038L207.041 646.276H205.384L205.534 649.038L203.216 647.517L202.384 648.963L204.866 650.204L202.384 651.445L203.216 652.89L205.534 651.37L205.384 654.131H207.041ZM342.566 677.131L342.409 674.37L344.727 675.89L345.559 674.445L343.084 673.204L345.559 671.963L344.727 670.517L342.409 672.038L342.566 669.276H340.909L341.059 672.038L338.741 670.517L337.909 671.963L340.391 673.204L337.909 674.445L338.741 675.89L341.059 674.37L340.909 677.131H342.566ZM332.141 677.131L331.984 674.37L334.302 675.89L335.134 674.445L332.659 673.204L335.134 671.963L334.302 670.517L331.984 672.038L332.141 669.276H330.484L330.634 672.038L328.316 670.517L327.484 671.963L329.966 673.204L327.484 674.445L328.316 675.89L330.634 674.37L330.484 677.131H332.141ZM321.716 677.131L321.559 674.37L323.877 675.89L324.709 674.445L322.234 673.204L324.709 671.963L323.877 670.517L321.559 672.038L321.716 669.276H320.059L320.209 672.038L317.891 670.517L317.059 671.963L319.541 673.204L317.059 674.445L317.891 675.89L320.209 674.37L320.059 677.131H321.716ZM311.291 677.131L311.134 674.37L313.452 675.89L314.284 674.445L311.809 673.204L314.284 671.963L313.452 670.517L311.134 672.038L311.291 669.276H309.634L309.784 672.038L307.466 670.517L306.634 671.963L309.116 673.204L306.634 674.445L307.466 675.89L309.784 674.37L309.634 677.131H311.291ZM300.866 677.131L300.709 674.37L303.027 675.89L303.859 674.445L301.384 673.204L303.859 671.963L303.027 670.517L300.709 672.038L300.866 669.276H299.209L299.359 672.038L297.041 670.517L296.209 671.963L298.691 673.204L296.209 674.445L297.041 675.89L299.359 674.37L299.209 677.131H300.866ZM290.441 677.131L290.284 674.37L292.602 675.89L293.434 674.445L290.959 673.204L293.434 671.963L292.602 670.517L290.284 672.038L290.441 669.276H288.784L288.934 672.038L286.616 670.517L285.784 671.963L288.266 673.204L285.784 674.445L286.616 675.89L288.934 674.37L288.784 677.131H290.441ZM280.016 677.131L279.859 674.37L282.177 675.89L283.009 674.445L280.534 673.204L283.009 671.963L282.177 670.517L279.859 672.038L280.016 669.276H278.359L278.509 672.038L276.191 670.517L275.359 671.963L277.841 673.204L275.359 674.445L276.191 675.89L278.509 674.37L278.359 677.131H280.016ZM269.591 677.131L269.434 674.37L271.752 675.89L272.584 674.445L270.109 673.204L272.584 671.963L271.752 670.517L269.434 672.038L269.591 669.276H267.934L268.084 672.038L265.766 670.517L264.934 671.963L267.416 673.204L264.934 674.445L265.766 675.89L268.084 674.37L267.934 677.131H269.591ZM259.166 677.131L259.009 674.37L261.327 675.89L262.159 674.445L259.684 673.204L262.159 671.963L261.327 670.517L259.009 672.038L259.166 669.276H257.509L257.659 672.038L255.341 670.517L254.509 671.963L256.991 673.204L254.509 674.445L255.341 675.89L257.659 674.37L257.509 677.131H259.166ZM248.741 677.131L248.584 674.37L250.902 675.89L251.734 674.445L249.259 673.204L251.734 671.963L250.902 670.517L248.584 672.038L248.741 669.276H247.084L247.234 672.038L244.916 670.517L244.084 671.963L246.566 673.204L244.084 674.445L244.916 675.89L247.234 674.37L247.084 677.131H248.741ZM238.316 677.131L238.159 674.37L240.477 675.89L241.309 674.445L238.834 673.204L241.309 671.963L240.477 670.517L238.159 672.038L238.316 669.276H236.659L236.809 672.038L234.491 670.517L233.659 671.963L236.141 673.204L233.659 674.445L234.491 675.89L236.809 674.37L236.659 677.131H238.316ZM227.891 677.131L227.734 674.37L230.052 675.89L230.884 674.445L228.409 673.204L230.884 671.963L230.052 670.517L227.734 672.038L227.891 669.276H226.234L226.384 672.038L224.066 670.517L223.234 671.963L225.716 673.204L223.234 674.445L224.066 675.89L226.384 674.37L226.234 677.131H227.891ZM217.466 677.131L217.309 674.37L219.627 675.89L220.459 674.445L217.984 673.204L220.459 671.963L219.627 670.517L217.309 672.038L217.466 669.276H215.809L215.959 672.038L213.641 670.517L212.809 671.963L215.291 673.204L212.809 674.445L213.641 675.89L215.959 674.37L215.809 677.131H217.466ZM207.041 677.131L206.884 674.37L209.202 675.89L210.034 674.445L207.559 673.204L210.034 671.963L209.202 670.517L206.884 672.038L207.041 669.276H205.384L205.534 672.038L203.216 670.517L202.384 671.963L204.866 673.204L202.384 674.445L203.216 675.89L205.534 674.37L205.384 677.131H207.041ZM321.716 700.131L321.559 697.37L323.877 698.89L324.709 697.445L322.234 696.204L324.709 694.963L323.877 693.517L321.559 695.038L321.716 692.276H320.059L320.209 695.038L317.891 693.517L317.059 694.963L319.541 696.204L317.059 697.445L317.891 698.89L320.209 697.37L320.059 700.131H321.716ZM311.291 700.131L311.134 697.37L313.452 698.89L314.284 697.445L311.809 696.204L314.284 694.963L313.452 693.517L311.134 695.038L311.291 692.276H309.634L309.784 695.038L307.466 693.517L306.634 694.963L309.116 696.204L306.634 697.445L307.466 698.89L309.784 697.37L309.634 700.131H311.291ZM300.866 700.131L300.709 697.37L303.027 698.89L303.859 697.445L301.384 696.204L303.859 694.963L303.027 693.517L300.709 695.038L300.866 692.276H299.209L299.359 695.038L297.041 693.517L296.209 694.963L298.691 696.204L296.209 697.445L297.041 698.89L299.359 697.37L299.209 700.131H300.866ZM290.441 700.131L290.284 697.37L292.602 698.89L293.434 697.445L290.959 696.204L293.434 694.963L292.602 693.517L290.284 695.038L290.441 692.276H288.784L288.934 695.038L286.616 693.517L285.784 694.963L288.266 696.204L285.784 697.445L286.616 698.89L288.934 697.37L288.784 700.131H290.441ZM280.016 700.131L279.859 697.37L282.177 698.89L283.009 697.445L280.534 696.204L283.009 694.963L282.177 693.517L279.859 695.038L280.016 692.276H278.359L278.509 695.038L276.191 693.517L275.359 694.963L277.841 696.204L275.359 697.445L276.191 698.89L278.509 697.37L278.359 700.131H280.016ZM269.591 700.131L269.434 697.37L271.752 698.89L272.584 697.445L270.109 696.204L272.584 694.963L271.752 693.517L269.434 695.038L269.591 692.276H267.934L268.084 695.038L265.766 693.517L264.934 694.963L267.416 696.204L264.934 697.445L265.766 698.89L268.084 697.37L267.934 700.131H269.591ZM259.166 700.131L259.009 697.37L261.327 698.89L262.159 697.445L259.684 696.204L262.159 694.963L261.327 693.517L259.009 695.038L259.166 692.276H257.509L257.659 695.038L255.341 693.517L254.509 694.963L256.991 696.204L254.509 697.445L255.341 698.89L257.659 697.37L257.509 700.131H259.166ZM248.741 700.131L248.584 697.37L250.902 698.89L251.734 697.445L249.259 696.204L251.734 694.963L250.902 693.517L248.584 695.038L248.741 692.276H247.084L247.234 695.038L244.916 693.517L244.084 694.963L246.566 696.204L244.084 697.445L244.916 698.89L247.234 697.37L247.084 700.131H248.741ZM238.316 700.131L238.159 697.37L240.477 698.89L241.309 697.445L238.834 696.204L241.309 694.963L240.477 693.517L238.159 695.038L238.316 692.276H236.659L236.809 695.038L234.491 693.517L233.659 694.963L236.141 696.204L233.659 697.445L234.491 698.89L236.809 697.37L236.659 700.131H238.316ZM227.891 700.131L227.734 697.37L230.052 698.89L230.884 697.445L228.409 696.204L230.884 694.963L230.052 693.517L227.734 695.038L227.891 692.276H226.234L226.384 695.038L224.066 693.517L223.234 694.963L225.716 696.204L223.234 697.445L224.066 698.89L226.384 697.37L226.234 700.131H227.891ZM217.466 700.131L217.309 697.37L219.627 698.89L220.459 697.445L217.984 696.204L220.459 694.963L219.627 693.517L217.309 695.038L217.466 692.276H215.809L215.959 695.038L213.641 693.517L212.809 694.963L215.291 696.204L212.809 697.445L213.641 698.89L215.959 697.37L215.809 700.131H217.466ZM207.041 700.131L206.884 697.37L209.202 698.89L210.034 697.445L207.559 696.204L210.034 694.963L209.202 693.517L206.884 695.038L207.041 692.276H205.384L205.534 695.038L203.216 693.517L202.384 694.963L204.866 696.204L202.384 697.445L203.216 698.89L205.534 697.37L205.384 700.131H207.041ZM227.891 723.131L227.734 720.37L230.052 721.89L230.884 720.445L228.409 719.204L230.884 717.963L230.052 716.517L227.734 718.038L227.891 715.276H226.234L226.384 718.038L224.066 716.517L223.234 717.963L225.716 719.204L223.234 720.445L224.066 721.89L226.384 720.37L226.234 723.131H227.891ZM217.466 723.131L217.309 720.37L219.627 721.89L220.459 720.445L217.984 719.204L220.459 717.963L219.627 716.517L217.309 718.038L217.466 715.276H215.809L215.959 718.038L213.641 716.517L212.809 717.963L215.291 719.204L212.809 720.445L213.641 721.89L215.959 720.37L215.809 723.131H217.466ZM207.041 723.131L206.884 720.37L209.202 721.89L210.034 720.445L207.559 719.204L210.034 717.963L209.202 716.517L206.884 718.038L207.041 715.276H205.384L205.534 718.038L203.216 716.517L202.384 717.963L204.866 719.204L202.384 720.445L203.216 721.89L205.534 720.37L205.384 723.131H207.041Z" fill="black"/>
<path d="M-38 483.133L-38 93.2218L206.451 93.2218L206.451 13.2401L470 13.2401L470 354.927L206.451 354.927L206.451 527.24" stroke="black" stroke-width="0.8" stroke-dasharray="13.6 13.6"/>
<path d="M26.991 253.296L523.406 253.937L523.004 446.11L624.833 446.241L624.4 653.428L189.381 652.866L189.815 445.679L-29.5663 445.396" stroke="black" stroke-width="0.8" stroke-dasharray="13.6 13.6"/>
<path d="M1489.16 312.95L1149.98 312.779L1150.1 162.478L1080.52 162.443L1080.66 0.400157L1377.89 0.550162L1377.76 162.593L1527.65 162.669" stroke="black" stroke-width="0.8" stroke-dasharray="13.6 13.6"/>
<path d="M1532.24 687.475L1035.83 687.224L1035.99 495.051L934.157 495L934.327 287.813L1369.35 288.033L1369.18 495.219L1588.56 495.33" stroke="black" stroke-width="0.8" stroke-dasharray="13.6 13.6"/>
<path d="M1495.62 25.131L1495.46 22.3697L1497.78 23.8901L1498.61 22.4447L1496.13 21.2037L1498.61 19.9628L1497.78 18.5174L1495.46 20.0378L1495.62 17.2765H1493.96L1494.11 20.0378L1491.79 18.5174L1490.96 19.9628L1493.44 21.2037L1490.96 22.4447L1491.79 23.8901L1494.11 22.3697L1493.96 25.131H1495.62ZM1485.19 25.131L1485.03 22.3697L1487.35 23.8901L1488.18 22.4447L1485.71 21.2037L1488.18 19.9628L1487.35 18.5174L1485.03 20.0378L1485.19 17.2765H1483.53L1483.68 20.0378L1481.37 18.5174L1480.53 19.9628L1483.02 21.2037L1480.53 22.4447L1481.37 23.8901L1483.68 22.3697L1483.53 25.131H1485.19ZM1474.77 25.131L1474.61 22.3697L1476.93 23.8901L1477.76 22.4447L1475.28 21.2037L1477.76 19.9628L1476.93 18.5174L1474.61 20.0378L1474.77 17.2765H1473.11L1473.26 20.0378L1470.94 18.5174L1470.11 19.9628L1472.59 21.2037L1470.11 22.4447L1470.94 23.8901L1473.26 22.3697L1473.11 25.131H1474.77ZM1464.34 25.131L1464.18 22.3697L1466.5 23.8901L1467.33 22.4447L1464.86 21.2037L1467.33 19.9628L1466.5 18.5174L1464.18 20.0378L1464.34 17.2765H1462.68L1462.83 20.0378L1460.52 18.5174L1459.68 19.9628L1462.17 21.2037L1459.68 22.4447L1460.52 23.8901L1462.83 22.3697L1462.68 25.131H1464.34ZM1453.92 25.131L1453.76 22.3697L1456.08 23.8901L1456.91 22.4447L1454.43 21.2037L1456.91 19.9628L1456.08 18.5174L1453.76 20.0378L1453.92 17.2765H1452.26L1452.41 20.0378L1450.09 18.5174L1449.26 19.9628L1451.74 21.2037L1449.26 22.4447L1450.09 23.8901L1452.41 22.3697L1452.26 25.131H1453.92ZM1443.49 25.131L1443.33 22.3697L1445.65 23.8901L1446.48 22.4447L1444.01 21.2037L1446.48 19.9628L1445.65 18.5174L1443.33 20.0378L1443.49 17.2765H1441.83L1441.98 20.0378L1439.67 18.5174L1438.83 19.9628L1441.32 21.2037L1438.83 22.4447L1439.67 23.8901L1441.98 22.3697L1441.83 25.131H1443.49ZM1433.07 25.131L1432.91 22.3697L1435.23 23.8901L1436.06 22.4447L1433.58 21.2037L1436.06 19.9628L1435.23 18.5174L1432.91 20.0378L1433.07 17.2765H1431.41L1431.56 20.0378L1429.24 18.5174L1428.41 19.9628L1430.89 21.2037L1428.41 22.4447L1429.24 23.8901L1431.56 22.3697L1431.41 25.131H1433.07ZM1422.64 25.131L1422.48 22.3697L1424.8 23.8901L1425.63 22.4447L1423.16 21.2037L1425.63 19.9628L1424.8 18.5174L1422.48 20.0378L1422.64 17.2765H1420.98L1421.13 20.0378L1418.82 18.5174L1417.98 19.9628L1420.47 21.2037L1417.98 22.4447L1418.82 23.8901L1421.13 22.3697L1420.98 25.131H1422.64ZM1412.22 25.131L1412.06 22.3697L1414.38 23.8901L1415.21 22.4447L1412.73 21.2037L1415.21 19.9628L1414.38 18.5174L1412.06 20.0378L1412.22 17.2765H1410.56L1410.71 20.0378L1408.39 18.5174L1407.56 19.9628L1410.04 21.2037L1407.56 22.4447L1408.39 23.8901L1410.71 22.3697L1410.56 25.131H1412.22ZM1401.79 25.131L1401.63 22.3697L1403.95 23.8901L1404.78 22.4447L1402.31 21.2037L1404.78 19.9628L1403.95 18.5174L1401.63 20.0378L1401.79 17.2765H1400.13L1400.28 20.0378L1397.97 18.5174L1397.13 19.9628L1399.62 21.2037L1397.13 22.4447L1397.97 23.8901L1400.28 22.3697L1400.13 25.131H1401.79ZM1391.37 25.131L1391.21 22.3697L1393.53 23.8901L1394.36 22.4447L1391.88 21.2037L1394.36 19.9628L1393.53 18.5174L1391.21 20.0378L1391.37 17.2765H1389.71L1389.86 20.0378L1387.54 18.5174L1386.71 19.9628L1389.19 21.2037L1386.71 22.4447L1387.54 23.8901L1389.86 22.3697L1389.71 25.131H1391.37ZM1380.94 25.131L1380.78 22.3697L1383.1 23.8901L1383.93 22.4447L1381.46 21.2037L1383.93 19.9628L1383.1 18.5174L1380.78 20.0378L1380.94 17.2765H1379.28L1379.43 20.0378L1377.12 18.5174L1376.28 19.9628L1378.77 21.2037L1376.28 22.4447L1377.12 23.8901L1379.43 22.3697L1379.28 25.131H1380.94ZM1370.52 25.131L1370.36 22.3697L1372.68 23.8901L1373.51 22.4447L1371.03 21.2037L1373.51 19.9628L1372.68 18.5174L1370.36 20.0378L1370.52 17.2765H1368.86L1369.01 20.0378L1366.69 18.5174L1365.86 19.9628L1368.34 21.2037L1365.86 22.4447L1366.69 23.8901L1369.01 22.3697L1368.86 25.131H1370.52ZM1360.09 25.131L1359.93 22.3697L1362.25 23.8901L1363.08 22.4447L1360.61 21.2037L1363.08 19.9628L1362.25 18.5174L1359.93 20.0378L1360.09 17.2765H1358.43L1358.58 20.0378L1356.27 18.5174L1355.43 19.9628L1357.92 21.2037L1355.43 22.4447L1356.27 23.8901L1358.58 22.3697L1358.43 25.131H1360.09ZM1495.62 48.131L1495.46 45.3697L1497.78 46.8901L1498.61 45.4447L1496.13 44.2037L1498.61 42.9628L1497.78 41.5174L1495.46 43.0378L1495.62 40.2765H1493.96L1494.11 43.0378L1491.79 41.5174L1490.96 42.9628L1493.44 44.2037L1490.96 45.4447L1491.79 46.8901L1494.11 45.3697L1493.96 48.131H1495.62ZM1485.19 48.131L1485.03 45.3697L1487.35 46.8901L1488.18 45.4447L1485.71 44.2037L1488.18 42.9628L1487.35 41.5174L1485.03 43.0378L1485.19 40.2765H1483.53L1483.68 43.0378L1481.37 41.5174L1480.53 42.9628L1483.02 44.2037L1480.53 45.4447L1481.37 46.8901L1483.68 45.3697L1483.53 48.131H1485.19ZM1474.77 48.131L1474.61 45.3697L1476.93 46.8901L1477.76 45.4447L1475.28 44.2037L1477.76 42.9628L1476.93 41.5174L1474.61 43.0378L1474.77 40.2765H1473.11L1473.26 43.0378L1470.94 41.5174L1470.11 42.9628L1472.59 44.2037L1470.11 45.4447L1470.94 46.8901L1473.26 45.3697L1473.11 48.131H1474.77ZM1464.34 48.131L1464.18 45.3697L1466.5 46.8901L1467.33 45.4447L1464.86 44.2037L1467.33 42.9628L1466.5 41.5174L1464.18 43.0378L1464.34 40.2765H1462.68L1462.83 43.0378L1460.52 41.5174L1459.68 42.9628L1462.17 44.2037L1459.68 45.4447L1460.52 46.8901L1462.83 45.3697L1462.68 48.131H1464.34ZM1453.92 48.131L1453.76 45.3697L1456.08 46.8901L1456.91 45.4447L1454.43 44.2037L1456.91 42.9628L1456.08 41.5174L1453.76 43.0378L1453.92 40.2765H1452.26L1452.41 43.0378L1450.09 41.5174L1449.26 42.9628L1451.74 44.2037L1449.26 45.4447L1450.09 46.8901L1452.41 45.3697L1452.26 48.131H1453.92ZM1443.49 48.131L1443.33 45.3697L1445.65 46.8901L1446.48 45.4447L1444.01 44.2037L1446.48 42.9628L1445.65 41.5174L1443.33 43.0378L1443.49 40.2765H1441.83L1441.98 43.0378L1439.67 41.5174L1438.83 42.9628L1441.32 44.2037L1438.83 45.4447L1439.67 46.8901L1441.98 45.3697L1441.83 48.131H1443.49ZM1433.07 48.131L1432.91 45.3697L1435.23 46.8901L1436.06 45.4447L1433.58 44.2037L1436.06 42.9628L1435.23 41.5174L1432.91 43.0378L1433.07 40.2765H1431.41L1431.56 43.0378L1429.24 41.5174L1428.41 42.9628L1430.89 44.2037L1428.41 45.4447L1429.24 46.8901L1431.56 45.3697L1431.41 48.131H1433.07ZM1422.64 48.131L1422.48 45.3697L1424.8 46.8901L1425.63 45.4447L1423.16 44.2037L1425.63 42.9628L1424.8 41.5174L1422.48 43.0378L1422.64 40.2765H1420.98L1421.13 43.0378L1418.82 41.5174L1417.98 42.9628L1420.47 44.2037L1417.98 45.4447L1418.82 46.8901L1421.13 45.3697L1420.98 48.131H1422.64ZM1412.22 48.131L1412.06 45.3697L1414.38 46.8901L1415.21 45.4447L1412.73 44.2037L1415.21 42.9628L1414.38 41.5174L1412.06 43.0378L1412.22 40.2765H1410.56L1410.71 43.0378L1408.39 41.5174L1407.56 42.9628L1410.04 44.2037L1407.56 45.4447L1408.39 46.8901L1410.71 45.3697L1410.56 48.131H1412.22ZM1401.79 48.131L1401.63 45.3697L1403.95 46.8901L1404.78 45.4447L1402.31 44.2037L1404.78 42.9628L1403.95 41.5174L1401.63 43.0378L1401.79 40.2765H1400.13L1400.28 43.0378L1397.97 41.5174L1397.13 42.9628L1399.62 44.2037L1397.13 45.4447L1397.97 46.8901L1400.28 45.3697L1400.13 48.131H1401.79ZM1391.37 48.131L1391.21 45.3697L1393.53 46.8901L1394.36 45.4447L1391.88 44.2037L1394.36 42.9628L1393.53 41.5174L1391.21 43.0378L1391.37 40.2765H1389.71L1389.86 43.0378L1387.54 41.5174L1386.71 42.9628L1389.19 44.2037L1386.71 45.4447L1387.54 46.8901L1389.86 45.3697L1389.71 48.131H1391.37ZM1380.94 48.131L1380.78 45.3697L1383.1 46.8901L1383.93 45.4447L1381.46 44.2037L1383.93 42.9628L1383.1 41.5174L1380.78 43.0378L1380.94 40.2765H1379.28L1379.43 43.0378L1377.12 41.5174L1376.28 42.9628L1378.77 44.2037L1376.28 45.4447L1377.12 46.8901L1379.43 45.3697L1379.28 48.131H1380.94ZM1370.52 48.131L1370.36 45.3697L1372.68 46.8901L1373.51 45.4447L1371.03 44.2037L1373.51 42.9628L1372.68 41.5174L1370.36 43.0378L1370.52 40.2765H1368.86L1369.01 43.0378L1366.69 41.5174L1365.86 42.9628L1368.34 44.2037L1365.86 45.4447L1366.69 46.8901L1369.01 45.3697L1368.86 48.131H1370.52ZM1360.09 48.131L1359.93 45.3697L1362.25 46.8901L1363.08 45.4447L1360.61 44.2037L1363.08 42.9628L1362.25 41.5174L1359.93 43.0378L1360.09 40.2765H1358.43L1358.58 43.0378L1356.27 41.5174L1355.43 42.9628L1357.92 44.2037L1355.43 45.4447L1356.27 46.8901L1358.58 45.3697L1358.43 48.131H1360.09ZM1495.62 71.131L1495.46 68.3697L1497.78 69.8901L1498.61 68.4447L1496.13 67.2037L1498.61 65.9628L1497.78 64.5174L1495.46 66.0378L1495.62 63.2765H1493.96L1494.11 66.0378L1491.79 64.5174L1490.96 65.9628L1493.44 67.2037L1490.96 68.4447L1491.79 69.8901L1494.11 68.3697L1493.96 71.131H1495.62ZM1485.19 71.131L1485.03 68.3697L1487.35 69.8901L1488.18 68.4447L1485.71 67.2037L1488.18 65.9628L1487.35 64.5174L1485.03 66.0378L1485.19 63.2765H1483.53L1483.68 66.0378L1481.37 64.5174L1480.53 65.9628L1483.02 67.2037L1480.53 68.4447L1481.37 69.8901L1483.68 68.3697L1483.53 71.131H1485.19ZM1474.77 71.131L1474.61 68.3697L1476.93 69.8901L1477.76 68.4447L1475.28 67.2037L1477.76 65.9628L1476.93 64.5174L1474.61 66.0378L1474.77 63.2765H1473.11L1473.26 66.0378L1470.94 64.5174L1470.11 65.9628L1472.59 67.2037L1470.11 68.4447L1470.94 69.8901L1473.26 68.3697L1473.11 71.131H1474.77ZM1464.34 71.131L1464.18 68.3697L1466.5 69.8901L1467.33 68.4447L1464.86 67.2037L1467.33 65.9628L1466.5 64.5174L1464.18 66.0378L1464.34 63.2765H1462.68L1462.83 66.0378L1460.52 64.5174L1459.68 65.9628L1462.17 67.2037L1459.68 68.4447L1460.52 69.8901L1462.83 68.3697L1462.68 71.131H1464.34ZM1453.92 71.131L1453.76 68.3697L1456.08 69.8901L1456.91 68.4447L1454.43 67.2037L1456.91 65.9628L1456.08 64.5174L1453.76 66.0378L1453.92 63.2765H1452.26L1452.41 66.0378L1450.09 64.5174L1449.26 65.9628L1451.74 67.2037L1449.26 68.4447L1450.09 69.8901L1452.41 68.3697L1452.26 71.131H1453.92ZM1443.49 71.131L1443.33 68.3697L1445.65 69.8901L1446.48 68.4447L1444.01 67.2037L1446.48 65.9628L1445.65 64.5174L1443.33 66.0378L1443.49 63.2765H1441.83L1441.98 66.0378L1439.67 64.5174L1438.83 65.9628L1441.32 67.2037L1438.83 68.4447L1439.67 69.8901L1441.98 68.3697L1441.83 71.131H1443.49ZM1433.07 71.131L1432.91 68.3697L1435.23 69.8901L1436.06 68.4447L1433.58 67.2037L1436.06 65.9628L1435.23 64.5174L1432.91 66.0378L1433.07 63.2765H1431.41L1431.56 66.0378L1429.24 64.5174L1428.41 65.9628L1430.89 67.2037L1428.41 68.4447L1429.24 69.8901L1431.56 68.3697L1431.41 71.131H1433.07ZM1422.64 71.131L1422.48 68.3697L1424.8 69.8901L1425.63 68.4447L1423.16 67.2037L1425.63 65.9628L1424.8 64.5174L1422.48 66.0378L1422.64 63.2765H1420.98L1421.13 66.0378L1418.82 64.5174L1417.98 65.9628L1420.47 67.2037L1417.98 68.4447L1418.82 69.8901L1421.13 68.3697L1420.98 71.131H1422.64ZM1412.22 71.131L1412.06 68.3697L1414.38 69.8901L1415.21 68.4447L1412.73 67.2037L1415.21 65.9628L1414.38 64.5174L1412.06 66.0378L1412.22 63.2765H1410.56L1410.71 66.0378L1408.39 64.5174L1407.56 65.9628L1410.04 67.2037L1407.56 68.4447L1408.39 69.8901L1410.71 68.3697L1410.56 71.131H1412.22ZM1401.79 71.131L1401.63 68.3697L1403.95 69.8901L1404.78 68.4447L1402.31 67.2037L1404.78 65.9628L1403.95 64.5174L1401.63 66.0378L1401.79 63.2765H1400.13L1400.28 66.0378L1397.97 64.5174L1397.13 65.9628L1399.62 67.2037L1397.13 68.4447L1397.97 69.8901L1400.28 68.3697L1400.13 71.131H1401.79ZM1391.37 71.131L1391.21 68.3697L1393.53 69.8901L1394.36 68.4447L1391.88 67.2037L1394.36 65.9628L1393.53 64.5174L1391.21 66.0378L1391.37 63.2765H1389.71L1389.86 66.0378L1387.54 64.5174L1386.71 65.9628L1389.19 67.2037L1386.71 68.4447L1387.54 69.8901L1389.86 68.3697L1389.71 71.131H1391.37ZM1380.94 71.131L1380.78 68.3697L1383.1 69.8901L1383.93 68.4447L1381.46 67.2037L1383.93 65.9628L1383.1 64.5174L1380.78 66.0378L1380.94 63.2765H1379.28L1379.43 66.0378L1377.12 64.5174L1376.28 65.9628L1378.77 67.2037L1376.28 68.4447L1377.12 69.8901L1379.43 68.3697L1379.28 71.131H1380.94ZM1370.52 71.131L1370.36 68.3697L1372.68 69.8901L1373.51 68.4447L1371.03 67.2037L1373.51 65.9628L1372.68 64.5174L1370.36 66.0378L1370.52 63.2765H1368.86L1369.01 66.0378L1366.69 64.5174L1365.86 65.9628L1368.34 67.2037L1365.86 68.4447L1366.69 69.8901L1369.01 68.3697L1368.86 71.131H1370.52ZM1360.09 71.131L1359.93 68.3697L1362.25 69.8901L1363.08 68.4447L1360.61 67.2037L1363.08 65.9628L1362.25 64.5174L1359.93 66.0378L1360.09 63.2765H1358.43L1358.58 66.0378L1356.27 64.5174L1355.43 65.9628L1357.92 67.2037L1355.43 68.4447L1356.27 69.8901L1358.58 68.3697L1358.43 71.131H1360.09ZM1495.62 94.131L1495.46 91.3697L1497.78 92.8901L1498.61 91.4447L1496.13 90.2037L1498.61 88.9628L1497.78 87.5174L1495.46 89.0378L1495.62 86.2765H1493.96L1494.11 89.0378L1491.79 87.5174L1490.96 88.9628L1493.44 90.2037L1490.96 91.4447L1491.79 92.8901L1494.11 91.3697L1493.96 94.131H1495.62ZM1485.19 94.131L1485.03 91.3697L1487.35 92.8901L1488.18 91.4447L1485.71 90.2037L1488.18 88.9628L1487.35 87.5174L1485.03 89.0378L1485.19 86.2765H1483.53L1483.68 89.0378L1481.37 87.5174L1480.53 88.9628L1483.02 90.2037L1480.53 91.4447L1481.37 92.8901L1483.68 91.3697L1483.53 94.131H1485.19ZM1474.77 94.131L1474.61 91.3697L1476.93 92.8901L1477.76 91.4447L1475.28 90.2037L1477.76 88.9628L1476.93 87.5174L1474.61 89.0378L1474.77 86.2765H1473.11L1473.26 89.0378L1470.94 87.5174L1470.11 88.9628L1472.59 90.2037L1470.11 91.4447L1470.94 92.8901L1473.26 91.3697L1473.11 94.131H1474.77ZM1464.34 94.131L1464.18 91.3697L1466.5 92.8901L1467.33 91.4447L1464.86 90.2037L1467.33 88.9628L1466.5 87.5174L1464.18 89.0378L1464.34 86.2765H1462.68L1462.83 89.0378L1460.52 87.5174L1459.68 88.9628L1462.17 90.2037L1459.68 91.4447L1460.52 92.8901L1462.83 91.3697L1462.68 94.131H1464.34ZM1453.92 94.131L1453.76 91.3697L1456.08 92.8901L1456.91 91.4447L1454.43 90.2037L1456.91 88.9628L1456.08 87.5174L1453.76 89.0378L1453.92 86.2765H1452.26L1452.41 89.0378L1450.09 87.5174L1449.26 88.9628L1451.74 90.2037L1449.26 91.4447L1450.09 92.8901L1452.41 91.3697L1452.26 94.131H1453.92ZM1443.49 94.131L1443.33 91.3697L1445.65 92.8901L1446.48 91.4447L1444.01 90.2037L1446.48 88.9628L1445.65 87.5174L1443.33 89.0378L1443.49 86.2765H1441.83L1441.98 89.0378L1439.67 87.5174L1438.83 88.9628L1441.32 90.2037L1438.83 91.4447L1439.67 92.8901L1441.98 91.3697L1441.83 94.131H1443.49ZM1433.07 94.131L1432.91 91.3697L1435.23 92.8901L1436.06 91.4447L1433.58 90.2037L1436.06 88.9628L1435.23 87.5174L1432.91 89.0378L1433.07 86.2765H1431.41L1431.56 89.0378L1429.24 87.5174L1428.41 88.9628L1430.89 90.2037L1428.41 91.4447L1429.24 92.8901L1431.56 91.3697L1431.41 94.131H1433.07ZM1422.64 94.131L1422.48 91.3697L1424.8 92.8901L1425.63 91.4447L1423.16 90.2037L1425.63 88.9628L1424.8 87.5174L1422.48 89.0378L1422.64 86.2765H1420.98L1421.13 89.0378L1418.82 87.5174L1417.98 88.9628L1420.47 90.2037L1417.98 91.4447L1418.82 92.8901L1421.13 91.3697L1420.98 94.131H1422.64ZM1412.22 94.131L1412.06 91.3697L1414.38 92.8901L1415.21 91.4447L1412.73 90.2037L1415.21 88.9628L1414.38 87.5174L1412.06 89.0378L1412.22 86.2765H1410.56L1410.71 89.0378L1408.39 87.5174L1407.56 88.9628L1410.04 90.2037L1407.56 91.4447L1408.39 92.8901L1410.71 91.3697L1410.56 94.131H1412.22ZM1401.79 94.131L1401.63 91.3697L1403.95 92.8901L1404.78 91.4447L1402.31 90.2037L1404.78 88.9628L1403.95 87.5174L1401.63 89.0378L1401.79 86.2765H1400.13L1400.28 89.0378L1397.97 87.5174L1397.13 88.9628L1399.62 90.2037L1397.13 91.4447L1397.97 92.8901L1400.28 91.3697L1400.13 94.131H1401.79ZM1391.37 94.131L1391.21 91.3697L1393.53 92.8901L1394.36 91.4447L1391.88 90.2037L1394.36 88.9628L1393.53 87.5174L1391.21 89.0378L1391.37 86.2765H1389.71L1389.86 89.0378L1387.54 87.5174L1386.71 88.9628L1389.19 90.2037L1386.71 91.4447L1387.54 92.8901L1389.86 91.3697L1389.71 94.131H1391.37ZM1380.94 94.131L1380.78 91.3697L1383.1 92.8901L1383.93 91.4447L1381.46 90.2037L1383.93 88.9628L1383.1 87.5174L1380.78 89.0378L1380.94 86.2765H1379.28L1379.43 89.0378L1377.12 87.5174L1376.28 88.9628L1378.77 90.2037L1376.28 91.4447L1377.12 92.8901L1379.43 91.3697L1379.28 94.131H1380.94ZM1370.52 94.131L1370.36 91.3697L1372.68 92.8901L1373.51 91.4447L1371.03 90.2037L1373.51 88.9628L1372.68 87.5174L1370.36 89.0378L1370.52 86.2765H1368.86L1369.01 89.0378L1366.69 87.5174L1365.86 88.9628L1368.34 90.2037L1365.86 91.4447L1366.69 92.8901L1369.01 91.3697L1368.86 94.131H1370.52ZM1360.09 94.131L1359.93 91.3697L1362.25 92.8901L1363.08 91.4447L1360.61 90.2037L1363.08 88.9628L1362.25 87.5174L1359.93 89.0378L1360.09 86.2765H1358.43L1358.58 89.0378L1356.27 87.5174L1355.43 88.9628L1357.92 90.2037L1355.43 91.4447L1356.27 92.8901L1358.58 91.3697L1358.43 94.131H1360.09ZM1495.62 117.131L1495.46 114.37L1497.78 115.89L1498.61 114.445L1496.13 113.204L1498.61 111.963L1497.78 110.517L1495.46 112.038L1495.62 109.276H1493.96L1494.11 112.038L1491.79 110.517L1490.96 111.963L1493.44 113.204L1490.96 114.445L1491.79 115.89L1494.11 114.37L1493.96 117.131H1495.62ZM1485.19 117.131L1485.03 114.37L1487.35 115.89L1488.18 114.445L1485.71 113.204L1488.18 111.963L1487.35 110.517L1485.03 112.038L1485.19 109.276H1483.53L1483.68 112.038L1481.37 110.517L1480.53 111.963L1483.02 113.204L1480.53 114.445L1481.37 115.89L1483.68 114.37L1483.53 117.131H1485.19ZM1474.77 117.131L1474.61 114.37L1476.93 115.89L1477.76 114.445L1475.28 113.204L1477.76 111.963L1476.93 110.517L1474.61 112.038L1474.77 109.276H1473.11L1473.26 112.038L1470.94 110.517L1470.11 111.963L1472.59 113.204L1470.11 114.445L1470.94 115.89L1473.26 114.37L1473.11 117.131H1474.77ZM1464.34 117.131L1464.18 114.37L1466.5 115.89L1467.33 114.445L1464.86 113.204L1467.33 111.963L1466.5 110.517L1464.18 112.038L1464.34 109.276H1462.68L1462.83 112.038L1460.52 110.517L1459.68 111.963L1462.17 113.204L1459.68 114.445L1460.52 115.89L1462.83 114.37L1462.68 117.131H1464.34ZM1453.92 117.131L1453.76 114.37L1456.08 115.89L1456.91 114.445L1454.43 113.204L1456.91 111.963L1456.08 110.517L1453.76 112.038L1453.92 109.276H1452.26L1452.41 112.038L1450.09 110.517L1449.26 111.963L1451.74 113.204L1449.26 114.445L1450.09 115.89L1452.41 114.37L1452.26 117.131H1453.92ZM1443.49 117.131L1443.33 114.37L1445.65 115.89L1446.48 114.445L1444.01 113.204L1446.48 111.963L1445.65 110.517L1443.33 112.038L1443.49 109.276H1441.83L1441.98 112.038L1439.67 110.517L1438.83 111.963L1441.32 113.204L1438.83 114.445L1439.67 115.89L1441.98 114.37L1441.83 117.131H1443.49ZM1433.07 117.131L1432.91 114.37L1435.23 115.89L1436.06 114.445L1433.58 113.204L1436.06 111.963L1435.23 110.517L1432.91 112.038L1433.07 109.276H1431.41L1431.56 112.038L1429.24 110.517L1428.41 111.963L1430.89 113.204L1428.41 114.445L1429.24 115.89L1431.56 114.37L1431.41 117.131H1433.07ZM1422.64 117.131L1422.48 114.37L1424.8 115.89L1425.63 114.445L1423.16 113.204L1425.63 111.963L1424.8 110.517L1422.48 112.038L1422.64 109.276H1420.98L1421.13 112.038L1418.82 110.517L1417.98 111.963L1420.47 113.204L1417.98 114.445L1418.82 115.89L1421.13 114.37L1420.98 117.131H1422.64ZM1412.22 117.131L1412.06 114.37L1414.38 115.89L1415.21 114.445L1412.73 113.204L1415.21 111.963L1414.38 110.517L1412.06 112.038L1412.22 109.276H1410.56L1410.71 112.038L1408.39 110.517L1407.56 111.963L1410.04 113.204L1407.56 114.445L1408.39 115.89L1410.71 114.37L1410.56 117.131H1412.22ZM1401.79 117.131L1401.63 114.37L1403.95 115.89L1404.78 114.445L1402.31 113.204L1404.78 111.963L1403.95 110.517L1401.63 112.038L1401.79 109.276H1400.13L1400.28 112.038L1397.97 110.517L1397.13 111.963L1399.62 113.204L1397.13 114.445L1397.97 115.89L1400.28 114.37L1400.13 117.131H1401.79ZM1391.37 117.131L1391.21 114.37L1393.53 115.89L1394.36 114.445L1391.88 113.204L1394.36 111.963L1393.53 110.517L1391.21 112.038L1391.37 109.276H1389.71L1389.86 112.038L1387.54 110.517L1386.71 111.963L1389.19 113.204L1386.71 114.445L1387.54 115.89L1389.86 114.37L1389.71 117.131H1391.37ZM1380.94 117.131L1380.78 114.37L1383.1 115.89L1383.93 114.445L1381.46 113.204L1383.93 111.963L1383.1 110.517L1380.78 112.038L1380.94 109.276H1379.28L1379.43 112.038L1377.12 110.517L1376.28 111.963L1378.77 113.204L1376.28 114.445L1377.12 115.89L1379.43 114.37L1379.28 117.131H1380.94ZM1495.62 140.131L1495.46 137.37L1497.78 138.89L1498.61 137.445L1496.13 136.204L1498.61 134.963L1497.78 133.517L1495.46 135.038L1495.62 132.276H1493.96L1494.11 135.038L1491.79 133.517L1490.96 134.963L1493.44 136.204L1490.96 137.445L1491.79 138.89L1494.11 137.37L1493.96 140.131H1495.62ZM1485.19 140.131L1485.03 137.37L1487.35 138.89L1488.18 137.445L1485.71 136.204L1488.18 134.963L1487.35 133.517L1485.03 135.038L1485.19 132.276H1483.53L1483.68 135.038L1481.37 133.517L1480.53 134.963L1483.02 136.204L1480.53 137.445L1481.37 138.89L1483.68 137.37L1483.53 140.131H1485.19ZM1474.77 140.131L1474.61 137.37L1476.93 138.89L1477.76 137.445L1475.28 136.204L1477.76 134.963L1476.93 133.517L1474.61 135.038L1474.77 132.276H1473.11L1473.26 135.038L1470.94 133.517L1470.11 134.963L1472.59 136.204L1470.11 137.445L1470.94 138.89L1473.26 137.37L1473.11 140.131H1474.77Z" fill="black"/>
</svg>
