<svg width="2034" height="1123" viewBox="0 0 2034 1123" fill="none" xmlns="http://www.w3.org/2000/svg">
<path d="M476.457 963.864L476.261 960.412L479.159 962.312L480.199 960.506L477.105 958.955L480.199 957.403L479.159 955.597L476.261 957.497L476.457 954.045H474.386L474.574 957.497L471.676 955.597L470.636 957.403L473.739 958.955L470.636 960.506L471.676 962.312L474.574 960.412L474.386 963.864H476.457ZM463.426 963.864L463.23 960.412L466.128 962.312L467.167 960.506L464.074 958.955L467.167 957.403L466.128 955.597L463.23 957.497L463.426 954.045H461.355L461.542 957.497L458.645 955.597L457.605 957.403L460.707 958.955L457.605 960.506L458.645 962.312L461.542 960.412L461.355 963.864H463.426ZM450.395 963.864L450.199 960.412L453.096 962.312L454.136 960.506L451.042 958.955L454.136 957.403L453.096 955.597L450.199 957.497L450.395 954.045H448.324L448.511 957.497L445.614 955.597L444.574 957.403L447.676 958.955L444.574 960.506L445.614 962.312L448.511 960.412L448.324 963.864H450.395ZM437.364 963.864L437.167 960.412L440.065 962.312L441.105 960.506L438.011 958.955L441.105 957.403L440.065 955.597L437.167 957.497L437.364 954.045H435.292L435.48 957.497L432.582 955.597L431.542 957.403L434.645 958.955L431.542 960.506L432.582 962.312L435.48 960.412L435.292 963.864H437.364ZM424.332 963.864L424.136 960.412L427.034 962.312L428.074 960.506L424.98 958.955L428.074 957.403L427.034 955.597L424.136 957.497L424.332 954.045H422.261L422.449 957.497L419.551 955.597L418.511 957.403L421.614 958.955L418.511 960.506L419.551 962.312L422.449 960.412L422.261 963.864H424.332ZM411.301 963.864L411.105 960.412L414.003 962.312L415.042 960.506L411.949 958.955L415.042 957.403L414.003 955.597L411.105 957.497L411.301 954.045H409.23L409.417 957.497L406.52 955.597L405.48 957.403L408.582 958.955L405.48 960.506L406.52 962.312L409.417 960.412L409.23 963.864H411.301ZM398.27 963.864L398.074 960.412L400.971 962.312L402.011 960.506L398.917 958.955L402.011 957.403L400.971 955.597L398.074 957.497L398.27 954.045H396.199L396.386 957.497L393.489 955.597L392.449 957.403L395.551 958.955L392.449 960.506L393.489 962.312L396.386 960.412L396.199 963.864H398.27ZM385.239 963.864L385.042 960.412L387.94 962.312L388.98 960.506L385.886 958.955L388.98 957.403L387.94 955.597L385.042 957.497L385.239 954.045H383.167L383.355 957.497L380.457 955.597L379.417 957.403L382.52 958.955L379.417 960.506L380.457 962.312L383.355 960.412L383.167 963.864H385.239ZM372.207 963.864L372.011 960.412L374.909 962.312L375.949 960.506L372.855 958.955L375.949 957.403L374.909 955.597L372.011 957.497L372.207 954.045H370.136L370.324 957.497L367.426 955.597L366.386 957.403L369.489 958.955L366.386 960.506L367.426 962.312L370.324 960.412L370.136 963.864H372.207ZM359.176 963.864L358.98 960.412L361.878 962.312L362.917 960.506L359.824 958.955L362.917 957.403L361.878 955.597L358.98 957.497L359.176 954.045H357.105L357.292 957.497L354.395 955.597L353.355 957.403L356.457 958.955L353.355 960.506L354.395 962.312L357.292 960.412L357.105 963.864H359.176ZM346.145 963.864L345.949 960.412L348.846 962.312L349.886 960.506L346.792 958.955L349.886 957.403L348.846 955.597L345.949 957.497L346.145 954.045H344.074L344.261 957.497L341.364 955.597L340.324 957.403L343.426 958.955L340.324 960.506L341.364 962.312L344.261 960.412L344.074 963.864H346.145ZM333.114 963.864L332.917 960.412L335.815 962.312L336.855 960.506L333.761 958.955L336.855 957.403L335.815 955.597L332.917 957.497L333.114 954.045H331.042L331.23 957.497L328.332 955.597L327.292 957.403L330.395 958.955L327.292 960.506L328.332 962.312L331.23 960.412L331.042 963.864H333.114ZM320.082 963.864L319.886 960.412L322.784 962.312L323.824 960.506L320.73 958.955L323.824 957.403L322.784 955.597L319.886 957.497L320.082 954.045H318.011L318.199 957.497L315.301 955.597L314.261 957.403L317.364 958.955L314.261 960.506L315.301 962.312L318.199 960.412L318.011 963.864H320.082ZM307.051 963.864L306.855 960.412L309.753 962.312L310.792 960.506L307.699 958.955L310.792 957.403L309.753 955.597L306.855 957.497L307.051 954.045H304.98L305.167 957.497L302.27 955.597L301.23 957.403L304.332 958.955L301.23 960.506L302.27 962.312L305.167 960.412L304.98 963.864H307.051ZM476.457 992.864L476.261 989.412L479.159 991.312L480.199 989.506L477.105 987.955L480.199 986.403L479.159 984.597L476.261 986.497L476.457 983.045H474.386L474.574 986.497L471.676 984.597L470.636 986.403L473.739 987.955L470.636 989.506L471.676 991.312L474.574 989.412L474.386 992.864H476.457ZM463.426 992.864L463.23 989.412L466.128 991.312L467.167 989.506L464.074 987.955L467.167 986.403L466.128 984.597L463.23 986.497L463.426 983.045H461.355L461.542 986.497L458.645 984.597L457.605 986.403L460.707 987.955L457.605 989.506L458.645 991.312L461.542 989.412L461.355 992.864H463.426ZM450.395 992.864L450.199 989.412L453.096 991.312L454.136 989.506L451.042 987.955L454.136 986.403L453.096 984.597L450.199 986.497L450.395 983.045H448.324L448.511 986.497L445.614 984.597L444.574 986.403L447.676 987.955L444.574 989.506L445.614 991.312L448.511 989.412L448.324 992.864H450.395ZM437.364 992.864L437.167 989.412L440.065 991.312L441.105 989.506L438.011 987.955L441.105 986.403L440.065 984.597L437.167 986.497L437.364 983.045H435.292L435.48 986.497L432.582 984.597L431.542 986.403L434.645 987.955L431.542 989.506L432.582 991.312L435.48 989.412L435.292 992.864H437.364ZM424.332 992.864L424.136 989.412L427.034 991.312L428.074 989.506L424.98 987.955L428.074 986.403L427.034 984.597L424.136 986.497L424.332 983.045H422.261L422.449 986.497L419.551 984.597L418.511 986.403L421.614 987.955L418.511 989.506L419.551 991.312L422.449 989.412L422.261 992.864H424.332ZM411.301 992.864L411.105 989.412L414.003 991.312L415.042 989.506L411.949 987.955L415.042 986.403L414.003 984.597L411.105 986.497L411.301 983.045H409.23L409.417 986.497L406.52 984.597L405.48 986.403L408.582 987.955L405.48 989.506L406.52 991.312L409.417 989.412L409.23 992.864H411.301ZM398.27 992.864L398.074 989.412L400.971 991.312L402.011 989.506L398.917 987.955L402.011 986.403L400.971 984.597L398.074 986.497L398.27 983.045H396.199L396.386 986.497L393.489 984.597L392.449 986.403L395.551 987.955L392.449 989.506L393.489 991.312L396.386 989.412L396.199 992.864H398.27ZM385.239 992.864L385.042 989.412L387.94 991.312L388.98 989.506L385.886 987.955L388.98 986.403L387.94 984.597L385.042 986.497L385.239 983.045H383.167L383.355 986.497L380.457 984.597L379.417 986.403L382.52 987.955L379.417 989.506L380.457 991.312L383.355 989.412L383.167 992.864H385.239ZM372.207 992.864L372.011 989.412L374.909 991.312L375.949 989.506L372.855 987.955L375.949 986.403L374.909 984.597L372.011 986.497L372.207 983.045H370.136L370.324 986.497L367.426 984.597L366.386 986.403L369.489 987.955L366.386 989.506L367.426 991.312L370.324 989.412L370.136 992.864H372.207ZM359.176 992.864L358.98 989.412L361.878 991.312L362.917 989.506L359.824 987.955L362.917 986.403L361.878 984.597L358.98 986.497L359.176 983.045H357.105L357.292 986.497L354.395 984.597L353.355 986.403L356.457 987.955L353.355 989.506L354.395 991.312L357.292 989.412L357.105 992.864H359.176ZM346.145 992.864L345.949 989.412L348.846 991.312L349.886 989.506L346.792 987.955L349.886 986.403L348.846 984.597L345.949 986.497L346.145 983.045H344.074L344.261 986.497L341.364 984.597L340.324 986.403L343.426 987.955L340.324 989.506L341.364 991.312L344.261 989.412L344.074 992.864H346.145ZM333.114 992.864L332.917 989.412L335.815 991.312L336.855 989.506L333.761 987.955L336.855 986.403L335.815 984.597L332.917 986.497L333.114 983.045H331.042L331.23 986.497L328.332 984.597L327.292 986.403L330.395 987.955L327.292 989.506L328.332 991.312L331.23 989.412L331.042 992.864H333.114ZM320.082 992.864L319.886 989.412L322.784 991.312L323.824 989.506L320.73 987.955L323.824 986.403L322.784 984.597L319.886 986.497L320.082 983.045H318.011L318.199 986.497L315.301 984.597L314.261 986.403L317.364 987.955L314.261 989.506L315.301 991.312L318.199 989.412L318.011 992.864H320.082ZM307.051 992.864L306.855 989.412L309.753 991.312L310.792 989.506L307.699 987.955L310.792 986.403L309.753 984.597L306.855 986.497L307.051 983.045H304.98L305.167 986.497L302.27 984.597L301.23 986.403L304.332 987.955L301.23 989.506L302.27 991.312L305.167 989.412L304.98 992.864H307.051ZM476.457 1021.86L476.261 1018.41L479.159 1020.31L480.199 1018.51L477.105 1016.95L480.199 1015.4L479.159 1013.6L476.261 1015.5L476.457 1012.05H474.386L474.574 1015.5L471.676 1013.6L470.636 1015.4L473.739 1016.95L470.636 1018.51L471.676 1020.31L474.574 1018.41L474.386 1021.86H476.457ZM463.426 1021.86L463.23 1018.41L466.128 1020.31L467.167 1018.51L464.074 1016.95L467.167 1015.4L466.128 1013.6L463.23 1015.5L463.426 1012.05H461.355L461.542 1015.5L458.645 1013.6L457.605 1015.4L460.707 1016.95L457.605 1018.51L458.645 1020.31L461.542 1018.41L461.355 1021.86H463.426ZM450.395 1021.86L450.199 1018.41L453.096 1020.31L454.136 1018.51L451.042 1016.95L454.136 1015.4L453.096 1013.6L450.199 1015.5L450.395 1012.05H448.324L448.511 1015.5L445.614 1013.6L444.574 1015.4L447.676 1016.95L444.574 1018.51L445.614 1020.31L448.511 1018.41L448.324 1021.86H450.395ZM437.364 1021.86L437.167 1018.41L440.065 1020.31L441.105 1018.51L438.011 1016.95L441.105 1015.4L440.065 1013.6L437.167 1015.5L437.364 1012.05H435.292L435.48 1015.5L432.582 1013.6L431.542 1015.4L434.645 1016.95L431.542 1018.51L432.582 1020.31L435.48 1018.41L435.292 1021.86H437.364ZM424.332 1021.86L424.136 1018.41L427.034 1020.31L428.074 1018.51L424.98 1016.95L428.074 1015.4L427.034 1013.6L424.136 1015.5L424.332 1012.05H422.261L422.449 1015.5L419.551 1013.6L418.511 1015.4L421.614 1016.95L418.511 1018.51L419.551 1020.31L422.449 1018.41L422.261 1021.86H424.332ZM411.301 1021.86L411.105 1018.41L414.003 1020.31L415.042 1018.51L411.949 1016.95L415.042 1015.4L414.003 1013.6L411.105 1015.5L411.301 1012.05H409.23L409.417 1015.5L406.52 1013.6L405.48 1015.4L408.582 1016.95L405.48 1018.51L406.52 1020.31L409.417 1018.41L409.23 1021.86H411.301ZM398.27 1021.86L398.074 1018.41L400.971 1020.31L402.011 1018.51L398.917 1016.95L402.011 1015.4L400.971 1013.6L398.074 1015.5L398.27 1012.05H396.199L396.386 1015.5L393.489 1013.6L392.449 1015.4L395.551 1016.95L392.449 1018.51L393.489 1020.31L396.386 1018.41L396.199 1021.86H398.27ZM385.239 1021.86L385.042 1018.41L387.94 1020.31L388.98 1018.51L385.886 1016.95L388.98 1015.4L387.94 1013.6L385.042 1015.5L385.239 1012.05H383.167L383.355 1015.5L380.457 1013.6L379.417 1015.4L382.52 1016.95L379.417 1018.51L380.457 1020.31L383.355 1018.41L383.167 1021.86H385.239ZM372.207 1021.86L372.011 1018.41L374.909 1020.31L375.949 1018.51L372.855 1016.95L375.949 1015.4L374.909 1013.6L372.011 1015.5L372.207 1012.05H370.136L370.324 1015.5L367.426 1013.6L366.386 1015.4L369.489 1016.95L366.386 1018.51L367.426 1020.31L370.324 1018.41L370.136 1021.86H372.207ZM359.176 1021.86L358.98 1018.41L361.878 1020.31L362.917 1018.51L359.824 1016.95L362.917 1015.4L361.878 1013.6L358.98 1015.5L359.176 1012.05H357.105L357.292 1015.5L354.395 1013.6L353.355 1015.4L356.457 1016.95L353.355 1018.51L354.395 1020.31L357.292 1018.41L357.105 1021.86H359.176ZM346.145 1021.86L345.949 1018.41L348.846 1020.31L349.886 1018.51L346.792 1016.95L349.886 1015.4L348.846 1013.6L345.949 1015.5L346.145 1012.05H344.074L344.261 1015.5L341.364 1013.6L340.324 1015.4L343.426 1016.95L340.324 1018.51L341.364 1020.31L344.261 1018.41L344.074 1021.86H346.145ZM333.114 1021.86L332.917 1018.41L335.815 1020.31L336.855 1018.51L333.761 1016.95L336.855 1015.4L335.815 1013.6L332.917 1015.5L333.114 1012.05H331.042L331.23 1015.5L328.332 1013.6L327.292 1015.4L330.395 1016.95L327.292 1018.51L328.332 1020.31L331.23 1018.41L331.042 1021.86H333.114ZM320.082 1021.86L319.886 1018.41L322.784 1020.31L323.824 1018.51L320.73 1016.95L323.824 1015.4L322.784 1013.6L319.886 1015.5L320.082 1012.05H318.011L318.199 1015.5L315.301 1013.6L314.261 1015.4L317.364 1016.95L314.261 1018.51L315.301 1020.31L318.199 1018.41L318.011 1021.86H320.082ZM307.051 1021.86L306.855 1018.41L309.753 1020.31L310.792 1018.51L307.699 1016.95L310.792 1015.4L309.753 1013.6L306.855 1015.5L307.051 1012.05H304.98L305.167 1015.5L302.27 1013.6L301.23 1015.4L304.332 1016.95L301.23 1018.51L302.27 1020.31L305.167 1018.41L304.98 1021.86H307.051ZM476.457 1050.86L476.261 1047.41L479.159 1049.31L480.199 1047.51L477.105 1045.95L480.199 1044.4L479.159 1042.6L476.261 1044.5L476.457 1041.05H474.386L474.574 1044.5L471.676 1042.6L470.636 1044.4L473.739 1045.95L470.636 1047.51L471.676 1049.31L474.574 1047.41L474.386 1050.86H476.457ZM463.426 1050.86L463.23 1047.41L466.128 1049.31L467.167 1047.51L464.074 1045.95L467.167 1044.4L466.128 1042.6L463.23 1044.5L463.426 1041.05H461.355L461.542 1044.5L458.645 1042.6L457.605 1044.4L460.707 1045.95L457.605 1047.51L458.645 1049.31L461.542 1047.41L461.355 1050.86H463.426ZM450.395 1050.86L450.199 1047.41L453.096 1049.31L454.136 1047.51L451.042 1045.95L454.136 1044.4L453.096 1042.6L450.199 1044.5L450.395 1041.05H448.324L448.511 1044.5L445.614 1042.6L444.574 1044.4L447.676 1045.95L444.574 1047.51L445.614 1049.31L448.511 1047.41L448.324 1050.86H450.395ZM437.364 1050.86L437.167 1047.41L440.065 1049.31L441.105 1047.51L438.011 1045.95L441.105 1044.4L440.065 1042.6L437.167 1044.5L437.364 1041.05H435.292L435.48 1044.5L432.582 1042.6L431.542 1044.4L434.645 1045.95L431.542 1047.51L432.582 1049.31L435.48 1047.41L435.292 1050.86H437.364ZM424.332 1050.86L424.136 1047.41L427.034 1049.31L428.074 1047.51L424.98 1045.95L428.074 1044.4L427.034 1042.6L424.136 1044.5L424.332 1041.05H422.261L422.449 1044.5L419.551 1042.6L418.511 1044.4L421.614 1045.95L418.511 1047.51L419.551 1049.31L422.449 1047.41L422.261 1050.86H424.332ZM411.301 1050.86L411.105 1047.41L414.003 1049.31L415.042 1047.51L411.949 1045.95L415.042 1044.4L414.003 1042.6L411.105 1044.5L411.301 1041.05H409.23L409.417 1044.5L406.52 1042.6L405.48 1044.4L408.582 1045.95L405.48 1047.51L406.52 1049.31L409.417 1047.41L409.23 1050.86H411.301ZM398.27 1050.86L398.074 1047.41L400.971 1049.31L402.011 1047.51L398.917 1045.95L402.011 1044.4L400.971 1042.6L398.074 1044.5L398.27 1041.05H396.199L396.386 1044.5L393.489 1042.6L392.449 1044.4L395.551 1045.95L392.449 1047.51L393.489 1049.31L396.386 1047.41L396.199 1050.86H398.27ZM385.239 1050.86L385.042 1047.41L387.94 1049.31L388.98 1047.51L385.886 1045.95L388.98 1044.4L387.94 1042.6L385.042 1044.5L385.239 1041.05H383.167L383.355 1044.5L380.457 1042.6L379.417 1044.4L382.52 1045.95L379.417 1047.51L380.457 1049.31L383.355 1047.41L383.167 1050.86H385.239ZM372.207 1050.86L372.011 1047.41L374.909 1049.31L375.949 1047.51L372.855 1045.95L375.949 1044.4L374.909 1042.6L372.011 1044.5L372.207 1041.05H370.136L370.324 1044.5L367.426 1042.6L366.386 1044.4L369.489 1045.95L366.386 1047.51L367.426 1049.31L370.324 1047.41L370.136 1050.86H372.207ZM359.176 1050.86L358.98 1047.41L361.878 1049.31L362.917 1047.51L359.824 1045.95L362.917 1044.4L361.878 1042.6L358.98 1044.5L359.176 1041.05H357.105L357.292 1044.5L354.395 1042.6L353.355 1044.4L356.457 1045.95L353.355 1047.51L354.395 1049.31L357.292 1047.41L357.105 1050.86H359.176ZM346.145 1050.86L345.949 1047.41L348.846 1049.31L349.886 1047.51L346.792 1045.95L349.886 1044.4L348.846 1042.6L345.949 1044.5L346.145 1041.05H344.074L344.261 1044.5L341.364 1042.6L340.324 1044.4L343.426 1045.95L340.324 1047.51L341.364 1049.31L344.261 1047.41L344.074 1050.86H346.145ZM333.114 1050.86L332.917 1047.41L335.815 1049.31L336.855 1047.51L333.761 1045.95L336.855 1044.4L335.815 1042.6L332.917 1044.5L333.114 1041.05H331.042L331.23 1044.5L328.332 1042.6L327.292 1044.4L330.395 1045.95L327.292 1047.51L328.332 1049.31L331.23 1047.41L331.042 1050.86H333.114ZM320.082 1050.86L319.886 1047.41L322.784 1049.31L323.824 1047.51L320.73 1045.95L323.824 1044.4L322.784 1042.6L319.886 1044.5L320.082 1041.05H318.011L318.199 1044.5L315.301 1042.6L314.261 1044.4L317.364 1045.95L314.261 1047.51L315.301 1049.31L318.199 1047.41L318.011 1050.86H320.082ZM307.051 1050.86L306.855 1047.41L309.753 1049.31L310.792 1047.51L307.699 1045.95L310.792 1044.4L309.753 1042.6L306.855 1044.5L307.051 1041.05H304.98L305.167 1044.5L302.27 1042.6L301.23 1044.4L304.332 1045.95L301.23 1047.51L302.27 1049.31L305.167 1047.41L304.98 1050.86H307.051ZM450.395 1079.86L450.199 1076.41L453.096 1078.31L454.136 1076.51L451.042 1074.95L454.136 1073.4L453.096 1071.6L450.199 1073.5L450.395 1070.05H448.324L448.511 1073.5L445.614 1071.6L444.574 1073.4L447.676 1074.95L444.574 1076.51L445.614 1078.31L448.511 1076.41L448.324 1079.86H450.395ZM437.364 1079.86L437.167 1076.41L440.065 1078.31L441.105 1076.51L438.011 1074.95L441.105 1073.4L440.065 1071.6L437.167 1073.5L437.364 1070.05H435.292L435.48 1073.5L432.582 1071.6L431.542 1073.4L434.645 1074.95L431.542 1076.51L432.582 1078.31L435.48 1076.41L435.292 1079.86H437.364ZM424.332 1079.86L424.136 1076.41L427.034 1078.31L428.074 1076.51L424.98 1074.95L428.074 1073.4L427.034 1071.6L424.136 1073.5L424.332 1070.05H422.261L422.449 1073.5L419.551 1071.6L418.511 1073.4L421.614 1074.95L418.511 1076.51L419.551 1078.31L422.449 1076.41L422.261 1079.86H424.332ZM411.301 1079.86L411.105 1076.41L414.003 1078.31L415.042 1076.51L411.949 1074.95L415.042 1073.4L414.003 1071.6L411.105 1073.5L411.301 1070.05H409.23L409.417 1073.5L406.52 1071.6L405.48 1073.4L408.582 1074.95L405.48 1076.51L406.52 1078.31L409.417 1076.41L409.23 1079.86H411.301ZM398.27 1079.86L398.074 1076.41L400.971 1078.31L402.011 1076.51L398.917 1074.95L402.011 1073.4L400.971 1071.6L398.074 1073.5L398.27 1070.05H396.199L396.386 1073.5L393.489 1071.6L392.449 1073.4L395.551 1074.95L392.449 1076.51L393.489 1078.31L396.386 1076.41L396.199 1079.86H398.27ZM385.239 1079.86L385.042 1076.41L387.94 1078.31L388.98 1076.51L385.886 1074.95L388.98 1073.4L387.94 1071.6L385.042 1073.5L385.239 1070.05H383.167L383.355 1073.5L380.457 1071.6L379.417 1073.4L382.52 1074.95L379.417 1076.51L380.457 1078.31L383.355 1076.41L383.167 1079.86H385.239ZM372.207 1079.86L372.011 1076.41L374.909 1078.31L375.949 1076.51L372.855 1074.95L375.949 1073.4L374.909 1071.6L372.011 1073.5L372.207 1070.05H370.136L370.324 1073.5L367.426 1071.6L366.386 1073.4L369.489 1074.95L366.386 1076.51L367.426 1078.31L370.324 1076.41L370.136 1079.86H372.207ZM359.176 1079.86L358.98 1076.41L361.878 1078.31L362.917 1076.51L359.824 1074.95L362.917 1073.4L361.878 1071.6L358.98 1073.5L359.176 1070.05H357.105L357.292 1073.5L354.395 1071.6L353.355 1073.4L356.457 1074.95L353.355 1076.51L354.395 1078.31L357.292 1076.41L357.105 1079.86H359.176ZM346.145 1079.86L345.949 1076.41L348.846 1078.31L349.886 1076.51L346.792 1074.95L349.886 1073.4L348.846 1071.6L345.949 1073.5L346.145 1070.05H344.074L344.261 1073.5L341.364 1071.6L340.324 1073.4L343.426 1074.95L340.324 1076.51L341.364 1078.31L344.261 1076.41L344.074 1079.86H346.145ZM333.114 1079.86L332.917 1076.41L335.815 1078.31L336.855 1076.51L333.761 1074.95L336.855 1073.4L335.815 1071.6L332.917 1073.5L333.114 1070.05H331.042L331.23 1073.5L328.332 1071.6L327.292 1073.4L330.395 1074.95L327.292 1076.51L328.332 1078.31L331.23 1076.41L331.042 1079.86H333.114ZM320.082 1079.86L319.886 1076.41L322.784 1078.31L323.824 1076.51L320.73 1074.95L323.824 1073.4L322.784 1071.6L319.886 1073.5L320.082 1070.05H318.011L318.199 1073.5L315.301 1071.6L314.261 1073.4L317.364 1074.95L314.261 1076.51L315.301 1078.31L318.199 1076.41L318.011 1079.86H320.082ZM307.051 1079.86L306.855 1076.41L309.753 1078.31L310.792 1076.51L307.699 1074.95L310.792 1073.4L309.753 1071.6L306.855 1073.5L307.051 1070.05H304.98L305.167 1073.5L302.27 1071.6L301.23 1073.4L304.332 1074.95L301.23 1076.51L302.27 1078.31L305.167 1076.41L304.98 1079.86H307.051ZM333.114 1108.86L332.917 1105.41L335.815 1107.31L336.855 1105.51L333.761 1103.95L336.855 1102.4L335.815 1100.6L332.917 1102.5L333.114 1099.05H331.042L331.23 1102.5L328.332 1100.6L327.292 1102.4L330.395 1103.95L327.292 1105.51L328.332 1107.31L331.23 1105.41L331.042 1108.86H333.114ZM320.082 1108.86L319.886 1105.41L322.784 1107.31L323.824 1105.51L320.73 1103.95L323.824 1102.4L322.784 1100.6L319.886 1102.5L320.082 1099.05H318.011L318.199 1102.5L315.301 1100.6L314.261 1102.4L317.364 1103.95L314.261 1105.51L315.301 1107.31L318.199 1105.41L318.011 1108.86H320.082ZM307.051 1108.86L306.855 1105.41L309.753 1107.31L310.792 1105.51L307.699 1103.95L310.792 1102.4L309.753 1100.6L306.855 1102.5L307.051 1099.05H304.98L305.167 1102.5L302.27 1100.6L301.23 1102.4L304.332 1103.95L301.23 1105.51L302.27 1107.31L305.167 1105.41L304.98 1108.86H307.051Z" fill="black"/>
<path d="M0.499997 768.305L0.49997 147.786L306.064 147.786L306.064 20.5L635.5 20.5L635.5 564.273L306.064 564.273L306.064 838.5" stroke="black" stroke-dasharray="17 17"/>
<path d="M81.7379 402.615L702.256 403.635L701.754 709.199L829.04 709.408L828.499 1038.84L284.726 1037.95L285.267 708.514L11.0412 708.064" stroke="black" stroke-dasharray="17 17"/>
<path d="M1909.45 497.469L1485.47 497.197L1485.62 258.212L1398.65 258.156L1398.82 0.500361L1770.36 0.738876L1770.19 258.395L1957.56 258.515" stroke="black" stroke-dasharray="17 17"/>
<path d="M1963.31 1092.98L1342.79 1092.58L1342.98 787.018L1215.7 786.936L1215.91 457.5L1759.68 457.849L1759.47 787.285L2033.7 787.462" stroke="black" stroke-dasharray="17 17"/>
<path d="M1917.02 35.8639L1916.82 32.4122L1919.72 34.3127L1920.76 32.5059L1917.67 30.9548L1920.76 29.4037L1919.72 27.5968L1916.82 29.4974L1917.02 26.0457H1914.95L1915.14 29.4974L1912.24 27.5968L1911.2 29.4037L1914.3 30.9548L1911.2 32.5059L1912.24 34.3127L1915.14 32.4122L1914.95 35.8639H1917.02ZM1903.99 35.8639L1903.79 32.4122L1906.69 34.3127L1907.73 32.5059L1904.64 30.9548L1907.73 29.4037L1906.69 27.5968L1903.79 29.4974L1903.99 26.0457H1901.92L1902.1 29.4974L1899.21 27.5968L1898.17 29.4037L1901.27 30.9548L1898.17 32.5059L1899.21 34.3127L1902.1 32.4122L1901.92 35.8639H1903.99ZM1890.96 35.8639L1890.76 32.4122L1893.66 34.3127L1894.7 32.5059L1891.6 30.9548L1894.7 29.4037L1893.66 27.5968L1890.76 29.4974L1890.96 26.0457H1888.89L1889.07 29.4974L1886.18 27.5968L1885.14 29.4037L1888.24 30.9548L1885.14 32.5059L1886.18 34.3127L1889.07 32.4122L1888.89 35.8639H1890.96ZM1877.93 35.8639L1877.73 32.4122L1880.63 34.3127L1881.67 32.5059L1878.57 30.9548L1881.67 29.4037L1880.63 27.5968L1877.73 29.4974L1877.93 26.0457H1875.85L1876.04 29.4974L1873.14 27.5968L1872.1 29.4037L1875.21 30.9548L1872.1 32.5059L1873.14 34.3127L1876.04 32.4122L1875.85 35.8639H1877.93ZM1864.89 35.8639L1864.7 32.4122L1867.6 34.3127L1868.64 32.5059L1865.54 30.9548L1868.64 29.4037L1867.6 27.5968L1864.7 29.4974L1864.89 26.0457H1862.82L1863.01 29.4974L1860.11 27.5968L1859.07 29.4037L1862.18 30.9548L1859.07 32.5059L1860.11 34.3127L1863.01 32.4122L1862.82 35.8639H1864.89ZM1851.86 35.8639L1851.67 32.4122L1854.57 34.3127L1855.6 32.5059L1852.51 30.9548L1855.6 29.4037L1854.57 27.5968L1851.67 29.4974L1851.86 26.0457H1849.79L1849.98 29.4974L1847.08 27.5968L1846.04 29.4037L1849.14 30.9548L1846.04 32.5059L1847.08 34.3127L1849.98 32.4122L1849.79 35.8639H1851.86ZM1838.83 35.8639L1838.64 32.4122L1841.53 34.3127L1842.57 32.5059L1839.48 30.9548L1842.57 29.4037L1841.53 27.5968L1838.64 29.4974L1838.83 26.0457H1836.76L1836.95 29.4974L1834.05 27.5968L1833.01 29.4037L1836.11 30.9548L1833.01 32.5059L1834.05 34.3127L1836.95 32.4122L1836.76 35.8639H1838.83ZM1825.8 35.8639L1825.6 32.4122L1828.5 34.3127L1829.54 32.5059L1826.45 30.9548L1829.54 29.4037L1828.5 27.5968L1825.6 29.4974L1825.8 26.0457H1823.73L1823.92 29.4974L1821.02 27.5968L1819.98 29.4037L1823.08 30.9548L1819.98 32.5059L1821.02 34.3127L1823.92 32.4122L1823.73 35.8639H1825.8ZM1812.77 35.8639L1812.57 32.4122L1815.47 34.3127L1816.51 32.5059L1813.42 30.9548L1816.51 29.4037L1815.47 27.5968L1812.57 29.4974L1812.77 26.0457H1810.7L1810.89 29.4974L1807.99 27.5968L1806.95 29.4037L1810.05 30.9548L1806.95 32.5059L1807.99 34.3127L1810.89 32.4122L1810.7 35.8639H1812.77ZM1799.74 35.8639L1799.54 32.4122L1802.44 34.3127L1803.48 32.5059L1800.39 30.9548L1803.48 29.4037L1802.44 27.5968L1799.54 29.4974L1799.74 26.0457H1797.67L1797.85 29.4974L1794.96 27.5968L1793.92 29.4037L1797.02 30.9548L1793.92 32.5059L1794.96 34.3127L1797.85 32.4122L1797.67 35.8639H1799.74ZM1786.71 35.8639L1786.51 32.4122L1789.41 34.3127L1790.45 32.5059L1787.35 30.9548L1790.45 29.4037L1789.41 27.5968L1786.51 29.4974L1786.71 26.0457H1784.64L1784.82 29.4974L1781.93 27.5968L1780.89 29.4037L1783.99 30.9548L1780.89 32.5059L1781.93 34.3127L1784.82 32.4122L1784.64 35.8639H1786.71ZM1773.68 35.8639L1773.48 32.4122L1776.38 34.3127L1777.42 32.5059L1774.32 30.9548L1777.42 29.4037L1776.38 27.5968L1773.48 29.4974L1773.68 26.0457H1771.6L1771.79 29.4974L1768.89 27.5968L1767.85 29.4037L1770.96 30.9548L1767.85 32.5059L1768.89 34.3127L1771.79 32.4122L1771.6 35.8639H1773.68ZM1760.64 35.8639L1760.45 32.4122L1763.35 34.3127L1764.39 32.5059L1761.29 30.9548L1764.39 29.4037L1763.35 27.5968L1760.45 29.4974L1760.64 26.0457H1758.57L1758.76 29.4974L1755.86 27.5968L1754.82 29.4037L1757.93 30.9548L1754.82 32.5059L1755.86 34.3127L1758.76 32.4122L1758.57 35.8639H1760.64ZM1747.61 35.8639L1747.42 32.4122L1750.32 34.3127L1751.35 32.5059L1748.26 30.9548L1751.35 29.4037L1750.32 27.5968L1747.42 29.4974L1747.61 26.0457H1745.54L1745.73 29.4974L1742.83 27.5968L1741.79 29.4037L1744.89 30.9548L1741.79 32.5059L1742.83 34.3127L1745.73 32.4122L1745.54 35.8639H1747.61ZM1917.02 64.8639L1916.82 61.4122L1919.72 63.3127L1920.76 61.5059L1917.67 59.9548L1920.76 58.4037L1919.72 56.5968L1916.82 58.4974L1917.02 55.0457H1914.95L1915.14 58.4974L1912.24 56.5968L1911.2 58.4037L1914.3 59.9548L1911.2 61.5059L1912.24 63.3127L1915.14 61.4122L1914.95 64.8639H1917.02ZM1903.99 64.8639L1903.79 61.4122L1906.69 63.3127L1907.73 61.5059L1904.64 59.9548L1907.73 58.4037L1906.69 56.5968L1903.79 58.4974L1903.99 55.0457H1901.92L1902.1 58.4974L1899.21 56.5968L1898.17 58.4037L1901.27 59.9548L1898.17 61.5059L1899.21 63.3127L1902.1 61.4122L1901.92 64.8639H1903.99ZM1890.96 64.8639L1890.76 61.4122L1893.66 63.3127L1894.7 61.5059L1891.6 59.9548L1894.7 58.4037L1893.66 56.5968L1890.76 58.4974L1890.96 55.0457H1888.89L1889.07 58.4974L1886.18 56.5968L1885.14 58.4037L1888.24 59.9548L1885.14 61.5059L1886.18 63.3127L1889.07 61.4122L1888.89 64.8639H1890.96ZM1877.93 64.8639L1877.73 61.4122L1880.63 63.3127L1881.67 61.5059L1878.57 59.9548L1881.67 58.4037L1880.63 56.5968L1877.73 58.4974L1877.93 55.0457H1875.85L1876.04 58.4974L1873.14 56.5968L1872.1 58.4037L1875.21 59.9548L1872.1 61.5059L1873.14 63.3127L1876.04 61.4122L1875.85 64.8639H1877.93ZM1864.89 64.8639L1864.7 61.4122L1867.6 63.3127L1868.64 61.5059L1865.54 59.9548L1868.64 58.4037L1867.6 56.5968L1864.7 58.4974L1864.89 55.0457H1862.82L1863.01 58.4974L1860.11 56.5968L1859.07 58.4037L1862.18 59.9548L1859.07 61.5059L1860.11 63.3127L1863.01 61.4122L1862.82 64.8639H1864.89ZM1851.86 64.8639L1851.67 61.4122L1854.57 63.3127L1855.6 61.5059L1852.51 59.9548L1855.6 58.4037L1854.57 56.5968L1851.67 58.4974L1851.86 55.0457H1849.79L1849.98 58.4974L1847.08 56.5968L1846.04 58.4037L1849.14 59.9548L1846.04 61.5059L1847.08 63.3127L1849.98 61.4122L1849.79 64.8639H1851.86ZM1838.83 64.8639L1838.64 61.4122L1841.53 63.3127L1842.57 61.5059L1839.48 59.9548L1842.57 58.4037L1841.53 56.5968L1838.64 58.4974L1838.83 55.0457H1836.76L1836.95 58.4974L1834.05 56.5968L1833.01 58.4037L1836.11 59.9548L1833.01 61.5059L1834.05 63.3127L1836.95 61.4122L1836.76 64.8639H1838.83ZM1825.8 64.8639L1825.6 61.4122L1828.5 63.3127L1829.54 61.5059L1826.45 59.9548L1829.54 58.4037L1828.5 56.5968L1825.6 58.4974L1825.8 55.0457H1823.73L1823.92 58.4974L1821.02 56.5968L1819.98 58.4037L1823.08 59.9548L1819.98 61.5059L1821.02 63.3127L1823.92 61.4122L1823.73 64.8639H1825.8ZM1812.77 64.8639L1812.57 61.4122L1815.47 63.3127L1816.51 61.5059L1813.42 59.9548L1816.51 58.4037L1815.47 56.5968L1812.57 58.4974L1812.77 55.0457H1810.7L1810.89 58.4974L1807.99 56.5968L1806.95 58.4037L1810.05 59.9548L1806.95 61.5059L1807.99 63.3127L1810.89 61.4122L1810.7 64.8639H1812.77ZM1799.74 64.8639L1799.54 61.4122L1802.44 63.3127L1803.48 61.5059L1800.39 59.9548L1803.48 58.4037L1802.44 56.5968L1799.54 58.4974L1799.74 55.0457H1797.67L1797.85 58.4974L1794.96 56.5968L1793.92 58.4037L1797.02 59.9548L1793.92 61.5059L1794.96 63.3127L1797.85 61.4122L1797.67 64.8639H1799.74ZM1786.71 64.8639L1786.51 61.4122L1789.41 63.3127L1790.45 61.5059L1787.35 59.9548L1790.45 58.4037L1789.41 56.5968L1786.51 58.4974L1786.71 55.0457H1784.64L1784.82 58.4974L1781.93 56.5968L1780.89 58.4037L1783.99 59.9548L1780.89 61.5059L1781.93 63.3127L1784.82 61.4122L1784.64 64.8639H1786.71ZM1773.68 64.8639L1773.48 61.4122L1776.38 63.3127L1777.42 61.5059L1774.32 59.9548L1777.42 58.4037L1776.38 56.5968L1773.48 58.4974L1773.68 55.0457H1771.6L1771.79 58.4974L1768.89 56.5968L1767.85 58.4037L1770.96 59.9548L1767.85 61.5059L1768.89 63.3127L1771.79 61.4122L1771.6 64.8639H1773.68ZM1760.64 64.8639L1760.45 61.4122L1763.35 63.3127L1764.39 61.5059L1761.29 59.9548L1764.39 58.4037L1763.35 56.5968L1760.45 58.4974L1760.64 55.0457H1758.57L1758.76 58.4974L1755.86 56.5968L1754.82 58.4037L1757.93 59.9548L1754.82 61.5059L1755.86 63.3127L1758.76 61.4122L1758.57 64.8639H1760.64ZM1747.61 64.8639L1747.42 61.4122L1750.32 63.3127L1751.35 61.5059L1748.26 59.9548L1751.35 58.4037L1750.32 56.5968L1747.42 58.4974L1747.61 55.0457H1745.54L1745.73 58.4974L1742.83 56.5968L1741.79 58.4037L1744.89 59.9548L1741.79 61.5059L1742.83 63.3127L1745.73 61.4122L1745.54 64.8639H1747.61ZM1917.02 93.8639L1916.82 90.4122L1919.72 92.3127L1920.76 90.5059L1917.67 88.9548L1920.76 87.4037L1919.72 85.5968L1916.82 87.4974L1917.02 84.0457H1914.95L1915.14 87.4974L1912.24 85.5968L1911.2 87.4037L1914.3 88.9548L1911.2 90.5059L1912.24 92.3127L1915.14 90.4122L1914.95 93.8639H1917.02ZM1903.99 93.8639L1903.79 90.4122L1906.69 92.3127L1907.73 90.5059L1904.64 88.9548L1907.73 87.4037L1906.69 85.5968L1903.79 87.4974L1903.99 84.0457H1901.92L1902.1 87.4974L1899.21 85.5968L1898.17 87.4037L1901.27 88.9548L1898.17 90.5059L1899.21 92.3127L1902.1 90.4122L1901.92 93.8639H1903.99ZM1890.96 93.8639L1890.76 90.4122L1893.66 92.3127L1894.7 90.5059L1891.6 88.9548L1894.7 87.4037L1893.66 85.5968L1890.76 87.4974L1890.96 84.0457H1888.89L1889.07 87.4974L1886.18 85.5968L1885.14 87.4037L1888.24 88.9548L1885.14 90.5059L1886.18 92.3127L1889.07 90.4122L1888.89 93.8639H1890.96ZM1877.93 93.8639L1877.73 90.4122L1880.63 92.3127L1881.67 90.5059L1878.57 88.9548L1881.67 87.4037L1880.63 85.5968L1877.73 87.4974L1877.93 84.0457H1875.85L1876.04 87.4974L1873.14 85.5968L1872.1 87.4037L1875.21 88.9548L1872.1 90.5059L1873.14 92.3127L1876.04 90.4122L1875.85 93.8639H1877.93ZM1864.89 93.8639L1864.7 90.4122L1867.6 92.3127L1868.64 90.5059L1865.54 88.9548L1868.64 87.4037L1867.6 85.5968L1864.7 87.4974L1864.89 84.0457H1862.82L1863.01 87.4974L1860.11 85.5968L1859.07 87.4037L1862.18 88.9548L1859.07 90.5059L1860.11 92.3127L1863.01 90.4122L1862.82 93.8639H1864.89ZM1851.86 93.8639L1851.67 90.4122L1854.57 92.3127L1855.6 90.5059L1852.51 88.9548L1855.6 87.4037L1854.57 85.5968L1851.67 87.4974L1851.86 84.0457H1849.79L1849.98 87.4974L1847.08 85.5968L1846.04 87.4037L1849.14 88.9548L1846.04 90.5059L1847.08 92.3127L1849.98 90.4122L1849.79 93.8639H1851.86ZM1838.83 93.8639L1838.64 90.4122L1841.53 92.3127L1842.57 90.5059L1839.48 88.9548L1842.57 87.4037L1841.53 85.5968L1838.64 87.4974L1838.83 84.0457H1836.76L1836.95 87.4974L1834.05 85.5968L1833.01 87.4037L1836.11 88.9548L1833.01 90.5059L1834.05 92.3127L1836.95 90.4122L1836.76 93.8639H1838.83ZM1825.8 93.8639L1825.6 90.4122L1828.5 92.3127L1829.54 90.5059L1826.45 88.9548L1829.54 87.4037L1828.5 85.5968L1825.6 87.4974L1825.8 84.0457H1823.73L1823.92 87.4974L1821.02 85.5968L1819.98 87.4037L1823.08 88.9548L1819.98 90.5059L1821.02 92.3127L1823.92 90.4122L1823.73 93.8639H1825.8ZM1812.77 93.8639L1812.57 90.4122L1815.47 92.3127L1816.51 90.5059L1813.42 88.9548L1816.51 87.4037L1815.47 85.5968L1812.57 87.4974L1812.77 84.0457H1810.7L1810.89 87.4974L1807.99 85.5968L1806.95 87.4037L1810.05 88.9548L1806.95 90.5059L1807.99 92.3127L1810.89 90.4122L1810.7 93.8639H1812.77ZM1799.74 93.8639L1799.54 90.4122L1802.44 92.3127L1803.48 90.5059L1800.39 88.9548L1803.48 87.4037L1802.44 85.5968L1799.54 87.4974L1799.74 84.0457H1797.67L1797.85 87.4974L1794.96 85.5968L1793.92 87.4037L1797.02 88.9548L1793.92 90.5059L1794.96 92.3127L1797.85 90.4122L1797.67 93.8639H1799.74ZM1786.71 93.8639L1786.51 90.4122L1789.41 92.3127L1790.45 90.5059L1787.35 88.9548L1790.45 87.4037L1789.41 85.5968L1786.51 87.4974L1786.71 84.0457H1784.64L1784.82 87.4974L1781.93 85.5968L1780.89 87.4037L1783.99 88.9548L1780.89 90.5059L1781.93 92.3127L1784.82 90.4122L1784.64 93.8639H1786.71ZM1773.68 93.8639L1773.48 90.4122L1776.38 92.3127L1777.42 90.5059L1774.32 88.9548L1777.42 87.4037L1776.38 85.5968L1773.48 87.4974L1773.68 84.0457H1771.6L1771.79 87.4974L1768.89 85.5968L1767.85 87.4037L1770.96 88.9548L1767.85 90.5059L1768.89 92.3127L1771.79 90.4122L1771.6 93.8639H1773.68ZM1760.64 93.8639L1760.45 90.4122L1763.35 92.3127L1764.39 90.5059L1761.29 88.9548L1764.39 87.4037L1763.35 85.5968L1760.45 87.4974L1760.64 84.0457H1758.57L1758.76 87.4974L1755.86 85.5968L1754.82 87.4037L1757.93 88.9548L1754.82 90.5059L1755.86 92.3127L1758.76 90.4122L1758.57 93.8639H1760.64ZM1747.61 93.8639L1747.42 90.4122L1750.32 92.3127L1751.35 90.5059L1748.26 88.9548L1751.35 87.4037L1750.32 85.5968L1747.42 87.4974L1747.61 84.0457H1745.54L1745.73 87.4974L1742.83 85.5968L1741.79 87.4037L1744.89 88.9548L1741.79 90.5059L1742.83 92.3127L1745.73 90.4122L1745.54 93.8639H1747.61ZM1917.02 122.864L1916.82 119.412L1919.72 121.313L1920.76 119.506L1917.67 117.955L1920.76 116.404L1919.72 114.597L1916.82 116.497L1917.02 113.046H1914.95L1915.14 116.497L1912.24 114.597L1911.2 116.404L1914.3 117.955L1911.2 119.506L1912.24 121.313L1915.14 119.412L1914.95 122.864H1917.02ZM1903.99 122.864L1903.79 119.412L1906.69 121.313L1907.73 119.506L1904.64 117.955L1907.73 116.404L1906.69 114.597L1903.79 116.497L1903.99 113.046H1901.92L1902.1 116.497L1899.21 114.597L1898.17 116.404L1901.27 117.955L1898.17 119.506L1899.21 121.313L1902.1 119.412L1901.92 122.864H1903.99ZM1890.96 122.864L1890.76 119.412L1893.66 121.313L1894.7 119.506L1891.6 117.955L1894.7 116.404L1893.66 114.597L1890.76 116.497L1890.96 113.046H1888.89L1889.07 116.497L1886.18 114.597L1885.14 116.404L1888.24 117.955L1885.14 119.506L1886.18 121.313L1889.07 119.412L1888.89 122.864H1890.96ZM1877.93 122.864L1877.73 119.412L1880.63 121.313L1881.67 119.506L1878.57 117.955L1881.67 116.404L1880.63 114.597L1877.73 116.497L1877.93 113.046H1875.85L1876.04 116.497L1873.14 114.597L1872.1 116.404L1875.21 117.955L1872.1 119.506L1873.14 121.313L1876.04 119.412L1875.85 122.864H1877.93ZM1864.89 122.864L1864.7 119.412L1867.6 121.313L1868.64 119.506L1865.54 117.955L1868.64 116.404L1867.6 114.597L1864.7 116.497L1864.89 113.046H1862.82L1863.01 116.497L1860.11 114.597L1859.07 116.404L1862.18 117.955L1859.07 119.506L1860.11 121.313L1863.01 119.412L1862.82 122.864H1864.89ZM1851.86 122.864L1851.67 119.412L1854.57 121.313L1855.6 119.506L1852.51 117.955L1855.6 116.404L1854.57 114.597L1851.67 116.497L1851.86 113.046H1849.79L1849.98 116.497L1847.08 114.597L1846.04 116.404L1849.14 117.955L1846.04 119.506L1847.08 121.313L1849.98 119.412L1849.79 122.864H1851.86ZM1838.83 122.864L1838.64 119.412L1841.53 121.313L1842.57 119.506L1839.48 117.955L1842.57 116.404L1841.53 114.597L1838.64 116.497L1838.83 113.046H1836.76L1836.95 116.497L1834.05 114.597L1833.01 116.404L1836.11 117.955L1833.01 119.506L1834.05 121.313L1836.95 119.412L1836.76 122.864H1838.83ZM1825.8 122.864L1825.6 119.412L1828.5 121.313L1829.54 119.506L1826.45 117.955L1829.54 116.404L1828.5 114.597L1825.6 116.497L1825.8 113.046H1823.73L1823.92 116.497L1821.02 114.597L1819.98 116.404L1823.08 117.955L1819.98 119.506L1821.02 121.313L1823.92 119.412L1823.73 122.864H1825.8ZM1812.77 122.864L1812.57 119.412L1815.47 121.313L1816.51 119.506L1813.42 117.955L1816.51 116.404L1815.47 114.597L1812.57 116.497L1812.77 113.046H1810.7L1810.89 116.497L1807.99 114.597L1806.95 116.404L1810.05 117.955L1806.95 119.506L1807.99 121.313L1810.89 119.412L1810.7 122.864H1812.77ZM1799.74 122.864L1799.54 119.412L1802.44 121.313L1803.48 119.506L1800.39 117.955L1803.48 116.404L1802.44 114.597L1799.54 116.497L1799.74 113.046H1797.67L1797.85 116.497L1794.96 114.597L1793.92 116.404L1797.02 117.955L1793.92 119.506L1794.96 121.313L1797.85 119.412L1797.67 122.864H1799.74ZM1786.71 122.864L1786.51 119.412L1789.41 121.313L1790.45 119.506L1787.35 117.955L1790.45 116.404L1789.41 114.597L1786.51 116.497L1786.71 113.046H1784.64L1784.82 116.497L1781.93 114.597L1780.89 116.404L1783.99 117.955L1780.89 119.506L1781.93 121.313L1784.82 119.412L1784.64 122.864H1786.71ZM1773.68 122.864L1773.48 119.412L1776.38 121.313L1777.42 119.506L1774.32 117.955L1777.42 116.404L1776.38 114.597L1773.48 116.497L1773.68 113.046H1771.6L1771.79 116.497L1768.89 114.597L1767.85 116.404L1770.96 117.955L1767.85 119.506L1768.89 121.313L1771.79 119.412L1771.6 122.864H1773.68ZM1760.64 122.864L1760.45 119.412L1763.35 121.313L1764.39 119.506L1761.29 117.955L1764.39 116.404L1763.35 114.597L1760.45 116.497L1760.64 113.046H1758.57L1758.76 116.497L1755.86 114.597L1754.82 116.404L1757.93 117.955L1754.82 119.506L1755.86 121.313L1758.76 119.412L1758.57 122.864H1760.64ZM1747.61 122.864L1747.42 119.412L1750.32 121.313L1751.35 119.506L1748.26 117.955L1751.35 116.404L1750.32 114.597L1747.42 116.497L1747.61 113.046H1745.54L1745.73 116.497L1742.83 114.597L1741.79 116.404L1744.89 117.955L1741.79 119.506L1742.83 121.313L1745.73 119.412L1745.54 122.864H1747.61ZM1917.02 151.864L1916.82 148.412L1919.72 150.313L1920.76 148.506L1917.67 146.955L1920.76 145.404L1919.72 143.597L1916.82 145.497L1917.02 142.046H1914.95L1915.14 145.497L1912.24 143.597L1911.2 145.404L1914.3 146.955L1911.2 148.506L1912.24 150.313L1915.14 148.412L1914.95 151.864H1917.02ZM1903.99 151.864L1903.79 148.412L1906.69 150.313L1907.73 148.506L1904.64 146.955L1907.73 145.404L1906.69 143.597L1903.79 145.497L1903.99 142.046H1901.92L1902.1 145.497L1899.21 143.597L1898.17 145.404L1901.27 146.955L1898.17 148.506L1899.21 150.313L1902.1 148.412L1901.92 151.864H1903.99ZM1890.96 151.864L1890.76 148.412L1893.66 150.313L1894.7 148.506L1891.6 146.955L1894.7 145.404L1893.66 143.597L1890.76 145.497L1890.96 142.046H1888.89L1889.07 145.497L1886.18 143.597L1885.14 145.404L1888.24 146.955L1885.14 148.506L1886.18 150.313L1889.07 148.412L1888.89 151.864H1890.96ZM1877.93 151.864L1877.73 148.412L1880.63 150.313L1881.67 148.506L1878.57 146.955L1881.67 145.404L1880.63 143.597L1877.73 145.497L1877.93 142.046H1875.85L1876.04 145.497L1873.14 143.597L1872.1 145.404L1875.21 146.955L1872.1 148.506L1873.14 150.313L1876.04 148.412L1875.85 151.864H1877.93ZM1864.89 151.864L1864.7 148.412L1867.6 150.313L1868.64 148.506L1865.54 146.955L1868.64 145.404L1867.6 143.597L1864.7 145.497L1864.89 142.046H1862.82L1863.01 145.497L1860.11 143.597L1859.07 145.404L1862.18 146.955L1859.07 148.506L1860.11 150.313L1863.01 148.412L1862.82 151.864H1864.89ZM1851.86 151.864L1851.67 148.412L1854.57 150.313L1855.6 148.506L1852.51 146.955L1855.6 145.404L1854.57 143.597L1851.67 145.497L1851.86 142.046H1849.79L1849.98 145.497L1847.08 143.597L1846.04 145.404L1849.14 146.955L1846.04 148.506L1847.08 150.313L1849.98 148.412L1849.79 151.864H1851.86ZM1838.83 151.864L1838.64 148.412L1841.53 150.313L1842.57 148.506L1839.48 146.955L1842.57 145.404L1841.53 143.597L1838.64 145.497L1838.83 142.046H1836.76L1836.95 145.497L1834.05 143.597L1833.01 145.404L1836.11 146.955L1833.01 148.506L1834.05 150.313L1836.95 148.412L1836.76 151.864H1838.83ZM1825.8 151.864L1825.6 148.412L1828.5 150.313L1829.54 148.506L1826.45 146.955L1829.54 145.404L1828.5 143.597L1825.6 145.497L1825.8 142.046H1823.73L1823.92 145.497L1821.02 143.597L1819.98 145.404L1823.08 146.955L1819.98 148.506L1821.02 150.313L1823.92 148.412L1823.73 151.864H1825.8ZM1812.77 151.864L1812.57 148.412L1815.47 150.313L1816.51 148.506L1813.42 146.955L1816.51 145.404L1815.47 143.597L1812.57 145.497L1812.77 142.046H1810.7L1810.89 145.497L1807.99 143.597L1806.95 145.404L1810.05 146.955L1806.95 148.506L1807.99 150.313L1810.89 148.412L1810.7 151.864H1812.77ZM1799.74 151.864L1799.54 148.412L1802.44 150.313L1803.48 148.506L1800.39 146.955L1803.48 145.404L1802.44 143.597L1799.54 145.497L1799.74 142.046H1797.67L1797.85 145.497L1794.96 143.597L1793.92 145.404L1797.02 146.955L1793.92 148.506L1794.96 150.313L1797.85 148.412L1797.67 151.864H1799.74ZM1786.71 151.864L1786.51 148.412L1789.41 150.313L1790.45 148.506L1787.35 146.955L1790.45 145.404L1789.41 143.597L1786.51 145.497L1786.71 142.046H1784.64L1784.82 145.497L1781.93 143.597L1780.89 145.404L1783.99 146.955L1780.89 148.506L1781.93 150.313L1784.82 148.412L1784.64 151.864H1786.71ZM1773.68 151.864L1773.48 148.412L1776.38 150.313L1777.42 148.506L1774.32 146.955L1777.42 145.404L1776.38 143.597L1773.48 145.497L1773.68 142.046H1771.6L1771.79 145.497L1768.89 143.597L1767.85 145.404L1770.96 146.955L1767.85 148.506L1768.89 150.313L1771.79 148.412L1771.6 151.864H1773.68ZM1917.02 180.864L1916.82 177.412L1919.72 179.313L1920.76 177.506L1917.67 175.955L1920.76 174.404L1919.72 172.597L1916.82 174.497L1917.02 171.046H1914.95L1915.14 174.497L1912.24 172.597L1911.2 174.404L1914.3 175.955L1911.2 177.506L1912.24 179.313L1915.14 177.412L1914.95 180.864H1917.02ZM1903.99 180.864L1903.79 177.412L1906.69 179.313L1907.73 177.506L1904.64 175.955L1907.73 174.404L1906.69 172.597L1903.79 174.497L1903.99 171.046H1901.92L1902.1 174.497L1899.21 172.597L1898.17 174.404L1901.27 175.955L1898.17 177.506L1899.21 179.313L1902.1 177.412L1901.92 180.864H1903.99ZM1890.96 180.864L1890.76 177.412L1893.66 179.313L1894.7 177.506L1891.6 175.955L1894.7 174.404L1893.66 172.597L1890.76 174.497L1890.96 171.046H1888.89L1889.07 174.497L1886.18 172.597L1885.14 174.404L1888.24 175.955L1885.14 177.506L1886.18 179.313L1889.07 177.412L1888.89 180.864H1890.96Z" fill="black"/>
</svg>
