<svg width="360" height="700" viewBox="0 0 360 700" fill="none" xmlns="http://www.w3.org/2000/svg">
<path d="M60.2436 145.391L61.3127 145.33L60.7241 146.228L61.2837 146.55L61.7641 145.591L62.2446 146.55L62.8042 146.228L62.2155 145.33L63.2846 145.391L63.2846 144.749L62.2155 144.807L62.8042 143.91L62.2446 143.588L61.7641 144.549L61.2837 143.588L60.7241 143.91L61.3127 144.807L60.2436 144.749L60.2436 145.391ZM60.2436 141.355L61.3127 141.294L60.7241 142.191L61.2837 142.513L61.7641 141.555L62.2446 142.513L62.8042 142.191L62.2155 141.294L63.2846 141.355L63.2846 140.713L62.2155 140.771L62.8042 139.874L62.2446 139.552L61.7641 140.513L61.2837 139.552L60.7241 139.874L61.3127 140.771L60.2436 140.713L60.2436 141.355ZM60.2436 137.318L61.3127 137.258L60.7241 138.155L61.2837 138.477L61.7641 137.519L62.2446 138.477L62.8042 138.155L62.2155 137.258L63.2846 137.318L63.2846 136.677L62.2155 136.735L62.8042 135.838L62.2446 135.515L61.7641 136.476L61.2837 135.515L60.7241 135.838L61.3127 136.735L60.2436 136.677L60.2436 137.318ZM60.2436 133.282L61.3127 133.222L60.7241 134.119L61.2837 134.441L61.7641 133.483L62.2446 134.441L62.8042 134.119L62.2155 133.222L63.2846 133.282L63.2846 132.641L62.2155 132.699L62.8042 131.801L62.2446 131.479L61.7641 132.44L61.2837 131.479L60.7241 131.801L61.3127 132.699L60.2436 132.641L60.2436 133.282ZM60.2436 129.246L61.3127 129.185L60.7241 130.083L61.2837 130.405L61.7641 129.447L62.2446 130.405L62.8042 130.083L62.2155 129.185L63.2846 129.246L63.2846 128.605L62.2155 128.663L62.8042 127.765L62.2446 127.443L61.7641 128.404L61.2837 127.443L60.7241 127.765L61.3127 128.663L60.2436 128.605L60.2436 129.246ZM60.2436 125.21L61.3127 125.149L60.7241 126.047L61.2837 126.369L61.7641 125.411L62.2446 126.369L62.8042 126.047L62.2155 125.149L63.2846 125.21L63.2846 124.568L62.2155 124.627L62.8042 123.729L62.2446 123.407L61.7641 124.368L61.2837 123.407L60.7241 123.729L61.3127 124.627L60.2436 124.568L60.2436 125.21ZM60.2436 121.174L61.3127 121.113L60.7241 122.011L61.2837 122.333L61.7641 121.374L62.2446 122.333L62.8042 122.011L62.2155 121.113L63.2846 121.174L63.2846 120.532L62.2155 120.59L62.8042 119.693L62.2446 119.371L61.7641 120.332L61.2837 119.371L60.7241 119.693L61.3127 120.59L60.2436 120.532L60.2436 121.174ZM60.2436 117.138L61.3127 117.077L60.7241 117.974L61.2837 118.296L61.7641 117.338L62.2446 118.296L62.8042 117.974L62.2155 117.077L63.2846 117.138L63.2846 116.496L62.2155 116.554L62.8042 115.657L62.2446 115.335L61.7641 116.295L61.2837 115.335L60.7241 115.657L61.3127 116.554L60.2436 116.496L60.2436 117.138ZM60.2436 113.101L61.3127 113.041L60.7241 113.938L61.2837 114.26L61.7641 113.302L62.2446 114.26L62.8042 113.938L62.2155 113.041L63.2846 113.101L63.2846 112.46L62.2155 112.518L62.8042 111.62L62.2446 111.298L61.7641 112.259L61.2837 111.298L60.7241 111.62L61.3127 112.518L60.2436 112.46L60.2436 113.101ZM60.2436 109.065L61.3127 109.004L60.7241 109.902L61.2837 110.224L61.7641 109.266L62.2446 110.224L62.8042 109.902L62.2155 109.004L63.2846 109.065L63.2846 108.424L62.2155 108.482L62.8042 107.584L62.2446 107.262L61.7641 108.223L61.2837 107.262L60.7241 107.584L61.3127 108.482L60.2436 108.424L60.2436 109.065ZM60.2436 105.029L61.3127 104.968L60.7241 105.866L61.2837 106.188L61.7641 105.23L62.2446 106.188L62.8042 105.866L62.2155 104.968L63.2846 105.029L63.2846 104.388L62.2155 104.446L62.8042 103.548L62.2446 103.226L61.7641 104.187L61.2837 103.226L60.7241 103.548L61.3127 104.446L60.2436 104.388L60.2436 105.029ZM60.2436 100.993L61.3127 100.932L60.7241 101.83L61.2837 102.152L61.7641 101.193L62.2446 102.152L62.8042 101.83L62.2155 100.932L63.2846 100.993L63.2846 100.351L62.2155 100.409L62.8042 99.5119L62.2446 99.1899L61.7641 100.151L61.2837 99.1899L60.7241 99.5119L61.3127 100.409L60.2436 100.351L60.2436 100.993ZM60.2436 96.9567L61.3127 96.8959L60.7241 97.7935L61.2837 98.1155L61.7641 97.1573L62.2446 98.1155L62.8042 97.7935L62.2155 96.8959L63.2846 96.9567L63.2846 96.3152L62.2155 96.3733L62.8042 95.4757L62.2446 95.1537L61.7641 96.1146L61.2837 95.1537L60.7241 95.4757L61.3127 96.3733L60.2436 96.3152L60.2436 96.9567ZM60.2436 92.9205L61.3127 92.8598L60.7241 93.7573L61.2837 94.0793L61.7641 93.1211L62.2446 94.0793L62.8042 93.7573L62.2155 92.8598L63.2846 92.9205L63.2846 92.279L62.2155 92.3371L62.8042 91.4396L62.2446 91.1175L61.7641 92.0784L61.2837 91.1175L60.7241 91.4396L61.3127 92.3371L60.2436 92.279L60.2436 92.9205ZM51.2436 145.391L52.3127 145.33L51.7241 146.228L52.2837 146.55L52.7641 145.591L53.2446 146.55L53.8042 146.228L53.2155 145.33L54.2846 145.391L54.2846 144.749L53.2155 144.807L53.8042 143.91L53.2446 143.588L52.7641 144.549L52.2837 143.588L51.7241 143.91L52.3127 144.807L51.2436 144.749L51.2436 145.391ZM51.2436 141.355L52.3127 141.294L51.7241 142.191L52.2837 142.513L52.7641 141.555L53.2446 142.513L53.8042 142.191L53.2155 141.294L54.2846 141.355L54.2846 140.713L53.2155 140.771L53.8042 139.874L53.2446 139.552L52.7641 140.513L52.2837 139.552L51.7241 139.874L52.3127 140.771L51.2436 140.713L51.2436 141.355ZM51.2436 137.318L52.3127 137.258L51.7241 138.155L52.2837 138.477L52.7641 137.519L53.2446 138.477L53.8042 138.155L53.2155 137.258L54.2846 137.318L54.2846 136.677L53.2155 136.735L53.8042 135.838L53.2446 135.515L52.7641 136.476L52.2837 135.515L51.7241 135.838L52.3127 136.735L51.2436 136.677L51.2436 137.318ZM51.2436 133.282L52.3127 133.222L51.7241 134.119L52.2837 134.441L52.7641 133.483L53.2446 134.441L53.8042 134.119L53.2155 133.222L54.2846 133.282L54.2846 132.641L53.2155 132.699L53.8042 131.801L53.2446 131.479L52.7641 132.44L52.2837 131.479L51.7241 131.801L52.3127 132.699L51.2436 132.641L51.2436 133.282ZM51.2436 129.246L52.3127 129.185L51.7241 130.083L52.2837 130.405L52.7641 129.447L53.2446 130.405L53.8042 130.083L53.2155 129.185L54.2846 129.246L54.2846 128.605L53.2155 128.663L53.8042 127.765L53.2446 127.443L52.7641 128.404L52.2837 127.443L51.7241 127.765L52.3127 128.663L51.2436 128.605L51.2436 129.246ZM51.2436 125.21L52.3127 125.149L51.7241 126.047L52.2837 126.369L52.7641 125.411L53.2446 126.369L53.8042 126.047L53.2155 125.149L54.2846 125.21L54.2846 124.568L53.2155 124.627L53.8042 123.729L53.2446 123.407L52.7641 124.368L52.2837 123.407L51.7241 123.729L52.3127 124.627L51.2436 124.568L51.2436 125.21ZM51.2436 121.174L52.3127 121.113L51.7241 122.011L52.2837 122.333L52.7641 121.374L53.2446 122.333L53.8042 122.011L53.2155 121.113L54.2846 121.174L54.2846 120.532L53.2155 120.59L53.8042 119.693L53.2446 119.371L52.7641 120.332L52.2837 119.371L51.7241 119.693L52.3127 120.59L51.2436 120.532L51.2436 121.174ZM51.2436 117.138L52.3127 117.077L51.7241 117.974L52.2837 118.296L52.7641 117.338L53.2446 118.296L53.8042 117.974L53.2155 117.077L54.2846 117.138L54.2846 116.496L53.2155 116.554L53.8042 115.657L53.2446 115.335L52.7641 116.295L52.2837 115.335L51.7241 115.657L52.3127 116.554L51.2436 116.496L51.2436 117.138ZM51.2436 113.101L52.3127 113.041L51.7241 113.938L52.2837 114.26L52.7641 113.302L53.2446 114.26L53.8042 113.938L53.2155 113.041L54.2846 113.101L54.2846 112.46L53.2155 112.518L53.8042 111.62L53.2446 111.298L52.7641 112.259L52.2837 111.298L51.7241 111.62L52.3127 112.518L51.2436 112.46L51.2436 113.101ZM51.2436 109.065L52.3127 109.004L51.7241 109.902L52.2837 110.224L52.7641 109.266L53.2446 110.224L53.8042 109.902L53.2155 109.004L54.2846 109.065L54.2846 108.424L53.2155 108.482L53.8042 107.584L53.2446 107.262L52.7641 108.223L52.2837 107.262L51.7241 107.584L52.3127 108.482L51.2436 108.424L51.2436 109.065ZM51.2436 105.029L52.3127 104.968L51.7241 105.866L52.2837 106.188L52.7641 105.23L53.2446 106.188L53.8042 105.866L53.2155 104.968L54.2846 105.029L54.2846 104.388L53.2155 104.446L53.8042 103.548L53.2446 103.226L52.7641 104.187L52.2837 103.226L51.7241 103.548L52.3127 104.446L51.2436 104.388L51.2436 105.029ZM51.2436 100.993L52.3127 100.932L51.7241 101.83L52.2837 102.152L52.7641 101.193L53.2446 102.152L53.8042 101.83L53.2155 100.932L54.2846 100.993L54.2846 100.351L53.2155 100.409L53.8042 99.5119L53.2446 99.1899L52.7641 100.151L52.2837 99.1899L51.7241 99.5119L52.3127 100.409L51.2436 100.351L51.2436 100.993ZM51.2436 96.9566L52.3127 96.8959L51.7241 97.7935L52.2837 98.1155L52.7641 97.1573L53.2446 98.1155L53.8042 97.7935L53.2155 96.8959L54.2846 96.9567L54.2846 96.3152L53.2155 96.3733L53.8042 95.4757L53.2446 95.1537L52.7641 96.1146L52.2837 95.1537L51.7241 95.4757L52.3127 96.3733L51.2436 96.3152L51.2436 96.9566ZM51.2436 92.9205L52.3127 92.8598L51.7241 93.7573L52.2837 94.0793L52.7641 93.1211L53.2446 94.0793L53.8042 93.7573L53.2155 92.8598L54.2846 92.9205L54.2846 92.279L53.2155 92.3371L53.8042 91.4396L53.2446 91.1175L52.7641 92.0784L52.2837 91.1175L51.7241 91.4396L52.3127 92.3371L51.2436 92.279L51.2436 92.9205ZM42.2436 145.391L43.3127 145.33L42.7241 146.228L43.2837 146.55L43.7641 145.591L44.2446 146.55L44.8042 146.228L44.2155 145.33L45.2846 145.391L45.2846 144.749L44.2155 144.807L44.8042 143.91L44.2446 143.588L43.7641 144.549L43.2837 143.588L42.7241 143.91L43.3127 144.807L42.2436 144.749L42.2436 145.391ZM42.2436 141.355L43.3127 141.294L42.7241 142.191L43.2837 142.513L43.7641 141.555L44.2446 142.513L44.8042 142.191L44.2155 141.294L45.2846 141.355L45.2846 140.713L44.2155 140.771L44.8042 139.874L44.2446 139.552L43.7641 140.513L43.2837 139.552L42.7241 139.874L43.3127 140.771L42.2436 140.713L42.2436 141.355ZM42.2436 137.318L43.3127 137.258L42.7241 138.155L43.2837 138.477L43.7641 137.519L44.2446 138.477L44.8042 138.155L44.2155 137.258L45.2846 137.318L45.2846 136.677L44.2155 136.735L44.8042 135.838L44.2446 135.515L43.7641 136.476L43.2837 135.515L42.7241 135.838L43.3127 136.735L42.2436 136.677L42.2436 137.318ZM42.2436 133.282L43.3127 133.222L42.7241 134.119L43.2837 134.441L43.7641 133.483L44.2446 134.441L44.8042 134.119L44.2155 133.222L45.2846 133.282L45.2846 132.641L44.2155 132.699L44.8042 131.801L44.2446 131.479L43.7641 132.44L43.2837 131.479L42.7241 131.801L43.3127 132.699L42.2436 132.641L42.2436 133.282ZM42.2436 129.246L43.3127 129.185L42.7241 130.083L43.2837 130.405L43.7641 129.447L44.2446 130.405L44.8042 130.083L44.2155 129.185L45.2846 129.246L45.2846 128.605L44.2155 128.663L44.8042 127.765L44.2446 127.443L43.7641 128.404L43.2837 127.443L42.7241 127.765L43.3127 128.663L42.2436 128.605L42.2436 129.246ZM42.2436 125.21L43.3127 125.149L42.7241 126.047L43.2837 126.369L43.7641 125.411L44.2446 126.369L44.8042 126.047L44.2155 125.149L45.2846 125.21L45.2846 124.568L44.2155 124.627L44.8042 123.729L44.2446 123.407L43.7641 124.368L43.2837 123.407L42.7241 123.729L43.3127 124.627L42.2436 124.568L42.2436 125.21ZM42.2436 121.174L43.3127 121.113L42.7241 122.011L43.2837 122.333L43.7641 121.374L44.2446 122.333L44.8042 122.011L44.2155 121.113L45.2846 121.174L45.2846 120.532L44.2155 120.59L44.8042 119.693L44.2446 119.371L43.7641 120.332L43.2837 119.371L42.7241 119.693L43.3127 120.59L42.2436 120.532L42.2436 121.174ZM42.2436 117.138L43.3127 117.077L42.7241 117.974L43.2837 118.296L43.7641 117.338L44.2446 118.296L44.8042 117.974L44.2155 117.077L45.2846 117.138L45.2846 116.496L44.2155 116.554L44.8042 115.657L44.2446 115.335L43.7641 116.295L43.2837 115.335L42.7241 115.657L43.3127 116.554L42.2436 116.496L42.2436 117.138ZM42.2436 113.101L43.3127 113.041L42.7241 113.938L43.2837 114.26L43.7641 113.302L44.2446 114.26L44.8042 113.938L44.2155 113.041L45.2846 113.101L45.2846 112.46L44.2155 112.518L44.8042 111.62L44.2446 111.298L43.7641 112.259L43.2837 111.298L42.7241 111.62L43.3127 112.518L42.2436 112.46L42.2436 113.101ZM42.2436 109.065L43.3127 109.004L42.7241 109.902L43.2837 110.224L43.7641 109.266L44.2446 110.224L44.8042 109.902L44.2155 109.004L45.2846 109.065L45.2846 108.424L44.2155 108.482L44.8042 107.584L44.2446 107.262L43.7641 108.223L43.2837 107.262L42.7241 107.584L43.3127 108.482L42.2436 108.424L42.2436 109.065ZM42.2436 105.029L43.3127 104.968L42.7241 105.866L43.2837 106.188L43.7641 105.23L44.2446 106.188L44.8042 105.866L44.2155 104.968L45.2846 105.029L45.2846 104.388L44.2155 104.446L44.8042 103.548L44.2446 103.226L43.7641 104.187L43.2837 103.226L42.7241 103.548L43.3127 104.446L42.2436 104.388L42.2436 105.029ZM42.2436 100.993L43.3127 100.932L42.7241 101.83L43.2837 102.152L43.7641 101.193L44.2446 102.152L44.8042 101.83L44.2155 100.932L45.2846 100.993L45.2846 100.351L44.2155 100.409L44.8042 99.5119L44.2446 99.1899L43.7641 100.151L43.2837 99.1899L42.7241 99.5119L43.3127 100.409L42.2436 100.351L42.2436 100.993ZM42.2436 96.9566L43.3127 96.8959L42.7241 97.7935L43.2837 98.1155L43.7641 97.1573L44.2446 98.1155L44.8042 97.7935L44.2155 96.8959L45.2846 96.9566L45.2846 96.3152L44.2155 96.3733L44.8042 95.4757L44.2446 95.1537L43.7641 96.1146L43.2837 95.1537L42.7241 95.4757L43.3127 96.3733L42.2436 96.3152L42.2436 96.9566ZM42.2436 92.9205L43.3127 92.8598L42.7241 93.7573L43.2837 94.0793L43.7641 93.1211L44.2446 94.0793L44.8042 93.7573L44.2155 92.8598L45.2846 92.9205L45.2846 92.279L44.2155 92.3371L44.8042 91.4396L44.2446 91.1175L43.7641 92.0784L43.2837 91.1175L42.7241 91.4396L43.3127 92.3371L42.2436 92.279L42.2436 92.9205ZM33.2436 145.391L34.3127 145.33L33.7241 146.228L34.2837 146.55L34.7641 145.591L35.2446 146.55L35.8042 146.228L35.2155 145.33L36.2846 145.391L36.2846 144.749L35.2155 144.807L35.8042 143.91L35.2446 143.588L34.7641 144.549L34.2837 143.588L33.7241 143.91L34.3127 144.807L33.2436 144.749L33.2436 145.391ZM33.2436 141.355L34.3127 141.294L33.7241 142.191L34.2837 142.513L34.7641 141.555L35.2446 142.513L35.8042 142.191L35.2155 141.294L36.2846 141.355L36.2846 140.713L35.2155 140.771L35.8042 139.874L35.2446 139.552L34.7641 140.513L34.2837 139.552L33.7241 139.874L34.3127 140.771L33.2436 140.713L33.2436 141.355ZM33.2436 137.318L34.3127 137.258L33.7241 138.155L34.2837 138.477L34.7641 137.519L35.2446 138.477L35.8042 138.155L35.2155 137.258L36.2846 137.318L36.2846 136.677L35.2155 136.735L35.8042 135.838L35.2446 135.515L34.7641 136.476L34.2837 135.515L33.7241 135.838L34.3127 136.735L33.2436 136.677L33.2436 137.318ZM33.2436 133.282L34.3127 133.222L33.7241 134.119L34.2837 134.441L34.7641 133.483L35.2446 134.441L35.8042 134.119L35.2155 133.222L36.2846 133.282L36.2846 132.641L35.2155 132.699L35.8042 131.801L35.2446 131.479L34.7641 132.44L34.2837 131.479L33.7241 131.801L34.3127 132.699L33.2436 132.641L33.2436 133.282ZM33.2436 129.246L34.3127 129.185L33.7241 130.083L34.2837 130.405L34.7641 129.447L35.2446 130.405L35.8042 130.083L35.2155 129.185L36.2846 129.246L36.2846 128.605L35.2155 128.663L35.8042 127.765L35.2446 127.443L34.7641 128.404L34.2837 127.443L33.7241 127.765L34.3127 128.663L33.2436 128.605L33.2436 129.246ZM33.2436 125.21L34.3127 125.149L33.7241 126.047L34.2837 126.369L34.7641 125.411L35.2446 126.369L35.8042 126.047L35.2155 125.149L36.2846 125.21L36.2846 124.568L35.2155 124.627L35.8042 123.729L35.2446 123.407L34.7641 124.368L34.2837 123.407L33.7241 123.729L34.3127 124.627L33.2436 124.568L33.2436 125.21ZM33.2436 121.174L34.3127 121.113L33.7241 122.011L34.2837 122.333L34.7641 121.374L35.2446 122.333L35.8042 122.011L35.2155 121.113L36.2846 121.174L36.2846 120.532L35.2155 120.59L35.8042 119.693L35.2446 119.371L34.7641 120.332L34.2837 119.371L33.7241 119.693L34.3127 120.59L33.2436 120.532L33.2436 121.174ZM33.2436 117.138L34.3127 117.077L33.7241 117.974L34.2837 118.296L34.7641 117.338L35.2446 118.296L35.8042 117.974L35.2155 117.077L36.2846 117.138L36.2846 116.496L35.2155 116.554L35.8042 115.657L35.2446 115.335L34.7641 116.295L34.2837 115.335L33.7241 115.657L34.3127 116.554L33.2436 116.496L33.2436 117.138ZM33.2436 113.101L34.3127 113.041L33.7241 113.938L34.2837 114.26L34.7641 113.302L35.2446 114.26L35.8042 113.938L35.2155 113.041L36.2846 113.101L36.2846 112.46L35.2155 112.518L35.8042 111.62L35.2446 111.298L34.7641 112.259L34.2837 111.298L33.7241 111.62L34.3127 112.518L33.2436 112.46L33.2436 113.101ZM33.2436 109.065L34.3127 109.004L33.7241 109.902L34.2837 110.224L34.7641 109.266L35.2446 110.224L35.8042 109.902L35.2155 109.004L36.2846 109.065L36.2846 108.424L35.2155 108.482L35.8042 107.584L35.2446 107.262L34.7641 108.223L34.2837 107.262L33.7241 107.584L34.3127 108.482L33.2436 108.424L33.2436 109.065ZM33.2436 105.029L34.3127 104.968L33.7241 105.866L34.2837 106.188L34.7641 105.23L35.2446 106.188L35.8042 105.866L35.2155 104.968L36.2846 105.029L36.2846 104.388L35.2155 104.446L35.8042 103.548L35.2446 103.226L34.7641 104.187L34.2837 103.226L33.7241 103.548L34.3127 104.446L33.2436 104.388L33.2436 105.029ZM33.2436 100.993L34.3127 100.932L33.7241 101.83L34.2837 102.152L34.7641 101.193L35.2446 102.152L35.8042 101.83L35.2155 100.932L36.2846 100.993L36.2846 100.351L35.2155 100.409L35.8042 99.5119L35.2446 99.1899L34.7641 100.151L34.2837 99.1899L33.7241 99.5119L34.3127 100.409L33.2436 100.351L33.2436 100.993ZM33.2436 96.9566L34.3127 96.8959L33.7241 97.7935L34.2837 98.1155L34.7641 97.1573L35.2446 98.1155L35.8042 97.7935L35.2155 96.8959L36.2846 96.9566L36.2846 96.3152L35.2155 96.3733L35.8042 95.4757L35.2446 95.1537L34.7641 96.1146L34.2837 95.1537L33.7241 95.4757L34.3127 96.3733L33.2436 96.3152L33.2436 96.9566ZM33.2436 92.9205L34.3127 92.8598L33.7241 93.7573L34.2837 94.0793L34.7641 93.1211L35.2446 94.0793L35.8042 93.7573L35.2155 92.8598L36.2846 92.9205L36.2846 92.279L35.2155 92.3371L35.8042 91.4396L35.2446 91.1175L34.7641 92.0784L34.2837 91.1175L33.7241 91.4396L34.3127 92.3371L33.2436 92.279L33.2436 92.9205ZM24.2436 137.318L25.3127 137.258L24.7241 138.155L25.2837 138.477L25.7641 137.519L26.2446 138.477L26.8042 138.155L26.2155 137.258L27.2846 137.318L27.2846 136.677L26.2155 136.735L26.8042 135.838L26.2446 135.515L25.7641 136.476L25.2837 135.515L24.7241 135.838L25.3127 136.735L24.2436 136.677L24.2436 137.318ZM24.2436 133.282L25.3127 133.222L24.7241 134.119L25.2837 134.441L25.7641 133.483L26.2446 134.441L26.8042 134.119L26.2155 133.222L27.2846 133.282L27.2846 132.641L26.2155 132.699L26.8042 131.801L26.2446 131.479L25.7641 132.44L25.2837 131.479L24.7241 131.801L25.3127 132.699L24.2436 132.641L24.2436 133.282ZM24.2436 129.246L25.3127 129.185L24.7241 130.083L25.2837 130.405L25.7641 129.447L26.2446 130.405L26.8042 130.083L26.2155 129.185L27.2846 129.246L27.2846 128.605L26.2155 128.663L26.8042 127.765L26.2446 127.443L25.7641 128.404L25.2837 127.443L24.7241 127.765L25.3127 128.663L24.2436 128.605L24.2436 129.246ZM24.2436 125.21L25.3127 125.149L24.7241 126.047L25.2837 126.369L25.7641 125.411L26.2446 126.369L26.8042 126.047L26.2155 125.149L27.2846 125.21L27.2846 124.568L26.2155 124.627L26.8042 123.729L26.2446 123.407L25.7641 124.368L25.2837 123.407L24.7241 123.729L25.3127 124.627L24.2436 124.568L24.2436 125.21ZM24.2436 121.174L25.3127 121.113L24.7241 122.011L25.2837 122.333L25.7641 121.374L26.2446 122.333L26.8042 122.011L26.2155 121.113L27.2846 121.174L27.2846 120.532L26.2155 120.59L26.8042 119.693L26.2446 119.371L25.7641 120.332L25.2837 119.371L24.7241 119.693L25.3127 120.59L24.2436 120.532L24.2436 121.174ZM24.2436 117.138L25.3127 117.077L24.7241 117.974L25.2837 118.296L25.7641 117.338L26.2446 118.296L26.8042 117.974L26.2155 117.077L27.2846 117.138L27.2846 116.496L26.2155 116.554L26.8042 115.657L26.2446 115.335L25.7641 116.295L25.2837 115.335L24.7241 115.657L25.3127 116.554L24.2436 116.496L24.2436 117.138ZM24.2436 113.101L25.3127 113.041L24.7241 113.938L25.2837 114.26L25.7641 113.302L26.2446 114.26L26.8042 113.938L26.2155 113.041L27.2846 113.101L27.2846 112.46L26.2155 112.518L26.8042 111.62L26.2446 111.298L25.7641 112.259L25.2837 111.298L24.7241 111.62L25.3127 112.518L24.2436 112.46L24.2436 113.101ZM24.2436 109.065L25.3127 109.004L24.7241 109.902L25.2837 110.224L25.7641 109.266L26.2446 110.224L26.8042 109.902L26.2155 109.004L27.2846 109.065L27.2846 108.424L26.2155 108.482L26.8042 107.584L26.2446 107.262L25.7641 108.223L25.2837 107.262L24.7241 107.584L25.3127 108.482L24.2436 108.424L24.2436 109.065ZM24.2436 105.029L25.3127 104.968L24.7241 105.866L25.2837 106.188L25.7641 105.23L26.2446 106.188L26.8042 105.866L26.2155 104.968L27.2846 105.029L27.2846 104.388L26.2155 104.446L26.8042 103.548L26.2446 103.226L25.7641 104.187L25.2837 103.226L24.7241 103.548L25.3127 104.446L24.2436 104.388L24.2436 105.029ZM24.2436 100.993L25.3127 100.932L24.7241 101.83L25.2837 102.152L25.7641 101.193L26.2446 102.152L26.8042 101.83L26.2155 100.932L27.2846 100.993L27.2846 100.351L26.2155 100.409L26.8042 99.5119L26.2446 99.1899L25.7641 100.151L25.2837 99.1899L24.7241 99.5119L25.3127 100.409L24.2436 100.351L24.2436 100.993ZM24.2436 96.9566L25.3127 96.8959L24.7241 97.7934L25.2837 98.1155L25.7641 97.1573L26.2446 98.1155L26.8042 97.7934L26.2155 96.8959L27.2846 96.9566L27.2846 96.3152L26.2155 96.3733L26.8042 95.4757L26.2446 95.1537L25.7641 96.1146L25.2837 95.1537L24.7241 95.4757L25.3127 96.3733L24.2436 96.3152L24.2436 96.9566ZM24.2436 92.9205L25.3127 92.8598L24.7241 93.7573L25.2837 94.0793L25.7641 93.1211L26.2446 94.0793L26.8042 93.7573L26.2155 92.8598L27.2846 92.9205L27.2846 92.279L26.2155 92.3371L26.8042 91.4396L26.2446 91.1175L25.7641 92.0784L25.2837 91.1175L24.7241 91.4396L25.3127 92.3371L24.2436 92.279L24.2436 92.9205ZM15.2436 100.993L16.3127 100.932L15.7241 101.83L16.2837 102.152L16.7641 101.193L17.2446 102.152L17.8042 101.83L17.2155 100.932L18.2846 100.993L18.2846 100.351L17.2155 100.409L17.8042 99.5119L17.2446 99.1899L16.7641 100.151L16.2837 99.1899L15.7241 99.5119L16.3127 100.409L15.2436 100.351L15.2436 100.993ZM15.2436 96.9566L16.3127 96.8959L15.7241 97.7934L16.2837 98.1155L16.7641 97.1573L17.2446 98.1155L17.8042 97.7934L17.2155 96.8959L18.2846 96.9566L18.2846 96.3152L17.2155 96.3733L17.8042 95.4757L17.2446 95.1537L16.7641 96.1146L16.2837 95.1537L15.7241 95.4757L16.3127 96.3733L15.2436 96.3152L15.2436 96.9566ZM15.2436 92.9205L16.3127 92.8598L15.7241 93.7573L16.2837 94.0793L16.7641 93.1211L17.2446 94.0793L17.8042 93.7573L17.2155 92.8598L18.2846 92.9205L18.2846 92.279L17.2155 92.3371L17.8042 91.4396L17.2446 91.1175L16.7641 92.0784L16.2837 91.1175L15.7241 91.4396L16.3127 92.3371L15.2436 92.279L15.2436 92.9205Z" fill="black"/>
<path d="M120.69 68.9722H312.884V163.615H352.309V265.651H183.885V163.615H98.9487" stroke="black" stroke-width="0.309731" stroke-dasharray="5.27 5.27"/>
<path d="M233.956 94.134L233.64 286.328L138.998 286.172L138.933 325.596L36.8964 325.429L37.1733 157.006L139.21 157.173L139.349 72.237" stroke="black" stroke-width="0.309731" stroke-dasharray="5.27 5.27"/>
<path d="M204.576 660.233L204.661 528.913L278.682 528.961L278.699 502.023L358.503 502.074L358.429 617.152L278.625 617.101L278.588 675.135" stroke="black" stroke-width="0.309731" stroke-dasharray="5.27 5.27"/>
<path d="M20.1282 676.914L20.2516 484.72L114.894 484.78L114.919 445.356L216.956 445.422L216.848 613.845L114.811 613.779L114.757 698.716" stroke="black" stroke-width="0.309731" stroke-dasharray="5.27 5.27"/>
<path d="M347.674 693.578L348.743 693.517L348.154 694.415L348.714 694.737L349.194 693.778L349.675 694.737L350.234 694.415L349.646 693.517L350.715 693.578L350.715 692.936L349.646 692.994L350.234 692.097L349.675 691.775L349.194 692.736L348.714 691.775L348.154 692.097L348.743 692.994L347.674 692.936L347.674 693.578ZM347.674 689.542L348.743 689.481L348.154 690.378L348.714 690.7L349.194 689.742L349.675 690.7L350.234 690.378L349.646 689.481L350.715 689.542L350.715 688.9L349.646 688.958L350.234 688.061L349.675 687.739L349.194 688.7L348.714 687.739L348.154 688.061L348.743 688.958L347.674 688.9L347.674 689.542ZM347.674 685.505L348.743 685.445L348.154 686.342L348.714 686.664L349.194 685.706L349.675 686.664L350.234 686.342L349.646 685.445L350.715 685.505L350.715 684.864L349.646 684.922L350.234 684.025L349.675 683.702L349.194 684.663L348.714 683.702L348.154 684.025L348.743 684.922L347.674 684.864L347.674 685.505ZM347.674 681.469L348.743 681.409L348.154 682.306L348.714 682.628L349.194 681.67L349.675 682.628L350.234 682.306L349.646 681.409L350.715 681.469L350.715 680.828L349.646 680.886L350.234 679.988L349.675 679.666L349.194 680.627L348.714 679.666L348.154 679.988L348.743 680.886L347.674 680.828L347.674 681.469ZM347.674 677.433L348.743 677.372L348.154 678.27L348.714 678.592L349.194 677.634L349.675 678.592L350.234 678.27L349.646 677.372L350.715 677.433L350.715 676.792L349.646 676.85L350.234 675.952L349.675 675.63L349.194 676.591L348.714 675.63L348.154 675.952L348.743 676.85L347.674 676.792L347.674 677.433ZM347.674 673.397L348.743 673.336L348.154 674.234L348.714 674.556L349.194 673.598L349.675 674.556L350.234 674.234L349.646 673.336L350.715 673.397L350.715 672.755L349.646 672.814L350.234 671.916L349.675 671.594L349.194 672.555L348.714 671.594L348.154 671.916L348.743 672.814L347.674 672.755L347.674 673.397ZM347.674 669.361L348.743 669.3L348.154 670.198L348.714 670.52L349.194 669.561L349.675 670.52L350.234 670.198L349.646 669.3L350.715 669.361L350.715 668.719L349.646 668.777L350.234 667.88L349.675 667.558L349.194 668.519L348.714 667.558L348.154 667.88L348.743 668.777L347.674 668.719L347.674 669.361ZM347.674 665.325L348.743 665.264L348.154 666.161L348.714 666.483L349.194 665.525L349.675 666.483L350.234 666.161L349.646 665.264L350.715 665.325L350.715 664.683L349.646 664.741L350.234 663.844L349.675 663.522L349.194 664.482L348.714 663.522L348.154 663.844L348.743 664.741L347.674 664.683L347.674 665.325ZM347.674 661.288L348.743 661.228L348.154 662.125L348.714 662.447L349.194 661.489L349.675 662.447L350.234 662.125L349.646 661.228L350.715 661.288L350.715 660.647L349.646 660.705L350.234 659.807L349.675 659.485L349.194 660.446L348.714 659.485L348.154 659.807L348.743 660.705L347.674 660.647L347.674 661.288ZM347.674 657.252L348.743 657.191L348.154 658.089L348.714 658.411L349.194 657.453L349.675 658.411L350.234 658.089L349.646 657.191L350.715 657.252L350.715 656.611L349.646 656.669L350.234 655.771L349.675 655.449L349.194 656.41L348.714 655.449L348.154 655.771L348.743 656.669L347.674 656.611L347.674 657.252ZM347.674 653.216L348.743 653.155L348.154 654.053L348.714 654.375L349.194 653.417L349.675 654.375L350.234 654.053L349.646 653.155L350.715 653.216L350.715 652.575L349.646 652.633L350.234 651.735L349.675 651.413L349.194 652.374L348.714 651.413L348.154 651.735L348.743 652.633L347.674 652.575L347.674 653.216ZM347.674 649.18L348.743 649.119L348.154 650.017L348.714 650.339L349.194 649.38L349.675 650.339L350.234 650.017L349.646 649.119L350.715 649.18L350.715 648.538L349.646 648.596L350.234 647.699L349.675 647.377L349.194 648.338L348.714 647.377L348.154 647.699L348.743 648.596L347.674 648.538L347.674 649.18ZM347.674 645.144L348.743 645.083L348.154 645.98L348.714 646.302L349.194 645.344L349.675 646.302L350.234 645.98L349.646 645.083L350.715 645.144L350.715 644.502L349.646 644.56L350.234 643.663L349.675 643.341L349.194 644.302L348.714 643.341L348.154 643.663L348.743 644.56L347.674 644.502L347.674 645.144ZM347.674 641.107L348.743 641.047L348.154 641.944L348.714 642.266L349.194 641.308L349.675 642.266L350.234 641.944L349.646 641.047L350.715 641.107L350.715 640.466L349.646 640.524L350.234 639.627L349.675 639.304L349.194 640.265L348.714 639.304L348.154 639.627L348.743 640.524L347.674 640.466L347.674 641.107ZM338.674 693.578L339.743 693.517L339.154 694.415L339.714 694.737L340.194 693.778L340.675 694.737L341.234 694.415L340.646 693.517L341.715 693.578L341.715 692.936L340.646 692.994L341.234 692.097L340.675 691.775L340.194 692.736L339.714 691.775L339.154 692.097L339.743 692.994L338.674 692.936L338.674 693.578ZM338.674 689.542L339.743 689.481L339.154 690.378L339.714 690.7L340.194 689.742L340.675 690.7L341.234 690.378L340.646 689.481L341.715 689.542L341.715 688.9L340.646 688.958L341.234 688.061L340.675 687.739L340.194 688.7L339.714 687.739L339.154 688.061L339.743 688.958L338.674 688.9L338.674 689.542ZM338.674 685.505L339.743 685.445L339.154 686.342L339.714 686.664L340.194 685.706L340.675 686.664L341.234 686.342L340.646 685.445L341.715 685.505L341.715 684.864L340.646 684.922L341.234 684.025L340.675 683.702L340.194 684.663L339.714 683.702L339.154 684.025L339.743 684.922L338.674 684.864L338.674 685.505ZM338.674 681.469L339.743 681.409L339.154 682.306L339.714 682.628L340.194 681.67L340.675 682.628L341.234 682.306L340.646 681.409L341.715 681.469L341.715 680.828L340.646 680.886L341.234 679.988L340.675 679.666L340.194 680.627L339.714 679.666L339.154 679.988L339.743 680.886L338.674 680.828L338.674 681.469ZM338.674 677.433L339.743 677.372L339.154 678.27L339.714 678.592L340.194 677.634L340.675 678.592L341.234 678.27L340.646 677.372L341.715 677.433L341.715 676.792L340.646 676.85L341.234 675.952L340.675 675.63L340.194 676.591L339.714 675.63L339.154 675.952L339.743 676.85L338.674 676.792L338.674 677.433ZM338.674 673.397L339.743 673.336L339.154 674.234L339.714 674.556L340.194 673.598L340.675 674.556L341.234 674.234L340.646 673.336L341.715 673.397L341.715 672.755L340.646 672.814L341.234 671.916L340.675 671.594L340.194 672.555L339.714 671.594L339.154 671.916L339.743 672.814L338.674 672.755L338.674 673.397ZM338.674 669.361L339.743 669.3L339.154 670.198L339.714 670.52L340.194 669.561L340.675 670.52L341.234 670.198L340.646 669.3L341.715 669.361L341.715 668.719L340.646 668.777L341.234 667.88L340.675 667.558L340.194 668.519L339.714 667.558L339.154 667.88L339.743 668.777L338.674 668.719L338.674 669.361ZM338.674 665.325L339.743 665.264L339.154 666.161L339.714 666.483L340.194 665.525L340.675 666.483L341.234 666.161L340.646 665.264L341.715 665.325L341.715 664.683L340.646 664.741L341.234 663.844L340.675 663.522L340.194 664.482L339.714 663.522L339.154 663.844L339.743 664.741L338.674 664.683L338.674 665.325ZM338.674 661.288L339.743 661.228L339.154 662.125L339.714 662.447L340.194 661.489L340.675 662.447L341.234 662.125L340.646 661.228L341.715 661.288L341.715 660.647L340.646 660.705L341.234 659.807L340.675 659.485L340.194 660.446L339.714 659.485L339.154 659.807L339.743 660.705L338.674 660.647L338.674 661.288ZM338.674 657.252L339.743 657.191L339.154 658.089L339.714 658.411L340.194 657.453L340.675 658.411L341.234 658.089L340.646 657.191L341.715 657.252L341.715 656.611L340.646 656.669L341.234 655.771L340.675 655.449L340.194 656.41L339.714 655.449L339.154 655.771L339.743 656.669L338.674 656.611L338.674 657.252ZM338.674 653.216L339.743 653.155L339.154 654.053L339.714 654.375L340.194 653.417L340.675 654.375L341.234 654.053L340.646 653.155L341.715 653.216L341.715 652.575L340.646 652.633L341.234 651.735L340.675 651.413L340.194 652.374L339.714 651.413L339.154 651.735L339.743 652.633L338.674 652.575L338.674 653.216ZM338.674 649.18L339.743 649.119L339.154 650.017L339.714 650.339L340.194 649.38L340.675 650.339L341.234 650.017L340.646 649.119L341.715 649.18L341.715 648.538L340.646 648.596L341.234 647.699L340.675 647.377L340.194 648.338L339.714 647.377L339.154 647.699L339.743 648.596L338.674 648.538L338.674 649.18ZM338.674 645.144L339.743 645.083L339.154 645.98L339.714 646.302L340.194 645.344L340.675 646.302L341.234 645.98L340.646 645.083L341.715 645.144L341.715 644.502L340.646 644.56L341.234 643.663L340.675 643.341L340.194 644.302L339.714 643.341L339.154 643.663L339.743 644.56L338.674 644.502L338.674 645.144ZM338.674 641.107L339.743 641.047L339.154 641.944L339.714 642.266L340.194 641.308L340.675 642.266L341.234 641.944L340.646 641.047L341.715 641.107L341.715 640.466L340.646 640.524L341.234 639.627L340.675 639.304L340.194 640.265L339.714 639.304L339.154 639.627L339.743 640.524L338.674 640.466L338.674 641.107ZM329.674 693.578L330.743 693.517L330.154 694.415L330.714 694.737L331.194 693.778L331.675 694.737L332.234 694.415L331.646 693.517L332.715 693.578L332.715 692.936L331.646 692.994L332.234 692.097L331.675 691.775L331.194 692.736L330.714 691.775L330.154 692.097L330.743 692.994L329.674 692.936L329.674 693.578ZM329.674 689.542L330.743 689.481L330.154 690.378L330.714 690.7L331.194 689.742L331.675 690.7L332.234 690.378L331.646 689.481L332.715 689.542L332.715 688.9L331.646 688.958L332.234 688.061L331.675 687.739L331.194 688.7L330.714 687.739L330.154 688.061L330.743 688.958L329.674 688.9L329.674 689.542ZM329.674 685.505L330.743 685.445L330.154 686.342L330.714 686.664L331.194 685.706L331.675 686.664L332.234 686.342L331.646 685.445L332.715 685.505L332.715 684.864L331.646 684.922L332.234 684.025L331.675 683.702L331.194 684.663L330.714 683.702L330.154 684.025L330.743 684.922L329.674 684.864L329.674 685.505ZM329.674 681.469L330.743 681.409L330.154 682.306L330.714 682.628L331.194 681.67L331.675 682.628L332.234 682.306L331.646 681.409L332.715 681.469L332.715 680.828L331.646 680.886L332.234 679.988L331.675 679.666L331.194 680.627L330.714 679.666L330.154 679.988L330.743 680.886L329.674 680.828L329.674 681.469ZM329.674 677.433L330.743 677.372L330.154 678.27L330.714 678.592L331.194 677.634L331.675 678.592L332.234 678.27L331.646 677.372L332.715 677.433L332.715 676.792L331.646 676.85L332.234 675.952L331.675 675.63L331.194 676.591L330.714 675.63L330.154 675.952L330.743 676.85L329.674 676.792L329.674 677.433ZM329.674 673.397L330.743 673.336L330.154 674.234L330.714 674.556L331.194 673.598L331.675 674.556L332.234 674.234L331.646 673.336L332.715 673.397L332.715 672.755L331.646 672.813L332.234 671.916L331.675 671.594L331.194 672.555L330.714 671.594L330.154 671.916L330.743 672.813L329.674 672.755L329.674 673.397ZM329.674 669.361L330.743 669.3L330.154 670.198L330.714 670.52L331.194 669.561L331.675 670.52L332.234 670.198L331.646 669.3L332.715 669.361L332.715 668.719L331.646 668.777L332.234 667.88L331.675 667.558L331.194 668.519L330.714 667.558L330.154 667.88L330.743 668.777L329.674 668.719L329.674 669.361ZM329.674 665.325L330.743 665.264L330.154 666.161L330.714 666.483L331.194 665.525L331.675 666.483L332.234 666.161L331.646 665.264L332.715 665.325L332.715 664.683L331.646 664.741L332.234 663.844L331.675 663.522L331.194 664.482L330.714 663.522L330.154 663.844L330.743 664.741L329.674 664.683L329.674 665.325ZM329.674 661.288L330.743 661.228L330.154 662.125L330.714 662.447L331.194 661.489L331.675 662.447L332.234 662.125L331.646 661.228L332.715 661.288L332.715 660.647L331.646 660.705L332.234 659.807L331.675 659.485L331.194 660.446L330.714 659.485L330.154 659.807L330.743 660.705L329.674 660.647L329.674 661.288ZM329.674 657.252L330.743 657.191L330.154 658.089L330.714 658.411L331.194 657.453L331.675 658.411L332.234 658.089L331.646 657.191L332.715 657.252L332.715 656.611L331.646 656.669L332.234 655.771L331.675 655.449L331.194 656.41L330.714 655.449L330.154 655.771L330.743 656.669L329.674 656.611L329.674 657.252ZM329.674 653.216L330.743 653.155L330.154 654.053L330.714 654.375L331.194 653.417L331.675 654.375L332.234 654.053L331.646 653.155L332.715 653.216L332.715 652.575L331.646 652.633L332.234 651.735L331.675 651.413L331.194 652.374L330.714 651.413L330.154 651.735L330.743 652.633L329.674 652.575L329.674 653.216ZM329.674 649.18L330.743 649.119L330.154 650.017L330.714 650.339L331.194 649.38L331.675 650.339L332.234 650.017L331.646 649.119L332.715 649.18L332.715 648.538L331.646 648.596L332.234 647.699L331.675 647.377L331.194 648.338L330.714 647.377L330.154 647.699L330.743 648.596L329.674 648.538L329.674 649.18ZM329.674 645.144L330.743 645.083L330.154 645.98L330.714 646.302L331.194 645.344L331.675 646.302L332.234 645.98L331.646 645.083L332.715 645.144L332.715 644.502L331.646 644.56L332.234 643.663L331.675 643.341L331.194 644.302L330.714 643.341L330.154 643.663L330.743 644.56L329.674 644.502L329.674 645.144ZM329.674 641.107L330.743 641.047L330.154 641.944L330.714 642.266L331.194 641.308L331.675 642.266L332.234 641.944L331.646 641.047L332.715 641.107L332.715 640.466L331.646 640.524L332.234 639.627L331.675 639.304L331.194 640.265L330.714 639.304L330.154 639.627L330.743 640.524L329.674 640.466L329.674 641.107ZM320.674 693.578L321.743 693.517L321.154 694.415L321.714 694.737L322.194 693.778L322.675 694.737L323.234 694.415L322.646 693.517L323.715 693.578L323.715 692.936L322.646 692.994L323.234 692.097L322.675 691.775L322.194 692.736L321.714 691.775L321.154 692.097L321.743 692.994L320.674 692.936L320.674 693.578ZM320.674 689.542L321.743 689.481L321.154 690.378L321.714 690.7L322.194 689.742L322.675 690.7L323.234 690.378L322.646 689.481L323.715 689.542L323.715 688.9L322.646 688.958L323.234 688.061L322.675 687.739L322.194 688.7L321.714 687.739L321.154 688.061L321.743 688.958L320.674 688.9L320.674 689.542ZM320.674 685.505L321.743 685.445L321.154 686.342L321.714 686.664L322.194 685.706L322.675 686.664L323.234 686.342L322.646 685.445L323.715 685.505L323.715 684.864L322.646 684.922L323.234 684.025L322.675 683.702L322.194 684.663L321.714 683.702L321.154 684.025L321.743 684.922L320.674 684.864L320.674 685.505ZM320.674 681.469L321.743 681.409L321.154 682.306L321.714 682.628L322.194 681.67L322.675 682.628L323.234 682.306L322.646 681.409L323.715 681.469L323.715 680.828L322.646 680.886L323.234 679.988L322.675 679.666L322.194 680.627L321.714 679.666L321.154 679.988L321.743 680.886L320.674 680.828L320.674 681.469ZM320.674 677.433L321.743 677.372L321.154 678.27L321.714 678.592L322.194 677.634L322.675 678.592L323.234 678.27L322.646 677.372L323.715 677.433L323.715 676.792L322.646 676.85L323.234 675.952L322.675 675.63L322.194 676.591L321.714 675.63L321.154 675.952L321.743 676.85L320.674 676.792L320.674 677.433ZM320.674 673.397L321.743 673.336L321.154 674.234L321.714 674.556L322.194 673.598L322.675 674.556L323.234 674.234L322.646 673.336L323.715 673.397L323.715 672.755L322.646 672.813L323.234 671.916L322.675 671.594L322.194 672.555L321.714 671.594L321.154 671.916L321.743 672.813L320.674 672.755L320.674 673.397ZM320.674 669.361L321.743 669.3L321.154 670.198L321.714 670.52L322.194 669.561L322.675 670.52L323.234 670.198L322.646 669.3L323.715 669.361L323.715 668.719L322.646 668.777L323.234 667.88L322.675 667.558L322.194 668.519L321.714 667.558L321.154 667.88L321.743 668.777L320.674 668.719L320.674 669.361ZM320.674 665.325L321.743 665.264L321.154 666.161L321.714 666.483L322.194 665.525L322.675 666.483L323.234 666.161L322.646 665.264L323.715 665.325L323.715 664.683L322.646 664.741L323.234 663.844L322.675 663.522L322.194 664.482L321.714 663.522L321.154 663.844L321.743 664.741L320.674 664.683L320.674 665.325ZM320.674 661.288L321.743 661.228L321.154 662.125L321.714 662.447L322.194 661.489L322.675 662.447L323.234 662.125L322.646 661.228L323.715 661.288L323.715 660.647L322.646 660.705L323.234 659.807L322.675 659.485L322.194 660.446L321.714 659.485L321.154 659.807L321.743 660.705L320.674 660.647L320.674 661.288ZM320.674 657.252L321.743 657.191L321.154 658.089L321.714 658.411L322.194 657.453L322.675 658.411L323.234 658.089L322.646 657.191L323.715 657.252L323.715 656.611L322.646 656.669L323.234 655.771L322.675 655.449L322.194 656.41L321.714 655.449L321.154 655.771L321.743 656.669L320.674 656.611L320.674 657.252ZM320.674 653.216L321.743 653.155L321.154 654.053L321.714 654.375L322.194 653.417L322.675 654.375L323.234 654.053L322.646 653.155L323.715 653.216L323.715 652.575L322.646 652.633L323.234 651.735L322.675 651.413L322.194 652.374L321.714 651.413L321.154 651.735L321.743 652.633L320.674 652.575L320.674 653.216ZM320.674 649.18L321.743 649.119L321.154 650.017L321.714 650.339L322.194 649.38L322.675 650.339L323.234 650.017L322.646 649.119L323.715 649.18L323.715 648.538L322.646 648.596L323.234 647.699L322.675 647.377L322.194 648.338L321.714 647.377L321.154 647.699L321.743 648.596L320.674 648.538L320.674 649.18ZM320.674 645.144L321.743 645.083L321.154 645.98L321.714 646.302L322.194 645.344L322.675 646.302L323.234 645.98L322.646 645.083L323.715 645.144L323.715 644.502L322.646 644.56L323.234 643.663L322.675 643.341L322.194 644.302L321.714 643.341L321.154 643.663L321.743 644.56L320.674 644.502L320.674 645.144ZM320.674 641.107L321.743 641.047L321.154 641.944L321.714 642.266L322.194 641.308L322.675 642.266L323.234 641.944L322.646 641.047L323.715 641.107L323.715 640.466L322.646 640.524L323.234 639.627L322.675 639.304L322.194 640.265L321.714 639.304L321.154 639.627L321.743 640.524L320.674 640.466L320.674 641.107ZM311.674 693.578L312.743 693.517L312.154 694.415L312.714 694.737L313.194 693.778L313.675 694.737L314.234 694.415L313.646 693.517L314.715 693.578L314.715 692.936L313.646 692.994L314.234 692.097L313.675 691.775L313.194 692.736L312.714 691.775L312.154 692.097L312.743 692.994L311.674 692.936L311.674 693.578ZM311.674 689.542L312.743 689.481L312.154 690.378L312.714 690.7L313.194 689.742L313.675 690.7L314.234 690.378L313.646 689.481L314.715 689.542L314.715 688.9L313.646 688.958L314.234 688.061L313.675 687.739L313.194 688.7L312.714 687.739L312.154 688.061L312.743 688.958L311.674 688.9L311.674 689.542ZM311.674 685.505L312.743 685.445L312.154 686.342L312.714 686.664L313.194 685.706L313.675 686.664L314.234 686.342L313.646 685.445L314.715 685.505L314.715 684.864L313.646 684.922L314.234 684.025L313.675 683.702L313.194 684.663L312.714 683.702L312.154 684.025L312.743 684.922L311.674 684.864L311.674 685.505ZM311.674 681.469L312.743 681.409L312.154 682.306L312.714 682.628L313.194 681.67L313.675 682.628L314.234 682.306L313.646 681.409L314.715 681.469L314.715 680.828L313.646 680.886L314.234 679.988L313.675 679.666L313.194 680.627L312.714 679.666L312.154 679.988L312.743 680.886L311.674 680.828L311.674 681.469ZM311.674 677.433L312.743 677.372L312.154 678.27L312.714 678.592L313.194 677.634L313.675 678.592L314.234 678.27L313.646 677.372L314.715 677.433L314.715 676.792L313.646 676.85L314.234 675.952L313.675 675.63L313.194 676.591L312.714 675.63L312.154 675.952L312.743 676.85L311.674 676.792L311.674 677.433ZM311.674 673.397L312.743 673.336L312.154 674.234L312.714 674.556L313.194 673.598L313.675 674.556L314.234 674.234L313.646 673.336L314.715 673.397L314.715 672.755L313.646 672.813L314.234 671.916L313.675 671.594L313.194 672.555L312.714 671.594L312.154 671.916L312.743 672.813L311.674 672.755L311.674 673.397ZM311.674 669.361L312.743 669.3L312.154 670.198L312.714 670.52L313.194 669.561L313.675 670.52L314.234 670.198L313.646 669.3L314.715 669.361L314.715 668.719L313.646 668.777L314.234 667.88L313.675 667.558L313.194 668.519L312.714 667.558L312.154 667.88L312.743 668.777L311.674 668.719L311.674 669.361ZM311.674 665.325L312.743 665.264L312.154 666.161L312.714 666.483L313.194 665.525L313.675 666.483L314.234 666.161L313.646 665.264L314.715 665.325L314.715 664.683L313.646 664.741L314.234 663.844L313.675 663.522L313.194 664.482L312.714 663.522L312.154 663.844L312.743 664.741L311.674 664.683L311.674 665.325ZM311.674 661.288L312.743 661.228L312.154 662.125L312.714 662.447L313.194 661.489L313.675 662.447L314.234 662.125L313.646 661.228L314.715 661.288L314.715 660.647L313.646 660.705L314.234 659.807L313.675 659.485L313.194 660.446L312.714 659.485L312.154 659.807L312.743 660.705L311.674 660.647L311.674 661.288ZM311.674 657.252L312.743 657.191L312.154 658.089L312.714 658.411L313.194 657.453L313.675 658.411L314.234 658.089L313.646 657.191L314.715 657.252L314.715 656.611L313.646 656.669L314.234 655.771L313.675 655.449L313.194 656.41L312.714 655.449L312.154 655.771L312.743 656.669L311.674 656.611L311.674 657.252ZM311.674 653.216L312.743 653.155L312.154 654.053L312.714 654.375L313.194 653.417L313.675 654.375L314.234 654.053L313.646 653.155L314.715 653.216L314.715 652.575L313.646 652.633L314.234 651.735L313.675 651.413L313.194 652.374L312.714 651.413L312.154 651.735L312.743 652.633L311.674 652.575L311.674 653.216ZM311.674 649.18L312.743 649.119L312.154 650.017L312.714 650.339L313.194 649.38L313.675 650.339L314.234 650.017L313.646 649.119L314.715 649.18L314.715 648.538L313.646 648.596L314.234 647.699L313.675 647.377L313.194 648.338L312.714 647.377L312.154 647.699L312.743 648.596L311.674 648.538L311.674 649.18ZM302.674 693.578L303.743 693.517L303.154 694.415L303.714 694.737L304.194 693.778L304.675 694.737L305.234 694.415L304.646 693.517L305.715 693.578L305.715 692.936L304.646 692.994L305.234 692.097L304.675 691.775L304.194 692.736L303.714 691.775L303.154 692.097L303.743 692.994L302.674 692.936L302.674 693.578ZM302.674 689.542L303.743 689.481L303.154 690.378L303.714 690.7L304.194 689.742L304.675 690.7L305.234 690.378L304.646 689.481L305.715 689.542L305.715 688.9L304.646 688.958L305.234 688.061L304.675 687.739L304.194 688.7L303.714 687.739L303.154 688.061L303.743 688.958L302.674 688.9L302.674 689.542ZM302.674 685.505L303.743 685.445L303.154 686.342L303.714 686.664L304.194 685.706L304.675 686.664L305.234 686.342L304.646 685.445L305.715 685.505L305.715 684.864L304.646 684.922L305.234 684.025L304.675 683.702L304.194 684.663L303.714 683.702L303.154 684.025L303.743 684.922L302.674 684.864L302.674 685.505Z" fill="black"/>
</svg>
