<svg width="745" height="909" viewBox="0 0 745 909" fill="none" xmlns="http://www.w3.org/2000/svg">
<path d="M95.7672 214.904L97.1479 214.825L96.3876 215.984L97.1104 216.4L97.7308 215.163L98.3513 216.4L99.074 215.984L98.3138 214.825L99.6945 214.904V214.075L98.3138 214.15L99.074 212.991L98.3513 212.575L97.7308 213.816L97.1104 212.575L96.3876 212.991L97.1479 214.15L95.7672 214.075V214.904ZM95.7672 209.691L97.1479 209.613L96.3876 210.772L97.1104 211.188L97.7308 209.95L98.3513 211.188L99.074 210.772L98.3138 209.613L99.6945 209.691V208.863L98.3138 208.938L99.074 207.779L98.3513 207.363L97.7308 208.604L97.1104 207.363L96.3876 207.779L97.1479 208.938L95.7672 208.863V209.691ZM95.7672 204.479L97.1479 204.4L96.3876 205.559L97.1104 205.975L97.7308 204.738L98.3513 205.975L99.074 205.559L98.3138 204.4L99.6945 204.479V203.65L98.3138 203.725L99.074 202.566L98.3513 202.15L97.7308 203.391L97.1104 202.15L96.3876 202.566L97.1479 203.725L95.7672 203.65V204.479ZM95.7672 199.266L97.1479 199.188L96.3876 200.347L97.1104 200.763L97.7308 199.525L98.3513 200.763L99.074 200.347L98.3138 199.188L99.6945 199.266V198.438L98.3138 198.513L99.074 197.354L98.3513 196.938L97.7308 198.179L97.1104 196.938L96.3876 197.354L97.1479 198.513L95.7672 198.438V199.266ZM95.7672 194.054L97.1479 193.975L96.3876 195.134L97.1104 195.55L97.7308 194.313L98.3513 195.55L99.074 195.134L98.3138 193.975L99.6945 194.054V193.225L98.3138 193.3L99.074 192.141L98.3513 191.725L97.7308 192.966L97.1104 191.725L96.3876 192.141L97.1479 193.3L95.7672 193.225V194.054ZM95.7672 188.841L97.1479 188.763L96.3876 189.922L97.1104 190.338L97.7308 189.1L98.3513 190.338L99.074 189.922L98.3138 188.763L99.6945 188.841V188.013L98.3138 188.088L99.074 186.929L98.3513 186.513L97.7308 187.754L97.1104 186.513L96.3876 186.929L97.1479 188.088L95.7672 188.013V188.841ZM95.7672 183.629L97.1479 183.55L96.3876 184.709L97.1104 185.125L97.7308 183.888L98.3513 185.125L99.074 184.709L98.3138 183.55L99.6945 183.629V182.8L98.3138 182.875L99.074 181.716L98.3513 181.3L97.7308 182.541L97.1104 181.3L96.3876 181.716L97.1479 182.875L95.7672 182.8V183.629ZM95.7672 178.416L97.1479 178.338L96.3876 179.497L97.1104 179.913L97.7308 178.675L98.3513 179.913L99.074 179.497L98.3138 178.338L99.6945 178.416V177.588L98.3138 177.663L99.074 176.504L98.3513 176.088L97.7308 177.329L97.1104 176.088L96.3876 176.504L97.1479 177.663L95.7672 177.588V178.416ZM95.7672 173.204L97.1479 173.125L96.3876 174.284L97.1104 174.7L97.7308 173.463L98.3513 174.7L99.074 174.284L98.3138 173.125L99.6945 173.204V172.375L98.3138 172.45L99.074 171.291L98.3513 170.875L97.7308 172.116L97.1104 170.875L96.3876 171.291L97.1479 172.45L95.7672 172.375V173.204ZM95.7672 167.991L97.1479 167.913L96.3876 169.072L97.1104 169.488L97.7308 168.25L98.3513 169.488L99.074 169.072L98.3138 167.913L99.6945 167.991V167.163L98.3138 167.238L99.074 166.079L98.3513 165.663L97.7308 166.904L97.1104 165.663L96.3876 166.079L97.1479 167.238L95.7672 167.163V167.991ZM95.7672 162.779L97.1479 162.7L96.3876 163.859L97.1104 164.275L97.7308 163.038L98.3513 164.275L99.074 163.859L98.3138 162.7L99.6945 162.779V161.95L98.3138 162.025L99.074 160.866L98.3513 160.45L97.7308 161.691L97.1104 160.45L96.3876 160.866L97.1479 162.025L95.7672 161.95V162.779ZM95.7672 157.566L97.1479 157.488L96.3876 158.647L97.1104 159.063L97.7308 157.825L98.3513 159.063L99.074 158.647L98.3138 157.488L99.6945 157.566V156.738L98.3138 156.813L99.074 155.654L98.3513 155.238L97.7308 156.479L97.1104 155.238L96.3876 155.654L97.1479 156.813L95.7672 156.738V157.566ZM95.7672 152.354L97.1479 152.275L96.3876 153.434L97.1104 153.85L97.7308 152.613L98.3513 153.85L99.074 153.434L98.3138 152.275L99.6945 152.354V151.525L98.3138 151.6L99.074 150.441L98.3513 150.025L97.7308 151.266L97.1104 150.025L96.3876 150.441L97.1479 151.6L95.7672 151.525V152.354ZM95.7672 147.141L97.1479 147.063L96.3876 148.222L97.1104 148.638L97.7308 147.4L98.3513 148.638L99.074 148.222L98.3138 147.063L99.6945 147.141V146.313L98.3138 146.388L99.074 145.229L98.3513 144.813L97.7308 146.054L97.1104 144.813L96.3876 145.229L97.1479 146.388L95.7672 146.313V147.141ZM95.7672 141.929L97.1479 141.85L96.3876 143.009L97.1104 143.425L97.7308 142.188L98.3513 143.425L99.074 143.009L98.3138 141.85L99.6945 141.929V141.1L98.3138 141.175L99.074 140.016L98.3513 139.6L97.7308 140.841L97.1104 139.6L96.3876 140.016L97.1479 141.175L95.7672 141.1V141.929ZM95.7672 136.716L97.1479 136.638L96.3876 137.797L97.1104 138.213L97.7308 136.975L98.3513 138.213L99.074 137.797L98.3138 136.638L99.6945 136.716V135.888L98.3138 135.963L99.074 134.804L98.3513 134.388L97.7308 135.629L97.1104 134.388L96.3876 134.804L97.1479 135.963L95.7672 135.888V136.716ZM83.7672 214.904L85.1479 214.825L84.3876 215.984L85.1104 216.4L85.7308 215.163L86.3513 216.4L87.074 215.984L86.3138 214.825L87.6945 214.904V214.075L86.3138 214.15L87.074 212.991L86.3513 212.575L85.7308 213.816L85.1104 212.575L84.3876 212.991L85.1479 214.15L83.7672 214.075V214.904ZM83.7672 209.691L85.1479 209.613L84.3876 210.772L85.1104 211.188L85.7308 209.95L86.3513 211.188L87.074 210.772L86.3138 209.613L87.6945 209.691V208.863L86.3138 208.938L87.074 207.779L86.3513 207.363L85.7308 208.604L85.1104 207.363L84.3876 207.779L85.1479 208.938L83.7672 208.863V209.691ZM83.7672 204.479L85.1479 204.4L84.3876 205.559L85.1104 205.975L85.7308 204.738L86.3513 205.975L87.074 205.559L86.3138 204.4L87.6945 204.479V203.65L86.3138 203.725L87.074 202.566L86.3513 202.15L85.7308 203.391L85.1104 202.15L84.3876 202.566L85.1479 203.725L83.7672 203.65V204.479ZM83.7672 199.266L85.1479 199.188L84.3876 200.347L85.1104 200.763L85.7308 199.525L86.3513 200.763L87.074 200.347L86.3138 199.188L87.6945 199.266V198.438L86.3138 198.513L87.074 197.354L86.3513 196.938L85.7308 198.179L85.1104 196.938L84.3876 197.354L85.1479 198.513L83.7672 198.438V199.266ZM83.7672 194.054L85.1479 193.975L84.3876 195.134L85.1104 195.55L85.7308 194.313L86.3513 195.55L87.074 195.134L86.3138 193.975L87.6945 194.054V193.225L86.3138 193.3L87.074 192.141L86.3513 191.725L85.7308 192.966L85.1104 191.725L84.3876 192.141L85.1479 193.3L83.7672 193.225V194.054ZM83.7672 188.841L85.1479 188.763L84.3876 189.922L85.1104 190.338L85.7308 189.1L86.3513 190.338L87.074 189.922L86.3138 188.763L87.6945 188.841V188.013L86.3138 188.088L87.074 186.929L86.3513 186.513L85.7308 187.754L85.1104 186.513L84.3876 186.929L85.1479 188.088L83.7672 188.013V188.841ZM83.7672 183.629L85.1479 183.55L84.3876 184.709L85.1104 185.125L85.7308 183.888L86.3513 185.125L87.074 184.709L86.3138 183.55L87.6945 183.629V182.8L86.3138 182.875L87.074 181.716L86.3513 181.3L85.7308 182.541L85.1104 181.3L84.3876 181.716L85.1479 182.875L83.7672 182.8V183.629ZM83.7672 178.416L85.1479 178.338L84.3876 179.497L85.1104 179.913L85.7308 178.675L86.3513 179.913L87.074 179.497L86.3138 178.338L87.6945 178.416V177.588L86.3138 177.663L87.074 176.504L86.3513 176.088L85.7308 177.329L85.1104 176.088L84.3876 176.504L85.1479 177.663L83.7672 177.588V178.416ZM83.7672 173.204L85.1479 173.125L84.3876 174.284L85.1104 174.7L85.7308 173.463L86.3513 174.7L87.074 174.284L86.3138 173.125L87.6945 173.204V172.375L86.3138 172.45L87.074 171.291L86.3513 170.875L85.7308 172.116L85.1104 170.875L84.3876 171.291L85.1479 172.45L83.7672 172.375V173.204ZM83.7672 167.991L85.1479 167.913L84.3876 169.072L85.1104 169.488L85.7308 168.25L86.3513 169.488L87.074 169.072L86.3138 167.913L87.6945 167.991V167.163L86.3138 167.238L87.074 166.079L86.3513 165.663L85.7308 166.904L85.1104 165.663L84.3876 166.079L85.1479 167.238L83.7672 167.163V167.991ZM83.7672 162.779L85.1479 162.7L84.3876 163.859L85.1104 164.275L85.7308 163.038L86.3513 164.275L87.074 163.859L86.3138 162.7L87.6945 162.779V161.95L86.3138 162.025L87.074 160.866L86.3513 160.45L85.7308 161.691L85.1104 160.45L84.3876 160.866L85.1479 162.025L83.7672 161.95V162.779ZM83.7672 157.566L85.1479 157.488L84.3876 158.647L85.1104 159.063L85.7308 157.825L86.3513 159.063L87.074 158.647L86.3138 157.488L87.6945 157.566V156.738L86.3138 156.813L87.074 155.654L86.3513 155.238L85.7308 156.479L85.1104 155.238L84.3876 155.654L85.1479 156.813L83.7672 156.738V157.566ZM83.7672 152.354L85.1479 152.275L84.3876 153.434L85.1104 153.85L85.7308 152.613L86.3513 153.85L87.074 153.434L86.3138 152.275L87.6945 152.354V151.525L86.3138 151.6L87.074 150.441L86.3513 150.025L85.7308 151.266L85.1104 150.025L84.3876 150.441L85.1479 151.6L83.7672 151.525V152.354ZM83.7672 147.141L85.1479 147.063L84.3876 148.222L85.1104 148.638L85.7308 147.4L86.3513 148.638L87.074 148.222L86.3138 147.063L87.6945 147.141V146.313L86.3138 146.388L87.074 145.229L86.3513 144.813L85.7308 146.054L85.1104 144.813L84.3876 145.229L85.1479 146.388L83.7672 146.313V147.141ZM83.7672 141.929L85.1479 141.85L84.3876 143.009L85.1104 143.425L85.7308 142.188L86.3513 143.425L87.074 143.009L86.3138 141.85L87.6945 141.929V141.1L86.3138 141.175L87.074 140.016L86.3513 139.6L85.7308 140.841L85.1104 139.6L84.3876 140.016L85.1479 141.175L83.7672 141.1V141.929ZM83.7672 136.716L85.1479 136.638L84.3876 137.797L85.1104 138.213L85.7308 136.975L86.3513 138.213L87.074 137.797L86.3138 136.638L87.6945 136.716V135.888L86.3138 135.963L87.074 134.804L86.3513 134.388L85.7308 135.629L85.1104 134.388L84.3876 134.804L85.1479 135.963L83.7672 135.888V136.716ZM71.7672 214.904L73.1479 214.825L72.3876 215.984L73.1104 216.4L73.7308 215.163L74.3513 216.4L75.074 215.984L74.3138 214.825L75.6945 214.904V214.075L74.3138 214.15L75.074 212.991L74.3513 212.575L73.7308 213.816L73.1104 212.575L72.3876 212.991L73.1479 214.15L71.7672 214.075V214.904ZM71.7672 209.691L73.1479 209.613L72.3876 210.772L73.1104 211.188L73.7308 209.95L74.3513 211.188L75.074 210.772L74.3138 209.613L75.6945 209.691V208.863L74.3138 208.938L75.074 207.779L74.3513 207.363L73.7308 208.604L73.1104 207.363L72.3876 207.779L73.1479 208.938L71.7672 208.863V209.691ZM71.7672 204.479L73.1479 204.4L72.3876 205.559L73.1104 205.975L73.7308 204.738L74.3513 205.975L75.074 205.559L74.3138 204.4L75.6945 204.479V203.65L74.3138 203.725L75.074 202.566L74.3513 202.15L73.7308 203.391L73.1104 202.15L72.3876 202.566L73.1479 203.725L71.7672 203.65V204.479ZM71.7672 199.266L73.1479 199.188L72.3876 200.347L73.1104 200.763L73.7308 199.525L74.3513 200.763L75.074 200.347L74.3138 199.188L75.6945 199.266V198.438L74.3138 198.513L75.074 197.354L74.3513 196.938L73.7308 198.179L73.1104 196.938L72.3876 197.354L73.1479 198.513L71.7672 198.438V199.266ZM71.7672 194.054L73.1479 193.975L72.3876 195.134L73.1104 195.55L73.7308 194.313L74.3513 195.55L75.074 195.134L74.3138 193.975L75.6945 194.054V193.225L74.3138 193.3L75.074 192.141L74.3513 191.725L73.7308 192.966L73.1104 191.725L72.3876 192.141L73.1479 193.3L71.7672 193.225V194.054ZM71.7672 188.841L73.1479 188.763L72.3876 189.922L73.1104 190.338L73.7308 189.1L74.3513 190.338L75.074 189.922L74.3138 188.763L75.6945 188.841V188.013L74.3138 188.088L75.074 186.929L74.3513 186.513L73.7308 187.754L73.1104 186.513L72.3876 186.929L73.1479 188.088L71.7672 188.013V188.841ZM71.7672 183.629L73.1479 183.55L72.3876 184.709L73.1104 185.125L73.7308 183.888L74.3513 185.125L75.074 184.709L74.3138 183.55L75.6945 183.629V182.8L74.3138 182.875L75.074 181.716L74.3513 181.3L73.7308 182.541L73.1104 181.3L72.3876 181.716L73.1479 182.875L71.7672 182.8V183.629ZM71.7672 178.416L73.1479 178.338L72.3876 179.497L73.1104 179.913L73.7308 178.675L74.3513 179.913L75.074 179.497L74.3138 178.338L75.6945 178.416V177.588L74.3138 177.663L75.074 176.504L74.3513 176.088L73.7308 177.329L73.1104 176.088L72.3876 176.504L73.1479 177.663L71.7672 177.588V178.416ZM71.7672 173.204L73.1479 173.125L72.3876 174.284L73.1104 174.7L73.7308 173.463L74.3513 174.7L75.074 174.284L74.3138 173.125L75.6945 173.204V172.375L74.3138 172.45L75.074 171.291L74.3513 170.875L73.7308 172.116L73.1104 170.875L72.3876 171.291L73.1479 172.45L71.7672 172.375V173.204ZM71.7672 167.991L73.1479 167.913L72.3876 169.072L73.1104 169.488L73.7308 168.25L74.3513 169.488L75.074 169.072L74.3138 167.913L75.6945 167.991V167.163L74.3138 167.238L75.074 166.079L74.3513 165.663L73.7308 166.904L73.1104 165.663L72.3876 166.079L73.1479 167.238L71.7672 167.163V167.991ZM71.7672 162.779L73.1479 162.7L72.3876 163.859L73.1104 164.275L73.7308 163.038L74.3513 164.275L75.074 163.859L74.3138 162.7L75.6945 162.779V161.95L74.3138 162.025L75.074 160.866L74.3513 160.45L73.7308 161.691L73.1104 160.45L72.3876 160.866L73.1479 162.025L71.7672 161.95V162.779ZM71.7672 157.566L73.1479 157.488L72.3876 158.647L73.1104 159.063L73.7308 157.825L74.3513 159.063L75.074 158.647L74.3138 157.488L75.6945 157.566V156.738L74.3138 156.813L75.074 155.654L74.3513 155.238L73.7308 156.479L73.1104 155.238L72.3876 155.654L73.1479 156.813L71.7672 156.738V157.566ZM71.7672 152.354L73.1479 152.275L72.3876 153.434L73.1104 153.85L73.7308 152.613L74.3513 153.85L75.074 153.434L74.3138 152.275L75.6945 152.354V151.525L74.3138 151.6L75.074 150.441L74.3513 150.025L73.7308 151.266L73.1104 150.025L72.3876 150.441L73.1479 151.6L71.7672 151.525V152.354ZM71.7672 147.141L73.1479 147.063L72.3876 148.222L73.1104 148.638L73.7308 147.4L74.3513 148.638L75.074 148.222L74.3138 147.063L75.6945 147.141V146.313L74.3138 146.388L75.074 145.229L74.3513 144.813L73.7308 146.054L73.1104 144.813L72.3876 145.229L73.1479 146.388L71.7672 146.313V147.141ZM71.7672 141.929L73.1479 141.85L72.3876 143.009L73.1104 143.425L73.7308 142.188L74.3513 143.425L75.074 143.009L74.3138 141.85L75.6945 141.929V141.1L74.3138 141.175L75.074 140.016L74.3513 139.6L73.7308 140.841L73.1104 139.6L72.3876 140.016L73.1479 141.175L71.7672 141.1V141.929ZM71.7672 136.716L73.1479 136.638L72.3876 137.797L73.1104 138.213L73.7308 136.975L74.3513 138.213L75.074 137.797L74.3138 136.638L75.6945 136.716V135.888L74.3138 135.963L75.074 134.804L74.3513 134.388L73.7308 135.629L73.1104 134.388L72.3876 134.804L73.1479 135.963L71.7672 135.888V136.716ZM59.7672 214.904L61.1479 214.825L60.3876 215.984L61.1104 216.4L61.7308 215.163L62.3513 216.4L63.074 215.984L62.3138 214.825L63.6945 214.904V214.075L62.3138 214.15L63.074 212.991L62.3513 212.575L61.7308 213.816L61.1104 212.575L60.3876 212.991L61.1479 214.15L59.7672 214.075V214.904ZM59.7672 209.691L61.1479 209.613L60.3876 210.772L61.1104 211.188L61.7308 209.95L62.3513 211.188L63.074 210.772L62.3138 209.613L63.6945 209.691V208.863L62.3138 208.938L63.074 207.779L62.3513 207.363L61.7308 208.604L61.1104 207.363L60.3876 207.779L61.1479 208.938L59.7672 208.863V209.691ZM59.7672 204.479L61.1479 204.4L60.3876 205.559L61.1104 205.975L61.7308 204.738L62.3513 205.975L63.074 205.559L62.3138 204.4L63.6945 204.479V203.65L62.3138 203.725L63.074 202.566L62.3513 202.15L61.7308 203.391L61.1104 202.15L60.3876 202.566L61.1479 203.725L59.7672 203.65V204.479ZM59.7672 199.266L61.1479 199.188L60.3876 200.347L61.1104 200.763L61.7308 199.525L62.3513 200.763L63.074 200.347L62.3138 199.188L63.6945 199.266V198.438L62.3138 198.513L63.074 197.354L62.3513 196.938L61.7308 198.179L61.1104 196.938L60.3876 197.354L61.1479 198.513L59.7672 198.438V199.266ZM59.7672 194.054L61.1479 193.975L60.3876 195.134L61.1104 195.55L61.7308 194.313L62.3513 195.55L63.074 195.134L62.3138 193.975L63.6945 194.054V193.225L62.3138 193.3L63.074 192.141L62.3513 191.725L61.7308 192.966L61.1104 191.725L60.3876 192.141L61.1479 193.3L59.7672 193.225V194.054ZM59.7672 188.841L61.1479 188.763L60.3876 189.922L61.1104 190.338L61.7308 189.1L62.3513 190.338L63.074 189.922L62.3138 188.763L63.6945 188.841V188.013L62.3138 188.088L63.074 186.929L62.3513 186.513L61.7308 187.754L61.1104 186.513L60.3876 186.929L61.1479 188.088L59.7672 188.013V188.841ZM59.7672 183.629L61.1479 183.55L60.3876 184.709L61.1104 185.125L61.7308 183.888L62.3513 185.125L63.074 184.709L62.3138 183.55L63.6945 183.629V182.8L62.3138 182.875L63.074 181.716L62.3513 181.3L61.7308 182.541L61.1104 181.3L60.3876 181.716L61.1479 182.875L59.7672 182.8V183.629ZM59.7672 178.416L61.1479 178.338L60.3876 179.497L61.1104 179.913L61.7308 178.675L62.3513 179.913L63.074 179.497L62.3138 178.338L63.6945 178.416V177.588L62.3138 177.663L63.074 176.504L62.3513 176.088L61.7308 177.329L61.1104 176.088L60.3876 176.504L61.1479 177.663L59.7672 177.588V178.416ZM59.7672 173.204L61.1479 173.125L60.3876 174.284L61.1104 174.7L61.7308 173.463L62.3513 174.7L63.074 174.284L62.3138 173.125L63.6945 173.204V172.375L62.3138 172.45L63.074 171.291L62.3513 170.875L61.7308 172.116L61.1104 170.875L60.3876 171.291L61.1479 172.45L59.7672 172.375V173.204ZM59.7672 167.991L61.1479 167.913L60.3876 169.072L61.1104 169.488L61.7308 168.25L62.3513 169.488L63.074 169.072L62.3138 167.913L63.6945 167.991V167.163L62.3138 167.238L63.074 166.079L62.3513 165.663L61.7308 166.904L61.1104 165.663L60.3876 166.079L61.1479 167.238L59.7672 167.163V167.991ZM59.7672 162.779L61.1479 162.7L60.3876 163.859L61.1104 164.275L61.7308 163.038L62.3513 164.275L63.074 163.859L62.3138 162.7L63.6945 162.779V161.95L62.3138 162.025L63.074 160.866L62.3513 160.45L61.7308 161.691L61.1104 160.45L60.3876 160.866L61.1479 162.025L59.7672 161.95V162.779ZM59.7672 157.566L61.1479 157.488L60.3876 158.647L61.1104 159.063L61.7308 157.825L62.3513 159.063L63.074 158.647L62.3138 157.488L63.6945 157.566V156.738L62.3138 156.813L63.074 155.654L62.3513 155.238L61.7308 156.479L61.1104 155.238L60.3876 155.654L61.1479 156.813L59.7672 156.738V157.566ZM59.7672 152.354L61.1479 152.275L60.3876 153.434L61.1104 153.85L61.7308 152.613L62.3513 153.85L63.074 153.434L62.3138 152.275L63.6945 152.354V151.525L62.3138 151.6L63.074 150.441L62.3513 150.025L61.7308 151.266L61.1104 150.025L60.3876 150.441L61.1479 151.6L59.7672 151.525V152.354ZM59.7672 147.141L61.1479 147.063L60.3876 148.222L61.1104 148.638L61.7308 147.4L62.3513 148.638L63.074 148.222L62.3138 147.063L63.6945 147.141V146.313L62.3138 146.388L63.074 145.229L62.3513 144.813L61.7308 146.054L61.1104 144.813L60.3876 145.229L61.1479 146.388L59.7672 146.313V147.141ZM59.7672 141.929L61.1479 141.85L60.3876 143.009L61.1104 143.425L61.7308 142.188L62.3513 143.425L63.074 143.009L62.3138 141.85L63.6945 141.929V141.1L62.3138 141.175L63.074 140.016L62.3513 139.6L61.7308 140.841L61.1104 139.6L60.3876 140.016L61.1479 141.175L59.7672 141.1V141.929ZM59.7672 136.716L61.1479 136.638L60.3876 137.797L61.1104 138.213L61.7308 136.975L62.3513 138.213L63.074 137.797L62.3138 136.638L63.6945 136.716V135.888L62.3138 135.963L63.074 134.804L62.3513 134.388L61.7308 135.629L61.1104 134.388L60.3876 134.804L61.1479 135.963L59.7672 135.888V136.716ZM47.7672 167.991L49.1479 167.913L48.3876 169.072L49.1104 169.488L49.7308 168.25L50.3513 169.488L51.074 169.072L50.3138 167.913L51.6945 167.991V167.163L50.3138 167.238L51.074 166.079L50.3513 165.663L49.7308 166.904L49.1104 165.663L48.3876 166.079L49.1479 167.238L47.7672 167.163V167.991ZM47.7672 162.779L49.1479 162.7L48.3876 163.859L49.1104 164.275L49.7308 163.038L50.3513 164.275L51.074 163.859L50.3138 162.7L51.6945 162.779V161.95L50.3138 162.025L51.074 160.866L50.3513 160.45L49.7308 161.691L49.1104 160.45L48.3876 160.866L49.1479 162.025L47.7672 161.95V162.779ZM47.7672 157.566L49.1479 157.488L48.3876 158.647L49.1104 159.063L49.7308 157.825L50.3513 159.063L51.074 158.647L50.3138 157.488L51.6945 157.566V156.738L50.3138 156.813L51.074 155.654L50.3513 155.238L49.7308 156.479L49.1104 155.238L48.3876 155.654L49.1479 156.813L47.7672 156.738V157.566ZM47.7672 152.354L49.1479 152.275L48.3876 153.434L49.1104 153.85L49.7308 152.613L50.3513 153.85L51.074 153.434L50.3138 152.275L51.6945 152.354V151.525L50.3138 151.6L51.074 150.441L50.3513 150.025L49.7308 151.266L49.1104 150.025L48.3876 150.441L49.1479 151.6L47.7672 151.525V152.354ZM47.7672 147.141L49.1479 147.063L48.3876 148.222L49.1104 148.638L49.7308 147.4L50.3513 148.638L51.074 148.222L50.3138 147.063L51.6945 147.141V146.313L50.3138 146.388L51.074 145.229L50.3513 144.813L49.7308 146.054L49.1104 144.813L48.3876 145.229L49.1479 146.388L47.7672 146.313V147.141ZM47.7672 141.929L49.1479 141.85L48.3876 143.009L49.1104 143.425L49.7308 142.188L50.3513 143.425L51.074 143.009L50.3138 141.85L51.6945 141.929V141.1L50.3138 141.175L51.074 140.016L50.3513 139.6L49.7308 140.841L49.1104 139.6L48.3876 140.016L49.1479 141.175L47.7672 141.1V141.929ZM47.7672 136.716L49.1479 136.638L48.3876 137.797L49.1104 138.213L49.7308 136.975L50.3513 138.213L51.074 137.797L50.3138 136.638L51.6945 136.716V135.888L50.3138 135.963L51.074 134.804L50.3513 134.388L49.7308 135.629L49.1104 134.388L48.3876 134.804L49.1479 135.963L47.7672 135.888V136.716Z" fill="black"/>
<path d="M223.9 0.19995L644.665 0.199938L644.665 136.627L730.975 136.627L730.975 283.713L362.251 283.713L362.251 136.627L176.302 136.627" stroke="black" stroke-width="0.4" stroke-dasharray="6.8 6.8"/>
<path d="M471.869 36.4708L471.177 313.518L263.979 313.294L263.838 370.124L40.4526 369.882L41.0586 127.1L264.444 127.342L264.749 4.90638" stroke="black" stroke-width="0.4" stroke-dasharray="6.8 6.8"/>
<path d="M407.55 852.501L407.735 663.204L569.787 663.273L569.825 624.443L744.537 624.517L744.375 790.401L569.663 790.327L569.581 873.984" stroke="black" stroke-width="0.4" stroke-dasharray="6.8 6.8"/>
<path d="M3.7432 876.547L4.01332 599.5L211.211 599.588L211.267 542.757L434.652 542.852L434.415 785.634L211.03 785.54L210.911 907.975" stroke="black" stroke-width="0.4" stroke-dasharray="6.8 6.8"/>
<path d="M725.03 856.137L726.411 856.058L725.65 857.217L726.373 857.633L726.994 856.396L727.614 857.633L728.337 857.217L727.576 856.058L728.957 856.137V855.308L727.576 855.383L728.337 854.224L727.614 853.808L726.994 855.049L726.373 853.808L725.65 854.224L726.411 855.383L725.03 855.308V856.137ZM725.03 850.924L726.411 850.846L725.65 852.005L726.373 852.421L726.994 851.183L727.614 852.421L728.337 852.005L727.576 850.846L728.957 850.924V850.096L727.576 850.171L728.337 849.012L727.614 848.596L726.994 849.837L726.373 848.596L725.65 849.012L726.411 850.171L725.03 850.096V850.924ZM725.03 845.712L726.411 845.633L725.65 846.792L726.373 847.208L726.994 845.971L727.614 847.208L728.337 846.792L727.576 845.633L728.957 845.712V844.883L727.576 844.958L728.337 843.799L727.614 843.383L726.994 844.624L726.373 843.383L725.65 843.799L726.411 844.958L725.03 844.883V845.712ZM725.03 840.499L726.411 840.421L725.65 841.58L726.373 841.996L726.994 840.758L727.614 841.996L728.337 841.58L727.576 840.421L728.957 840.499V839.671L727.576 839.746L728.337 838.587L727.614 838.171L726.994 839.412L726.373 838.171L725.65 838.587L726.411 839.746L725.03 839.671V840.499ZM725.03 835.287L726.411 835.208L725.65 836.367L726.373 836.783L726.994 835.546L727.614 836.783L728.337 836.367L727.576 835.208L728.957 835.287V834.458L727.576 834.533L728.337 833.374L727.614 832.958L726.994 834.199L726.373 832.958L725.65 833.374L726.411 834.533L725.03 834.458V835.287ZM725.03 830.074L726.411 829.996L725.65 831.155L726.373 831.571L726.994 830.333L727.614 831.571L728.337 831.155L727.576 829.996L728.957 830.074V829.246L727.576 829.321L728.337 828.162L727.614 827.746L726.994 828.987L726.373 827.746L725.65 828.162L726.411 829.321L725.03 829.246V830.074ZM725.03 824.862L726.411 824.783L725.65 825.942L726.373 826.358L726.994 825.121L727.614 826.358L728.337 825.942L727.576 824.783L728.957 824.862V824.033L727.576 824.108L728.337 822.949L727.614 822.533L726.994 823.774L726.373 822.533L725.65 822.949L726.411 824.108L725.03 824.033V824.862ZM725.03 819.649L726.411 819.571L725.65 820.73L726.373 821.146L726.994 819.908L727.614 821.146L728.337 820.73L727.576 819.571L728.957 819.649V818.821L727.576 818.896L728.337 817.737L727.614 817.321L726.994 818.562L726.373 817.321L725.65 817.737L726.411 818.896L725.03 818.821V819.649ZM725.03 814.437L726.411 814.358L725.65 815.517L726.373 815.933L726.994 814.696L727.614 815.933L728.337 815.517L727.576 814.358L728.957 814.437V813.608L727.576 813.683L728.337 812.524L727.614 812.108L726.994 813.349L726.373 812.108L725.65 812.524L726.411 813.683L725.03 813.608V814.437ZM725.03 809.224L726.411 809.146L725.65 810.305L726.373 810.721L726.994 809.483L727.614 810.721L728.337 810.305L727.576 809.146L728.957 809.224V808.396L727.576 808.471L728.337 807.312L727.614 806.896L726.994 808.137L726.373 806.896L725.65 807.312L726.411 808.471L725.03 808.396V809.224ZM725.03 804.012L726.411 803.933L725.65 805.092L726.373 805.508L726.994 804.271L727.614 805.508L728.337 805.092L727.576 803.933L728.957 804.012V803.183L727.576 803.258L728.337 802.099L727.614 801.683L726.994 802.924L726.373 801.683L725.65 802.099L726.411 803.258L725.03 803.183V804.012ZM725.03 798.799L726.411 798.721L725.65 799.88L726.373 800.296L726.994 799.058L727.614 800.296L728.337 799.88L727.576 798.721L728.957 798.799V797.971L727.576 798.046L728.337 796.887L727.614 796.471L726.994 797.712L726.373 796.471L725.65 796.887L726.411 798.046L725.03 797.971V798.799ZM725.03 793.587L726.411 793.508L725.65 794.667L726.373 795.083L726.994 793.846L727.614 795.083L728.337 794.667L727.576 793.508L728.957 793.587V792.758L727.576 792.833L728.337 791.674L727.614 791.258L726.994 792.499L726.373 791.258L725.65 791.674L726.411 792.833L725.03 792.758V793.587ZM725.03 788.374L726.411 788.296L725.65 789.455L726.373 789.871L726.994 788.633L727.614 789.871L728.337 789.455L727.576 788.296L728.957 788.374V787.546L727.576 787.621L728.337 786.462L727.614 786.046L726.994 787.287L726.373 786.046L725.65 786.462L726.411 787.621L725.03 787.546V788.374ZM725.03 783.162L726.411 783.083L725.65 784.242L726.373 784.658L726.994 783.421L727.614 784.658L728.337 784.242L727.576 783.083L728.957 783.162V782.333L727.576 782.408L728.337 781.249L727.614 780.833L726.994 782.074L726.373 780.833L725.65 781.249L726.411 782.408L725.03 782.333V783.162ZM725.03 777.949L726.411 777.871L725.65 779.03L726.373 779.446L726.994 778.208L727.614 779.446L728.337 779.03L727.576 777.871L728.957 777.949V777.121L727.576 777.196L728.337 776.037L727.614 775.621L726.994 776.862L726.373 775.621L725.65 776.037L726.411 777.196L725.03 777.121V777.949ZM713.03 856.137L714.411 856.058L713.65 857.217L714.373 857.633L714.994 856.396L715.614 857.633L716.337 857.217L715.576 856.058L716.957 856.137V855.308L715.576 855.383L716.337 854.224L715.614 853.808L714.994 855.049L714.373 853.808L713.65 854.224L714.411 855.383L713.03 855.308V856.137ZM713.03 850.924L714.411 850.846L713.65 852.005L714.373 852.421L714.994 851.183L715.614 852.421L716.337 852.005L715.576 850.846L716.957 850.924V850.096L715.576 850.171L716.337 849.012L715.614 848.596L714.994 849.837L714.373 848.596L713.65 849.012L714.411 850.171L713.03 850.096V850.924ZM713.03 845.712L714.411 845.633L713.65 846.792L714.373 847.208L714.994 845.971L715.614 847.208L716.337 846.792L715.576 845.633L716.957 845.712V844.883L715.576 844.958L716.337 843.799L715.614 843.383L714.994 844.624L714.373 843.383L713.65 843.799L714.411 844.958L713.03 844.883V845.712ZM713.03 840.499L714.411 840.421L713.65 841.58L714.373 841.996L714.994 840.758L715.614 841.996L716.337 841.58L715.576 840.421L716.957 840.499V839.671L715.576 839.746L716.337 838.587L715.614 838.171L714.994 839.412L714.373 838.171L713.65 838.587L714.411 839.746L713.03 839.671V840.499ZM713.03 835.287L714.411 835.208L713.65 836.367L714.373 836.783L714.994 835.546L715.614 836.783L716.337 836.367L715.576 835.208L716.957 835.287V834.458L715.576 834.533L716.337 833.374L715.614 832.958L714.994 834.199L714.373 832.958L713.65 833.374L714.411 834.533L713.03 834.458V835.287ZM713.03 830.074L714.411 829.996L713.65 831.155L714.373 831.571L714.994 830.333L715.614 831.571L716.337 831.155L715.576 829.996L716.957 830.074V829.246L715.576 829.321L716.337 828.162L715.614 827.746L714.994 828.987L714.373 827.746L713.65 828.162L714.411 829.321L713.03 829.246V830.074ZM713.03 824.862L714.411 824.783L713.65 825.942L714.373 826.358L714.994 825.121L715.614 826.358L716.337 825.942L715.576 824.783L716.957 824.862V824.033L715.576 824.108L716.337 822.949L715.614 822.533L714.994 823.774L714.373 822.533L713.65 822.949L714.411 824.108L713.03 824.033V824.862ZM713.03 819.649L714.411 819.571L713.65 820.73L714.373 821.146L714.994 819.908L715.614 821.146L716.337 820.73L715.576 819.571L716.957 819.649V818.821L715.576 818.896L716.337 817.737L715.614 817.321L714.994 818.562L714.373 817.321L713.65 817.737L714.411 818.896L713.03 818.821V819.649ZM713.03 814.437L714.411 814.358L713.65 815.517L714.373 815.933L714.994 814.696L715.614 815.933L716.337 815.517L715.576 814.358L716.957 814.437V813.608L715.576 813.683L716.337 812.524L715.614 812.108L714.994 813.349L714.373 812.108L713.65 812.524L714.411 813.683L713.03 813.608V814.437ZM713.03 809.224L714.411 809.146L713.65 810.305L714.373 810.721L714.994 809.483L715.614 810.721L716.337 810.305L715.576 809.146L716.957 809.224V808.396L715.576 808.471L716.337 807.312L715.614 806.896L714.994 808.137L714.373 806.896L713.65 807.312L714.411 808.471L713.03 808.396V809.224ZM713.03 804.012L714.411 803.933L713.65 805.092L714.373 805.508L714.994 804.271L715.614 805.508L716.337 805.092L715.576 803.933L716.957 804.012V803.183L715.576 803.258L716.337 802.099L715.614 801.683L714.994 802.924L714.373 801.683L713.65 802.099L714.411 803.258L713.03 803.183V804.012ZM713.03 798.799L714.411 798.721L713.65 799.88L714.373 800.296L714.994 799.058L715.614 800.296L716.337 799.88L715.576 798.721L716.957 798.799V797.971L715.576 798.046L716.337 796.887L715.614 796.471L714.994 797.712L714.373 796.471L713.65 796.887L714.411 798.046L713.03 797.971V798.799ZM713.03 793.587L714.411 793.508L713.65 794.667L714.373 795.083L714.994 793.846L715.614 795.083L716.337 794.667L715.576 793.508L716.957 793.587V792.758L715.576 792.833L716.337 791.674L715.614 791.258L714.994 792.499L714.373 791.258L713.65 791.674L714.411 792.833L713.03 792.758V793.587ZM713.03 788.374L714.411 788.296L713.65 789.455L714.373 789.871L714.994 788.633L715.614 789.871L716.337 789.455L715.576 788.296L716.957 788.374V787.546L715.576 787.621L716.337 786.462L715.614 786.046L714.994 787.287L714.373 786.046L713.65 786.462L714.411 787.621L713.03 787.546V788.374ZM713.03 783.162L714.411 783.083L713.65 784.242L714.373 784.658L714.994 783.421L715.614 784.658L716.337 784.242L715.576 783.083L716.957 783.162V782.333L715.576 782.408L716.337 781.249L715.614 780.833L714.994 782.074L714.373 780.833L713.65 781.249L714.411 782.408L713.03 782.333V783.162ZM713.03 777.949L714.411 777.871L713.65 779.03L714.373 779.446L714.994 778.208L715.614 779.446L716.337 779.03L715.576 777.871L716.957 777.949V777.121L715.576 777.196L716.337 776.037L715.614 775.621L714.994 776.862L714.373 775.621L713.65 776.037L714.411 777.196L713.03 777.121V777.949ZM701.03 856.137L702.411 856.058L701.65 857.217L702.373 857.633L702.994 856.396L703.614 857.633L704.337 857.217L703.576 856.058L704.957 856.137V855.308L703.576 855.383L704.337 854.224L703.614 853.808L702.994 855.049L702.373 853.808L701.65 854.224L702.411 855.383L701.03 855.308V856.137ZM701.03 850.924L702.411 850.846L701.65 852.005L702.373 852.421L702.994 851.183L703.614 852.421L704.337 852.005L703.576 850.846L704.957 850.924V850.096L703.576 850.171L704.337 849.012L703.614 848.596L702.994 849.837L702.373 848.596L701.65 849.012L702.411 850.171L701.03 850.096V850.924ZM701.03 845.712L702.411 845.633L701.65 846.792L702.373 847.208L702.994 845.971L703.614 847.208L704.337 846.792L703.576 845.633L704.957 845.712V844.883L703.576 844.958L704.337 843.799L703.614 843.383L702.994 844.624L702.373 843.383L701.65 843.799L702.411 844.958L701.03 844.883V845.712ZM701.03 840.499L702.411 840.421L701.65 841.58L702.373 841.996L702.994 840.758L703.614 841.996L704.337 841.58L703.576 840.421L704.957 840.499V839.671L703.576 839.746L704.337 838.587L703.614 838.171L702.994 839.412L702.373 838.171L701.65 838.587L702.411 839.746L701.03 839.671V840.499ZM701.03 835.287L702.411 835.208L701.65 836.367L702.373 836.783L702.994 835.546L703.614 836.783L704.337 836.367L703.576 835.208L704.957 835.287V834.458L703.576 834.533L704.337 833.374L703.614 832.958L702.994 834.199L702.373 832.958L701.65 833.374L702.411 834.533L701.03 834.458V835.287ZM701.03 830.074L702.411 829.996L701.65 831.155L702.373 831.571L702.994 830.333L703.614 831.571L704.337 831.155L703.576 829.996L704.957 830.074V829.246L703.576 829.321L704.337 828.162L703.614 827.746L702.994 828.987L702.373 827.746L701.65 828.162L702.411 829.321L701.03 829.246V830.074ZM701.03 824.862L702.411 824.783L701.65 825.942L702.373 826.358L702.994 825.121L703.614 826.358L704.337 825.942L703.576 824.783L704.957 824.862V824.033L703.576 824.108L704.337 822.949L703.614 822.533L702.994 823.774L702.373 822.533L701.65 822.949L702.411 824.108L701.03 824.033V824.862ZM701.03 819.649L702.411 819.571L701.65 820.73L702.373 821.146L702.994 819.908L703.614 821.146L704.337 820.73L703.576 819.571L704.957 819.649V818.821L703.576 818.896L704.337 817.737L703.614 817.321L702.994 818.562L702.373 817.321L701.65 817.737L702.411 818.896L701.03 818.821V819.649ZM701.03 814.437L702.411 814.358L701.65 815.517L702.373 815.933L702.994 814.696L703.614 815.933L704.337 815.517L703.576 814.358L704.957 814.437V813.608L703.576 813.683L704.337 812.524L703.614 812.108L702.994 813.349L702.373 812.108L701.65 812.524L702.411 813.683L701.03 813.608V814.437ZM701.03 809.224L702.411 809.146L701.65 810.305L702.373 810.721L702.994 809.483L703.614 810.721L704.337 810.305L703.576 809.146L704.957 809.224V808.396L703.576 808.471L704.337 807.312L703.614 806.896L702.994 808.137L702.373 806.896L701.65 807.312L702.411 808.471L701.03 808.396V809.224ZM701.03 804.012L702.411 803.933L701.65 805.092L702.373 805.508L702.994 804.271L703.614 805.508L704.337 805.092L703.576 803.933L704.957 804.012V803.183L703.576 803.258L704.337 802.099L703.614 801.683L702.994 802.924L702.373 801.683L701.65 802.099L702.411 803.258L701.03 803.183V804.012ZM701.03 798.799L702.411 798.721L701.65 799.88L702.373 800.296L702.994 799.058L703.614 800.296L704.337 799.88L703.576 798.721L704.957 798.799V797.971L703.576 798.046L704.337 796.887L703.614 796.471L702.994 797.712L702.373 796.471L701.65 796.887L702.411 798.046L701.03 797.971V798.799ZM701.03 793.587L702.411 793.508L701.65 794.667L702.373 795.083L702.994 793.846L703.614 795.083L704.337 794.667L703.576 793.508L704.957 793.587V792.758L703.576 792.833L704.337 791.674L703.614 791.258L702.994 792.499L702.373 791.258L701.65 791.674L702.411 792.833L701.03 792.758V793.587ZM701.03 788.374L702.411 788.296L701.65 789.455L702.373 789.871L702.994 788.633L703.614 789.871L704.337 789.455L703.576 788.296L704.957 788.374V787.546L703.576 787.621L704.337 786.462L703.614 786.046L702.994 787.287L702.373 786.046L701.65 786.462L702.411 787.621L701.03 787.546V788.374ZM701.03 783.162L702.411 783.083L701.65 784.242L702.373 784.658L702.994 783.421L703.614 784.658L704.337 784.242L703.576 783.083L704.957 783.162V782.333L703.576 782.408L704.337 781.249L703.614 780.833L702.994 782.074L702.373 780.833L701.65 781.249L702.411 782.408L701.03 782.333V783.162ZM701.03 777.949L702.411 777.871L701.65 779.03L702.373 779.446L702.994 778.208L703.614 779.446L704.337 779.03L703.576 777.871L704.957 777.949V777.121L703.576 777.196L704.337 776.037L703.614 775.621L702.994 776.862L702.373 775.621L701.65 776.037L702.411 777.196L701.03 777.121V777.949ZM689.03 856.137L690.411 856.058L689.65 857.217L690.373 857.633L690.994 856.396L691.614 857.633L692.337 857.217L691.576 856.058L692.957 856.137V855.308L691.576 855.383L692.337 854.224L691.614 853.808L690.994 855.049L690.373 853.808L689.65 854.224L690.411 855.383L689.03 855.308V856.137ZM689.03 850.924L690.411 850.846L689.65 852.005L690.373 852.421L690.994 851.183L691.614 852.421L692.337 852.005L691.576 850.846L692.957 850.924V850.096L691.576 850.171L692.337 849.012L691.614 848.596L690.994 849.837L690.373 848.596L689.65 849.012L690.411 850.171L689.03 850.096V850.924ZM689.03 845.712L690.411 845.633L689.65 846.792L690.373 847.208L690.994 845.971L691.614 847.208L692.337 846.792L691.576 845.633L692.957 845.712V844.883L691.576 844.958L692.337 843.799L691.614 843.383L690.994 844.624L690.373 843.383L689.65 843.799L690.411 844.958L689.03 844.883V845.712ZM689.03 840.499L690.411 840.421L689.65 841.58L690.373 841.996L690.994 840.758L691.614 841.996L692.337 841.58L691.576 840.421L692.957 840.499V839.671L691.576 839.746L692.337 838.587L691.614 838.171L690.994 839.412L690.373 838.171L689.65 838.587L690.411 839.746L689.03 839.671V840.499ZM689.03 835.287L690.411 835.208L689.65 836.367L690.373 836.783L690.994 835.546L691.614 836.783L692.337 836.367L691.576 835.208L692.957 835.287V834.458L691.576 834.533L692.337 833.374L691.614 832.958L690.994 834.199L690.373 832.958L689.65 833.374L690.411 834.533L689.03 834.458V835.287ZM689.03 830.074L690.411 829.996L689.65 831.155L690.373 831.571L690.994 830.333L691.614 831.571L692.337 831.155L691.576 829.996L692.957 830.074V829.246L691.576 829.321L692.337 828.162L691.614 827.746L690.994 828.987L690.373 827.746L689.65 828.162L690.411 829.321L689.03 829.246V830.074ZM689.03 824.862L690.411 824.783L689.65 825.942L690.373 826.358L690.994 825.121L691.614 826.358L692.337 825.942L691.576 824.783L692.957 824.862V824.033L691.576 824.108L692.337 822.949L691.614 822.533L690.994 823.774L690.373 822.533L689.65 822.949L690.411 824.108L689.03 824.033V824.862ZM689.03 819.649L690.411 819.571L689.65 820.73L690.373 821.146L690.994 819.908L691.614 821.146L692.337 820.73L691.576 819.571L692.957 819.649V818.821L691.576 818.896L692.337 817.737L691.614 817.321L690.994 818.562L690.373 817.321L689.65 817.737L690.411 818.896L689.03 818.821V819.649ZM689.03 814.437L690.411 814.358L689.65 815.517L690.373 815.933L690.994 814.696L691.614 815.933L692.337 815.517L691.576 814.358L692.957 814.437V813.608L691.576 813.683L692.337 812.524L691.614 812.108L690.994 813.349L690.373 812.108L689.65 812.524L690.411 813.683L689.03 813.608V814.437ZM689.03 809.224L690.411 809.146L689.65 810.305L690.373 810.721L690.994 809.483L691.614 810.721L692.337 810.305L691.576 809.146L692.957 809.224V808.396L691.576 808.471L692.337 807.312L691.614 806.896L690.994 808.137L690.373 806.896L689.65 807.312L690.411 808.471L689.03 808.396V809.224ZM689.03 804.012L690.411 803.933L689.65 805.092L690.373 805.508L690.994 804.271L691.614 805.508L692.337 805.092L691.576 803.933L692.957 804.012V803.183L691.576 803.258L692.337 802.099L691.614 801.683L690.994 802.924L690.373 801.683L689.65 802.099L690.411 803.258L689.03 803.183V804.012ZM689.03 798.799L690.411 798.721L689.65 799.88L690.373 800.296L690.994 799.058L691.614 800.296L692.337 799.88L691.576 798.721L692.957 798.799V797.971L691.576 798.046L692.337 796.887L691.614 796.471L690.994 797.712L690.373 796.471L689.65 796.887L690.411 798.046L689.03 797.971V798.799ZM689.03 793.587L690.411 793.508L689.65 794.667L690.373 795.083L690.994 793.846L691.614 795.083L692.337 794.667L691.576 793.508L692.957 793.587V792.758L691.576 792.833L692.337 791.674L691.614 791.258L690.994 792.499L690.373 791.258L689.65 791.674L690.411 792.833L689.03 792.758V793.587ZM689.03 788.374L690.411 788.296L689.65 789.455L690.373 789.871L690.994 788.633L691.614 789.871L692.337 789.455L691.576 788.296L692.957 788.374V787.546L691.576 787.621L692.337 786.462L691.614 786.046L690.994 787.287L690.373 786.046L689.65 786.462L690.411 787.621L689.03 787.546V788.374ZM689.03 783.162L690.411 783.083L689.65 784.242L690.373 784.658L690.994 783.421L691.614 784.658L692.337 784.242L691.576 783.083L692.957 783.162V782.333L691.576 782.408L692.337 781.249L691.614 780.833L690.994 782.074L690.373 780.833L689.65 781.249L690.411 782.408L689.03 782.333V783.162ZM689.03 777.949L690.411 777.871L689.65 779.03L690.373 779.446L690.994 778.208L691.614 779.446L692.337 779.03L691.576 777.871L692.957 777.949V777.121L691.576 777.196L692.337 776.037L691.614 775.621L690.994 776.862L690.373 775.621L689.65 776.037L690.411 777.196L689.03 777.121V777.949ZM677.03 856.137L678.411 856.058L677.65 857.217L678.373 857.633L678.994 856.396L679.614 857.633L680.337 857.217L679.576 856.058L680.957 856.137V855.308L679.576 855.383L680.337 854.224L679.614 853.808L678.994 855.049L678.373 853.808L677.65 854.224L678.411 855.383L677.03 855.308V856.137ZM677.03 850.924L678.411 850.846L677.65 852.005L678.373 852.421L678.994 851.183L679.614 852.421L680.337 852.005L679.576 850.846L680.957 850.924V850.096L679.576 850.171L680.337 849.012L679.614 848.596L678.994 849.837L678.373 848.596L677.65 849.012L678.411 850.171L677.03 850.096V850.924ZM677.03 845.712L678.411 845.633L677.65 846.792L678.373 847.208L678.994 845.971L679.614 847.208L680.337 846.792L679.576 845.633L680.957 845.712V844.883L679.576 844.958L680.337 843.799L679.614 843.383L678.994 844.624L678.373 843.383L677.65 843.799L678.411 844.958L677.03 844.883V845.712ZM677.03 840.499L678.411 840.421L677.65 841.58L678.373 841.996L678.994 840.758L679.614 841.996L680.337 841.58L679.576 840.421L680.957 840.499V839.671L679.576 839.746L680.337 838.587L679.614 838.171L678.994 839.412L678.373 838.171L677.65 838.587L678.411 839.746L677.03 839.671V840.499ZM677.03 835.287L678.411 835.208L677.65 836.367L678.373 836.783L678.994 835.546L679.614 836.783L680.337 836.367L679.576 835.208L680.957 835.287V834.458L679.576 834.533L680.337 833.374L679.614 832.958L678.994 834.199L678.373 832.958L677.65 833.374L678.411 834.533L677.03 834.458V835.287ZM677.03 830.074L678.411 829.996L677.65 831.155L678.373 831.571L678.994 830.333L679.614 831.571L680.337 831.155L679.576 829.996L680.957 830.074V829.246L679.576 829.321L680.337 828.162L679.614 827.746L678.994 828.987L678.373 827.746L677.65 828.162L678.411 829.321L677.03 829.246V830.074ZM677.03 824.862L678.411 824.783L677.65 825.942L678.373 826.358L678.994 825.121L679.614 826.358L680.337 825.942L679.576 824.783L680.957 824.862V824.033L679.576 824.108L680.337 822.949L679.614 822.533L678.994 823.774L678.373 822.533L677.65 822.949L678.411 824.108L677.03 824.033V824.862Z" fill="black"/>
</svg>
