<svg width="150" height="150" viewBox="0 0 150 150" fill="none" xmlns="http://www.w3.org/2000/svg">
<path d="M133.5 7.5C138.471 7.5 142.5 11.5294 142.5 16.5V133.5C142.5 138.471 138.471 142.5 133.5 142.5H16.5C11.5294 142.5 7.5 138.471 7.5 133.5V16.5C7.5 11.5294 11.5294 7.5 16.5 7.5H133.5ZM85.7803 15.7031C81.8305 14.8946 81.8303 14.8944 72.6777 14.9473C72.4496 14.949 72.2282 14.9505 72.0068 14.9521C60.2995 15.0106 48.7555 19.6346 39.3447 26.4014C39.1956 26.5091 39.05 26.6142 38.9053 26.7188C34.5406 29.8243 30.7101 33.8758 27.4092 38.0781C27.2539 38.2798 27.1029 38.4761 26.9521 38.6719C21.3103 45.9886 17.6278 54.4621 15.8398 63.5107C15.7705 63.8682 15.7701 63.8684 15.7021 64.2188C15.0127 67.587 14.9394 70.9369 14.9277 74.3643C14.9272 74.6101 14.9263 74.8492 14.9258 75.0879C14.9111 78.9537 15.0828 82.6881 15.8545 86.4863C15.9025 86.7096 15.9485 86.9268 15.9951 87.1436C16.4979 89.5025 17.0917 91.8184 17.8506 94.1084C17.9494 94.4007 17.9491 94.401 18.0459 94.6875C19.9633 100.373 22.7955 105.672 26.3447 110.506C26.5475 110.78 26.7497 111.054 26.9521 111.328C29.7771 115.259 33.309 118.819 37.1143 121.811C37.2451 121.912 37.372 122.011 37.499 122.109C38.5924 122.959 39.6964 123.794 40.8164 124.608C40.9634 124.715 41.1063 124.819 41.249 124.922C47.7552 129.633 55.6725 132.59 63.499 134.155C63.7434 134.203 63.9806 134.25 64.2178 134.297C70.7798 135.644 78.6337 135.698 85.2119 134.411C85.4051 134.372 85.5928 134.335 85.7803 134.297C94.7361 132.649 103.249 129.071 110.563 123.622C110.818 123.43 111.072 123.238 111.327 123.047C115.148 120.294 118.562 116.887 121.532 113.237C121.728 112.987 121.918 112.743 122.108 112.5C128.185 104.813 132.256 96.1193 134.159 86.4893C134.206 86.2487 134.251 86.0148 134.296 85.7812C135.64 79.2164 135.697 71.3679 134.41 64.7871C134.371 64.5939 134.334 64.4063 134.296 64.2188C133.248 58.5236 131.45 52.8298 128.751 47.6963C128.593 47.4 128.592 47.4 128.437 47.1094C127.016 44.4463 125.52 41.8775 123.677 39.4834C123.363 39.0812 123.052 38.6782 122.748 38.2686C121.023 35.9229 119.054 33.8822 116.959 31.8633C116.719 31.6325 116.719 31.6324 116.483 31.4062C108.19 23.3362 97.8323 18.0813 86.4883 15.8398C86.2477 15.7932 86.0137 15.7484 85.7803 15.7031ZM44.999 31.6406C63.3618 18.3879 89.4665 19.521 107.182 33.25C107.396 33.4199 107.604 33.5851 107.812 33.75C118.45 42.001 125.282 54.5028 127.265 67.7344C128.972 81.8202 125.482 95.854 116.769 107.155C116.592 107.379 116.42 107.596 116.249 107.812C114.454 110.104 112.498 112.126 110.319 114.055C110.104 114.243 109.895 114.426 109.687 114.609C100.003 123.273 87.1094 128.014 74.1055 127.764L73.3584 127.734C62.2788 127.331 51.6328 123.544 42.8447 116.769C42.6212 116.592 42.4034 116.421 42.1865 116.25C39.8951 114.455 37.8736 112.499 35.9453 110.32C35.7567 110.105 35.5727 109.896 35.3896 109.688C26.7318 100.01 21.9849 87.1197 22.2354 74.123C22.2453 73.8635 22.255 73.6113 22.2646 73.3594C22.6391 62.2901 26.4659 51.625 33.2285 42.8467C33.4056 42.6227 33.5772 42.4049 33.749 42.1875C34.7973 40.8581 35.8573 39.5847 37.0625 38.3955C37.2109 38.2504 37.355 38.1096 37.499 37.9688C39.7324 35.7756 42.0232 33.7508 44.5781 31.9385C44.7212 31.8373 44.8601 31.7388 44.999 31.6406ZM73.668 29.0742C62.4467 29.4421 50.8144 33.8788 42.9521 42.0898C42.6719 42.3895 42.3906 42.6884 42.1055 42.9834C39.9069 45.2533 37.9264 47.6784 36.2178 50.3408C29.971 60.3688 27.3783 72.7963 30.0078 84.4268C30.122 84.8738 30.1224 84.8743 30.2344 85.3125C33.205 97.0263 39.9959 107.187 50.2793 113.736C60.3427 119.985 72.7555 122.653 84.4355 119.991C84.7337 119.914 85.0232 119.84 85.3125 119.766C93.3779 117.716 101.218 113.981 107.06 107.9C107.236 107.711 107.407 107.527 107.578 107.344C116.188 98.2133 121.046 86.9232 120.938 74.2969C120.58 62.2636 115.946 50.6416 107.199 42.2246C97.9706 33.529 86.4288 28.826 73.668 29.0742ZM67.0312 51.5625C62.4551 52.2209 58.2881 53.1978 54.4932 55.9629C49.5936 59.7306 46.5946 65.2236 45.6504 71.2969C44.7673 77.8657 46.3005 84.465 50.2363 89.8311C54.0239 94.6024 59.0903 97.27 65.0684 98.1738L67.0312 98.4375V105.234C59.7841 104.917 52.6804 102.469 47.5947 97.0928C47.3497 96.8251 47.3495 96.8248 47.1094 96.5625C41.0708 90.2553 38.2471 82.4066 38.3896 73.7227C38.6317 66.5397 41.515 58.6565 46.834 53.668C47.0073 53.5099 47.1755 53.3565 47.3438 53.2031C52.7408 48.0008 59.4319 44.7656 67.0312 44.7656V51.5625ZM99.375 51.5625C97.1294 51.8833 94.9749 52.1749 92.8105 52.8164C87.426 54.5665 83.0214 58.5672 80.46 63.582C80.3065 63.9034 80.3067 63.9038 80.1562 64.2188C79.2083 66.1802 79.2083 66.1804 77.8125 71.4844H92.3438V78.5156H77.8125C78.9168 82.5647 79.8948 86.0753 82.2803 89.4434C85.9779 94.4475 91.3043 97.2292 97.3828 98.1592L99.375 98.4375V105.234H97.7344C91.0081 104.718 84.5038 101.869 79.8174 96.9717C79.6138 96.7529 79.4163 96.5405 79.2188 96.3281C74.5612 91.4784 71.7281 85.4334 70.8516 78.7695C70.0389 70.4173 72.1957 62.0646 77.4971 55.5088C77.7745 55.1732 77.7747 55.173 78.0469 54.8438C78.9068 53.7935 79.782 52.815 80.8359 51.9561C81.0033 51.8223 81.1657 51.6923 81.3281 51.5625C86.4452 47.2558 92.6537 44.7656 99.375 44.7656V51.5625Z" fill="black"/>
</svg>
