<svg width="150" height="150" viewBox="0 0 150 150" fill="none" xmlns="http://www.w3.org/2000/svg">
<path d="M133.5 7.5C138.471 7.5 142.5 11.5294 142.5 16.5V133.5C142.5 138.471 138.471 142.5 133.5 142.5H16.5C11.5294 142.5 7.5 138.471 7.5 133.5V16.5C7.5 11.5294 11.5294 7.5 16.5 7.5H133.5ZM125.858 75.877C124.24 75.4562 123.423 75.8032 122.001 76.6143C120.673 77.3777 119.341 78.134 117.99 78.8574C117.685 79.0193 117.388 79.1769 117.092 79.334C116.487 79.656 115.881 79.9774 115.275 80.2988C114.201 80.8596 113.134 81.4223 112.1 82.0537C111.277 82.6581 110.762 83.1482 110.538 84.1797C110.55 84.4236 110.561 84.6607 110.572 84.8975C110.591 85.6187 110.591 85.6189 110.695 86.2656C111.777 88.02 111.778 88.0201 112.749 89.8398C113.037 90.3756 113.325 90.9118 113.615 91.4463C114.723 93.4851 115.946 95.5381 116.592 97.7783C116.651 99.2399 116.303 100.662 115.398 101.832C113.121 103.954 110.972 104.284 107.944 104.343C107.485 104.348 107.485 104.348 107.035 104.353C106.059 104.369 105.082 104.387 104.105 104.399C103.428 104.408 102.751 104.418 102.073 104.429C100.08 104.462 98.0869 104.492 96.0938 104.518C96.0995 103.234 96.1043 101.95 96.1074 100.666C96.1086 100.142 96.1099 99.6185 96.1113 99.0947C96.1149 98.3223 96.1185 97.5498 96.1201 96.7773C96.1205 96.5281 96.1207 96.2858 96.1211 96.0439C96.1312 94.4096 96.2852 93.2194 95.0938 91.9697C94.3676 91.3843 93.8668 91.2234 92.9355 91.2148C91.5416 91.3542 91.1306 91.7581 90.1514 92.7314C89.99 92.8934 89.8334 93.0508 89.6768 93.208C89.3419 93.5423 89.0065 93.8765 88.6719 94.2109C88.147 94.7375 87.6222 95.2641 87.0957 95.7891C85.6067 97.2729 84.0928 98.7357 82.7275 100.336C81.0526 102.185 81.0531 102.186 79.2754 103.938C78.061 105.138 78.0605 105.138 75.5693 107.632C75.2976 107.904 75.0257 108.176 74.7539 108.448C74.1903 109.011 73.6275 109.575 73.0732 110.146C72.9287 110.297 72.7878 110.444 72.6475 110.59C71.8057 111.454 71.4313 111.916 71.1299 113.088C71.0965 114.324 71.3382 115.078 72.1357 116.03C72.4181 116.303 72.4185 116.304 72.6953 116.571C73.0081 116.878 73.0086 116.878 73.3154 117.179C74.5334 118.349 75.7828 119.501 76.9033 120.767C78.4029 122.53 78.4032 122.53 82.0547 126.139C83.6753 127.74 85.3232 129.317 86.8184 131.038C87.3591 131.673 87.9037 132.296 88.4785 132.9C88.859 133.288 88.8595 133.288 89.2324 133.667C90.3341 134.801 91.4243 135.901 93.0801 136.007C94.0106 135.851 94.5695 135.806 95.252 135.124C96.0508 133.874 96.1898 132.891 96.1895 131.45C96.185 131.194 96.1801 130.944 96.1758 130.695C96.1721 129.888 96.1675 129.081 96.1572 128.273C96.1499 127.713 96.1449 127.152 96.1406 126.592C96.1327 125.295 96.1227 123.999 96.1074 122.702C96.1029 122.343 96.0982 121.994 96.0938 121.646C98.4677 121.663 100.842 121.679 103.216 121.688C104.43 121.692 105.644 121.695 106.858 121.704C108.044 121.713 109.23 121.721 110.415 121.725C110.87 121.725 111.325 121.727 111.779 121.729C113.019 121.741 114.259 121.753 115.499 121.72C120.387 121.388 125.658 118.863 128.987 115.242C129.25 114.931 129.251 114.931 129.509 114.626C131.993 111.722 133.768 108.45 134.836 104.775C136.504 98.2912 135.367 91.3293 131.999 85.6035C131.471 84.7102 130.953 83.8159 130.463 82.9014C130.301 82.5936 130.144 82.2948 129.986 81.9961C129.663 81.384 129.339 80.7717 129.017 80.1592C128.86 79.8559 128.708 79.5609 128.556 79.2666C128.404 78.9807 128.256 78.7032 128.108 78.4258C127.515 77.2904 126.917 76.6088 125.858 75.877ZM123.611 82.8965C126.518 87.8792 129.438 92.7335 129.613 98.6387C129.481 103.2 127.791 107.643 124.568 110.927C120.462 114.64 116.26 115.806 110.862 115.841C110.127 115.843 109.392 115.846 108.657 115.852C106.816 115.868 104.974 115.88 103.132 115.89C101.537 115.898 99.9415 115.907 98.3467 115.921C97.597 115.928 96.8474 115.933 96.0977 115.936C95.6251 115.937 95.1522 115.94 94.6797 115.943C94.4559 115.945 94.2387 115.947 94.0215 115.949C92.8344 115.948 92.0666 115.907 91.04 116.592C90.477 117.353 90.2139 117.884 90.0762 118.825C90.0686 119.133 90.0611 119.431 90.0537 119.729C90.0435 120.064 90.0334 120.389 90.0234 120.714C90.0169 121.06 90.0102 121.397 90.0039 121.733C89.9766 122.705 89.9497 123.677 89.9287 124.648C89.9245 124.869 89.9211 125.082 89.917 125.296H89.6357C89.3879 125.006 89.1469 124.725 88.9062 124.444C88.1191 123.511 87.2878 122.645 86.4189 121.788C84.8094 120.208 83.2202 118.61 81.667 116.975C81.4764 116.773 81.2914 116.577 81.1064 116.381C80.8333 116.094 80.8333 116.094 80.5654 115.813C80.3952 115.632 80.2297 115.456 80.0645 115.28C79.4558 114.635 79.0535 114.03 78.6846 113.222C78.8699 113.04 79.0497 112.863 79.2295 112.687C79.4796 112.439 79.723 112.199 79.9658 111.959C80.6477 111.286 81.3159 110.616 81.9482 109.896C82.9728 108.709 84.0237 107.566 85.1318 106.456C85.3265 106.263 85.5161 106.075 85.7051 105.887C87.0613 104.523 88.4408 103.224 89.917 101.99C89.9447 102.675 89.9732 103.36 90.0029 104.045C90.0154 104.331 90.0269 104.608 90.0391 104.886C90.0504 105.168 90.0622 105.443 90.0732 105.717C90.0854 105.988 90.0966 106.251 90.1084 106.515C90.1557 107.631 90.2429 108.413 90.9287 109.335C91.6731 109.908 92.1453 109.987 93.0732 109.999C93.2714 109.996 93.4639 109.992 93.6562 109.989C94.3082 109.993 94.9603 109.994 95.6123 109.988C96.0791 109.984 96.5459 109.982 97.0127 109.981C97.9881 109.982 98.9641 109.98 99.9395 109.974C101.205 109.964 102.471 109.957 103.737 109.957C104.726 109.957 105.714 109.956 106.702 109.952C107.175 109.95 107.648 109.949 108.121 109.947C108.798 109.947 109.475 109.945 110.151 109.939C110.364 109.938 110.571 109.936 110.777 109.935C113.07 109.938 114.992 109.372 117.017 108.318C119.581 106.736 121.3 104.155 122.173 101.306C123.271 96.7519 121.531 93.4081 119.33 89.5303C118.607 88.2832 117.867 87.1684 117.715 85.7041C118.299 85.3699 118.885 85.0372 119.471 84.7061C119.715 84.5682 119.952 84.4346 120.189 84.3008C120.547 84.0959 120.548 84.0953 120.898 83.8945C121.13 83.7641 121.356 83.6374 121.581 83.5107C122.374 83.0609 122.682 82.8965 123.611 82.8965ZM46.6748 64.084C45.4089 63.8313 45.4086 63.8313 42.8301 64.5859C42.3628 64.7197 42.3623 64.7195 41.9043 64.8506C41.5465 64.9531 41.1988 65.0528 40.8516 65.1523C40.2732 65.3178 39.6945 65.4836 39.1162 65.6494C37.4431 66.1295 35.7701 66.6099 34.0967 67.0889C31.8547 67.7303 29.613 68.3734 27.374 69.0254C26.4141 69.3054 25.4543 69.5858 24.4922 69.8584C23.6108 70.1064 22.73 70.3564 21.8506 70.6113C21.523 70.7067 21.2047 70.7991 20.8867 70.8916C19.3648 71.31 17.9296 71.5823 16.8643 72.8145C16.155 73.9379 16.1547 73.9378 16.3486 75.877C16.9122 77.004 16.9125 77.0041 19.2275 78.3887C19.5577 78.5628 19.8778 78.7323 20.1982 78.9014C20.7316 79.1849 21.2658 79.4676 21.8008 79.748C22.1709 79.942 22.5408 80.1367 22.9102 80.332C23.7666 80.7861 24.6235 81.2394 25.4814 81.6904C25.7177 81.8143 25.9474 81.9345 26.1768 82.0547C26.0068 83.0185 26.0061 83.0188 25.4629 83.8633C23.071 87.8522 21.2071 92.104 21.0439 96.8066C20.9496 103.593 22.7072 109.849 27.501 114.863C32.8175 120.065 39.2162 121.782 46.4512 121.761C46.9657 121.759 47.4806 121.758 47.9951 121.759C49.0778 121.761 50.1605 121.762 51.2432 121.759C52.6408 121.754 54.0388 121.751 55.4365 121.756C56.5357 121.76 57.6352 121.762 58.7344 121.761C59.2577 121.76 59.7813 121.758 60.3047 121.758C61.0533 121.761 61.8022 121.763 62.5508 121.76C62.8966 121.758 62.8971 121.757 63.2363 121.755C64.3082 121.763 65.207 121.81 66.1592 121.254C67.403 120.013 67.5501 118.992 67.5557 117.293C67.5521 117.012 67.5484 116.739 67.5449 116.467C67.5438 115.887 67.5428 115.307 67.541 114.727C67.5322 113.814 67.5232 112.901 67.5205 111.988C67.5194 111.391 67.5173 110.794 67.5146 110.197C67.513 109.907 67.5114 109.624 67.5098 109.342C67.5079 108.923 67.5086 108.923 67.5068 108.513C67.5041 108.251 67.5007 107.996 67.498 107.742C67.491 106.925 67.4349 106.431 67.1719 105.642C66.434 104.721 66.0232 104.286 64.8486 104.063C64.3158 104.065 64.3155 104.064 63.793 104.065C63.1795 104.06 62.5666 104.057 61.9531 104.062C61.5139 104.066 61.0741 104.068 60.6348 104.066C59.4777 104.059 58.3202 104.055 57.1631 104.058C55.2787 104.063 53.3941 104.064 51.5098 104.056C50.8463 104.052 50.183 104.051 49.5195 104.055C47.2115 104.07 45.173 104.044 43.0244 103.114C41.6013 102.284 40.7204 101.295 40.1982 99.7266C39.6575 97.752 40.3148 96.3406 41.2393 94.6113C41.3748 94.3637 41.5061 94.1231 41.6377 93.8828C42.0974 93.0274 42.5583 92.1723 43.0244 91.3203C43.6439 91.6246 44.2547 91.94 44.8623 92.2676C45.2662 92.4889 45.2662 92.4891 45.6621 92.7061C46.2627 93.0338 46.8634 93.3614 47.4639 93.6895C49.3374 94.7172 51.5296 96.375 53.7295 96.375C54.7895 96.0063 55.2613 95.5829 55.9404 94.6904C56.2481 93.3921 56.2244 92.3959 55.8652 91.1104C55.8047 90.9095 55.7462 90.7145 55.6875 90.5195C55.4964 89.8493 55.3037 89.1792 55.1064 88.5107C54.9646 88.0309 54.8237 87.5509 54.6846 87.0703C54.3932 86.0592 54.1014 85.0479 53.8057 84.0381C53.4233 82.7366 53.0418 81.4349 52.665 80.1318C52.2987 78.8639 51.9311 77.5964 51.5625 76.3291C51.4903 76.0811 51.4206 75.8403 51.3506 75.5996C50.9598 74.2538 50.5667 72.9088 50.1611 71.5674C50.0285 71.1321 49.8952 70.6961 49.7627 70.2607C49.552 69.5549 49.3401 68.8498 49.1211 68.1465C49.014 67.8053 49.0141 67.8051 48.9092 67.4707C48.463 65.9628 48.063 64.9475 46.6748 64.084ZM43.3047 70.542C43.8766 71.3247 43.8768 71.3249 44.1045 72.0615C44.1854 72.337 44.2642 72.6046 44.3428 72.8721C44.4803 73.3363 44.4804 73.3368 44.6152 73.792C44.7134 74.129 44.809 74.4561 44.9043 74.7832C45.2132 75.8304 45.5214 76.8779 45.8281 77.9258C46.0947 78.8373 46.3626 79.7491 46.6309 80.6602C47.2087 82.6219 47.785 84.5841 48.3594 86.5469C48.1685 86.6423 47.9831 86.7355 47.7979 86.8281C47.5624 86.7271 47.5619 86.727 47.3311 86.6279C47.0515 86.4637 47.0514 86.4637 46.7773 86.3027C46.3557 86.0646 45.935 85.8242 45.5156 85.582C43.857 84.6029 42.7252 84.0846 40.7773 84.3008C40.0838 84.5607 39.7326 84.7533 39.2979 85.3584C39.193 85.5638 39.092 85.7636 38.9902 85.9629C38.8684 86.196 38.7501 86.4222 38.6318 86.6484C38.3734 87.1513 38.108 87.6513 37.8369 88.1475C37.5454 88.6777 37.2566 89.2098 36.9707 89.7432C36.8212 90.023 36.6754 90.2948 36.5303 90.5664C35.1707 93.0434 34.0212 95.5675 33.9688 98.4453C34.1698 101.361 35.0653 104.122 37.1289 106.257C40.0956 108.945 43.2283 109.96 47.2148 110.023C47.7711 110.024 48.3276 110.024 48.8838 110.03C49.876 110.044 50.8681 110.053 51.8604 110.058C52.8854 110.062 53.9106 110.071 54.9355 110.082C56.629 110.101 58.3231 110.116 60.0166 110.126C60.5401 110.129 61.0485 110.131 61.5566 110.134V115.75C59.473 115.756 57.3893 115.761 55.3057 115.764C54.2403 115.765 53.1747 115.766 52.1094 115.769C51.0689 115.772 50.0278 115.775 48.9873 115.776C48.5885 115.777 48.1898 115.777 47.791 115.777C42.5566 115.798 37.1238 115.582 33.0957 111.737C32.8631 111.495 32.8628 111.495 32.6348 111.257C30.3166 108.93 28.7648 106.609 27.7734 103.465C26.0679 96.9422 27.9773 91.827 31.1602 86.1787C32.2583 84.242 33.571 82.3875 33.4775 80.0889C33.0384 78.8924 32.3353 78.4201 31.2314 77.8184C29.8083 77.0801 28.5652 76.3277 27.2998 75.3154C32.7415 73.6925 38.0231 72.1172 43.3047 70.542ZM94.2979 21.6504C88.4953 16.792 80.115 14.6972 72.6816 16.4189C72.4319 16.4901 72.1897 16.5598 71.9473 16.6289C71.2603 16.8187 70.5755 17.0185 69.8936 17.2256C60.9969 20.207 56.7716 27.4713 52.6289 35.2959C51.5069 37.4166 50.3753 39.5292 49.1895 41.6152C48.7488 42.3871 48.3101 43.1603 47.8721 43.9336C47.5669 44.4726 47.2615 45.0119 46.9561 45.5508C46.4014 46.523 45.8479 47.4955 45.3037 48.4736C45.1198 48.8043 44.9411 49.1254 44.7627 49.4463C43.7402 51.2276 42.817 52.7357 42.8818 54.835C43.1243 55.7531 43.6088 56.3213 44.3809 56.8594C44.578 56.9644 44.7696 57.066 44.9609 57.168C45.1866 57.2902 45.406 57.4087 45.625 57.5273C46.1134 57.7845 46.601 58.0439 47.0879 58.3037C47.3514 58.4447 47.6075 58.581 47.8633 58.7178C48.6845 59.1553 49.4994 59.5996 50.3066 60.0625C50.5865 60.2253 50.8583 60.383 51.1299 60.541C51.6692 60.8498 52.2089 61.1587 52.748 61.4678C54.64 62.5969 56.2198 63.3661 58.4688 62.96C59.7595 62.0995 59.7593 62.0987 63.7334 54.6758C64.992 52.3189 66.2703 49.9768 67.5947 47.6562C68.4851 46.1015 69.3646 44.5437 70.1973 42.957C70.3736 42.6202 70.5504 42.2837 70.7275 41.9473C70.9882 41.4522 71.248 40.9565 71.5078 40.4609C72.4764 38.5668 73.2282 36.915 75.0352 35.7227C76.6134 34.8583 78.1891 34.5855 79.9453 35.0742C82.454 35.9612 83.4325 37.5458 84.6953 39.79C84.848 40.0659 84.9964 40.3338 85.1445 40.6016C86.4443 42.9254 87.7214 45.2611 88.9873 47.6035C89.7162 48.9586 90.4414 50.3162 91.1924 51.6592C91.3354 51.9122 91.4745 52.1577 91.6133 52.4033C91.8725 52.8627 92.1326 53.3223 92.3926 53.7812C92.9711 54.7853 93.5684 55.5931 93.5684 56.7822C93.2879 56.94 93.0153 57.093 92.7432 57.2461C92.3629 57.4598 91.9826 57.6737 91.6025 57.8877C90.5514 58.4836 89.5024 59.0828 88.4355 59.6504C88.2219 59.7628 88.014 59.8714 87.8066 59.9805C87.4049 60.1956 87.0025 60.4111 86.6006 60.626C85.513 61.1795 84.7166 61.6303 84.0342 62.6826C83.6033 63.9127 83.7141 64.5012 84.0205 65.7676C84.5962 66.4846 85.0416 66.8472 85.8916 67.2051C86.1857 67.2896 86.4714 67.3721 86.7568 67.4541C87.2563 67.6007 87.2564 67.6004 87.7461 67.7441C88.2909 67.8979 88.8361 68.0524 89.3799 68.21C90.1624 68.4382 90.945 68.6659 91.7285 68.8906C92.9423 69.2379 94.1552 69.5885 95.3662 69.9453C97.1763 70.4794 98.9872 71.0106 100.8 71.5361C101.822 71.8321 102.844 72.1278 103.865 72.4268C104.901 72.7305 105.936 73.034 106.973 73.334C107.365 73.4473 107.758 73.561 108.15 73.6748C108.523 73.7847 108.896 73.8951 109.269 74.0049C109.622 74.1065 109.966 74.2051 110.31 74.3037C111.873 74.7589 113.265 75.0338 114.839 74.4814C115.619 73.7757 115.816 73.1926 116.115 72.2002C116.18 71.9656 116.243 71.7374 116.306 71.5098C116.449 71.0235 116.592 70.5372 116.735 70.0508C116.937 69.339 117.14 68.6275 117.35 67.918C117.728 66.6562 118.1 65.3928 118.468 64.1279C118.599 63.677 118.73 63.2262 118.861 62.7754C119.14 61.8193 119.417 60.8627 119.694 59.9062C120.05 58.6803 120.406 57.4546 120.764 56.2295C121.047 55.2609 121.329 54.2914 121.61 53.3223C121.744 52.86 121.879 52.3978 122.013 51.9355C122.204 51.281 122.396 50.626 122.585 49.9707C122.644 49.7647 122.702 49.5642 122.76 49.3643C123.249 47.7083 123.82 45.9196 123.438 44.1992C122.925 43.3843 122.54 43.1109 121.647 42.7422C120.095 42.6066 119.169 42.7337 117.834 43.5273C117.466 43.7585 117.095 43.9854 116.722 44.208C116.52 44.327 116.324 44.4421 116.128 44.5576C115.102 45.1664 114.057 45.7188 112.99 46.251C112.683 46.4024 112.682 46.4023 112.381 46.5508C111.727 46.874 111.072 47.1956 110.416 47.5156C109.031 45.0401 107.656 42.5599 106.304 40.0664C106.15 39.7831 106.001 39.5074 105.853 39.2324C105.047 37.7471 104.243 36.2608 103.452 34.7676C100.855 29.8479 98.5195 25.371 94.2979 21.6504ZM64.8096 27.1191C68.8983 23.2435 74.2378 21.4197 79.8438 21.7178C84.3408 22.2432 89.1176 24.1385 92.1396 27.6416C92.3387 27.907 92.5324 28.1643 92.7256 28.4219C94.0433 30.0105 95.1108 31.6122 96.0762 33.4385C96.4033 34.0682 96.7329 34.6969 97.0645 35.3242C97.2428 35.6602 97.4158 35.9864 97.5889 36.3125C98.3707 37.7874 99.1753 39.2475 100.001 40.6982C101.036 42.508 102.07 44.3168 103.051 46.1562C103.141 46.3258 103.228 46.4907 103.315 46.6553C103.665 47.3104 104.013 47.9663 104.361 48.6221C105.29 50.3982 106.448 53.7589 108.499 54.4658C110.236 54.72 110.236 54.7193 114.524 52.2803C114.846 52.0924 115.158 51.9099 115.47 51.7275C115.821 52.2857 115.82 52.286 115.619 52.9414C115.539 53.2219 115.462 53.4944 115.384 53.7666C115.294 54.0841 115.206 54.3921 115.119 54.7002C115.019 55.0443 114.922 55.3789 114.825 55.7129C114.571 56.5962 114.317 57.4799 114.06 58.3623C113.789 59.2889 113.521 60.2161 113.257 61.1445C113.051 61.8681 112.843 62.591 112.634 63.3135C112.532 63.6649 112.432 64.0066 112.333 64.3477C112.188 64.8593 112.188 64.8596 112.046 65.3613C111.952 65.678 111.861 65.9856 111.771 66.293C111.559 67.0941 111.558 67.0945 111.258 67.7334C110.45 68.0799 110.449 68.0796 109.728 67.877C109.447 67.7941 109.175 67.7142 108.902 67.6338C108.429 67.4961 108.429 67.4953 107.966 67.3604C107.456 67.2078 107.455 67.2082 106.955 67.0586C105.888 66.7457 104.82 66.4322 103.754 66.1152C102.826 65.8394 101.897 65.5659 100.969 65.293C98.9689 64.7055 96.9698 64.1149 94.9717 63.5215V62.96C95.4866 62.6852 96.0012 62.4091 96.5137 62.1299C96.7292 62.0122 96.9392 61.8984 97.1484 61.7842C98.5262 61.0527 99.8115 60.4401 100.588 59.0283C100.855 57.2949 100.438 56.2655 99.5898 54.7598C99.2858 54.2424 98.9863 53.7223 98.6904 53.2002C98.528 52.9127 98.3696 52.6335 98.2119 52.3545C97.3853 50.9073 96.5881 49.4464 95.8027 47.9766C94.3865 45.3235 92.9531 42.6797 91.5068 40.043C91.3104 39.6853 91.1143 39.3274 90.918 38.9697C89.6436 36.6362 88.4202 34.209 86.8291 32.0723C84.9222 30.3371 82.6431 29.1954 80.0625 28.9209C76.5318 28.6761 73.2621 29.0359 70.4482 31.375C70.2895 31.5166 70.1355 31.6545 69.9814 31.792C68.0657 33.4274 68.0652 33.4272 65.0322 39.3027C63.8771 41.5467 62.6859 43.7623 61.4346 45.9541C59.647 49.0845 57.9258 52.2489 56.2188 55.4238C56.1246 55.5992 56.0328 55.7692 55.9414 55.9395C54.6826 55.6769 54.6825 55.6767 53.5479 54.9824C53.3057 54.8484 53.07 54.719 52.835 54.5889C52.5918 54.4583 52.3561 54.3309 52.1201 54.2041C51.8888 54.0764 51.664 53.9521 51.4395 53.8281C50.8216 53.5068 50.8213 53.5068 50.3262 53.1318C49.9597 52.3322 49.9595 52.3323 50.2646 51.7295C50.4473 51.4032 50.447 51.4028 50.626 51.083C50.7641 50.8331 50.8982 50.5902 51.0322 50.3477C51.1857 50.077 51.3354 49.8145 51.4844 49.5518C52.27 48.139 53.0634 46.731 53.8613 45.3252C54.0085 45.0663 54.1511 44.8148 54.2939 44.5635C54.5856 44.0501 54.8781 43.5367 55.1699 43.0234C56.1091 41.3792 57.0318 39.7283 57.9121 38.0518C58.0117 37.8615 58.1084 37.6768 58.2051 37.4922C58.6908 36.5678 59.1782 35.6437 59.6553 34.7148C61.0746 31.9503 62.6235 29.3563 64.8096 27.1191Z" fill="black"/>
</svg>
