<svg width="150" height="150" viewBox="0 0 150 150" fill="none" xmlns="http://www.w3.org/2000/svg">
<path d="M131.98 7.5C137.79 7.5 142.5 12.2098 142.5 18.0195V131.98C142.5 137.79 137.79 142.5 131.98 142.5H18.0195C12.2098 142.5 7.5 137.79 7.5 131.98V18.0195C7.5 12.2098 12.2098 7.5 18.0195 7.5H131.98ZM48.0488 17.0293C48.0488 17.0293 46.9503 17.3329 46.46 17.8232C45.9696 18.3136 45.666 19.4121 45.666 19.4121L44.0781 28.9414C44.0699 28.9769 42.9646 33.768 42.4893 36.8828C42.0656 39.6586 41.9909 41.2368 41.6953 44.0293C41.3673 47.1287 40.9727 48.8548 40.9014 51.9707L40.9004 52.0283C40.8086 56.0352 40.7544 58.3815 41.6953 62.2939C42.638 66.2137 43.6078 68.3568 45.666 71.8232C47.6937 75.2381 49.117 77.0539 52.0195 79.7646C55.2882 82.8173 57.4514 84.3241 61.5488 86.1172C65.0782 87.6616 71.0781 88.668 71.0781 88.668V127.412L52.8135 131.382C52.8135 131.382 51.2246 132.646 51.2246 133.765C51.2246 134.883 52.8135 136.147 52.8135 136.147H99.1367C99.1367 136.147 100.487 134.829 100.46 133.765C100.432 132.647 98.8721 131.382 98.8721 131.382L80.6074 127.412V88.668C80.6458 88.6595 89.3742 86.7293 94.1074 83.7354C98.6355 80.8712 100.844 78.552 103.978 74.2061C107.188 69.7534 108.748 66.8472 109.989 61.5C110.831 57.8725 110.784 52.0034 110.784 51.9707C109.993 39.299 106.041 19.5185 106.02 19.4121C106.02 19.4121 105.702 18.3264 105.225 17.8232C104.827 17.4045 103.978 17.0293 103.978 17.0293H80.6074C80.6074 17.0293 79.51 17.3331 79.0195 17.8232C78.5292 18.3136 78.2246 19.4121 78.2246 19.4121L75.8428 33.7061C75.837 33.7231 75.2877 35.3474 75.8428 36.0879C76.2565 36.6395 77.4174 36.8801 77.4307 36.8828H89.3428L79.8135 55.9414L80.6074 44.8232C80.6074 44.7998 80.6012 43.2296 79.8135 42.4414C79.0197 41.6473 78.2246 41.6475 78.2246 41.6475H66.3135L69.4893 19.4121C69.4893 19.4121 69.1857 18.3136 68.6953 17.8232C68.2065 17.3348 67.115 17.0314 67.1074 17.0293H48.0488Z" fill="black"/>
</svg>
