<svg width="1241" height="572" viewBox="0 0 1241 572" fill="none" xmlns="http://www.w3.org/2000/svg" xmlns:xlink="http://www.w3.org/1999/xlink">
<path d="M373.243 134.945C386.843 139.189 394.962 141.151 407.008 148.758V326.022L410.077 472.593C400.672 476.299 394.816 478.943 384.754 477.964C373.955 476.913 356.101 442.464 356.057 442.379C328.431 413.986 311.933 410.137 272.717 410.435C227.704 410.776 192.91 450.338 174.492 484.103H6.4357C-8.0279 472.958 6.40227 437.375 6.4357 437.293L2.59879 359.021C2.59879 359.021 16.0789 312.913 27.922 284.584C38.8809 258.37 46.5919 244.324 60.1525 219.356C77.2251 187.922 107.73 141.084 107.73 141.084C123.696 132.258 135.046 132.785 153.005 129.573H267.345L373.243 134.945ZM152.651 171.396L152.9 171.691C152.674 171.425 152.652 171.399 152.65 171.397C152.649 171.398 152.648 171.399 152.647 171.399C152.644 171.401 152.641 171.405 152.637 171.408C152.628 171.416 152.614 171.427 152.597 171.442C152.561 171.473 152.508 171.517 152.438 171.577C152.298 171.697 152.09 171.875 151.819 172.109C151.278 172.578 150.481 173.272 149.464 174.174C147.429 175.979 144.506 178.62 140.958 181.962C133.863 188.644 124.264 198.132 114.248 209.354C94.2289 231.785 72.4924 261.199 65.8107 289.011C61.8066 305.678 61.8099 327.595 62.8078 345.319C63.307 354.187 64.0558 362.016 64.6798 367.627C64.9919 370.433 65.2728 372.685 65.4757 374.235C65.5772 375.011 65.6593 375.611 65.716 376.018C65.7442 376.22 65.7655 376.375 65.7804 376.479C65.7879 376.531 65.7942 376.571 65.798 376.598C65.7999 376.611 65.8009 376.621 65.8019 376.628C65.8024 376.631 65.8026 376.634 65.8029 376.636L65.8039 376.638L65.8488 376.945L66.1593 376.967L198.916 386.176L199.242 386.198L199.319 385.88L198.943 385.79L199.319 385.879V385.878C199.319 385.877 199.319 385.875 199.319 385.873C199.321 385.869 199.322 385.862 199.324 385.853C199.329 385.835 199.335 385.808 199.344 385.772C199.361 385.701 199.387 385.593 199.422 385.453C199.491 385.173 199.595 384.758 199.732 384.224C200.006 383.154 200.413 381.604 200.949 379.686C202.022 375.848 203.605 370.534 205.651 364.629C209.745 352.807 215.676 338.662 223.035 329.242C235.602 313.158 244.828 304.372 263.554 296.362C276.96 290.628 295.676 290.618 311.094 292.061C318.793 292.781 325.651 293.862 330.583 294.763C333.049 295.213 335.033 295.619 336.401 295.911C337.084 296.057 337.614 296.175 337.972 296.257C338.151 296.298 338.288 296.329 338.379 296.351C338.424 296.361 338.459 296.369 338.482 296.374C338.493 296.377 338.501 296.38 338.507 296.381C338.51 296.381 338.512 296.382 338.514 296.382L338.515 296.383H338.516L338.962 296.489L338.991 296.031L346.665 176.32L346.691 175.919L346.288 175.909L152.909 171.306L152.763 171.302L152.651 171.396Z" fill="black"/>
<rect x="6.94974" y="509.574" width="172.236" height="61.7887" rx="8.49594" fill="black"/>
<rect x="14.6738" y="501.078" width="172.236" height="61.7887" rx="8.49594" fill="url(#pattern0_317_156)"/>
<path d="M434.603 27.6224C434.603 16.9584 443.248 8.31348 453.912 8.31348H1213.37C1224.03 8.31348 1232.68 16.9584 1232.68 27.6224V467.372C1232.68 477.614 1224.68 486.074 1214.46 486.65L1187.64 488.161C1181.68 488.497 1175.92 486.08 1171.78 481.791C1154.68 464.11 1106.15 418.448 1059.25 416.56C1008.22 414.505 945.649 464.457 926.772 480.643C923.08 483.808 918.421 485.624 913.558 485.624H453.912C443.248 485.624 434.603 476.979 434.603 466.315V27.6224Z" fill="#FFEE5A"/>
<use xlink:href="#stroke0_317_156" transform="translate(450.64 5.04112) scale(0.218157)"/>
<use xlink:href="#stroke0_317_156" transform="translate(456.204 6.74038) scale(0.248967)"/>
<use xlink:href="#stroke0_317_156" transform="translate(462.78 7.7014) scale(0.176142)"/>
<use xlink:href="#stroke0_317_156" transform="translate(467.105 2.59549) scale(0.280635)"/>
<use xlink:href="#stroke0_317_156" transform="translate(474.545 6.61552) scale(0.185389)"/>
<use xlink:href="#stroke0_317_156" transform="translate(479.27 3.71586) scale(0.213214)"/>
<use xlink:href="#stroke0_317_156" transform="translate(484.695 0.808431) scale(0.249327)"/>
<use xlink:href="#stroke0_317_156" transform="translate(491.314 7.35885) scale(0.160649)"/>
<use xlink:href="#stroke0_317_156" transform="translate(495.282 7.92391) scale(0.244933)"/>
<use xlink:href="#stroke0_317_156" transform="translate(501.764 6.30945) scale(0.167455)"/>
<use xlink:href="#stroke0_317_156" transform="translate(505.986 1.45964) scale(0.214113)"/>
<use xlink:href="#stroke0_317_156" transform="translate(511.494 6.79838) scale(0.221743)"/>
<use xlink:href="#stroke0_317_156" transform="translate(517.164 2.6803) scale(0.246166)"/>
<use xlink:href="#stroke0_317_156" transform="translate(523.74 4.38079) scale(0.138898)"/>
<use xlink:href="#stroke0_317_156" transform="translate(527.097 6.43033) scale(0.246591)"/>
<use xlink:href="#stroke0_317_156" transform="translate(533.669 4.19983) scale(0.146873)"/>
<use xlink:href="#stroke0_317_156" transform="translate(537.184 6.77936) scale(0.277672)"/>
<use xlink:href="#stroke0_317_156" transform="translate(544.461 3.0197) scale(0.223867)"/>
<use xlink:href="#stroke0_317_156" transform="translate(550.118 7.92156) scale(0.280025)"/>
<use xlink:href="#stroke0_317_156" transform="translate(557.639 4.86286) scale(0.139202)"/>
<use xlink:href="#stroke0_317_156" transform="translate(560.923 4.58686) scale(0.285232)"/>
<use xlink:href="#stroke0_317_156" transform="translate(568.294 0.767245) scale(0.279563)"/>
<use xlink:href="#stroke0_317_156" transform="translate(575.734 3.61487) scale(0.171471)"/>
<use xlink:href="#stroke0_317_156" transform="translate(580.005 6.14682) scale(0.244429)"/>
<use xlink:href="#stroke0_317_156" transform="translate(586.481 5.26963) scale(0.163724)"/>
<use xlink:href="#stroke0_317_156" transform="translate(590.684 5.43076) scale(0.173741)"/>
<use xlink:href="#stroke0_317_156" transform="translate(595.198 5.64461) scale(0.158489)"/>
<use xlink:href="#stroke0_317_156" transform="translate(599.169 6.97136) scale(0.214987)"/>
<use xlink:href="#stroke0_317_156" transform="translate(604.587 4.39938) scale(0.276206)"/>
<use xlink:href="#stroke0_317_156" transform="translate(611.965 5.27424) scale(0.1559)"/>
<use xlink:href="#stroke0_317_156" transform="translate(615.938 2.79157) scale(0.179365)"/>
<use xlink:href="#stroke0_317_156" transform="translate(620.363 1.90322) scale(0.276072)"/>
<use xlink:href="#stroke0_317_156" transform="translate(627.512 4.5554) scale(0.263231)"/>
<use xlink:href="#stroke0_317_156" transform="translate(634.288 5.9606) scale(0.270918)"/>
<use xlink:href="#stroke0_317_156" transform="translate(641.428 8.18675) scale(0.198982)"/>
<use xlink:href="#stroke0_317_156" transform="translate(646.602 3.34699) scale(0.180095)"/>
<use xlink:href="#stroke0_317_156" transform="translate(651.072 0.576628) scale(0.263949)"/>
<use xlink:href="#stroke0_317_156" transform="translate(658.003 8.82201) scale(0.206562)"/>
<use xlink:href="#stroke0_317_156" transform="translate(663.23 0.731311) scale(0.255212)"/>
<use xlink:href="#stroke0_317_156" transform="translate(669.963 4.6937) scale(0.184339)"/>
<use xlink:href="#stroke0_317_156" transform="translate(674.723 4.08978) scale(0.182534)"/>
<use xlink:href="#stroke0_317_156" transform="translate(679.461 5.03141) scale(0.168999)"/>
<use xlink:href="#stroke0_317_156" transform="translate(683.551 -7.15256e-05) scale(0.297258)"/>
<use xlink:href="#stroke0_317_156" transform="translate(691.411 8.45605) scale(0.20677)"/>
<use xlink:href="#stroke0_317_156" transform="translate(696.814 8.1022) scale(0.174036)"/>
<use xlink:href="#stroke0_317_156" transform="translate(701.112 6.67022) scale(0.265393)"/>
<use xlink:href="#stroke0_317_156" transform="translate(708.03 3.87106) scale(0.23176)"/>
<use xlink:href="#stroke0_317_156" transform="translate(714.08 5.20803) scale(0.198213)"/>
<use xlink:href="#stroke0_317_156" transform="translate(719.318 7.27781) scale(0.138887)"/>
<use xlink:href="#stroke0_317_156" transform="translate(722.776 9.2557) scale(0.198573)"/>
<use xlink:href="#stroke0_317_156" transform="translate(727.693 2.5265) scale(0.296725)"/>
<use xlink:href="#stroke0_317_156" transform="translate(735.663 5.5924) scale(0.147378)"/>
<use xlink:href="#stroke0_317_156" transform="translate(739.435 2.69237) scale(0.161734)"/>
<use xlink:href="#stroke0_317_156" transform="translate(743.55 4.35404) scale(0.18904)"/>
<use xlink:href="#stroke0_317_156" transform="translate(748.527 10.0006) scale(0.141494)"/>
<use xlink:href="#stroke0_317_156" transform="translate(751.984 7.22154) scale(0.233717)"/>
<use xlink:href="#stroke0_317_156" transform="translate(758.11 3.53781) scale(0.188231)"/>
<use xlink:href="#stroke0_317_156" transform="translate(763.018 3.11459) scale(0.163237)"/>
<use xlink:href="#stroke0_317_156" transform="translate(767.177 7.58685) scale(0.188415)"/>
<use xlink:href="#stroke0_317_156" transform="translate(772.087 7.84431) scale(0.165122)"/>
<use xlink:href="#stroke0_317_156" transform="translate(776.366 6.51197) scale(0.15632)"/>
<use xlink:href="#stroke0_317_156" transform="translate(780.262 3.44051) scale(0.221272)"/>
<use xlink:href="#stroke0_317_156" transform="translate(785.819 0.493097) scale(0.293617)"/>
<use xlink:href="#stroke0_317_156" transform="translate(793.555 4.36493) scale(0.217414)"/>
<use xlink:href="#stroke0_317_156" transform="translate(799.137 5.34685) scale(0.230245)"/>
<use xlink:href="#stroke0_317_156" transform="translate(805.239 6.41571) scale(0.153005)"/>
<use xlink:href="#stroke0_317_156" transform="translate(809.163 4.17934) scale(0.164573)"/>
<use xlink:href="#stroke0_317_156" transform="translate(813.304 2.27593) scale(0.21426)"/>
<use xlink:href="#stroke0_317_156" transform="translate(818.88 9.12304) scale(0.19137)"/>
<use xlink:href="#stroke0_317_156" transform="translate(823.852 8.78435) scale(0.175185)"/>
<use xlink:href="#stroke0_317_156" transform="translate(828.373 6.26749) scale(0.174544)"/>
<use xlink:href="#stroke0_317_156" transform="translate(832.91 2.10498) scale(0.158565)"/>
<use xlink:href="#stroke0_317_156" transform="translate(837.004 8.98221) scale(0.156798)"/>
<use xlink:href="#stroke0_317_156" transform="translate(840.981 3.74973) scale(0.189622)"/>
<use xlink:href="#stroke0_317_156" transform="translate(845.848 5.67522) scale(0.201445)"/>
<use xlink:href="#stroke0_317_156" transform="translate(850.928 0.531525) scale(0.257502)"/>
<use xlink:href="#stroke0_317_156" transform="translate(857.503 1.81566) scale(0.289978)"/>
<use xlink:href="#stroke0_317_156" transform="translate(865.25 9.22564) scale(0.163443)"/>
<use xlink:href="#stroke0_317_156" transform="translate(869.498 4.39502) scale(0.148741)"/>
<use xlink:href="#stroke0_317_156" transform="translate(873.271 4.04075) scale(0.179451)"/>
<use xlink:href="#stroke0_317_156" transform="translate(877.703 0.904674) scale(0.273791)"/>
<use xlink:href="#stroke0_317_156" transform="translate(884.772 2.78101) scale(0.271156)"/>
<use xlink:href="#stroke0_317_156" transform="translate(891.911 2.36214) scale(0.203103)"/>
<use xlink:href="#stroke0_317_156" transform="translate(897.261 7.63985) scale(0.150651)"/>
<use xlink:href="#stroke0_317_156" transform="translate(901.159 2.76339) scale(0.145507)"/>
<use xlink:href="#stroke0_317_156" transform="translate(904.891 3.57993) scale(0.155785)"/>
<use xlink:href="#stroke0_317_156" transform="translate(908.827 6.43981) scale(0.195277)"/>
<use xlink:href="#stroke0_317_156" transform="translate(913.851 1.89394) scale(0.202121)"/>
<use xlink:href="#stroke0_317_156" transform="translate(918.96 6.71934) scale(0.252289)"/>
<use xlink:href="#stroke0_317_156" transform="translate(925.44 2.96558) scale(0.266515)"/>
<use xlink:href="#stroke0_317_156" transform="translate(932.569 9.82631) scale(0.146114)"/>
<use xlink:href="#stroke0_317_156" transform="translate(936.059 3.60393) scale(0.279288)"/>
<use xlink:href="#stroke0_317_156" transform="translate(943.441 8.64273) scale(0.194963)"/>
<use xlink:href="#stroke0_317_156" transform="translate(948.576 7.29452) scale(0.145072)"/>
<use xlink:href="#stroke0_317_156" transform="translate(952.082 5.47951) scale(0.258138)"/>
<use xlink:href="#stroke0_317_156" transform="translate(958.854 6.55026) scale(0.204797)"/>
<use xlink:href="#stroke0_317_156" transform="translate(964.184 3.05469) scale(0.182611)"/>
<use xlink:href="#stroke0_317_156" transform="translate(968.943 7.66541) scale(0.15998)"/>
<use xlink:href="#stroke0_317_156" transform="translate(972.891 4.7085) scale(0.245534)"/>
<use xlink:href="#stroke0_317_156" transform="translate(979.417 8.35671) scale(0.154237)"/>
<use xlink:href="#stroke0_317_156" transform="translate(983.316 1.81944) scale(0.192761)"/>
<use xlink:href="#stroke0_317_156" transform="translate(988.234 4.64053) scale(0.218766)"/>
<use xlink:href="#stroke0_317_156" transform="translate(994.02 7.52822) scale(0.151232)"/>
<use xlink:href="#stroke0_317_156" transform="translate(997.663 0.67138) scale(0.274737)"/>
<use xlink:href="#stroke0_317_156" transform="translate(1004.9 8.86452) scale(0.204049)"/>
<use xlink:href="#stroke0_317_156" transform="translate(1009.96 4.38685) scale(0.300818)"/>
<use xlink:href="#stroke0_317_156" transform="translate(1018.04 8.43278) scale(0.147048)"/>
<use xlink:href="#stroke0_317_156" transform="translate(1021.8 2.95025) scale(0.165434)"/>
<use xlink:href="#stroke0_317_156" transform="translate(1025.92 2.3766) scale(0.236754)"/>
<use xlink:href="#stroke0_317_156" transform="translate(1032.16 9.62192) scale(0.172953)"/>
<use xlink:href="#stroke0_317_156" transform="translate(1036.66 7.29571) scale(0.154825)"/>
<use xlink:href="#stroke0_317_156" transform="translate(1040.54 1.54955) scale(0.210199)"/>
<use xlink:href="#stroke0_317_156" transform="translate(1046.09 6.16917) scale(0.150409)"/>
<use xlink:href="#stroke0_317_156" transform="translate(1049.97 3.04854) scale(0.151543)"/>
<use xlink:href="#stroke0_317_156" transform="translate(1053.73 2.42999) scale(0.221354)"/>
<use xlink:href="#stroke0_317_156" transform="translate(1059.55 2.07689) scale(0.170888)"/>
<use xlink:href="#stroke0_317_156" transform="translate(1063.7 7.65427) scale(0.291068)"/>
<use xlink:href="#stroke0_317_156" transform="translate(1071.51 9.98914) scale(0.147456)"/>
<use xlink:href="#stroke0_317_156" transform="translate(1075.02 2.58355) scale(0.290701)"/>
<use xlink:href="#stroke0_317_156" transform="translate(1082.73 5.92485) scale(0.189092)"/>
<use xlink:href="#stroke0_317_156" transform="translate(1087.45 7.07706) scale(0.262783)"/>
<use xlink:href="#stroke0_317_156" transform="translate(1094.25 0.728672) scale(0.254845)"/>
<use xlink:href="#stroke0_317_156" transform="translate(1100.77 1.67406) scale(0.282072)"/>
<use xlink:href="#stroke0_317_156" transform="translate(1108.13 1.93143) scale(0.241224)"/>
<use xlink:href="#stroke0_317_156" transform="translate(1114.25 5.95847) scale(0.291804)"/>
<use xlink:href="#stroke0_317_156" transform="translate(1121.94 8.27865) scale(0.214013)"/>
<use xlink:href="#stroke0_317_156" transform="translate(1127.51 6.89712) scale(0.189654)"/>
<use xlink:href="#stroke0_317_156" transform="translate(1132.43 4.53606) scale(0.180317)"/>
<use xlink:href="#stroke0_317_156" transform="translate(1136.82 4.81988) scale(0.302062)"/>
<use xlink:href="#stroke0_317_156" transform="translate(1144.87 7.89491) scale(0.179122)"/>
<use xlink:href="#stroke0_317_156" transform="translate(1149.52 3.44381) scale(0.168672)"/>
<use xlink:href="#stroke0_317_156" transform="translate(1153.86 9.48081) scale(0.173242)"/>
<use xlink:href="#stroke0_317_156" transform="translate(1158.16 4.97923) scale(0.252814)"/>
<use xlink:href="#stroke0_317_156" transform="translate(1164.6 5.09555) scale(0.291735)"/>
<use xlink:href="#stroke0_317_156" transform="translate(1172.2 4.10127) scale(0.256525)"/>
<use xlink:href="#stroke0_317_156" transform="translate(1178.97 5.00811) scale(0.185642)"/>
<use xlink:href="#stroke0_317_156" transform="translate(1183.73 3.32696) scale(0.202619)"/>
<use xlink:href="#stroke0_317_156" transform="translate(1188.74 6.72453) scale(0.305865)"/>
<use xlink:href="#stroke0_317_156" transform="translate(1196.9 7.88264) scale(0.174601)"/>
<use xlink:href="#stroke0_317_156" transform="translate(1201.37 4.97817) scale(0.19434)"/>
<use xlink:href="#stroke0_317_156" transform="translate(1206.43 2.21351) scale(0.169362)"/>
<use xlink:href="#stroke0_317_156" transform="translate(1210.86 3.49373) scale(0.228188) rotate(2.13682)"/>
<use xlink:href="#stroke0_317_156" transform="translate(1216.75 8.40325) scale(0.158662) rotate(16.9597)"/>
<use xlink:href="#stroke0_317_156" transform="translate(1225.11 2.52713) scale(0.280743) rotate(33.8494)"/>
<use xlink:href="#stroke0_317_156" transform="translate(1230.37 10.5952) scale(0.168072) rotate(50.9431)"/>
<use xlink:href="#stroke0_317_156" transform="translate(1228.56 17.3219) scale(0.178265) rotate(64.1932)"/>
<use xlink:href="#stroke0_317_156" transform="translate(1233.51 20.5136) scale(0.234023) rotate(80.0787)"/>
<use xlink:href="#stroke0_317_156" transform="translate(1240.33 26.7028) scale(0.27301) rotate(90)"/>
<use xlink:href="#stroke0_317_156" transform="translate(1234.46 33.9967) scale(0.153868) rotate(90)"/>
<use xlink:href="#stroke0_317_156" transform="translate(1235.12 37.9878) scale(0.143741) rotate(90)"/>
<use xlink:href="#stroke0_317_156" transform="translate(1233.15 41.4338) scale(0.268734) rotate(90)"/>
<use xlink:href="#stroke0_317_156" transform="translate(1234.56 48.3076) scale(0.297083) rotate(90)"/>
<use xlink:href="#stroke0_317_156" transform="translate(1231.01 56.2972) scale(0.142407) rotate(90)"/>
<use xlink:href="#stroke0_317_156" transform="translate(1232.06 59.9469) scale(0.154032) rotate(90)"/>
<use xlink:href="#stroke0_317_156" transform="translate(1240.14 63.7453) scale(0.237642) rotate(90)"/>
<use xlink:href="#stroke0_317_156" transform="translate(1235.09 69.748) scale(0.298791) rotate(90)"/>
<use xlink:href="#stroke0_317_156" transform="translate(1235.6 77.7371) scale(0.165339) rotate(90)"/>
<use xlink:href="#stroke0_317_156" transform="translate(1232.86 81.8854) scale(0.221268) rotate(90)"/>
<use xlink:href="#stroke0_317_156" transform="translate(1233.64 87.6283) scale(0.204979) rotate(90)"/>
<use xlink:href="#stroke0_317_156" transform="translate(1237.58 93.0484) scale(0.142309) rotate(90)"/>
<use xlink:href="#stroke0_317_156" transform="translate(1232.57 96.7201) scale(0.14225) rotate(90)"/>
<use xlink:href="#stroke0_317_156" transform="translate(1238.98 100.055) scale(0.301755) rotate(90)"/>
<use xlink:href="#stroke0_317_156" transform="translate(1234.2 107.89) scale(0.278212) rotate(90)"/>
<use xlink:href="#stroke0_317_156" transform="translate(1232.72 115.109) scale(0.258719) rotate(90)"/>
<use xlink:href="#stroke0_317_156" transform="translate(1239.83 121.862) scale(0.221601) rotate(90)"/>
<use xlink:href="#stroke0_317_156" transform="translate(1240.5 127.472) scale(0.272488) rotate(90)"/>
<use xlink:href="#stroke0_317_156" transform="translate(1233.25 134.444) scale(0.300025) rotate(90)"/>
<use xlink:href="#stroke0_317_156" transform="translate(1236.91 142.511) scale(0.144654) rotate(90)"/>
<use xlink:href="#stroke0_317_156" transform="translate(1232.72 146.11) scale(0.208299) rotate(90)"/>
<use xlink:href="#stroke0_317_156" transform="translate(1238.38 151.326) scale(0.283378) rotate(90)"/>
<use xlink:href="#stroke0_317_156" transform="translate(1238.96 158.885) scale(0.165317) rotate(90)"/>
<use xlink:href="#stroke0_317_156" transform="translate(1235.84 163.027) scale(0.224032) rotate(90)"/>
<use xlink:href="#stroke0_317_156" transform="translate(1236.55 168.84) scale(0.208414) rotate(90)"/>
<use xlink:href="#stroke0_317_156" transform="translate(1239.45 174.25) scale(0.192866) rotate(90)"/>
<use xlink:href="#stroke0_317_156" transform="translate(1232.33 179.266) scale(0.173713) rotate(90)"/>
<use xlink:href="#stroke0_317_156" transform="translate(1235.55 183.822) scale(0.13833) rotate(90)"/>
<use xlink:href="#stroke0_317_156" transform="translate(1239.87 187.183) scale(0.237104) rotate(90)"/>
<use xlink:href="#stroke0_317_156" transform="translate(1238.38 193.39) scale(0.194478) rotate(90)"/>
<use xlink:href="#stroke0_317_156" transform="translate(1231.14 198.492) scale(0.154525) rotate(90)"/>
<use xlink:href="#stroke0_317_156" transform="translate(1238.13 202.447) scale(0.16968) rotate(90)"/>
<use xlink:href="#stroke0_317_156" transform="translate(1235.43 206.836) scale(0.164126) rotate(90)"/>
<use xlink:href="#stroke0_317_156" transform="translate(1238.88 210.858) scale(0.265129) rotate(90)"/>
<use xlink:href="#stroke0_317_156" transform="translate(1238.58 217.901) scale(0.168948) rotate(90)"/>
<use xlink:href="#stroke0_317_156" transform="translate(1233.42 222.275) scale(0.161737) rotate(90)"/>
<use xlink:href="#stroke0_317_156" transform="translate(1238.35 226.458) scale(0.156899) rotate(90)"/>
<use xlink:href="#stroke0_317_156" transform="translate(1236.54 230.377) scale(0.218356) rotate(90)"/>
<use xlink:href="#stroke0_317_156" transform="translate(1236.05 236.095) scale(0.177819) rotate(90)"/>
<use xlink:href="#stroke0_317_156" transform="translate(1233.78 240.693) scale(0.173116) rotate(90)"/>
<use xlink:href="#stroke0_317_156" transform="translate(1238.37 245.101) scale(0.200707) rotate(90)"/>
<use xlink:href="#stroke0_317_156" transform="translate(1235.17 250.273) scale(0.204057) rotate(90)"/>
<use xlink:href="#stroke0_317_156" transform="translate(1233.77 255.338) scale(0.298817) rotate(90)"/>
<use xlink:href="#stroke0_317_156" transform="translate(1235.84 263.136) scale(0.256571) rotate(90)"/>
<use xlink:href="#stroke0_317_156" transform="translate(1235.66 269.75) scale(0.25934) rotate(90)"/>
<use xlink:href="#stroke0_317_156" transform="translate(1231.76 276.642) scale(0.163646) rotate(90)"/>
<use xlink:href="#stroke0_317_156" transform="translate(1236.86 280.742) scale(0.221574) rotate(90)"/>
<use xlink:href="#stroke0_317_156" transform="translate(1232.44 286.505) scale(0.199666) rotate(90)"/>
<use xlink:href="#stroke0_317_156" transform="translate(1237.17 291.646) scale(0.204877) rotate(90)"/>
<use xlink:href="#stroke0_317_156" transform="translate(1239.39 296.727) scale(0.301997) rotate(90)"/>
<use xlink:href="#stroke0_317_156" transform="translate(1233.88 304.86) scale(0.139608) rotate(90)"/>
<use xlink:href="#stroke0_317_156" transform="translate(1233.97 308.41) scale(0.164153) rotate(90)"/>
<use xlink:href="#stroke0_317_156" transform="translate(1234.95 312.682) scale(0.146749) rotate(90)"/>
<use xlink:href="#stroke0_317_156" transform="translate(1237.98 316.466) scale(0.147649) rotate(90)"/>
<use xlink:href="#stroke0_317_156" transform="translate(1235.67 320.043) scale(0.258523) rotate(90)"/>
<use xlink:href="#stroke0_317_156" transform="translate(1236.92 326.9) scale(0.169201) rotate(90)"/>
<use xlink:href="#stroke0_317_156" transform="translate(1237.16 331.165) scale(0.217326) rotate(90)"/>
<use xlink:href="#stroke0_317_156" transform="translate(1235.6 336.77) scale(0.217864) rotate(90)"/>
<use xlink:href="#stroke0_317_156" transform="translate(1238.76 342.22) scale(0.29925) rotate(90)"/>
<use xlink:href="#stroke0_317_156" transform="translate(1234.85 349.964) scale(0.288349) rotate(90)"/>
<use xlink:href="#stroke0_317_156" transform="translate(1234.47 357.712) scale(0.141241) rotate(90)"/>
<use xlink:href="#stroke0_317_156" transform="translate(1237.83 361.262) scale(0.186344) rotate(90)"/>
<use xlink:href="#stroke0_317_156" transform="translate(1238.01 366.026) scale(0.206883) rotate(90)"/>
<use xlink:href="#stroke0_317_156" transform="translate(1235.19 371.314) scale(0.230571) rotate(90)"/>
<use xlink:href="#stroke0_317_156" transform="translate(1237.39 377.154) scale(0.282345) rotate(90)"/>
<use xlink:href="#stroke0_317_156" transform="translate(1234.19 384.435) scale(0.283755) rotate(90)"/>
<use xlink:href="#stroke0_317_156" transform="translate(1233.86 391.947) scale(0.19308) rotate(90)"/>
<use xlink:href="#stroke0_317_156" transform="translate(1232.41 396.98) scale(0.168186) rotate(90)"/>
<use xlink:href="#stroke0_317_156" transform="translate(1232.53 401.176) scale(0.236533) rotate(90)"/>
<use xlink:href="#stroke0_317_156" transform="translate(1231.98 407.38) scale(0.18845) rotate(90)"/>
<use xlink:href="#stroke0_317_156" transform="translate(1234.66 412.346) scale(0.138785) rotate(90)"/>
<use xlink:href="#stroke0_317_156" transform="translate(1235.94 415.637) scale(0.276846) rotate(90)"/>
<use xlink:href="#stroke0_317_156" transform="translate(1232.69 422.924) scale(0.207774) rotate(90)"/>
<use xlink:href="#stroke0_317_156" transform="translate(1233.8 428.298) scale(0.201724) rotate(90)"/>
<use xlink:href="#stroke0_317_156" transform="translate(1233.93 433.581) scale(0.164306) rotate(90)"/>
<use xlink:href="#stroke0_317_156" transform="translate(1234.58 437.857) scale(0.14655) rotate(90)"/>
<use xlink:href="#stroke0_317_156" transform="translate(1239.32 441.538) scale(0.194025) rotate(90)"/>
<use xlink:href="#stroke0_317_156" transform="translate(1235.09 446.598) scale(0.168593) rotate(90)"/>
<use xlink:href="#stroke0_317_156" transform="translate(1238.83 450.873) scale(0.203914) rotate(90)"/>
<use xlink:href="#stroke0_317_156" transform="translate(1231.43 456.186) scale(0.179058) rotate(90)"/>
<use xlink:href="#stroke0_317_156" transform="translate(1231.26 460.889) scale(0.139784) rotate(90)"/>
<use xlink:href="#stroke0_317_156" transform="translate(1233.25 464.485) scale(0.144603) rotate(90)"/>
<use xlink:href="#stroke0_317_156" transform="translate(1238.67 469.312) scale(0.22935) rotate(102.141)"/>
<use xlink:href="#stroke0_317_156" transform="translate(1232.82 474.652) scale(0.140172) rotate(116.367)"/>
<use xlink:href="#stroke0_317_156" transform="translate(1230.39 477.521) scale(0.169637) rotate(128.212)"/>
<use xlink:href="#stroke0_317_156" transform="translate(1228 481.375) scale(0.216425) rotate(142.923)"/>
<use xlink:href="#stroke0_317_156" transform="translate(1223.67 485.786) scale(0.183953) rotate(158.29)"/>
<use xlink:href="#stroke0_317_156" transform="translate(1219.19 489.897) scale(0.139274) rotate(170.719)"/>
<use xlink:href="#stroke0_317_156" transform="translate(1215.29 488.878) scale(0.212296) rotate(176.775)"/>
<use xlink:href="#stroke0_317_156" transform="translate(1209.77 487.849) scale(0.224289) rotate(176.775)"/>
<use xlink:href="#stroke0_317_156" transform="translate(1204.39 494.73) scale(0.236447) rotate(176.775)"/>
<use xlink:href="#stroke0_317_156" transform="translate(1197.92 489.583) scale(0.204348) rotate(176.775)"/>
<use xlink:href="#stroke0_317_156" transform="translate(1192.64 489.836) scale(0.194323) rotate(176.775)"/>
<use xlink:href="#stroke0_317_156" transform="translate(1187.02 493.585) scale(0.178635) rotate(-174.933)"/>
<use xlink:href="#stroke0_317_156" transform="translate(1182.84 487.841) scale(0.146288) rotate(-162.881)"/>
<use xlink:href="#stroke0_317_156" transform="translate(1177.65 489.807) scale(0.242995) rotate(-148.967)"/>
<use xlink:href="#stroke0_317_156" transform="translate(1171.22 486.293) scale(0.187649) rotate(-134.115)"/>
<use xlink:href="#stroke0_317_156" transform="translate(1169.35 481.318) scale(0.152386) rotate(-134.858)"/>
<use xlink:href="#stroke0_317_156" transform="translate(1164.09 481.147) scale(0.171851) rotate(-135.61)"/>
<use xlink:href="#stroke0_317_156" transform="translate(1165.49 473.291) scale(0.149879) rotate(-136.334)"/>
<use xlink:href="#stroke0_317_156" transform="translate(1161.1 472.66) scale(0.271005) rotate(-137.278)"/>
<use xlink:href="#stroke0_317_156" transform="translate(1153.71 470.437) scale(0.253836) rotate(-138.464)"/>
<use xlink:href="#stroke0_317_156" transform="translate(1151.1 463.719) scale(0.305764) rotate(-139.766)"/>
<use xlink:href="#stroke0_317_156" transform="translate(1143.69 459.801) scale(0.140218) rotate(-140.851)"/>
<use xlink:href="#stroke0_317_156" transform="translate(1138.3 461.338) scale(0.267396) rotate(-141.885)"/>
<use xlink:href="#stroke0_317_156" transform="translate(1132.94 457.262) scale(0.258291) rotate(-143.297)"/>
<use xlink:href="#stroke0_317_156" transform="translate(1131.86 447.419) scale(0.213648) rotate(-144.649)"/>
<use xlink:href="#stroke0_317_156" transform="translate(1127.16 444.298) scale(0.147258) rotate(-145.748)"/>
<use xlink:href="#stroke0_317_156" transform="translate(1124.18 441.931) scale(0.149727) rotate(-146.701)"/>
<use xlink:href="#stroke0_317_156" transform="translate(1120.28 441.101) scale(0.203523) rotate(-147.895)"/>
<use xlink:href="#stroke0_317_156" transform="translate(1113.22 443.089) scale(0.257765) rotate(-149.567)"/>
<use xlink:href="#stroke0_317_156" transform="translate(1109.12 437.113) scale(0.231858) rotate(-151.504)"/>
<use xlink:href="#stroke0_317_156" transform="translate(1106.44 429.003) scale(0.13945) rotate(-153.1)"/>
<use xlink:href="#stroke0_317_156" transform="translate(1101.85 430.344) scale(0.171783) rotate(-154.532)"/>
<use xlink:href="#stroke0_317_156" transform="translate(1098.32 427.565) scale(0.190651) rotate(-156.321)"/>
<use xlink:href="#stroke0_317_156" transform="translate(1092.58 428.692) scale(0.179711) rotate(-158.299)"/>
<use xlink:href="#stroke0_317_156" transform="translate(1089.74 423.321) scale(0.182003) rotate(-160.391)"/>
<use xlink:href="#stroke0_317_156" transform="translate(1083.79 426.311) scale(0.143582) rotate(-162.426)"/>
<use xlink:href="#stroke0_317_156" transform="translate(1081.69 422.008) scale(0.299647) rotate(-165.446)"/>
<use xlink:href="#stroke0_317_156" transform="translate(1074.21 418.94) scale(0.154642) rotate(-168.874)"/>
<use xlink:href="#stroke0_317_156" transform="translate(1069.94 422.59) scale(0.259343) rotate(-172.315)"/>
<use xlink:href="#stroke0_317_156" transform="translate(1063.9 416.007) scale(0.206688) rotate(-176.564)"/>
<use xlink:href="#stroke0_317_156" transform="translate(1058.85 422.914) scale(0.288946) rotate(178.722)"/>
<use xlink:href="#stroke0_317_156" transform="translate(1051.45 421.876) scale(0.160262) rotate(174.885)"/>
<use xlink:href="#stroke0_317_156" transform="translate(1047.6 421.93) scale(0.190609) rotate(172.177)"/>
<use xlink:href="#stroke0_317_156" transform="translate(1042.53 420.27) scale(0.186487) rotate(169.526)"/>
<use xlink:href="#stroke0_317_156" transform="translate(1038.09 421.916) scale(0.189739) rotate(167.123)"/>
<use xlink:href="#stroke0_317_156" transform="translate(1033.56 423.032) scale(0.225181) rotate(164.724)"/>
<use xlink:href="#stroke0_317_156" transform="translate(1027.41 422.809) scale(0.1666) rotate(162.669)"/>
<use xlink:href="#stroke0_317_156" transform="translate(1025.84 430.152) scale(0.303192) rotate(160.442)"/>
<use xlink:href="#stroke0_317_156" transform="translate(1016.57 427.718) scale(0.201568) rotate(158.296)"/>
<use xlink:href="#stroke0_317_156" transform="translate(1011.91 429.945) scale(0.18362) rotate(156.805)"/>
<use xlink:href="#stroke0_317_156" transform="translate(1008.76 434.032) scale(0.224266) rotate(155.349)"/>
<use xlink:href="#stroke0_317_156" transform="translate(1001.3 431.902) scale(0.164381) rotate(154.063)"/>
<use xlink:href="#stroke0_317_156" transform="translate(998.938 436.242) scale(0.233174) rotate(152.839)"/>
<use xlink:href="#stroke0_317_156" transform="translate(995.27 441.914) scale(0.233378) rotate(151.506)"/>
<use xlink:href="#stroke0_317_156" transform="translate(988.174 441.734) scale(0.142527) rotate(150.503)"/>
<use xlink:href="#stroke0_317_156" transform="translate(986.64 445.842) scale(0.243042) rotate(149.533)"/>
<use xlink:href="#stroke0_317_156" transform="translate(981.558 449.386) scale(0.226216) rotate(148.42)"/>
<use xlink:href="#stroke0_317_156" transform="translate(976.661 452.176) scale(0.263811) rotate(147.33)"/>
<use xlink:href="#stroke0_317_156" transform="translate(968.61 452.336) scale(0.215094) rotate(146.325)"/>
<use xlink:href="#stroke0_317_156" transform="translate(964.655 456.479) scale(0.172529) rotate(145.548)"/>
<use xlink:href="#stroke0_317_156" transform="translate(962.554 461.106) scale(0.18531) rotate(144.855)"/>
<use xlink:href="#stroke0_317_156" transform="translate(957.556 461.808) scale(0.28871) rotate(143.967)"/>
<use xlink:href="#stroke0_317_156" transform="translate(949.518 463.802) scale(0.183987) rotate(143.103)"/>
<use xlink:href="#stroke0_317_156" transform="translate(948.324 469.808) scale(0.238537) rotate(142.346)"/>
<use xlink:href="#stroke0_317_156" transform="translate(943.366 473.581) scale(0.168867) rotate(141.617)"/>
<use xlink:href="#stroke0_317_156" transform="translate(935.933 471.344) scale(0.142156) rotate(141.051)"/>
<use xlink:href="#stroke0_317_156" transform="translate(934.514 475.339) scale(0.167893) rotate(140.47)"/>
<use xlink:href="#stroke0_317_156" transform="translate(931.889 478.567) scale(0.277239) rotate(139.574)"/>
<use xlink:href="#stroke0_317_156" transform="translate(927.141 485.712) scale(0.15624) rotate(151.518)"/>
<use xlink:href="#stroke0_317_156" transform="translate(922.98 488.383) scale(0.143757) rotate(162.361)"/>
<use xlink:href="#stroke0_317_156" transform="translate(918.344 487.364) scale(0.168916) rotate(174.003)"/>
<use xlink:href="#stroke0_317_156" transform="translate(913.854 487.332) scale(0.203393) rotate(-180)"/>
<use xlink:href="#stroke0_317_156" transform="translate(908.566 484.939) scale(0.18418) rotate(-180)"/>
<use xlink:href="#stroke0_317_156" transform="translate(903.88 491.272) scale(0.21522) rotate(-180)"/>
<use xlink:href="#stroke0_317_156" transform="translate(898.206 487.111) scale(0.157724) rotate(-180)"/>
<use xlink:href="#stroke0_317_156" transform="translate(894.119 489.425) scale(0.149066) rotate(-180)"/>
<use xlink:href="#stroke0_317_156" transform="translate(890.294 487.39) scale(0.159226) rotate(-180)"/>
<use xlink:href="#stroke0_317_156" transform="translate(886.437 490.749) scale(0.278832) rotate(-180)"/>
<use xlink:href="#stroke0_317_156" transform="translate(878.99 484.088) scale(0.157937) rotate(-180)"/>
<use xlink:href="#stroke0_317_156" transform="translate(874.971 484.537) scale(0.184564) rotate(-180)"/>
<use xlink:href="#stroke0_317_156" transform="translate(870.41 491.141) scale(0.280268) rotate(-180)"/>
<use xlink:href="#stroke0_317_156" transform="translate(863.139 489.722) scale(0.261342) rotate(-180)"/>
<use xlink:href="#stroke0_317_156" transform="translate(856.282 488.521) scale(0.206562) rotate(-180)"/>
<use xlink:href="#stroke0_317_156" transform="translate(850.816 487.188) scale(0.141712) rotate(-180)"/>
<use xlink:href="#stroke0_317_156" transform="translate(847.159 485.618) scale(0.141117) rotate(-180)"/>
<use xlink:href="#stroke0_317_156" transform="translate(843.6 485.322) scale(0.179952) rotate(-180)"/>
<use xlink:href="#stroke0_317_156" transform="translate(838.885 485.564) scale(0.145545) rotate(-180)"/>
<use xlink:href="#stroke0_317_156" transform="translate(835.186 488.356) scale(0.172577) rotate(-180)"/>
<use xlink:href="#stroke0_317_156" transform="translate(830.691 490.369) scale(0.152111) rotate(-180)"/>
<use xlink:href="#stroke0_317_156" transform="translate(826.767 488.306) scale(0.152436) rotate(-180)"/>
<use xlink:href="#stroke0_317_156" transform="translate(822.876 489.218) scale(0.172196) rotate(-180)"/>
<use xlink:href="#stroke0_317_156" transform="translate(818.673 490.085) scale(0.286508) rotate(-180)"/>
<use xlink:href="#stroke0_317_156" transform="translate(811.094 491.788) scale(0.197354) rotate(-180)"/>
<use xlink:href="#stroke0_317_156" transform="translate(805.885 490.005) scale(0.141696) rotate(-180)"/>
<use xlink:href="#stroke0_317_156" transform="translate(802.326 489.643) scale(0.187797) rotate(-180)"/>
<use xlink:href="#stroke0_317_156" transform="translate(797.664 488.977) scale(0.274813) rotate(-180)"/>
<use xlink:href="#stroke0_317_156" transform="translate(790.604 487.062) scale(0.289216) rotate(-180)"/>
<use xlink:href="#stroke0_317_156" transform="translate(783.02 487.589) scale(0.231075) rotate(-180)"/>
<use xlink:href="#stroke0_317_156" transform="translate(777.04 487.713) scale(0.222262) rotate(-180)"/>
<use xlink:href="#stroke0_317_156" transform="translate(771.207 489.92) scale(0.175485) rotate(-180)"/>
<use xlink:href="#stroke0_317_156" transform="translate(766.852 489.113) scale(0.257262) rotate(-180)"/>
<use xlink:href="#stroke0_317_156" transform="translate(760.198 485.7) scale(0.249746) rotate(-180)"/>
<use xlink:href="#stroke0_317_156" transform="translate(753.529 488.41) scale(0.142025) rotate(-180)"/>
<use xlink:href="#stroke0_317_156" transform="translate(749.978 489.803) scale(0.195863) rotate(-180)"/>
<use xlink:href="#stroke0_317_156" transform="translate(745.043 490.23) scale(0.252279) rotate(-180)"/>
<use xlink:href="#stroke0_317_156" transform="translate(738.633 488.793) scale(0.299235) rotate(-180)"/>
<use xlink:href="#stroke0_317_156" transform="translate(730.777 491.458) scale(0.234647) rotate(-180)"/>
<use xlink:href="#stroke0_317_156" transform="translate(724.542 488.321) scale(0.148312) rotate(-180)"/>
<use xlink:href="#stroke0_317_156" transform="translate(721.048 488.269) scale(0.306811) rotate(-180)"/>
<use xlink:href="#stroke0_317_156" transform="translate(712.855 485.303) scale(0.174884) rotate(-180)"/>
<use xlink:href="#stroke0_317_156" transform="translate(708.349 485.234) scale(0.17759) rotate(-180)"/>
<use xlink:href="#stroke0_317_156" transform="translate(703.826 487.208) scale(0.205505) rotate(-180)"/>
<use xlink:href="#stroke0_317_156" transform="translate(698.677 487.471) scale(0.27874) rotate(-180)"/>
<use xlink:href="#stroke0_317_156" transform="translate(691.451 491.05) scale(0.262199) rotate(-180)"/>
<use xlink:href="#stroke0_317_156" transform="translate(684.54 489.588) scale(0.192618) rotate(-180)"/>
<use xlink:href="#stroke0_317_156" transform="translate(679.688 486.912) scale(0.248322) rotate(-180)"/>
<use xlink:href="#stroke0_317_156" transform="translate(673.322 489.086) scale(0.267951) rotate(-180)"/>
<use xlink:href="#stroke0_317_156" transform="translate(666.412 491.912) scale(0.269239) rotate(-180)"/>
<use xlink:href="#stroke0_317_156" transform="translate(659.227 485.626) scale(0.155694) rotate(-180)"/>
<use xlink:href="#stroke0_317_156" transform="translate(655.199 486.472) scale(0.150583) rotate(-180)"/>
<use xlink:href="#stroke0_317_156" transform="translate(651.61 488.115) scale(0.291357) rotate(-180)"/>
<use xlink:href="#stroke0_317_156" transform="translate(644.004 489.269) scale(0.249114) rotate(-180)"/>
<use xlink:href="#stroke0_317_156" transform="translate(637.347 484.649) scale(0.139517) rotate(-180)"/>
<use xlink:href="#stroke0_317_156" transform="translate(634.021 490.686) scale(0.26958) rotate(-180)"/>
<use xlink:href="#stroke0_317_156" transform="translate(627.12 490.8) scale(0.295496) rotate(-180)"/>
<use xlink:href="#stroke0_317_156" transform="translate(619.174 484.18) scale(0.142023) rotate(-180)"/>
<use xlink:href="#stroke0_317_156" transform="translate(615.662 488.545) scale(0.21462) rotate(-180)"/>
<use xlink:href="#stroke0_317_156" transform="translate(609.983 489.01) scale(0.147255) rotate(-180)"/>
<use xlink:href="#stroke0_317_156" transform="translate(606.314 486.817) scale(0.208989) rotate(-180)"/>
<use xlink:href="#stroke0_317_156" transform="translate(601.011 489.797) scale(0.251342) rotate(-180)"/>
<use xlink:href="#stroke0_317_156" transform="translate(594.556 487.365) scale(0.265784) rotate(-180)"/>
<use xlink:href="#stroke0_317_156" transform="translate(587.562 491.653) scale(0.200221) rotate(-180)"/>
<use xlink:href="#stroke0_317_156" transform="translate(582.378 489.331) scale(0.191886) rotate(-180)"/>
<use xlink:href="#stroke0_317_156" transform="translate(577.374 487.265) scale(0.166452) rotate(-180)"/>
<use xlink:href="#stroke0_317_156" transform="translate(573.173 487.689) scale(0.210722) rotate(-180)"/>
<use xlink:href="#stroke0_317_156" transform="translate(567.783 489.237) scale(0.2328) rotate(-180)"/>
<use xlink:href="#stroke0_317_156" transform="translate(561.72 488.65) scale(0.206103) rotate(-180)"/>
<use xlink:href="#stroke0_317_156" transform="translate(556.517 491.576) scale(0.260287) rotate(-180)"/>
<use xlink:href="#stroke0_317_156" transform="translate(549.825 492.513) scale(0.271724) rotate(-180)"/>
<use xlink:href="#stroke0_317_156" transform="translate(542.67 484.881) scale(0.202612) rotate(-180)"/>
<use xlink:href="#stroke0_317_156" transform="translate(537.535 489.306) scale(0.247058) rotate(-180)"/>
<use xlink:href="#stroke0_317_156" transform="translate(531.239 488.067) scale(0.284176) rotate(-180)"/>
<use xlink:href="#stroke0_317_156" transform="translate(523.664 491.157) scale(0.168366) rotate(-180)"/>
<use xlink:href="#stroke0_317_156" transform="translate(519.443 492.747) scale(0.226704) rotate(-180)"/>
<use xlink:href="#stroke0_317_156" transform="translate(513.469 487.73) scale(0.167037) rotate(-180)"/>
<use xlink:href="#stroke0_317_156" transform="translate(509.109 486.43) scale(0.142949) rotate(-180)"/>
<use xlink:href="#stroke0_317_156" transform="translate(505.536 489.616) scale(0.197744) rotate(-180)"/>
<use xlink:href="#stroke0_317_156" transform="translate(500.319 488.634) scale(0.143134) rotate(-180)"/>
<use xlink:href="#stroke0_317_156" transform="translate(496.695 486.456) scale(0.175873) rotate(-180)"/>
<use xlink:href="#stroke0_317_156" transform="translate(492.086 490.798) scale(0.141841) rotate(-180)"/>
<use xlink:href="#stroke0_317_156" transform="translate(488.419 485.484) scale(0.138411) rotate(-180)"/>
<use xlink:href="#stroke0_317_156" transform="translate(485.034 490.594) scale(0.226881) rotate(-180)"/>
<use xlink:href="#stroke0_317_156" transform="translate(479.009 484.926) scale(0.145262) rotate(-180)"/>
<use xlink:href="#stroke0_317_156" transform="translate(475.342 488.95) scale(0.183668) rotate(-180)"/>
<use xlink:href="#stroke0_317_156" transform="translate(470.639 491.2) scale(0.200546) rotate(-180)"/>
<use xlink:href="#stroke0_317_156" transform="translate(465.537 485.853) scale(0.234926) rotate(-180)"/>
<use xlink:href="#stroke0_317_156" transform="translate(459.322 486.387) scale(0.161453) rotate(-180)"/>
<use xlink:href="#stroke0_317_156" transform="translate(455.194 485.621) scale(0.177852) rotate(-175.932)"/>
<use xlink:href="#stroke0_317_156" transform="translate(448.808 491.139) scale(0.16029) rotate(-162.953)"/>
<use xlink:href="#stroke0_317_156" transform="translate(447.021 483.395) scale(0.144307) rotate(-151.225)"/>
<use xlink:href="#stroke0_317_156" transform="translate(439.283 487.037) scale(0.225683) rotate(-137.1)"/>
<use xlink:href="#stroke0_317_156" transform="translate(432.116 482.611) scale(0.258524) rotate(-118.629)"/>
<use xlink:href="#stroke0_317_156" transform="translate(429.165 474.006) scale(0.282906) rotate(-97.7865)"/>
<use xlink:href="#stroke0_317_156" transform="translate(429.843 465.702) scale(0.185543) rotate(-90)"/>
<use xlink:href="#stroke0_317_156" transform="translate(434.135 460.935) scale(0.194965) rotate(-90)"/>
<use xlink:href="#stroke0_317_156" transform="translate(434.272 455.97) scale(0.225831) rotate(-90)"/>
<use xlink:href="#stroke0_317_156" transform="translate(426.812 450.293) scale(0.297159) rotate(-90)"/>
<use xlink:href="#stroke0_317_156" transform="translate(434.221 442.356) scale(0.168613) rotate(-90)"/>
<use xlink:href="#stroke0_317_156" transform="translate(431.123 438.188) scale(0.25535) rotate(-90)"/>
<use xlink:href="#stroke0_317_156" transform="translate(429.382 431.414) scale(0.166685) rotate(-90)"/>
<use xlink:href="#stroke0_317_156" transform="translate(435.652 427.067) scale(0.144521) rotate(-90)"/>
<use xlink:href="#stroke0_317_156" transform="translate(433.382 423.405) scale(0.176258) rotate(-90)"/>
<use xlink:href="#stroke0_317_156" transform="translate(435.124 418.834) scale(0.164797) rotate(-90)"/>
<use xlink:href="#stroke0_317_156" transform="translate(428.011 414.728) scale(0.234365) rotate(-90)"/>
<use xlink:href="#stroke0_317_156" transform="translate(433.088 408.589) scale(0.190331) rotate(-90)"/>
<use xlink:href="#stroke0_317_156" transform="translate(428.944 403.696) scale(0.198708) rotate(-90)"/>
<use xlink:href="#stroke0_317_156" transform="translate(432.955 398.682) scale(0.252437) rotate(-90)"/>
<use xlink:href="#stroke0_317_156" transform="translate(430.853 392.131) scale(0.234246) rotate(-90)"/>
<use xlink:href="#stroke0_317_156" transform="translate(434.283 386.038) scale(0.210791) rotate(-90)"/>
<use xlink:href="#stroke0_317_156" transform="translate(430.936 380.459) scale(0.143527) rotate(-90)"/>
<use xlink:href="#stroke0_317_156" transform="translate(426.563 377.04) scale(0.278768) rotate(-90)"/>
<use xlink:href="#stroke0_317_156" transform="translate(429.32 369.668) scale(0.193382) rotate(-90)"/>
<use xlink:href="#stroke0_317_156" transform="translate(434.857 364.573) scale(0.14305) rotate(-90)"/>
<use xlink:href="#stroke0_317_156" transform="translate(429.203 360.919) scale(0.160644) rotate(-90)"/>
<use xlink:href="#stroke0_317_156" transform="translate(430.584 356.991) scale(0.263767) rotate(-90)"/>
<use xlink:href="#stroke0_317_156" transform="translate(432.767 350.024) scale(0.186707) rotate(-90)"/>
<use xlink:href="#stroke0_317_156" transform="translate(434.662 345.117) scale(0.14388) rotate(-90)"/>
<use xlink:href="#stroke0_317_156" transform="translate(429.045 341.72) scale(0.293698) rotate(-90)"/>
<use xlink:href="#stroke0_317_156" transform="translate(428.238 333.944) scale(0.199453) rotate(-90)"/>
<use xlink:href="#stroke0_317_156" transform="translate(433.267 328.946) scale(0.269521) rotate(-90)"/>
<use xlink:href="#stroke0_317_156" transform="translate(434.489 321.874) scale(0.213248) rotate(-90)"/>
<use xlink:href="#stroke0_317_156" transform="translate(432.934 316.482) scale(0.265738) rotate(-90)"/>
<use xlink:href="#stroke0_317_156" transform="translate(431.856 309.482) scale(0.196817) rotate(-90)"/>
<use xlink:href="#stroke0_317_156" transform="translate(434.949 304.364) scale(0.177984) rotate(-90)"/>
<use xlink:href="#stroke0_317_156" transform="translate(431.634 299.773) scale(0.178351) rotate(-90)"/>
<use xlink:href="#stroke0_317_156" transform="translate(431.091 295.345) scale(0.26098) rotate(-90)"/>
<use xlink:href="#stroke0_317_156" transform="translate(430.923 288.451) scale(0.184444) rotate(-90)"/>
<use xlink:href="#stroke0_317_156" transform="translate(435.9 283.598) scale(0.139376) rotate(-90)"/>
<use xlink:href="#stroke0_317_156" transform="translate(430.374 280.279) scale(0.271232) rotate(-90)"/>
<use xlink:href="#stroke0_317_156" transform="translate(434.186 273.229) scale(0.246332) rotate(-90)"/>
<use xlink:href="#stroke0_317_156" transform="translate(431.868 266.952) scale(0.28402) rotate(-90)"/>
<use xlink:href="#stroke0_317_156" transform="translate(432.504 259.453) scale(0.202028) rotate(-90)"/>
<use xlink:href="#stroke0_317_156" transform="translate(433.49 254.373) scale(0.265129) rotate(-90)"/>
<use xlink:href="#stroke0_317_156" transform="translate(433.509 247.396) scale(0.200391) rotate(-90)"/>
<use xlink:href="#stroke0_317_156" transform="translate(430.917 242.371) scale(0.269427) rotate(-90)"/>
<use xlink:href="#stroke0_317_156" transform="translate(430.627 235.18) scale(0.155096) rotate(-90)"/>
<use xlink:href="#stroke0_317_156" transform="translate(435.73 231.195) scale(0.162836) rotate(-90)"/>
<use xlink:href="#stroke0_317_156" transform="translate(435.81 226.962) scale(0.147899) rotate(-90)"/>
<use xlink:href="#stroke0_317_156" transform="translate(430.221 223.303) scale(0.222285) rotate(-90)"/>
<use xlink:href="#stroke0_317_156" transform="translate(433.368 217.557) scale(0.21706) rotate(-90)"/>
<use xlink:href="#stroke0_317_156" transform="translate(434.409 211.934) scale(0.206236) rotate(-90)"/>
<use xlink:href="#stroke0_317_156" transform="translate(427.665 206.624) scale(0.211472) rotate(-90)"/>
<use xlink:href="#stroke0_317_156" transform="translate(430.809 201.036) scale(0.148432) rotate(-90)"/>
<use xlink:href="#stroke0_317_156" transform="translate(436.257 197.214) scale(0.152216) rotate(-90)"/>
<use xlink:href="#stroke0_317_156" transform="translate(433.81 193.393) scale(0.202896) rotate(-90)"/>
<use xlink:href="#stroke0_317_156" transform="translate(434.216 188.276) scale(0.258704) rotate(-90)"/>
<use xlink:href="#stroke0_317_156" transform="translate(433.253 181.568) scale(0.243059) rotate(-90)"/>
<use xlink:href="#stroke0_317_156" transform="translate(428.638 175.208) scale(0.200307) rotate(-90)"/>
<use xlink:href="#stroke0_317_156" transform="translate(427.852 170.166) scale(0.26067) rotate(-90)"/>
<use xlink:href="#stroke0_317_156" transform="translate(433.869 163.276) scale(0.182244) rotate(-90)"/>
<use xlink:href="#stroke0_317_156" transform="translate(431.945 158.603) scale(0.195825) rotate(-90)"/>
<use xlink:href="#stroke0_317_156" transform="translate(431.396 153.534) scale(0.188023) rotate(-90)"/>
<use xlink:href="#stroke0_317_156" transform="translate(435.101 148.658) scale(0.176123) rotate(-90)"/>
<use xlink:href="#stroke0_317_156" transform="translate(429.806 144.161) scale(0.19833) rotate(-90)"/>
<use xlink:href="#stroke0_317_156" transform="translate(435.035 138.958) scale(0.157293) rotate(-90)"/>
<use xlink:href="#stroke0_317_156" transform="translate(433.015 134.957) scale(0.184676) rotate(-90)"/>
<use xlink:href="#stroke0_317_156" transform="translate(429.198 130.196) scale(0.18625) rotate(-90)"/>
<use xlink:href="#stroke0_317_156" transform="translate(430.955 125.445) scale(0.211853) rotate(-90)"/>
<use xlink:href="#stroke0_317_156" transform="translate(430.433 120.017) scale(0.230266) rotate(-90)"/>
<use xlink:href="#stroke0_317_156" transform="translate(430.503 114.162) scale(0.270843) rotate(-90)"/>
<use xlink:href="#stroke0_317_156" transform="translate(434.203 106.952) scale(0.165143) rotate(-90)"/>
<use xlink:href="#stroke0_317_156" transform="translate(434.707 102.642) scale(0.141514) rotate(-90)"/>
<use xlink:href="#stroke0_317_156" transform="translate(433.761 99.2809) scale(0.27971) rotate(-90)"/>
<use xlink:href="#stroke0_317_156" transform="translate(432.644 91.8201) scale(0.163361) rotate(-90)"/>
<use xlink:href="#stroke0_317_156" transform="translate(430.738 87.6763) scale(0.197169) rotate(-90)"/>
<use xlink:href="#stroke0_317_156" transform="translate(428.451 82.6085) scale(0.206299) rotate(-90)"/>
<use xlink:href="#stroke0_317_156" transform="translate(428.34 77.2608) scale(0.194302) rotate(-90)"/>
<use xlink:href="#stroke0_317_156" transform="translate(428.524 72.2017) scale(0.172367) rotate(-90)"/>
<use xlink:href="#stroke0_317_156" transform="translate(430.26 67.8229) scale(0.204828) rotate(-90)"/>
<use xlink:href="#stroke0_317_156" transform="translate(429.722 62.5737) scale(0.22171) rotate(-90)"/>
<use xlink:href="#stroke0_317_156" transform="translate(432.66 56.8868) scale(0.237488) rotate(-90)"/>
<use xlink:href="#stroke0_317_156" transform="translate(432.034 50.7914) scale(0.25264) rotate(-90)"/>
<use xlink:href="#stroke0_317_156" transform="translate(429.34 44.0746) scale(0.158036) rotate(-90)"/>
<use xlink:href="#stroke0_317_156" transform="translate(427.234 40.257) scale(0.281702) rotate(-90)"/>
<use xlink:href="#stroke0_317_156" transform="translate(434.794 32.9164) scale(0.247113) rotate(-90)"/>
<use xlink:href="#stroke0_317_156" transform="translate(426.569 24.4495) scale(0.270681) rotate(-74.9237)"/>
<use xlink:href="#stroke0_317_156" transform="translate(435.917 19.3751) scale(0.161626) rotate(-58.2892)"/>
<use xlink:href="#stroke0_317_156" transform="translate(437.157 14.7756) scale(0.146147) rotate(-46.5528)"/>
<use xlink:href="#stroke0_317_156" transform="translate(439.419 11.09) scale(0.260693) rotate(-31.0433)"/>
<use xlink:href="#stroke0_317_156" transform="translate(445.075 3.48118) scale(0.187693) rotate(-13.7841)"/>
<use xlink:href="#stroke0_317_156" transform="translate(451.295 3.8386) scale(0.158213) rotate(-0.577583)"/>
<path d="M385.601 146.531C399.201 150.775 407.32 152.737 419.366 160.343V337.608L422.435 484.178C413.03 487.885 407.174 490.528 397.112 489.549C386.3 488.497 375.366 473.273 375.366 473.273C349.492 442.765 329.236 415.821 290.02 416.119C245.008 416.46 205.267 461.924 186.85 495.689H18.7937C4.31296 484.532 18.7937 448.878 18.7937 448.878L14.9568 370.606C14.9568 370.606 28.4369 324.499 40.28 296.169C51.2389 269.955 58.95 255.911 72.5105 230.943C89.5831 199.509 120.088 152.669 120.088 152.669C136.054 143.843 147.404 144.37 165.363 141.159H279.703L385.601 146.531ZM165.009 182.982L165.258 183.277C165.029 183.006 165.01 182.984 165.008 182.983C165.007 182.983 165.006 182.984 165.005 182.985C165.002 182.987 164.999 182.99 164.995 182.994C164.986 183.001 164.972 183.013 164.955 183.028C164.919 183.058 164.865 183.103 164.796 183.163C164.656 183.282 164.448 183.461 164.177 183.695C163.636 184.163 162.839 184.857 161.822 185.759C159.787 187.565 156.864 190.206 153.316 193.547C146.221 200.23 136.622 209.718 126.606 220.94C106.587 243.37 84.8504 272.784 78.1687 300.596C74.1646 317.263 74.1679 339.181 75.1658 356.905C75.665 365.772 76.4138 373.601 77.0378 379.212C77.3499 382.018 77.6308 384.27 77.8337 385.821C77.9352 386.596 78.0173 387.196 78.074 387.603C78.1023 387.806 78.1235 387.961 78.1384 388.065C78.1459 388.117 78.1522 388.157 78.156 388.183C78.1579 388.196 78.1589 388.207 78.1599 388.213C78.1604 388.217 78.1606 388.219 78.1609 388.221L78.1619 388.223L78.2068 388.531L78.5173 388.552L211.274 397.761L211.6 397.784L211.677 397.465L211.301 397.375L211.677 397.464V397.463C211.677 397.462 211.677 397.461 211.677 397.458C211.679 397.454 211.68 397.447 211.682 397.438C211.687 397.42 211.693 397.393 211.702 397.358C211.719 397.286 211.745 397.179 211.78 397.039C211.849 396.758 211.953 396.343 212.09 395.809C212.364 394.74 212.771 393.19 213.307 391.271C214.38 387.433 215.963 382.119 218.009 376.214C222.103 364.393 228.034 350.248 235.393 340.828C247.96 324.743 257.186 315.958 275.912 307.948C289.318 302.214 308.034 302.203 323.452 303.646C331.151 304.367 338.009 305.447 342.941 306.348C345.407 306.798 347.391 307.204 348.759 307.497C349.442 307.643 349.972 307.761 350.33 307.842C350.509 307.883 350.646 307.915 350.737 307.936C350.782 307.947 350.817 307.954 350.84 307.959C350.851 307.962 350.859 307.965 350.865 307.966C350.868 307.967 350.87 307.967 350.872 307.967L350.873 307.968H350.874L351.32 308.075L351.349 307.617L359.023 187.906L359.049 187.504L358.646 187.495L165.267 182.891L165.121 182.887L165.009 182.982Z" fill="url(#pattern1_317_156)"/>
<path d="M959.36 503.395H462.866C459.262 504.571 457.042 504.757 453.657 506.464C438.549 514.084 431.007 530.46 436.775 546.368C438.055 549.898 439.527 551.543 441.379 554.809H959.36C959.36 554.809 953.512 540.491 953.221 530.253C952.905 519.169 959.36 503.395 959.36 503.395Z" fill="black"/>
<path d="M961.795 494.899H465.301C461.697 496.075 459.477 496.261 456.092 497.968C440.985 505.589 433.443 521.965 439.21 537.872C440.49 541.402 441.962 543.047 443.814 546.313H961.795C961.795 546.313 955.948 531.995 955.656 521.757C955.34 510.674 961.795 494.899 961.795 494.899Z" fill="url(#pattern2_317_156)"/>
<defs>
<pattern id="pattern0_317_156" patternUnits="userSpaceOnUse" patternTransform="matrix(12.4149 0 0 6.20744 98.5905 529.771)" preserveAspectRatio="none" viewBox="0 0 84.6 42.3" width="1" height="1">
<use xlink:href="#pattern0_317_156_inner" transform="translate(0 -42.3)"/>
<use xlink:href="#pattern0_317_156_inner" transform="translate(42.3 -21.15)"/>
<g id="pattern0_317_156_inner">
<circle cx="15" cy="15" r="15" fill="#878787"/>
</g>
<use xlink:href="#pattern0_317_156_inner" transform="translate(42.3 21.15)"/>
</pattern><g id="stroke0_317_156" data-figma-scatter-ref="stroke0_317_156_ref" data-figma-scatter="f0.86_w0.64_aj0_sj0.49_r0_s4978496615298593077_sw6.179">
<path d="M15 0C23.2843 0 30 6.71573 30 15C30 23.2843 23.2843 30 15 30C6.71573 30 0 23.2843 0 15C0 6.71573 6.71573 0 15 0Z" fill="black"/>
</g>
<path id="stroke0_317_156_ref" d="M1059.25 416.56C1106.15 418.448 1154.68 464.11 1171.78 481.791C1175.92 486.08 1181.68 488.497 1187.64 488.161L1214.46 486.65C1224.68 486.074 1232.68 477.614 1232.68 467.372V27.6224C1232.68 16.9584 1224.03 8.31348 1213.37 8.31348H453.912C443.248 8.31348 434.603 16.9584 434.603 27.6224V466.315C434.603 476.979 443.248 485.624 453.912 485.624H913.558C918.421 485.624 923.08 483.808 926.772 480.643C945.649 464.457 1008.22 414.505 1059.25 416.56Z"/>
<pattern id="pattern1_317_156" patternUnits="userSpaceOnUse" patternTransform="matrix(12.4149 0 0 6.20744 211.173 316.223)" preserveAspectRatio="none" viewBox="0 0 84.6 42.3" width="1" height="1">
<use xlink:href="#pattern1_317_156_inner" transform="translate(0 -42.3)"/>
<use xlink:href="#pattern1_317_156_inner" transform="translate(42.3 -21.15)"/>
<g id="pattern1_317_156_inner">
<circle cx="15" cy="15" r="15" fill="#878787"/>
</g>
<use xlink:href="#pattern1_317_156_inner" transform="translate(42.3 21.15)"/>
</pattern><pattern id="pattern2_317_156" patternUnits="userSpaceOnUse" patternTransform="matrix(12.4149 0 0 6.20744 433.443 494.899)" preserveAspectRatio="none" viewBox="0 0 84.6 42.3" width="1" height="1">
<use xlink:href="#pattern2_317_156_inner" transform="translate(0 -42.3)"/>
<use xlink:href="#pattern2_317_156_inner" transform="translate(42.3 -21.15)"/>
<g id="pattern2_317_156_inner">
<circle cx="15" cy="15" r="15" fill="#878787"/>
</g>
<use xlink:href="#pattern2_317_156_inner" transform="translate(42.3 21.15)"/>
</pattern></defs>
</svg>
