<svg width="1418" height="908" viewBox="0 0 1418 908" fill="none" xmlns="http://www.w3.org/2000/svg" xmlns:xlink="http://www.w3.org/1999/xlink">
<path d="M754.714 544.006C753.307 532.165 1115 746.575 1296.02 855.26L1021.39 623.226L1330.56 595.537L1001.58 537.127L1392.15 375.614L849.522 487.674L760.025 113.593L628.82 348.055L404.417 78.338L524.917 430.041L3.73816 677.84C192.807 634.139 548.349 546.773 562.119 541.685C575.89 536.596 673.622 668.579 718.991 745.211C732.669 676.407 756.121 555.846 754.714 544.006Z" fill="#FFEE5A"/>
<path d="M739.281 543.891C737.859 533.117 1082.68 730.69 1255.27 830.823L992.941 617.864L1281.54 596.764L973.515 539.444L1333.72 389.004L828.845 493.371L758.736 129.085L628.377 362.421L395.431 93.5178L520.362 438.601L2.85897 661.074C181.971 622.726 543.454 544.899 556.486 540.373C569.517 535.847 660.009 674.717 703.625 744.718C716.103 682.265 740.703 554.666 739.281 543.891Z" fill="url(#pattern0_308_100)"/>
<defs>
<pattern id="pattern0_308_100" patternUnits="userSpaceOnUse" patternTransform="matrix(18.1245 3.21794 -1.60897 9.06227 680.292 446.273)" preserveAspectRatio="none" viewBox="0 0 47.2 23.6" width="1" height="1">
<use xlink:href="#pattern0_308_100_inner" transform="translate(0 -23.6)"/>
<use xlink:href="#pattern0_308_100_inner" transform="translate(23.6 -11.8)"/>
<g id="pattern0_308_100_inner">
<circle cx="5" cy="5" r="5" fill="#878787"/>
</g>
<use xlink:href="#pattern0_308_100_inner" transform="translate(23.6 11.8)"/>
</pattern></defs>
</svg>
