<svg width="182" height="182" viewBox="0 0 182 182" fill="none" xmlns="http://www.w3.org/2000/svg">
<path d="M175.532 37.2852L176.835 43.1406L176.914 43.4932L176.774 43.8262L172.774 53.3828L175.443 59.7461L175.532 59.957V66.9043L175.445 67.1123L172.678 73.8086V78.4297L175.461 85.9688L175.532 86.1592V93.0615L175.143 93.4014L170.586 97.3906V99.2178L175.237 104.355L175.577 104.73L175.525 105.234L174.765 112.655L174.732 112.97L174.542 113.223L172.897 115.41L174.624 118.473L174.784 118.757L174.769 119.082L174.112 133.849L175.492 138.933L175.552 139.157L175.52 139.388L174.112 149.463L174.766 157.065L174.774 157.148L174.768 157.232L174.103 168.054L174.099 168.11L174.09 168.166L173.52 171.67L173.314 172.936L172.083 172.581L165.035 170.55L157.75 174.741L157.487 174.893H145.791L145.552 174.774L136.992 170.53L128.938 172.59L128.928 172.592L119.705 174.859L119.571 174.893H110.079L109.74 174.511L105.083 169.277L101.21 170.415L101.054 170.461H97.2251L93.8354 173.38L93.5474 173.629L93.1665 173.653L74.0542 174.89L73.6196 174.918L73.2778 174.649L68.8042 171.131L63.23 171.863L58.2925 174.738L57.9341 174.946L57.5259 174.876L50.5581 173.667L40.3589 174.885L40.3315 174.888L40.3052 174.89L27.2778 175.817L27.189 175.823L27.1011 175.815L16.2114 174.893H8.58447L8.28271 174.221L6.5708 170.407L6.47119 170.186V159.543L6.48682 159.451L8.16553 149.237L6.49072 140.264L6.46045 140.104L6.47705 139.941L7.42822 130.46L7.46631 130.082L7.72412 129.803L9.05518 128.358L8.19971 123.346L8.18604 123.27L8.18408 123.193L7.42334 101.345L7.41455 101.107L7.50244 100.886L10.9077 92.3076L9.146 80.4492L9.14014 80.4043L8.18994 71.6445L8.17725 71.5273L8.18896 71.4102L9.12061 62.0078L7.45068 54.667L7.4126 54.499L7.42529 54.3281L8.18115 44.3936L7.42529 19.585L6.48779 14.1045L6.40674 13.6318L6.68896 13.2441L10.2065 8.40039L10.4692 8.04004L10.9058 7.95312L19.7495 6.20117L19.8589 6.17969L34.7847 6.17969L34.8599 6.18945L47.9819 7.94141L48.0825 7.95508L48.1792 7.98633L56.5151 10.666L66.6519 7.96973L66.7954 7.93164H78.6392L88.5229 6.19727L88.9204 6.12695L89.2739 6.32422L92.0728 7.88672L103.481 6.19238L103.623 6.1709L103.764 6.18555L120.658 7.92383L134.217 6.18945L134.29 6.17969H149.58L149.677 6.19727L159.464 7.91406L169.252 6.19727L169.904 6.08301L170.326 6.59277L175.27 12.5693L175.532 12.8848V37.2852Z" fill="#FFF9F9" stroke="black" stroke-width="2.27499"/>
<path d="M69.0198 16.7108C70.5884 16.7108 71.8601 15.4392 71.8601 13.8706C71.8601 12.3019 70.5884 11.0303 69.0198 11.0303C67.4511 11.0303 66.1795 12.3019 66.1795 13.8706C66.1795 15.4392 67.4511 16.7108 69.0198 16.7108Z" fill="#878787"/>
<path d="M80.0525 16.7099C81.6212 16.7099 82.8928 15.4382 82.8928 13.8696C82.8928 12.3009 81.6212 11.0293 80.0525 11.0293C78.4839 11.0293 77.2122 12.3009 77.2122 13.8696C77.2122 15.4382 78.4839 16.7099 80.0525 16.7099Z" fill="#878787"/>
<path d="M85.5661 16.7094C87.1348 16.7094 88.4064 15.4377 88.4064 13.8691C88.4064 12.3004 87.1348 11.0288 85.5661 11.0288C83.9975 11.0288 82.7258 12.3004 82.7258 13.8691C82.7258 15.4377 83.9975 16.7094 85.5661 16.7094Z" fill="#878787"/>
<path d="M96.5982 16.7108C98.1669 16.7108 99.4385 15.4392 99.4385 13.8706C99.4385 12.3019 98.1669 11.0303 96.5982 11.0303C95.0296 11.0303 93.7579 12.3019 93.7579 13.8706C93.7579 15.4392 95.0296 16.7108 96.5982 16.7108Z" fill="#878787"/>
<path d="M107.628 16.7099C109.196 16.7099 110.468 15.4382 110.468 13.8696C110.468 12.3009 109.196 11.0293 107.628 11.0293C106.059 11.0293 104.787 12.3009 104.787 13.8696C104.787 15.4382 106.059 16.7099 107.628 16.7099Z" fill="#878787"/>
<path d="M113.141 16.7099C114.71 16.7099 115.982 15.4382 115.982 13.8696C115.982 12.3009 114.71 11.0293 113.141 11.0293C111.573 11.0293 110.301 12.3009 110.301 13.8696C110.301 15.4382 111.573 16.7099 113.141 16.7099Z" fill="#878787"/>
<path d="M118.656 16.7099C120.225 16.7099 121.497 15.4382 121.497 13.8696C121.497 12.3009 120.225 11.0293 118.656 11.0293C117.088 11.0293 115.816 12.3009 115.816 13.8696C115.816 15.4382 117.088 16.7099 118.656 16.7099Z" fill="#878787"/>
<path d="M124.173 16.7108C125.742 16.7108 127.013 15.4392 127.013 13.8706C127.013 12.3019 125.742 11.0303 124.173 11.0303C122.604 11.0303 121.333 12.3019 121.333 13.8706C121.333 15.4392 122.604 16.7108 124.173 16.7108Z" fill="#878787"/>
<path d="M57.9911 22.225C59.5598 22.225 60.8314 20.9534 60.8314 19.3847C60.8314 17.8161 59.5598 16.5444 57.9911 16.5444C56.4225 16.5444 55.1508 17.8161 55.1508 19.3847C55.1508 20.9534 56.4225 22.225 57.9911 22.225Z" fill="#878787"/>
<path d="M69.02 22.2245C70.5887 22.2245 71.8603 20.9529 71.8603 19.3842C71.8603 17.8156 70.5887 16.5439 69.02 16.5439C67.4514 16.5439 66.1797 17.8156 66.1797 19.3842C66.1797 20.9529 67.4514 22.2245 69.02 22.2245Z" fill="#878787"/>
<path d="M96.5968 22.225C98.1654 22.225 99.437 20.9534 99.437 19.3847C99.437 17.8161 98.1654 16.5444 96.5968 16.5444C95.0281 16.5444 93.7565 17.8161 93.7565 19.3847C93.7565 20.9534 95.0281 22.225 96.5968 22.225Z" fill="#878787"/>
<path d="M107.627 22.2255C109.196 22.2255 110.468 20.9539 110.468 19.3852C110.468 17.8166 109.196 16.5449 107.627 16.5449C106.059 16.5449 104.787 17.8166 104.787 19.3852C104.787 20.9539 106.059 22.2255 107.627 22.2255Z" fill="#878787"/>
<path d="M124.172 22.224C125.741 22.224 127.012 20.9524 127.012 19.3837C127.012 17.8151 125.741 16.5435 124.172 16.5435C122.603 16.5435 121.332 17.8151 121.332 19.3837C121.332 20.9524 122.603 22.224 124.172 22.224Z" fill="#878787"/>
<path d="M80.0523 27.7406C81.621 27.7406 82.8926 26.469 82.8926 24.9003C82.8926 23.3317 81.621 22.0601 80.0523 22.0601C78.4837 22.0601 77.212 23.3317 77.212 24.9003C77.212 26.469 78.4837 27.7406 80.0523 27.7406Z" fill="#878787"/>
<path d="M102.11 27.7397C103.679 27.7397 104.95 26.468 104.95 24.8994C104.95 23.3307 103.679 22.0591 102.11 22.0591C100.542 22.0591 99.2699 23.3307 99.2699 24.8994C99.2699 26.468 100.542 27.7397 102.11 27.7397Z" fill="#878787"/>
<path d="M118.658 27.7392C120.227 27.7392 121.499 26.4675 121.499 24.8989C121.499 23.3302 120.227 22.0586 118.658 22.0586C117.09 22.0586 115.818 23.3302 115.818 24.8989C115.818 26.4675 117.09 27.7392 118.658 27.7392Z" fill="#878787"/>
<path d="M57.9908 33.2553C59.5594 33.2553 60.8311 31.9836 60.8311 30.415C60.8311 28.8463 59.5594 27.5747 57.9908 27.5747C56.4222 27.5747 55.1505 28.8463 55.1505 30.415C55.1505 31.9836 56.4222 33.2553 57.9908 33.2553Z" fill="#878787"/>
<path d="M63.5063 33.2558C65.075 33.2558 66.3466 31.9841 66.3466 30.4155C66.3466 28.8468 65.075 27.5752 63.5063 27.5752C61.9377 27.5752 60.666 28.8468 60.666 30.4155C60.666 31.9841 61.9377 33.2558 63.5063 33.2558Z" fill="#878787"/>
<path d="M69.0217 33.2558C70.5904 33.2558 71.862 31.9841 71.862 30.4155C71.862 28.8468 70.5904 27.5752 69.0217 27.5752C67.4531 27.5752 66.1815 28.8468 66.1815 30.4155C66.1815 31.9841 67.4531 33.2558 69.0217 33.2558Z" fill="#878787"/>
<path d="M80.0507 33.2553C81.6194 33.2553 82.891 31.9836 82.891 30.415C82.891 28.8463 81.6194 27.5747 80.0507 27.5747C78.4821 27.5747 77.2104 28.8463 77.2104 30.415C77.2104 31.9836 78.4821 33.2553 80.0507 33.2553Z" fill="#878787"/>
<path d="M107.626 33.2553C109.194 33.2553 110.466 31.9836 110.466 30.415C110.466 28.8463 109.194 27.5747 107.626 27.5747C106.057 27.5747 104.785 28.8463 104.785 30.415C104.785 31.9836 106.057 33.2553 107.626 33.2553Z" fill="#878787"/>
<path d="M63.5077 38.7714C65.0764 38.7714 66.348 37.4998 66.348 35.9311C66.348 34.3625 65.0764 33.0908 63.5077 33.0908C61.9391 33.0908 60.6674 34.3625 60.6674 35.9311C60.6674 37.4998 61.9391 38.7714 63.5077 38.7714Z" fill="#878787"/>
<path d="M91.0813 38.7699C92.6499 38.7699 93.9215 37.4983 93.9215 35.9296C93.9215 34.361 92.6499 33.0894 91.0813 33.0894C89.5126 33.0894 88.241 34.361 88.241 35.9296C88.241 37.4983 89.5126 38.7699 91.0813 38.7699Z" fill="#878787"/>
<path d="M96.5968 38.7699C98.1654 38.7699 99.437 37.4983 99.437 35.9296C99.437 34.361 98.1654 33.0894 96.5968 33.0894C95.0281 33.0894 93.7565 34.361 93.7565 35.9296C93.7565 37.4983 95.0281 38.7699 96.5968 38.7699Z" fill="#878787"/>
<path d="M107.627 38.7704C109.196 38.7704 110.467 37.4988 110.467 35.9301C110.467 34.3615 109.196 33.0898 107.627 33.0898C106.058 33.0898 104.787 34.3615 104.787 35.9301C104.787 37.4988 106.058 38.7704 107.627 38.7704Z" fill="#878787"/>
<path d="M113.141 38.7709C114.71 38.7709 115.981 37.4993 115.981 35.9306C115.981 34.362 114.71 33.0903 113.141 33.0903C111.572 33.0903 110.301 34.362 110.301 35.9306C110.301 37.4993 111.572 38.7709 113.141 38.7709Z" fill="#878787"/>
<path d="M118.657 38.7699C120.225 38.7699 121.497 37.4983 121.497 35.9296C121.497 34.361 120.225 33.0894 118.657 33.0894C117.088 33.0894 115.816 34.361 115.816 35.9296C115.816 37.4983 117.088 38.7699 118.657 38.7699Z" fill="#878787"/>
<path d="M124.173 38.7714C125.741 38.7714 127.013 37.4998 127.013 35.9311C127.013 34.3625 125.741 33.0908 124.173 33.0908C122.604 33.0908 121.333 34.3625 121.333 35.9311C121.333 37.4998 122.604 38.7714 124.173 38.7714Z" fill="#878787"/>
<path d="M57.9907 44.286C59.5593 44.286 60.831 43.0144 60.831 41.4458C60.831 39.8771 59.5593 38.6055 57.9907 38.6055C56.422 38.6055 55.1504 39.8771 55.1504 41.4458C55.1504 43.0144 56.422 44.286 57.9907 44.286Z" fill="#878787"/>
<path d="M63.5048 44.2851C65.0735 44.2851 66.3451 43.0134 66.3451 41.4448C66.3451 39.8761 65.0735 38.6045 63.5048 38.6045C61.9362 38.6045 60.6646 39.8761 60.6646 41.4448C60.6646 43.0134 61.9362 44.2851 63.5048 44.2851Z" fill="#878787"/>
<path d="M74.5368 44.2856C76.1054 44.2856 77.377 43.0139 77.377 41.4453C77.377 39.8766 76.1054 38.605 74.5368 38.605C72.9681 38.605 71.6965 39.8766 71.6965 41.4453C71.6965 43.0139 72.9681 44.2856 74.5368 44.2856Z" fill="#878787"/>
<path d="M80.0522 44.2856C81.6209 44.2856 82.8925 43.0139 82.8925 41.4453C82.8925 39.8766 81.6209 38.605 80.0522 38.605C78.4836 38.605 77.2119 39.8766 77.2119 41.4453C77.2119 43.0139 78.4836 44.2856 80.0522 44.2856Z" fill="#878787"/>
<path d="M85.5659 44.286C87.1346 44.286 88.4062 43.0144 88.4062 41.4458C88.4062 39.8771 87.1346 38.6055 85.5659 38.6055C83.9973 38.6055 82.7256 39.8771 82.7256 41.4458C82.7256 43.0144 83.9973 44.286 85.5659 44.286Z" fill="#878787"/>
<path d="M102.114 44.2851C103.682 44.2851 104.954 43.0134 104.954 41.4448C104.954 39.8761 103.682 38.6045 102.114 38.6045C100.545 38.6045 99.2734 39.8761 99.2734 41.4448C99.2734 43.0134 100.545 44.2851 102.114 44.2851Z" fill="#878787"/>
<path d="M57.9893 49.8002C59.558 49.8002 60.8296 48.5286 60.8296 46.9599C60.8296 45.3913 59.558 44.1196 57.9893 44.1196C56.4207 44.1196 55.149 45.3913 55.149 46.9599C55.149 48.5286 56.4207 49.8002 57.9893 49.8002Z" fill="#878787"/>
<path d="M69.0214 49.8017C70.5901 49.8017 71.8617 48.53 71.8617 46.9614C71.8617 45.3927 70.5901 44.1211 69.0214 44.1211C67.4528 44.1211 66.1812 45.3927 66.1812 46.9614C66.1812 48.53 67.4528 49.8017 69.0214 49.8017Z" fill="#878787"/>
<path d="M80.0507 49.8007C81.6194 49.8007 82.891 48.5291 82.891 46.9604C82.891 45.3918 81.6194 44.1201 80.0507 44.1201C78.4821 44.1201 77.2104 45.3918 77.2104 46.9604C77.2104 48.5291 78.4821 49.8007 80.0507 49.8007Z" fill="#878787"/>
<path d="M91.0827 49.8017C92.6514 49.8017 93.923 48.53 93.923 46.9614C93.923 45.3927 92.6514 44.1211 91.0827 44.1211C89.5141 44.1211 88.2424 45.3927 88.2424 46.9614C88.2424 48.53 89.5141 49.8017 91.0827 49.8017Z" fill="#878787"/>
<path d="M102.11 49.8007C103.679 49.8007 104.951 48.5291 104.951 46.9604C104.951 45.3918 103.679 44.1201 102.11 44.1201C100.542 44.1201 99.2701 45.3918 99.2701 46.9604C99.2701 48.5291 100.542 49.8007 102.11 49.8007Z" fill="#878787"/>
<path d="M113.143 49.8002C114.711 49.8002 115.983 48.5286 115.983 46.9599C115.983 45.3913 114.711 44.1196 113.143 44.1196C111.574 44.1196 110.302 45.3913 110.302 46.9599C110.302 48.5286 111.574 49.8002 113.143 49.8002Z" fill="#878787"/>
<path d="M124.17 49.8002C125.739 49.8002 127.01 48.5286 127.01 46.9599C127.01 45.3913 125.739 44.1196 124.17 44.1196C122.601 44.1196 121.33 45.3913 121.33 46.9599C121.33 48.5286 122.601 49.8002 124.17 49.8002Z" fill="#878787"/>
<path d="M63.5061 55.3163C65.0748 55.3163 66.3464 54.0447 66.3464 52.476C66.3464 50.9074 65.0748 49.6357 63.5061 49.6357C61.9375 49.6357 60.6658 50.9074 60.6658 52.476C60.6658 54.0447 61.9375 55.3163 63.5061 55.3163Z" fill="#878787"/>
<path d="M69.0217 55.3153C70.5904 55.3153 71.862 54.0437 71.862 52.4751C71.862 50.9064 70.5904 49.6348 69.0217 49.6348C67.4531 49.6348 66.1815 50.9064 66.1815 52.4751C66.1815 54.0437 67.4531 55.3153 69.0217 55.3153Z" fill="#878787"/>
<path d="M74.5336 55.3153C76.1023 55.3153 77.3739 54.0437 77.3739 52.4751C77.3739 50.9064 76.1023 49.6348 74.5336 49.6348C72.965 49.6348 71.6934 50.9064 71.6934 52.4751C71.6934 54.0437 72.965 55.3153 74.5336 55.3153Z" fill="#878787"/>
<path d="M91.0831 55.3158C92.6517 55.3158 93.9234 54.0442 93.9234 52.4755C93.9234 50.9069 92.6517 49.6353 91.0831 49.6353C89.5144 49.6353 88.2428 50.9069 88.2428 52.4755C88.2428 54.0442 89.5144 55.3158 91.0831 55.3158Z" fill="#878787"/>
<path d="M96.5965 55.3153C98.1652 55.3153 99.4368 54.0437 99.4368 52.4751C99.4368 50.9064 98.1652 49.6348 96.5965 49.6348C95.0279 49.6348 93.7562 50.9064 93.7562 52.4751C93.7562 54.0437 95.0279 55.3153 96.5965 55.3153Z" fill="#878787"/>
<path d="M118.658 55.3153C120.227 55.3153 121.498 54.0437 121.498 52.4751C121.498 50.9064 120.227 49.6348 118.658 49.6348C117.089 49.6348 115.818 50.9064 115.818 52.4751C115.818 54.0437 117.089 55.3153 118.658 55.3153Z" fill="#878787"/>
<path d="M124.173 55.3158C125.742 55.3158 127.014 54.0442 127.014 52.4755C127.014 50.9069 125.742 49.6353 124.173 49.6353C122.605 49.6353 121.333 50.9069 121.333 52.4755C121.333 54.0442 122.605 55.3158 124.173 55.3158Z" fill="#878787"/>
<path d="M13.8698 60.831C15.4385 60.831 16.7101 59.5593 16.7101 57.9907C16.7101 56.422 15.4385 55.1504 13.8698 55.1504C12.3012 55.1504 11.0295 56.422 11.0295 57.9907C11.0295 59.5593 12.3012 60.831 13.8698 60.831Z" fill="#878787"/>
<path d="M19.3852 60.831C20.9539 60.831 22.2255 59.5593 22.2255 57.9907C22.2255 56.422 20.9539 55.1504 19.3852 55.1504C17.8166 55.1504 16.5449 56.422 16.5449 57.9907C16.5449 59.5593 17.8166 60.831 19.3852 60.831Z" fill="#878787"/>
<path d="M24.8974 60.8305C26.466 60.8305 27.7376 59.5588 27.7376 57.9902C27.7376 56.4215 26.466 55.1499 24.8974 55.1499C23.3287 55.1499 22.0571 56.4215 22.0571 57.9902C22.0571 59.5588 23.3287 60.8305 24.8974 60.8305Z" fill="#878787"/>
<path d="M30.4161 60.8295C31.9847 60.8295 33.2564 59.5579 33.2564 57.9892C33.2564 56.4206 31.9847 55.1489 30.4161 55.1489C28.8474 55.1489 27.5758 56.4206 27.5758 57.9892C27.5758 59.5579 28.8474 60.8295 30.4161 60.8295Z" fill="#878787"/>
<path d="M35.9311 60.8315C37.4998 60.8315 38.7714 59.5598 38.7714 57.9912C38.7714 56.4225 37.4998 55.1509 35.9311 55.1509C34.3625 55.1509 33.0908 56.4225 33.0908 57.9912C33.0908 59.5598 34.3625 60.8315 35.9311 60.8315Z" fill="#878787"/>
<path d="M46.96 60.831C48.5287 60.831 49.8003 59.5593 49.8003 57.9907C49.8003 56.422 48.5287 55.1504 46.96 55.1504C45.3914 55.1504 44.1198 56.422 44.1198 57.9907C44.1198 59.5593 45.3914 60.831 46.96 60.831Z" fill="#878787"/>
<path d="M52.4757 60.8305C54.0444 60.8305 55.316 59.5588 55.316 57.9902C55.316 56.4215 54.0444 55.1499 52.4757 55.1499C50.9071 55.1499 49.6354 56.4215 49.6354 57.9902C49.6354 59.5588 50.9071 60.8305 52.4757 60.8305Z" fill="#878787"/>
<path d="M57.9924 60.8319C59.5611 60.8319 60.8327 59.5603 60.8327 57.9917C60.8327 56.423 59.5611 55.1514 57.9924 55.1514C56.4238 55.1514 55.1522 56.423 55.1522 57.9917C55.1522 59.5603 56.4238 60.8319 57.9924 60.8319Z" fill="#878787"/>
<path d="M63.5062 60.8305C65.0748 60.8305 66.3465 59.5588 66.3465 57.9902C66.3465 56.4215 65.0748 55.1499 63.5062 55.1499C61.9375 55.1499 60.6659 56.4215 60.6659 57.9902C60.6659 59.5588 61.9375 60.8305 63.5062 60.8305Z" fill="#878787"/>
<path d="M74.5371 60.831C76.1057 60.831 77.3774 59.5593 77.3774 57.9907C77.3774 56.422 76.1057 55.1504 74.5371 55.1504C72.9684 55.1504 71.6968 56.422 71.6968 57.9907C71.6968 59.5593 72.9684 60.831 74.5371 60.831Z" fill="#878787"/>
<path d="M91.0828 60.8319C92.6515 60.8319 93.9231 59.5603 93.9231 57.9917C93.9231 56.423 92.6515 55.1514 91.0828 55.1514C89.5142 55.1514 88.2426 56.423 88.2426 57.9917C88.2426 59.5603 89.5142 60.8319 91.0828 60.8319Z" fill="#878787"/>
<path d="M102.112 60.8305C103.681 60.8305 104.952 59.5588 104.952 57.9902C104.952 56.4215 103.681 55.1499 102.112 55.1499C100.543 55.1499 99.2716 56.4215 99.2716 57.9902C99.2716 59.5588 100.543 60.8305 102.112 60.8305Z" fill="#878787"/>
<path d="M107.627 60.831C109.196 60.831 110.468 59.5593 110.468 57.9907C110.468 56.422 109.196 55.1504 107.627 55.1504C106.059 55.1504 104.787 56.422 104.787 57.9907C104.787 59.5593 106.059 60.831 107.627 60.831Z" fill="#878787"/>
<path d="M113.141 60.8305C114.71 60.8305 115.981 59.5588 115.981 57.9902C115.981 56.4215 114.71 55.1499 113.141 55.1499C111.572 55.1499 110.301 56.4215 110.301 57.9902C110.301 59.5588 111.572 60.8305 113.141 60.8305Z" fill="#878787"/>
<path d="M118.658 60.8319C120.226 60.8319 121.498 59.5603 121.498 57.9917C121.498 56.423 120.226 55.1514 118.658 55.1514C117.089 55.1514 115.817 56.423 115.817 57.9917C115.817 59.5603 117.089 60.8319 118.658 60.8319Z" fill="#878787"/>
<path d="M129.687 60.83C131.256 60.83 132.527 59.5584 132.527 57.9897C132.527 56.4211 131.256 55.1494 129.687 55.1494C128.118 55.1494 126.847 56.4211 126.847 57.9897C126.847 59.5584 128.118 60.83 129.687 60.83Z" fill="#878787"/>
<path d="M140.718 60.83C142.286 60.83 143.558 59.5584 143.558 57.9897C143.558 56.4211 142.286 55.1494 140.718 55.1494C139.149 55.1494 137.878 56.4211 137.878 57.9897C137.878 59.5584 139.149 60.83 140.718 60.83Z" fill="#878787"/>
<path d="M151.748 60.831C153.317 60.831 154.588 59.5593 154.588 57.9907C154.588 56.422 153.317 55.1504 151.748 55.1504C150.179 55.1504 148.908 56.422 148.908 57.9907C148.908 59.5593 150.179 60.831 151.748 60.831Z" fill="#878787"/>
<path d="M162.777 60.83C164.346 60.83 165.618 59.5584 165.618 57.9897C165.618 56.4211 164.346 55.1494 162.777 55.1494C161.209 55.1494 159.937 56.4211 159.937 57.9897C159.937 59.5584 161.209 60.83 162.777 60.83Z" fill="#878787"/>
<path d="M30.414 66.3461C31.9826 66.3461 33.2542 65.0745 33.2542 63.5058C33.2542 61.9372 31.9826 60.6655 30.414 60.6655C28.8453 60.6655 27.5737 61.9372 27.5737 63.5058C27.5737 65.0745 28.8453 66.3461 30.414 66.3461Z" fill="#878787"/>
<path d="M35.9312 66.3461C37.4999 66.3461 38.7715 65.0745 38.7715 63.5058C38.7715 61.9372 37.4999 60.6655 35.9312 60.6655C34.3626 60.6655 33.0909 61.9372 33.0909 63.5058C33.0909 65.0745 34.3626 66.3461 35.9312 66.3461Z" fill="#878787"/>
<path d="M52.4755 66.3466C54.0441 66.3466 55.3158 65.075 55.3158 63.5063C55.3158 61.9377 54.0441 60.666 52.4755 60.666C50.9068 60.666 49.6352 61.9377 49.6352 63.5063C49.6352 65.075 50.9068 66.3466 52.4755 66.3466Z" fill="#878787"/>
<path d="M69.0215 66.3461C70.5901 66.3461 71.8618 65.0745 71.8618 63.5058C71.8618 61.9372 70.5901 60.6655 69.0215 60.6655C67.4529 60.6655 66.1812 61.9372 66.1812 63.5058C66.1812 65.0745 67.4529 66.3461 69.0215 66.3461Z" fill="#878787"/>
<path d="M80.0505 66.3456C81.6191 66.3456 82.8908 65.074 82.8908 63.5053C82.8908 61.9367 81.6191 60.665 80.0505 60.665C78.4818 60.665 77.2102 61.9367 77.2102 63.5053C77.2102 65.074 78.4818 66.3456 80.0505 66.3456Z" fill="#878787"/>
<path d="M107.627 66.3461C109.196 66.3461 110.468 65.0745 110.468 63.5058C110.468 61.9372 109.196 60.6655 107.627 60.6655C106.059 60.6655 104.787 61.9372 104.787 63.5058C104.787 65.0745 106.059 66.3461 107.627 66.3461Z" fill="#878787"/>
<path d="M113.141 66.3446C114.71 66.3446 115.981 65.073 115.981 63.5044C115.981 61.9357 114.71 60.6641 113.141 60.6641C111.572 60.6641 110.301 61.9357 110.301 63.5044C110.301 65.073 111.572 66.3446 113.141 66.3446Z" fill="#878787"/>
<path d="M118.656 66.3461C120.225 66.3461 121.497 65.0745 121.497 63.5058C121.497 61.9372 120.225 60.6655 118.656 60.6655C117.088 60.6655 115.816 61.9372 115.816 63.5058C115.816 65.0745 117.088 66.3461 118.656 66.3461Z" fill="#878787"/>
<path d="M129.689 66.3466C131.257 66.3466 132.529 65.075 132.529 63.5063C132.529 61.9377 131.257 60.666 129.689 60.666C128.12 60.666 126.848 61.9377 126.848 63.5063C126.848 65.075 128.12 66.3466 129.689 66.3466Z" fill="#878787"/>
<path d="M135.202 66.3461C136.771 66.3461 138.042 65.0745 138.042 63.5058C138.042 61.9372 136.771 60.6655 135.202 60.6655C133.633 60.6655 132.362 61.9372 132.362 63.5058C132.362 65.0745 133.633 66.3461 135.202 66.3461Z" fill="#878787"/>
<path d="M140.718 66.3461C142.286 66.3461 143.558 65.0745 143.558 63.5058C143.558 61.9372 142.286 60.6655 140.718 60.6655C139.149 60.6655 137.877 61.9372 137.877 63.5058C137.877 65.0745 139.149 66.3461 140.718 66.3461Z" fill="#878787"/>
<path d="M146.235 66.3461C147.803 66.3461 149.075 65.0745 149.075 63.5058C149.075 61.9372 147.803 60.6655 146.235 60.6655C144.666 60.6655 143.394 61.9372 143.394 63.5058C143.394 65.0745 144.666 66.3461 146.235 66.3461Z" fill="#878787"/>
<path d="M168.294 66.3456C169.863 66.3456 171.134 65.074 171.134 63.5053C171.134 61.9367 169.863 60.665 168.294 60.665C166.725 60.665 165.454 61.9367 165.454 63.5053C165.454 65.074 166.725 66.3456 168.294 66.3456Z" fill="#878787"/>
<path d="M13.8696 71.8617C15.4382 71.8617 16.7099 70.5901 16.7099 69.0214C16.7099 67.4528 15.4382 66.1812 13.8696 66.1812C12.3009 66.1812 11.0293 67.4528 11.0293 69.0214C11.0293 70.5901 12.3009 71.8617 13.8696 71.8617Z" fill="#878787"/>
<path d="M30.4143 71.8608C31.9829 71.8608 33.2546 70.5891 33.2546 69.0205C33.2546 67.4518 31.9829 66.1802 30.4143 66.1802C28.8456 66.1802 27.574 67.4518 27.574 69.0205C27.574 70.5891 28.8456 71.8608 30.4143 71.8608Z" fill="#878787"/>
<path d="M35.9297 71.8612C37.4984 71.8612 38.77 70.5896 38.77 69.021C38.77 67.4523 37.4984 66.1807 35.9297 66.1807C34.3611 66.1807 33.0894 67.4523 33.0894 69.021C33.0894 70.5896 34.3611 71.8612 35.9297 71.8612Z" fill="#878787"/>
<path d="M41.4466 71.8617C43.0152 71.8617 44.2868 70.5901 44.2868 69.0214C44.2868 67.4528 43.0152 66.1812 41.4466 66.1812C39.8779 66.1812 38.6063 67.4528 38.6063 69.0214C38.6063 70.5901 39.8779 71.8617 41.4466 71.8617Z" fill="#878787"/>
<path d="M46.96 71.8608C48.5287 71.8608 49.8003 70.5891 49.8003 69.0205C49.8003 67.4518 48.5287 66.1802 46.96 66.1802C45.3914 66.1802 44.1198 67.4518 44.1198 69.0205C44.1198 70.5891 45.3914 71.8608 46.96 71.8608Z" fill="#878787"/>
<path d="M52.4773 71.8608C54.0459 71.8608 55.3175 70.5891 55.3175 69.0205C55.3175 67.4518 54.0459 66.1802 52.4773 66.1802C50.9086 66.1802 49.637 67.4518 49.637 69.0205C49.637 70.5891 50.9086 71.8608 52.4773 71.8608Z" fill="#878787"/>
<path d="M69.0199 71.8608C70.5886 71.8608 71.8602 70.5891 71.8602 69.0205C71.8602 67.4518 70.5886 66.1802 69.0199 66.1802C67.4513 66.1802 66.1796 67.4518 66.1796 69.0205C66.1796 70.5891 67.4513 71.8608 69.0199 71.8608Z" fill="#878787"/>
<path d="M91.0813 71.8612C92.6499 71.8612 93.9215 70.5896 93.9215 69.021C93.9215 67.4523 92.6499 66.1807 91.0813 66.1807C89.5126 66.1807 88.241 67.4523 88.241 69.021C88.241 70.5896 89.5126 71.8612 91.0813 71.8612Z" fill="#878787"/>
<path d="M107.627 71.8608C109.196 71.8608 110.468 70.5891 110.468 69.0205C110.468 67.4518 109.196 66.1802 107.627 66.1802C106.059 66.1802 104.787 67.4518 104.787 69.0205C104.787 70.5891 106.059 71.8608 107.627 71.8608Z" fill="#878787"/>
<path d="M129.685 71.8603C131.254 71.8603 132.526 70.5886 132.526 69.02C132.526 67.4513 131.254 66.1797 129.685 66.1797C128.117 66.1797 126.845 67.4513 126.845 69.02C126.845 70.5886 128.117 71.8603 129.685 71.8603Z" fill="#878787"/>
<path d="M135.202 71.8612C136.771 71.8612 138.042 70.5896 138.042 69.021C138.042 67.4523 136.771 66.1807 135.202 66.1807C133.633 66.1807 132.362 67.4523 132.362 69.021C132.362 70.5896 133.633 71.8612 135.202 71.8612Z" fill="#878787"/>
<path d="M146.233 71.8622C147.801 71.8622 149.073 70.5906 149.073 69.0219C149.073 67.4533 147.801 66.1816 146.233 66.1816C144.664 66.1816 143.392 67.4533 143.392 69.0219C143.392 70.5906 144.664 71.8622 146.233 71.8622Z" fill="#878787"/>
<path d="M24.902 77.3769C26.4706 77.3769 27.7423 76.1052 27.7423 74.5366C27.7423 72.9679 26.4706 71.6963 24.902 71.6963C23.3333 71.6963 22.0617 72.9679 22.0617 74.5366C22.0617 76.1052 23.3333 77.3769 24.902 77.3769Z" fill="#878787"/>
<path d="M30.4141 77.3764C31.9827 77.3764 33.2544 76.1047 33.2544 74.5361C33.2544 72.9674 31.9827 71.6958 30.4141 71.6958C28.8454 71.6958 27.5738 72.9674 27.5738 74.5361C27.5738 76.1047 28.8454 77.3764 30.4141 77.3764Z" fill="#878787"/>
<path d="M35.9298 77.3754C37.4985 77.3754 38.7701 76.1038 38.7701 74.5351C38.7701 72.9665 37.4985 71.6948 35.9298 71.6948C34.3612 71.6948 33.0895 72.9665 33.0895 74.5351C33.0895 76.1038 34.3612 77.3754 35.9298 77.3754Z" fill="#878787"/>
<path d="M52.4754 77.3764C54.0441 77.3764 55.3157 76.1047 55.3157 74.5361C55.3157 72.9674 54.0441 71.6958 52.4754 71.6958C50.9068 71.6958 49.6351 72.9674 49.6351 74.5361C49.6351 76.1047 50.9068 77.3764 52.4754 77.3764Z" fill="#878787"/>
<path d="M57.9909 77.3764C59.5595 77.3764 60.8312 76.1047 60.8312 74.5361C60.8312 72.9674 59.5595 71.6958 57.9909 71.6958C56.4222 71.6958 55.1506 72.9674 55.1506 74.5361C55.1506 76.1047 56.4222 77.3764 57.9909 77.3764Z" fill="#878787"/>
<path d="M80.0522 77.3769C81.6209 77.3769 82.8925 76.1052 82.8925 74.5366C82.8925 72.9679 81.6209 71.6963 80.0522 71.6963C78.4836 71.6963 77.2119 72.9679 77.2119 74.5366C77.2119 76.1052 78.4836 77.3769 80.0522 77.3769Z" fill="#878787"/>
<path d="M85.5672 77.3769C87.1359 77.3769 88.4075 76.1052 88.4075 74.5366C88.4075 72.9679 87.1359 71.6963 85.5672 71.6963C83.9986 71.6963 82.7269 72.9679 82.7269 74.5366C82.7269 76.1052 83.9986 77.3769 85.5672 77.3769Z" fill="#878787"/>
<path d="M102.11 77.3754C103.679 77.3754 104.951 76.1038 104.951 74.5351C104.951 72.9665 103.679 71.6948 102.11 71.6948C100.542 71.6948 99.2701 72.9665 99.2701 74.5351C99.2701 76.1038 100.542 77.3754 102.11 77.3754Z" fill="#878787"/>
<path d="M124.172 77.3759C125.74 77.3759 127.012 76.1042 127.012 74.5356C127.012 72.967 125.74 71.6953 124.172 71.6953C122.603 71.6953 121.331 72.967 121.331 74.5356C121.331 76.1042 122.603 77.3759 124.172 77.3759Z" fill="#878787"/>
<path d="M146.233 77.3764C147.802 77.3764 149.073 76.1047 149.073 74.5361C149.073 72.9674 147.802 71.6958 146.233 71.6958C144.664 71.6958 143.393 72.9674 143.393 74.5361C143.393 76.1047 144.664 77.3764 146.233 77.3764Z" fill="#878787"/>
<path d="M151.748 77.3759C153.317 77.3759 154.588 76.1042 154.588 74.5356C154.588 72.967 153.317 71.6953 151.748 71.6953C150.179 71.6953 148.908 72.967 148.908 74.5356C148.908 76.1042 150.179 77.3759 151.748 77.3759Z" fill="#878787"/>
<path d="M162.777 77.3759C164.346 77.3759 165.618 76.1042 165.618 74.5356C165.618 72.967 164.346 71.6953 162.777 71.6953C161.209 71.6953 159.937 72.967 159.937 74.5356C159.937 76.1042 161.209 77.3759 162.777 77.3759Z" fill="#878787"/>
<path d="M24.9007 82.891C26.4693 82.891 27.7409 81.6194 27.7409 80.0507C27.7409 78.4821 26.4693 77.2104 24.9007 77.2104C23.332 77.2104 22.0604 78.4821 22.0604 80.0507C22.0604 81.6194 23.332 82.891 24.9007 82.891Z" fill="#878787"/>
<path d="M30.4159 82.892C31.9846 82.892 33.2562 81.6204 33.2562 80.0517C33.2562 78.4831 31.9846 77.2114 30.4159 77.2114C28.8473 77.2114 27.5756 78.4831 27.5756 80.0517C27.5756 81.6204 28.8473 82.892 30.4159 82.892Z" fill="#878787"/>
<path d="M35.9309 82.892C37.4996 82.892 38.7712 81.6204 38.7712 80.0517C38.7712 78.4831 37.4996 77.2114 35.9309 77.2114C34.3623 77.2114 33.0906 78.4831 33.0906 80.0517C33.0906 81.6204 34.3623 82.892 35.9309 82.892Z" fill="#878787"/>
<path d="M41.4463 82.8915C43.015 82.8915 44.2866 81.6199 44.2866 80.0512C44.2866 78.4826 43.015 77.2109 41.4463 77.2109C39.8777 77.2109 38.606 78.4826 38.606 80.0512C38.606 81.6199 39.8777 82.8915 41.4463 82.8915Z" fill="#878787"/>
<path d="M46.9605 82.8905C48.5292 82.8905 49.8008 81.6189 49.8008 80.0502C49.8008 78.4816 48.5292 77.21 46.9605 77.21C45.3919 77.21 44.1202 78.4816 44.1202 80.0502C44.1202 81.6189 45.3919 82.8905 46.9605 82.8905Z" fill="#878787"/>
<path d="M57.9924 82.8915C59.561 82.8915 60.8327 81.6199 60.8327 80.0512C60.8327 78.4826 59.561 77.2109 57.9924 77.2109C56.4237 77.2109 55.1521 78.4826 55.1521 80.0512C55.1521 81.6199 56.4237 82.8915 57.9924 82.8915Z" fill="#878787"/>
<path d="M63.5076 82.892C65.0763 82.892 66.3479 81.6204 66.3479 80.0517C66.3479 78.4831 65.0763 77.2114 63.5076 77.2114C61.939 77.2114 60.6674 78.4831 60.6674 80.0517C60.6674 81.6204 61.939 82.892 63.5076 82.892Z" fill="#878787"/>
<path d="M69.0197 82.8915C70.5884 82.8915 71.86 81.6199 71.86 80.0512C71.86 78.4826 70.5884 77.2109 69.0197 77.2109C67.4511 77.2109 66.1794 78.4826 66.1794 80.0512C66.1794 81.6199 67.4511 82.8915 69.0197 82.8915Z" fill="#878787"/>
<path d="M80.0521 82.891C81.6208 82.891 82.8924 81.6194 82.8924 80.0507C82.8924 78.4821 81.6208 77.2104 80.0521 77.2104C78.4835 77.2104 77.2119 78.4821 77.2119 80.0507C77.2119 81.6194 78.4835 82.891 80.0521 82.891Z" fill="#878787"/>
<path d="M96.5966 82.891C98.1653 82.891 99.4369 81.6194 99.4369 80.0507C99.4369 78.4821 98.1653 77.2104 96.5966 77.2104C95.028 77.2104 93.7563 78.4821 93.7563 80.0507C93.7563 81.6194 95.028 82.891 96.5966 82.891Z" fill="#878787"/>
<path d="M102.112 82.892C103.68 82.892 104.952 81.6204 104.952 80.0517C104.952 78.4831 103.68 77.2114 102.112 77.2114C100.543 77.2114 99.2712 78.4831 99.2712 80.0517C99.2712 81.6204 100.543 82.892 102.112 82.892Z" fill="#878787"/>
<path d="M107.627 82.89C109.196 82.89 110.468 81.6184 110.468 80.0498C110.468 78.4811 109.196 77.2095 107.627 77.2095C106.059 77.2095 104.787 78.4811 104.787 80.0498C104.787 81.6184 106.059 82.89 107.627 82.89Z" fill="#878787"/>
<path d="M124.173 82.8915C125.742 82.8915 127.013 81.6199 127.013 80.0512C127.013 78.4826 125.742 77.2109 124.173 77.2109C122.604 77.2109 121.333 78.4826 121.333 80.0512C121.333 81.6199 122.604 82.8915 124.173 82.8915Z" fill="#878787"/>
<path d="M140.718 82.8905C142.286 82.8905 143.558 81.6189 143.558 80.0502C143.558 78.4816 142.286 77.21 140.718 77.21C139.149 77.21 137.877 78.4816 137.877 80.0502C137.877 81.6189 139.149 82.8905 140.718 82.8905Z" fill="#878787"/>
<path d="M151.75 82.892C153.318 82.892 154.59 81.6204 154.59 80.0517C154.59 78.4831 153.318 77.2114 151.75 77.2114C150.181 77.2114 148.91 78.4831 148.91 80.0517C148.91 81.6204 150.181 82.892 151.75 82.892Z" fill="#878787"/>
<path d="M157.262 82.891C158.83 82.891 160.102 81.6194 160.102 80.0507C160.102 78.4821 158.83 77.2104 157.262 77.2104C155.693 77.2104 154.422 78.4821 154.422 80.0507C154.422 81.6194 155.693 82.891 157.262 82.891Z" fill="#878787"/>
<path d="M24.8991 88.4057C26.4678 88.4057 27.7394 87.134 27.7394 85.5654C27.7394 83.9967 26.4678 82.7251 24.8991 82.7251C23.3305 82.7251 22.0588 83.9967 22.0588 85.5654C22.0588 87.134 23.3305 88.4057 24.8991 88.4057Z" fill="#878787"/>
<path d="M41.445 88.4062C43.0137 88.4062 44.2853 87.1345 44.2853 85.5659C44.2853 83.9972 43.0137 82.7256 41.445 82.7256C39.8764 82.7256 38.6047 83.9972 38.6047 85.5659C38.6047 87.1345 39.8764 88.4062 41.445 88.4062Z" fill="#878787"/>
<path d="M52.4752 88.4071C54.0438 88.4071 55.3155 87.1355 55.3155 85.5669C55.3155 83.9982 54.0438 82.7266 52.4752 82.7266C50.9065 82.7266 49.6349 83.9982 49.6349 85.5669C49.6349 87.1355 50.9065 88.4071 52.4752 88.4071Z" fill="#878787"/>
<path d="M63.5062 88.4062C65.0748 88.4062 66.3465 87.1345 66.3465 85.5659C66.3465 83.9972 65.0748 82.7256 63.5062 82.7256C61.9375 82.7256 60.6659 83.9972 60.6659 85.5659C60.6659 87.1345 61.9375 88.4062 63.5062 88.4062Z" fill="#878787"/>
<path d="M91.0828 88.4057C92.6515 88.4057 93.9231 87.134 93.9231 85.5654C93.9231 83.9967 92.6515 82.7251 91.0828 82.7251C89.5142 82.7251 88.2426 83.9967 88.2426 85.5654C88.2426 87.134 89.5142 88.4057 91.0828 88.4057Z" fill="#878787"/>
<path d="M102.113 88.4071C103.682 88.4071 104.954 87.1355 104.954 85.5669C104.954 83.9982 103.682 82.7266 102.113 82.7266C100.545 82.7266 99.2732 83.9982 99.2732 85.5669C99.2732 87.1355 100.545 88.4071 102.113 88.4071Z" fill="#878787"/>
<path d="M118.656 88.4052C120.225 88.4052 121.496 87.1335 121.496 85.5649C121.496 83.9962 120.225 82.7246 118.656 82.7246C117.088 82.7246 115.816 83.9962 115.816 85.5649C115.816 87.1335 117.088 88.4052 118.656 88.4052Z" fill="#878787"/>
<path d="M124.173 88.4057C125.742 88.4057 127.013 87.134 127.013 85.5654C127.013 83.9967 125.742 82.7251 124.173 82.7251C122.605 82.7251 121.333 83.9967 121.333 85.5654C121.333 87.134 122.605 88.4057 124.173 88.4057Z" fill="#878787"/>
<path d="M129.687 88.4062C131.255 88.4062 132.527 87.1345 132.527 85.5659C132.527 83.9972 131.255 82.7256 129.687 82.7256C128.118 82.7256 126.847 83.9972 126.847 85.5659C126.847 87.1345 128.118 88.4062 129.687 88.4062Z" fill="#878787"/>
<path d="M135.204 88.4067C136.772 88.4067 138.044 87.135 138.044 85.5664C138.044 83.9977 136.772 82.7261 135.204 82.7261C133.635 82.7261 132.364 83.9977 132.364 85.5664C132.364 87.135 133.635 88.4067 135.204 88.4067Z" fill="#878787"/>
<path d="M140.717 88.4067C142.286 88.4067 143.558 87.135 143.558 85.5664C143.558 83.9977 142.286 82.7261 140.717 82.7261C139.149 82.7261 137.877 83.9977 137.877 85.5664C137.877 87.135 139.149 88.4067 140.717 88.4067Z" fill="#878787"/>
<path d="M146.233 88.4067C147.801 88.4067 149.073 87.135 149.073 85.5664C149.073 83.9977 147.801 82.7261 146.233 82.7261C144.664 82.7261 143.392 83.9977 143.392 85.5664C143.392 87.135 144.664 88.4067 146.233 88.4067Z" fill="#878787"/>
<path d="M168.294 88.4062C169.863 88.4062 171.135 87.1345 171.135 85.5659C171.135 83.9972 169.863 82.7256 168.294 82.7256C166.726 82.7256 165.454 83.9972 165.454 85.5659C165.454 87.1345 166.726 88.4062 168.294 88.4062Z" fill="#878787"/>
<path d="M41.4466 93.9208C43.0152 93.9208 44.2868 92.6492 44.2868 91.0805C44.2868 89.5119 43.0152 88.2402 41.4466 88.2402C39.8779 88.2402 38.6063 89.5119 38.6063 91.0805C38.6063 92.6492 39.8779 93.9208 41.4466 93.9208Z" fill="#878787"/>
<path d="M46.9618 93.9218C48.5305 93.9218 49.8021 92.6501 49.8021 91.0815C49.8021 89.5129 48.5305 88.2412 46.9618 88.2412C45.3932 88.2412 44.1215 89.5129 44.1215 91.0815C44.1215 92.6501 45.3932 93.9218 46.9618 93.9218Z" fill="#878787"/>
<path d="M57.9891 93.9218C59.5577 93.9218 60.8294 92.6501 60.8294 91.0815C60.8294 89.5129 59.5577 88.2412 57.9891 88.2412C56.4204 88.2412 55.1488 89.5129 55.1488 91.0815C55.1488 92.6501 56.4204 93.9218 57.9891 93.9218Z" fill="#878787"/>
<path d="M63.5062 93.9218C65.0748 93.9218 66.3465 92.6501 66.3465 91.0815C66.3465 89.5129 65.0748 88.2412 63.5062 88.2412C61.9375 88.2412 60.6659 89.5129 60.6659 91.0815C60.6659 92.6501 61.9375 93.9218 63.5062 93.9218Z" fill="#878787"/>
<path d="M69.0231 93.9223C70.5917 93.9223 71.8634 92.6506 71.8634 91.082C71.8634 89.5133 70.5917 88.2417 69.0231 88.2417C67.4544 88.2417 66.1828 89.5133 66.1828 91.082C66.1828 92.6506 67.4544 93.9223 69.0231 93.9223Z" fill="#878787"/>
<path d="M74.5368 93.9208C76.1055 93.9208 77.3771 92.6492 77.3771 91.0805C77.3771 89.5119 76.1055 88.2402 74.5368 88.2402C72.9682 88.2402 71.6965 89.5119 71.6965 91.0805C71.6965 92.6492 72.9682 93.9208 74.5368 93.9208Z" fill="#878787"/>
<path d="M80.0521 93.9218C81.6207 93.9218 82.8924 92.6501 82.8924 91.0815C82.8924 89.5129 81.6207 88.2412 80.0521 88.2412C78.4834 88.2412 77.2118 89.5129 77.2118 91.0815C77.2118 92.6501 78.4834 93.9218 80.0521 93.9218Z" fill="#878787"/>
<path d="M113.143 93.9208C114.711 93.9208 115.983 92.6492 115.983 91.0805C115.983 89.5119 114.711 88.2402 113.143 88.2402C111.574 88.2402 110.302 89.5119 110.302 91.0805C110.302 92.6492 111.574 93.9208 113.143 93.9208Z" fill="#878787"/>
<path d="M124.171 93.9218C125.74 93.9218 127.012 92.6501 127.012 91.0815C127.012 89.5129 125.74 88.2412 124.171 88.2412C122.603 88.2412 121.331 89.5129 121.331 91.0815C121.331 92.6501 122.603 93.9218 124.171 93.9218Z" fill="#878787"/>
<path d="M135.204 93.9213C136.773 93.9213 138.044 92.6497 138.044 91.081C138.044 89.5124 136.773 88.2407 135.204 88.2407C133.635 88.2407 132.364 89.5124 132.364 91.081C132.364 92.6497 133.635 93.9213 135.204 93.9213Z" fill="#878787"/>
<path d="M151.748 93.9213C153.317 93.9213 154.589 92.6497 154.589 91.081C154.589 89.5124 153.317 88.2407 151.748 88.2407C150.18 88.2407 148.908 89.5124 148.908 91.081C148.908 92.6497 150.18 93.9213 151.748 93.9213Z" fill="#878787"/>
<path d="M157.262 93.9218C158.83 93.9218 160.102 92.6501 160.102 91.0815C160.102 89.5129 158.83 88.2412 157.262 88.2412C155.693 88.2412 154.421 89.5129 154.421 91.0815C154.421 92.6501 155.693 93.9218 157.262 93.9218Z" fill="#878787"/>
<path d="M24.9003 99.4369C26.469 99.4369 27.7406 98.1653 27.7406 96.5966C27.7406 95.028 26.469 93.7563 24.9003 93.7563C23.3317 93.7563 22.0601 95.028 22.0601 96.5966C22.0601 98.1653 23.3317 99.4369 24.9003 99.4369Z" fill="#878787"/>
<path d="M52.4771 99.4374C54.0458 99.4374 55.3174 98.1658 55.3174 96.5971C55.3174 95.0285 54.0458 93.7568 52.4771 93.7568C50.9085 93.7568 49.6368 95.0285 49.6368 96.5971C49.6368 98.1658 50.9085 99.4374 52.4771 99.4374Z" fill="#878787"/>
<path d="M63.5062 99.4374C65.0749 99.4374 66.3465 98.1658 66.3465 96.5971C66.3465 95.0285 65.0749 93.7568 63.5062 93.7568C61.9376 93.7568 60.666 95.0285 60.666 96.5971C60.666 98.1658 61.9376 99.4374 63.5062 99.4374Z" fill="#878787"/>
<path d="M69.0215 99.4369C70.5901 99.4369 71.8618 98.1653 71.8618 96.5966C71.8618 95.028 70.5901 93.7563 69.0215 93.7563C67.4529 93.7563 66.1812 95.028 66.1812 96.5966C66.1812 98.1653 67.4529 99.4369 69.0215 99.4369Z" fill="#878787"/>
<path d="M74.5363 99.4379C76.1049 99.4379 77.3766 98.1663 77.3766 96.5976C77.3766 95.029 76.1049 93.7573 74.5363 93.7573C72.9676 93.7573 71.696 95.029 71.696 96.5976C71.696 98.1663 72.9676 99.4379 74.5363 99.4379Z" fill="#878787"/>
<path d="M96.5965 99.4364C98.1652 99.4364 99.4368 98.1648 99.4368 96.5961C99.4368 95.0275 98.1652 93.7559 96.5965 93.7559C95.0279 93.7559 93.7562 95.0275 93.7562 96.5961C93.7562 98.1648 95.0279 99.4364 96.5965 99.4364Z" fill="#878787"/>
<path d="M102.112 99.4369C103.68 99.4369 104.952 98.1653 104.952 96.5966C104.952 95.028 103.68 93.7563 102.112 93.7563C100.543 93.7563 99.2715 95.028 99.2715 96.5966C99.2715 98.1653 100.543 99.4369 102.112 99.4369Z" fill="#878787"/>
<path d="M113.142 99.4364C114.711 99.4364 115.983 98.1648 115.983 96.5961C115.983 95.0275 114.711 93.7559 113.142 93.7559C111.574 93.7559 110.302 95.0275 110.302 96.5961C110.302 98.1648 111.574 99.4364 113.142 99.4364Z" fill="#878787"/>
<path d="M118.658 99.4364C120.227 99.4364 121.498 98.1648 121.498 96.5961C121.498 95.0275 120.227 93.7559 118.658 93.7559C117.089 93.7559 115.818 95.0275 115.818 96.5961C115.818 98.1648 117.089 99.4364 118.658 99.4364Z" fill="#878787"/>
<path d="M129.687 99.4369C131.255 99.4369 132.527 98.1653 132.527 96.5966C132.527 95.028 131.255 93.7563 129.687 93.7563C128.118 93.7563 126.846 95.028 126.846 96.5966C126.846 98.1653 128.118 99.4369 129.687 99.4369Z" fill="#878787"/>
<path d="M135.204 99.4369C136.772 99.4369 138.044 98.1653 138.044 96.5966C138.044 95.028 136.772 93.7563 135.204 93.7563C133.635 93.7563 132.363 95.028 132.363 96.5966C132.363 98.1653 133.635 99.4369 135.204 99.4369Z" fill="#878787"/>
<path d="M140.717 99.4364C142.286 99.4364 143.558 98.1648 143.558 96.5961C143.558 95.0275 142.286 93.7559 140.717 93.7559C139.149 93.7559 137.877 95.0275 137.877 96.5961C137.877 98.1648 139.149 99.4364 140.717 99.4364Z" fill="#878787"/>
<path d="M162.777 99.4369C164.346 99.4369 165.617 98.1653 165.617 96.5966C165.617 95.028 164.346 93.7563 162.777 93.7563C161.208 93.7563 159.937 95.028 159.937 96.5966C159.937 98.1653 161.208 99.4369 162.777 99.4369Z" fill="#878787"/>
<path d="M19.3854 104.952C20.954 104.952 22.2257 103.68 22.2257 102.111C22.2257 100.543 20.954 99.271 19.3854 99.271C17.8167 99.271 16.5451 100.543 16.5451 102.111C16.5451 103.68 17.8167 104.952 19.3854 104.952Z" fill="#878787"/>
<path d="M24.9005 104.951C26.4692 104.951 27.7408 103.679 27.7408 102.111C27.7408 100.542 26.4692 99.2705 24.9005 99.2705C23.3319 99.2705 22.0602 100.542 22.0602 102.111C22.0602 103.679 23.3319 104.951 24.9005 104.951Z" fill="#878787"/>
<path d="M30.4159 104.951C31.9846 104.951 33.2562 103.679 33.2562 102.111C33.2562 100.542 31.9846 99.2705 30.4159 99.2705C28.8473 99.2705 27.5756 100.542 27.5756 102.111C27.5756 103.679 28.8473 104.951 30.4159 104.951Z" fill="#878787"/>
<path d="M46.9601 104.952C48.5287 104.952 49.8004 103.68 49.8004 102.112C49.8004 100.543 48.5287 99.2715 46.9601 99.2715C45.3915 99.2715 44.1198 100.543 44.1198 102.112C44.1198 103.68 45.3915 104.952 46.9601 104.952Z" fill="#878787"/>
<path d="M52.4772 104.952C54.0458 104.952 55.3175 103.68 55.3175 102.112C55.3175 100.543 54.0458 99.2715 52.4772 99.2715C50.9085 99.2715 49.6369 100.543 49.6369 102.112C49.6369 103.68 50.9085 104.952 52.4772 104.952Z" fill="#878787"/>
<path d="M57.9903 104.953C59.559 104.953 60.8306 103.681 60.8306 102.113C60.8306 100.544 59.559 99.2725 57.9903 99.2725C56.4217 99.2725 55.15 100.544 55.15 102.113C55.15 103.681 56.4217 104.953 57.9903 104.953Z" fill="#878787"/>
<path d="M74.5351 104.952C76.1038 104.952 77.3754 103.68 77.3754 102.111C77.3754 100.543 76.1038 99.271 74.5351 99.271C72.9665 99.271 71.6948 100.543 71.6948 102.111C71.6948 103.68 72.9665 104.952 74.5351 104.952Z" fill="#878787"/>
<path d="M107.627 104.952C109.196 104.952 110.467 103.68 110.467 102.111C110.467 100.543 109.196 99.271 107.627 99.271C106.058 99.271 104.787 100.543 104.787 102.111C104.787 103.68 106.058 104.952 107.627 104.952Z" fill="#878787"/>
<path d="M124.171 104.952C125.74 104.952 127.012 103.68 127.012 102.111C127.012 100.543 125.74 99.271 124.171 99.271C122.603 99.271 121.331 100.543 121.331 102.111C121.331 103.68 122.603 104.952 124.171 104.952Z" fill="#878787"/>
<path d="M151.75 104.951C153.318 104.951 154.59 103.679 154.59 102.111C154.59 100.542 153.318 99.2705 151.75 99.2705C150.181 99.2705 148.909 100.542 148.909 102.111C148.909 103.679 150.181 104.951 151.75 104.951Z" fill="#878787"/>
<path d="M157.262 104.952C158.83 104.952 160.102 103.68 160.102 102.111C160.102 100.543 158.83 99.271 157.262 99.271C155.693 99.271 154.421 100.543 154.421 102.111C154.421 103.68 155.693 104.952 157.262 104.952Z" fill="#878787"/>
<path d="M13.87 110.467C15.4386 110.467 16.7102 109.195 16.7102 107.626C16.7102 106.058 15.4386 104.786 13.87 104.786C12.3013 104.786 11.0297 106.058 11.0297 107.626C11.0297 109.195 12.3013 110.467 13.87 110.467Z" fill="#878787"/>
<path d="M35.9329 110.466C37.5016 110.466 38.7732 109.195 38.7732 107.626C38.7732 106.057 37.5016 104.786 35.9329 104.786C34.3643 104.786 33.0927 106.057 33.0927 107.626C33.0927 109.195 34.3643 110.466 35.9329 110.466Z" fill="#878787"/>
<path d="M57.994 110.468C59.5626 110.468 60.8343 109.196 60.8343 107.627C60.8343 106.059 59.5626 104.787 57.994 104.787C56.4253 104.787 55.1537 106.059 55.1537 107.627C55.1537 109.196 56.4253 110.468 57.994 110.468Z" fill="#878787"/>
<path d="M80.052 110.467C81.6206 110.467 82.8922 109.196 82.8922 107.627C82.8922 106.058 81.6206 104.787 80.052 104.787C78.4833 104.787 77.2117 106.058 77.2117 107.627C77.2117 109.196 78.4833 110.467 80.052 110.467Z" fill="#878787"/>
<path d="M96.5964 110.467C98.165 110.467 99.4367 109.195 99.4367 107.626C99.4367 106.058 98.165 104.786 96.5964 104.786C95.0277 104.786 93.7561 106.058 93.7561 107.626C93.7561 109.195 95.0277 110.467 96.5964 110.467Z" fill="#878787"/>
<path d="M102.113 110.467C103.682 110.467 104.954 109.196 104.954 107.627C104.954 106.058 103.682 104.787 102.113 104.787C100.545 104.787 99.2729 106.058 99.2729 107.627C99.2729 109.196 100.545 110.467 102.113 110.467Z" fill="#878787"/>
<path d="M107.625 110.467C109.194 110.467 110.466 109.195 110.466 107.626C110.466 106.058 109.194 104.786 107.625 104.786C106.057 104.786 104.785 106.058 104.785 107.626C104.785 109.195 106.057 110.467 107.625 110.467Z" fill="#878787"/>
<path d="M113.141 110.466C114.71 110.466 115.981 109.194 115.981 107.625C115.981 106.057 114.71 104.785 113.141 104.785C111.572 104.785 110.301 106.057 110.301 107.625C110.301 109.194 111.572 110.466 113.141 110.466Z" fill="#878787"/>
<path d="M118.659 110.467C120.228 110.467 121.499 109.196 121.499 107.627C121.499 106.058 120.228 104.787 118.659 104.787C117.09 104.787 115.819 106.058 115.819 107.627C115.819 109.196 117.09 110.467 118.659 110.467Z" fill="#878787"/>
<path d="M124.175 110.468C125.743 110.468 127.015 109.196 127.015 107.627C127.015 106.059 125.743 104.787 124.175 104.787C122.606 104.787 121.334 106.059 121.334 107.627C121.334 109.196 122.606 110.468 124.175 110.468Z" fill="#878787"/>
<path d="M135.202 110.466C136.771 110.466 138.043 109.195 138.043 107.626C138.043 106.057 136.771 104.786 135.202 104.786C133.634 104.786 132.362 106.057 132.362 107.626C132.362 109.195 133.634 110.466 135.202 110.466Z" fill="#878787"/>
<path d="M146.233 110.466C147.801 110.466 149.073 109.195 149.073 107.626C149.073 106.057 147.801 104.786 146.233 104.786C144.664 104.786 143.392 106.057 143.392 107.626C143.392 109.195 144.664 110.466 146.233 110.466Z" fill="#878787"/>
<path d="M157.263 110.467C158.832 110.467 160.104 109.196 160.104 107.627C160.104 106.058 158.832 104.787 157.263 104.787C155.695 104.787 154.423 106.058 154.423 107.627C154.423 109.196 155.695 110.467 157.263 110.467Z" fill="#878787"/>
<path d="M168.294 110.467C169.863 110.467 171.134 109.195 171.134 107.626C171.134 106.058 169.863 104.786 168.294 104.786C166.725 104.786 165.454 106.058 165.454 107.626C165.454 109.195 166.725 110.467 168.294 110.467Z" fill="#878787"/>
<path d="M13.8695 115.982C15.4381 115.982 16.7098 114.711 16.7098 113.142C16.7098 111.573 15.4381 110.302 13.8695 110.302C12.3008 110.302 11.0292 111.573 11.0292 113.142C11.0292 114.711 12.3008 115.982 13.8695 115.982Z" fill="#878787"/>
<path d="M41.4446 115.982C43.0132 115.982 44.2849 114.71 44.2849 113.142C44.2849 111.573 43.0132 110.301 41.4446 110.301C39.8759 110.301 38.6043 111.573 38.6043 113.142C38.6043 114.71 39.8759 115.982 41.4446 115.982Z" fill="#878787"/>
<path d="M46.9603 115.981C48.529 115.981 49.8006 114.709 49.8006 113.141C49.8006 111.572 48.529 110.3 46.9603 110.3C45.3917 110.3 44.1201 111.572 44.1201 113.141C44.1201 114.709 45.3917 115.981 46.9603 115.981Z" fill="#878787"/>
<path d="M57.9891 115.981C59.5577 115.981 60.8294 114.71 60.8294 113.141C60.8294 111.572 59.5577 110.301 57.9891 110.301C56.4204 110.301 55.1488 111.572 55.1488 113.141C55.1488 114.71 56.4204 115.981 57.9891 115.981Z" fill="#878787"/>
<path d="M69.0228 115.983C70.5915 115.983 71.8631 114.711 71.8631 113.143C71.8631 111.574 70.5915 110.302 69.0228 110.302C67.4542 110.302 66.1826 111.574 66.1826 113.143C66.1826 114.711 67.4542 115.983 69.0228 115.983Z" fill="#878787"/>
<path d="M91.0826 115.982C92.6512 115.982 93.9229 114.711 93.9229 113.142C93.9229 111.573 92.6512 110.302 91.0826 110.302C89.5139 110.302 88.2423 111.573 88.2423 113.142C88.2423 114.711 89.5139 115.982 91.0826 115.982Z" fill="#878787"/>
<path d="M113.142 115.982C114.711 115.982 115.983 114.711 115.983 113.142C115.983 111.573 114.711 110.302 113.142 110.302C111.574 110.302 110.302 111.573 110.302 113.142C110.302 114.711 111.574 115.982 113.142 115.982Z" fill="#878787"/>
<path d="M124.173 115.983C125.742 115.983 127.013 114.711 127.013 113.143C127.013 111.574 125.742 110.302 124.173 110.302C122.604 110.302 121.333 111.574 121.333 113.143C121.333 114.711 122.604 115.983 124.173 115.983Z" fill="#878787"/>
<path d="M140.719 115.983C142.287 115.983 143.559 114.711 143.559 113.143C143.559 111.574 142.287 110.302 140.719 110.302C139.15 110.302 137.879 111.574 137.879 113.143C137.879 114.711 139.15 115.983 140.719 115.983Z" fill="#878787"/>
<path d="M146.231 115.981C147.8 115.981 149.072 114.71 149.072 113.141C149.072 111.572 147.8 110.301 146.231 110.301C144.663 110.301 143.391 111.572 143.391 113.141C143.391 114.71 144.663 115.981 146.231 115.981Z" fill="#878787"/>
<path d="M157.265 115.982C158.834 115.982 160.105 114.711 160.105 113.142C160.105 111.573 158.834 110.302 157.265 110.302C155.696 110.302 154.425 111.573 154.425 113.142C154.425 114.711 155.696 115.982 157.265 115.982Z" fill="#878787"/>
<path d="M13.8696 121.497C15.4383 121.497 16.7099 120.225 16.7099 118.657C16.7099 117.088 15.4383 115.816 13.8696 115.816C12.301 115.816 11.0294 117.088 11.0294 118.657C11.0294 120.225 12.301 121.497 13.8696 121.497Z" fill="#878787"/>
<path d="M41.4479 121.498C43.0165 121.498 44.2882 120.226 44.2882 118.658C44.2882 117.089 43.0165 115.817 41.4479 115.817C39.8792 115.817 38.6076 117.089 38.6076 118.658C38.6076 120.226 39.8792 121.498 41.4479 121.498Z" fill="#878787"/>
<path d="M52.4754 121.497C54.0441 121.497 55.3157 120.226 55.3157 118.657C55.3157 117.089 54.0441 115.817 52.4754 115.817C50.9068 115.817 49.6351 117.089 49.6351 118.657C49.6351 120.226 50.9068 121.497 52.4754 121.497Z" fill="#878787"/>
<path d="M57.9911 121.496C59.5598 121.496 60.8314 120.225 60.8314 118.656C60.8314 117.088 59.5598 115.816 57.9911 115.816C56.4225 115.816 55.1508 117.088 55.1508 118.656C55.1508 120.225 56.4225 121.496 57.9911 121.496Z" fill="#878787"/>
<path d="M69.0199 121.497C70.5885 121.497 71.8601 120.225 71.8601 118.657C71.8601 117.088 70.5885 115.816 69.0199 115.816C67.4512 115.816 66.1796 117.088 66.1796 118.657C66.1796 120.225 67.4512 121.497 69.0199 121.497Z" fill="#878787"/>
<path d="M80.0519 121.497C81.6205 121.497 82.8922 120.225 82.8922 118.657C82.8922 117.088 81.6205 115.816 80.0519 115.816C78.4832 115.816 77.2116 117.088 77.2116 118.657C77.2116 120.225 78.4832 121.497 80.0519 121.497Z" fill="#878787"/>
<path d="M85.5672 121.498C87.1358 121.498 88.4074 120.226 88.4074 118.658C88.4074 117.089 87.1358 115.817 85.5672 115.817C83.9985 115.817 82.7269 117.089 82.7269 118.658C82.7269 120.226 83.9985 121.498 85.5672 121.498Z" fill="#878787"/>
<path d="M96.5947 121.497C98.1633 121.497 99.435 120.225 99.435 118.657C99.435 117.088 98.1633 115.816 96.5947 115.816C95.026 115.816 93.7544 117.088 93.7544 118.657C93.7544 120.225 95.026 121.497 96.5947 121.497Z" fill="#878787"/>
<path d="M124.173 121.497C125.742 121.497 127.013 120.225 127.013 118.657C127.013 117.088 125.742 115.816 124.173 115.816C122.604 115.816 121.333 117.088 121.333 118.657C121.333 120.225 122.604 121.497 124.173 121.497Z" fill="#878787"/>
<path d="M129.687 121.496C131.255 121.496 132.527 120.225 132.527 118.656C132.527 117.088 131.255 115.816 129.687 115.816C128.118 115.816 126.846 117.088 126.846 118.656C126.846 120.225 128.118 121.496 129.687 121.496Z" fill="#878787"/>
<path d="M140.717 121.497C142.286 121.497 143.558 120.225 143.558 118.657C143.558 117.088 142.286 115.816 140.717 115.816C139.149 115.816 137.877 117.088 137.877 118.657C137.877 120.225 139.149 121.497 140.717 121.497Z" fill="#878787"/>
<path d="M146.233 121.497C147.801 121.497 149.073 120.225 149.073 118.657C149.073 117.088 147.801 115.816 146.233 115.816C144.664 115.816 143.392 117.088 143.392 118.657C143.392 120.225 144.664 121.497 146.233 121.497Z" fill="#878787"/>
<path d="M162.777 121.496C164.346 121.496 165.617 120.225 165.617 118.656C165.617 117.088 164.346 115.816 162.777 115.816C161.208 115.816 159.937 117.088 159.937 118.656C159.937 120.225 161.208 121.496 162.777 121.496Z" fill="#878787"/>
<path d="M13.8698 127.012C15.4384 127.012 16.7101 125.74 16.7101 124.171C16.7101 122.603 15.4384 121.331 13.8698 121.331C12.3011 121.331 11.0295 122.603 11.0295 124.171C11.0295 125.74 12.3011 127.012 13.8698 127.012Z" fill="#878787"/>
<path d="M24.9005 127.013C26.4691 127.013 27.7408 125.741 27.7408 124.172C27.7408 122.604 26.4691 121.332 24.9005 121.332C23.3318 121.332 22.0602 122.604 22.0602 124.172C22.0602 125.741 23.3318 127.013 24.9005 127.013Z" fill="#878787"/>
<path d="M41.4466 127.012C43.0153 127.012 44.2869 125.74 44.2869 124.172C44.2869 122.603 43.0153 121.332 41.4466 121.332C39.878 121.332 38.6063 122.603 38.6063 124.172C38.6063 125.74 39.878 127.012 41.4466 127.012Z" fill="#878787"/>
<path d="M46.9586 127.011C48.5273 127.011 49.7989 125.74 49.7989 124.171C49.7989 122.602 48.5273 121.331 46.9586 121.331C45.39 121.331 44.1183 122.602 44.1183 124.171C44.1183 125.74 45.39 127.011 46.9586 127.011Z" fill="#878787"/>
<path d="M52.4768 127.013C54.0454 127.013 55.3171 125.741 55.3171 124.173C55.3171 122.604 54.0454 121.333 52.4768 121.333C50.9081 121.333 49.6365 122.604 49.6365 124.173C49.6365 125.741 50.9081 127.013 52.4768 127.013Z" fill="#878787"/>
<path d="M57.9922 127.013C59.5609 127.013 60.8325 125.741 60.8325 124.173C60.8325 122.604 59.5609 121.333 57.9922 121.333C56.4236 121.333 55.1519 122.604 55.1519 124.173C55.1519 125.741 56.4236 127.013 57.9922 127.013Z" fill="#878787"/>
<path d="M80.0518 127.012C81.6205 127.012 82.8921 125.74 82.8921 124.172C82.8921 122.603 81.6205 121.332 80.0518 121.332C78.4832 121.332 77.2115 122.603 77.2115 124.172C77.2115 125.74 78.4832 127.012 80.0518 127.012Z" fill="#878787"/>
<path d="M85.5673 127.012C87.1359 127.012 88.4076 125.74 88.4076 124.172C88.4076 122.603 87.1359 121.332 85.5673 121.332C83.9986 121.332 82.727 122.603 82.727 124.172C82.727 125.74 83.9986 127.012 85.5673 127.012Z" fill="#878787"/>
<path d="M107.627 127.012C109.196 127.012 110.467 125.74 110.467 124.172C110.467 122.603 109.196 121.332 107.627 121.332C106.058 121.332 104.787 122.603 104.787 124.172C104.787 125.74 106.058 127.012 107.627 127.012Z" fill="#878787"/>
<path d="M124.173 127.012C125.742 127.012 127.013 125.74 127.013 124.172C127.013 122.603 125.742 121.332 124.173 121.332C122.604 121.332 121.333 122.603 121.333 124.172C121.333 125.74 122.604 127.012 124.173 127.012Z" fill="#878787"/>
<path d="M129.686 127.012C131.255 127.012 132.527 125.74 132.527 124.172C132.527 122.603 131.255 121.332 129.686 121.332C128.118 121.332 126.846 122.603 126.846 124.172C126.846 125.74 128.118 127.012 129.686 127.012Z" fill="#878787"/>
<path d="M135.202 127.011C136.771 127.011 138.042 125.74 138.042 124.171C138.042 122.602 136.771 121.331 135.202 121.331C133.633 121.331 132.362 122.602 132.362 124.171C132.362 125.74 133.633 127.011 135.202 127.011Z" fill="#878787"/>
<path d="M140.719 127.013C142.287 127.013 143.559 125.741 143.559 124.172C143.559 122.604 142.287 121.332 140.719 121.332C139.15 121.332 137.879 122.604 137.879 124.172C137.879 125.741 139.15 127.013 140.719 127.013Z" fill="#878787"/>
<path d="M146.234 127.013C147.803 127.013 149.075 125.741 149.075 124.172C149.075 122.604 147.803 121.332 146.234 121.332C144.666 121.332 143.394 122.604 143.394 124.172C143.394 125.741 144.666 127.013 146.234 127.013Z" fill="#878787"/>
<path d="M157.263 127.012C158.832 127.012 160.103 125.74 160.103 124.172C160.103 122.603 158.832 121.332 157.263 121.332C155.694 121.332 154.423 122.603 154.423 124.172C154.423 125.74 155.694 127.012 157.263 127.012Z" fill="#878787"/>
<path d="M162.777 127.011C164.346 127.011 165.617 125.74 165.617 124.171C165.617 122.602 164.346 121.331 162.777 121.331C161.208 121.331 159.937 122.602 159.937 124.171C159.937 125.74 161.208 127.011 162.777 127.011Z" fill="#878787"/>
<path d="M168.294 127.012C169.862 127.012 171.134 125.74 171.134 124.172C171.134 122.603 169.862 121.332 168.294 121.332C166.725 121.332 165.453 122.603 165.453 124.172C165.453 125.74 166.725 127.012 168.294 127.012Z" fill="#878787"/>
<path d="M57.991 132.527C59.5597 132.527 60.8313 131.255 60.8313 129.686C60.8313 128.118 59.5597 126.846 57.991 126.846C56.4224 126.846 55.1508 128.118 55.1508 129.686C55.1508 131.255 56.4224 132.527 57.991 132.527Z" fill="#878787"/>
<path d="M63.5058 132.527C65.0745 132.527 66.3461 131.256 66.3461 129.687C66.3461 128.118 65.0745 126.847 63.5058 126.847C61.9372 126.847 60.6655 128.118 60.6655 129.687C60.6655 131.256 61.9372 132.527 63.5058 132.527Z" fill="#878787"/>
<path d="M69.0213 132.527C70.5899 132.527 71.8615 131.256 71.8615 129.687C71.8615 128.118 70.5899 126.847 69.0213 126.847C67.4526 126.847 66.181 128.118 66.181 129.687C66.181 131.256 67.4526 132.527 69.0213 132.527Z" fill="#878787"/>
<path d="M85.5672 132.528C87.1359 132.528 88.4075 131.256 88.4075 129.687C88.4075 128.119 87.1359 126.847 85.5672 126.847C83.9986 126.847 82.7269 128.119 82.7269 129.687C82.7269 131.256 83.9986 132.528 85.5672 132.528Z" fill="#878787"/>
<path d="M91.0827 132.527C92.6514 132.527 93.923 131.255 93.923 129.686C93.923 128.118 92.6514 126.846 91.0827 126.846C89.5141 126.846 88.2424 128.118 88.2424 129.686C88.2424 131.255 89.5141 132.527 91.0827 132.527Z" fill="#878787"/>
<path d="M96.5979 132.529C98.1665 132.529 99.4381 131.257 99.4381 129.688C99.4381 128.12 98.1665 126.848 96.5979 126.848C95.0292 126.848 93.7576 128.12 93.7576 129.688C93.7576 131.257 95.0292 132.529 96.5979 132.529Z" fill="#878787"/>
<path d="M107.627 132.528C109.196 132.528 110.467 131.256 110.467 129.687C110.467 128.119 109.196 126.847 107.627 126.847C106.058 126.847 104.787 128.119 104.787 129.687C104.787 131.256 106.058 132.528 107.627 132.528Z" fill="#878787"/>
<path d="M113.141 132.526C114.709 132.526 115.981 131.255 115.981 129.686C115.981 128.117 114.709 126.846 113.141 126.846C111.572 126.846 110.3 128.117 110.3 129.686C110.3 131.255 111.572 132.526 113.141 132.526Z" fill="#878787"/>
<path d="M124.173 132.528C125.742 132.528 127.013 131.256 127.013 129.687C127.013 128.119 125.742 126.847 124.173 126.847C122.604 126.847 121.333 128.119 121.333 129.687C121.333 131.256 122.604 132.528 124.173 132.528Z" fill="#878787"/>
<path d="M146.234 132.527C147.803 132.527 149.075 131.256 149.075 129.687C149.075 128.118 147.803 126.847 146.234 126.847C144.666 126.847 143.394 128.118 143.394 129.687C143.394 131.256 144.666 132.527 146.234 132.527Z" fill="#878787"/>
<path d="M151.748 132.528C153.316 132.528 154.588 131.256 154.588 129.687C154.588 128.119 153.316 126.847 151.748 126.847C150.179 126.847 148.907 128.119 148.907 129.687C148.907 131.256 150.179 132.528 151.748 132.528Z" fill="#878787"/>
<path d="M157.263 132.527C158.832 132.527 160.104 131.255 160.104 129.686C160.104 128.118 158.832 126.846 157.263 126.846C155.695 126.846 154.423 128.118 154.423 129.686C154.423 131.255 155.695 132.527 157.263 132.527Z" fill="#878787"/>
<path d="M162.779 132.528C164.347 132.528 165.619 131.256 165.619 129.687C165.619 128.119 164.347 126.847 162.779 126.847C161.21 126.847 159.938 128.119 159.938 129.687C159.938 131.256 161.21 132.528 162.779 132.528Z" fill="#878787"/>
<path d="M168.292 132.527C169.861 132.527 171.133 131.255 171.133 129.686C171.133 128.118 169.861 126.846 168.292 126.846C166.724 126.846 165.452 128.118 165.452 129.686C165.452 131.255 166.724 132.527 168.292 132.527Z" fill="#878787"/>
<path d="M57.9905 138.043C59.5591 138.043 60.8308 136.772 60.8308 135.203C60.8308 133.634 59.5591 132.363 57.9905 132.363C56.4218 132.363 55.1502 133.634 55.1502 135.203C55.1502 136.772 56.4218 138.043 57.9905 138.043Z" fill="#878787"/>
<path d="M63.5079 138.042C65.0765 138.042 66.3482 136.771 66.3482 135.202C66.3482 133.633 65.0765 132.362 63.5079 132.362C61.9392 132.362 60.6676 133.633 60.6676 135.202C60.6676 136.771 61.9392 138.042 63.5079 138.042Z" fill="#878787"/>
<path d="M74.5368 138.042C76.1055 138.042 77.3771 136.77 77.3771 135.202C77.3771 133.633 76.1055 132.361 74.5368 132.361C72.9682 132.361 71.6965 133.633 71.6965 135.202C71.6965 136.77 72.9682 138.042 74.5368 138.042Z" fill="#878787"/>
<path d="M80.0518 138.043C81.6205 138.043 82.8921 136.772 82.8921 135.203C82.8921 133.634 81.6205 132.363 80.0518 132.363C78.4832 132.363 77.2115 133.634 77.2115 135.203C77.2115 136.772 78.4832 138.043 80.0518 138.043Z" fill="#878787"/>
<path d="M91.0827 138.042C92.6514 138.042 93.923 136.77 93.923 135.202C93.923 133.633 92.6514 132.361 91.0827 132.361C89.5141 132.361 88.2424 133.633 88.2424 135.202C88.2424 136.77 89.5141 138.042 91.0827 138.042Z" fill="#878787"/>
<path d="M96.5981 138.042C98.1667 138.042 99.4384 136.771 99.4384 135.202C99.4384 133.633 98.1667 132.362 96.5981 132.362C95.0295 132.362 93.7578 133.633 93.7578 135.202C93.7578 136.771 95.0295 138.042 96.5981 138.042Z" fill="#878787"/>
<path d="M107.627 138.043C109.196 138.043 110.467 136.771 110.467 135.203C110.467 133.634 109.196 132.362 107.627 132.362C106.059 132.362 104.787 133.634 104.787 135.203C104.787 136.771 106.059 138.043 107.627 138.043Z" fill="#878787"/>
<path d="M118.656 138.042C120.225 138.042 121.496 136.771 121.496 135.202C121.496 133.633 120.225 132.362 118.656 132.362C117.087 132.362 115.816 133.633 115.816 135.202C115.816 136.771 117.087 138.042 118.656 138.042Z" fill="#878787"/>
<path d="M124.173 138.042C125.742 138.042 127.013 136.77 127.013 135.202C127.013 133.633 125.742 132.361 124.173 132.361C122.604 132.361 121.333 133.633 121.333 135.202C121.333 136.77 122.604 138.042 124.173 138.042Z" fill="#878787"/>
<path d="M135.202 138.042C136.771 138.042 138.042 136.77 138.042 135.202C138.042 133.633 136.771 132.361 135.202 132.361C133.633 132.361 132.362 133.633 132.362 135.202C132.362 136.77 133.633 138.042 135.202 138.042Z" fill="#878787"/>
<path d="M146.233 138.043C147.801 138.043 149.073 136.771 149.073 135.203C149.073 133.634 147.801 132.362 146.233 132.362C144.664 132.362 143.392 133.634 143.392 135.203C143.392 136.771 144.664 138.043 146.233 138.043Z" fill="#878787"/>
<path d="M151.748 138.041C153.317 138.041 154.588 136.77 154.588 135.201C154.588 133.632 153.317 132.361 151.748 132.361C150.179 132.361 148.908 133.632 148.908 135.201C148.908 136.77 150.179 138.041 151.748 138.041Z" fill="#878787"/>
<path d="M157.263 138.042C158.832 138.042 160.104 136.77 160.104 135.202C160.104 133.633 158.832 132.361 157.263 132.361C155.695 132.361 154.423 133.633 154.423 135.202C154.423 136.77 155.695 138.042 157.263 138.042Z" fill="#878787"/>
<path d="M74.5367 143.557C76.1053 143.557 77.377 142.285 77.377 140.717C77.377 139.148 76.1053 137.876 74.5367 137.876C72.9681 137.876 71.6964 139.148 71.6964 140.717C71.6964 142.285 72.9681 143.557 74.5367 143.557Z" fill="#878787"/>
<path d="M113.144 143.559C114.712 143.559 115.984 142.287 115.984 140.718C115.984 139.15 114.712 137.878 113.144 137.878C111.575 137.878 110.303 139.15 110.303 140.718C110.303 142.287 111.575 143.559 113.144 143.559Z" fill="#878787"/>
<path d="M118.656 143.557C120.225 143.557 121.496 142.285 121.496 140.717C121.496 139.148 120.225 137.876 118.656 137.876C117.087 137.876 115.816 139.148 115.816 140.717C115.816 142.285 117.087 143.557 118.656 143.557Z" fill="#878787"/>
<path d="M124.171 143.558C125.74 143.558 127.012 142.286 127.012 140.717C127.012 139.149 125.74 137.877 124.171 137.877C122.603 137.877 121.331 139.149 121.331 140.717C121.331 142.286 122.603 143.558 124.171 143.558Z" fill="#878787"/>
<path d="M146.233 143.558C147.801 143.558 149.073 142.286 149.073 140.717C149.073 139.149 147.801 137.877 146.233 137.877C144.664 137.877 143.392 139.149 143.392 140.717C143.392 142.286 144.664 143.558 146.233 143.558Z" fill="#878787"/>
<path d="M162.778 143.559C164.347 143.559 165.619 142.287 165.619 140.718C165.619 139.15 164.347 137.878 162.778 137.878C161.21 137.878 159.938 139.15 159.938 140.718C159.938 142.287 161.21 143.559 162.778 143.559Z" fill="#878787"/>
<path d="M57.9907 149.073C59.5594 149.073 60.831 147.801 60.831 146.232C60.831 144.664 59.5594 143.392 57.9907 143.392C56.4221 143.392 55.1505 144.664 55.1505 146.232C55.1505 147.801 56.4221 149.073 57.9907 149.073Z" fill="#878787"/>
<path d="M63.5076 149.073C65.0762 149.073 66.3479 147.801 66.3479 146.232C66.3479 144.664 65.0762 143.392 63.5076 143.392C61.9389 143.392 60.6673 144.664 60.6673 146.232C60.6673 147.801 61.9389 149.073 63.5076 149.073Z" fill="#878787"/>
<path d="M74.5366 149.072C76.1053 149.072 77.3769 147.801 77.3769 146.232C77.3769 144.663 76.1053 143.392 74.5366 143.392C72.968 143.392 71.6964 144.663 71.6964 146.232C71.6964 147.801 72.968 149.072 74.5366 149.072Z" fill="#878787"/>
<path d="M96.5964 149.073C98.165 149.073 99.4367 147.801 99.4367 146.232C99.4367 144.664 98.165 143.392 96.5964 143.392C95.0277 143.392 93.7561 144.664 93.7561 146.232C93.7561 147.801 95.0277 149.073 96.5964 149.073Z" fill="#878787"/>
<path d="M107.628 149.074C109.197 149.074 110.468 147.802 110.468 146.233C110.468 144.665 109.197 143.393 107.628 143.393C106.059 143.393 104.788 144.665 104.788 146.233C104.788 147.802 106.059 149.074 107.628 149.074Z" fill="#878787"/>
<path d="M113.142 149.073C114.711 149.073 115.982 147.802 115.982 146.233C115.982 144.664 114.711 143.393 113.142 143.393C111.573 143.393 110.302 144.664 110.302 146.233C110.302 147.802 111.573 149.073 113.142 149.073Z" fill="#878787"/>
<path d="M124.173 149.073C125.741 149.073 127.013 147.801 127.013 146.232C127.013 144.664 125.741 143.392 124.173 143.392C122.604 143.392 121.333 144.664 121.333 146.232C121.333 147.801 122.604 149.073 124.173 149.073Z" fill="#878787"/>
<path d="M129.688 149.072C131.257 149.072 132.529 147.801 132.529 146.232C132.529 144.663 131.257 143.392 129.688 143.392C128.12 143.392 126.848 144.663 126.848 146.232C126.848 147.801 128.12 149.072 129.688 149.072Z" fill="#878787"/>
<path d="M135.201 149.073C136.77 149.073 138.042 147.802 138.042 146.233C138.042 144.664 136.77 143.393 135.201 143.393C133.633 143.393 132.361 144.664 132.361 146.233C132.361 147.802 133.633 149.073 135.201 149.073Z" fill="#878787"/>
<path d="M140.717 149.073C142.286 149.073 143.557 147.801 143.557 146.232C143.557 144.664 142.286 143.392 140.717 143.392C139.148 143.392 137.877 144.664 137.877 146.232C137.877 147.801 139.148 149.073 140.717 149.073Z" fill="#878787"/>
<path d="M146.234 149.073C147.803 149.073 149.074 147.802 149.074 146.233C149.074 144.664 147.803 143.393 146.234 143.393C144.665 143.393 143.394 144.664 143.394 146.233C143.394 147.802 144.665 149.073 146.234 149.073Z" fill="#878787"/>
<path d="M157.262 149.073C158.83 149.073 160.102 147.801 160.102 146.232C160.102 144.664 158.83 143.392 157.262 143.392C155.693 143.392 154.421 144.664 154.421 146.232C154.421 147.801 155.693 149.073 157.262 149.073Z" fill="#878787"/>
<path d="M168.295 149.074C169.864 149.074 171.136 147.802 171.136 146.233C171.136 144.665 169.864 143.393 168.295 143.393C166.727 143.393 165.455 144.665 165.455 146.233C165.455 147.802 166.727 149.074 168.295 149.074Z" fill="#878787"/>
<path d="M57.992 154.588C59.5607 154.588 60.8323 153.317 60.8323 151.748C60.8323 150.179 59.5607 148.908 57.992 148.908C56.4234 148.908 55.1517 150.179 55.1517 151.748C55.1517 153.317 56.4234 154.588 57.992 154.588Z" fill="#878787"/>
<path d="M80.0519 154.588C81.6205 154.588 82.8922 153.316 82.8922 151.748C82.8922 150.179 81.6205 148.907 80.0519 148.907C78.4832 148.907 77.2116 150.179 77.2116 151.748C77.2116 153.316 78.4832 154.588 80.0519 154.588Z" fill="#878787"/>
<path d="M85.5654 154.587C87.1341 154.587 88.4057 153.316 88.4057 151.747C88.4057 150.178 87.1341 148.907 85.5654 148.907C83.9968 148.907 82.7252 150.178 82.7252 151.747C82.7252 153.316 83.9968 154.587 85.5654 154.587Z" fill="#878787"/>
<path d="M102.113 154.588C103.682 154.588 104.954 153.317 104.954 151.748C104.954 150.179 103.682 148.908 102.113 148.908C100.545 148.908 99.2729 150.179 99.2729 151.748C99.2729 153.317 100.545 154.588 102.113 154.588Z" fill="#878787"/>
<path d="M113.142 154.588C114.711 154.588 115.982 153.317 115.982 151.748C115.982 150.179 114.711 148.908 113.142 148.908C111.574 148.908 110.302 150.179 110.302 151.748C110.302 153.317 111.574 154.588 113.142 154.588Z" fill="#878787"/>
<path d="M124.172 154.589C125.741 154.589 127.013 153.317 127.013 151.748C127.013 150.18 125.741 148.908 124.172 148.908C122.604 148.908 121.332 150.18 121.332 151.748C121.332 153.317 122.604 154.589 124.172 154.589Z" fill="#878787"/>
<path d="M140.717 154.588C142.286 154.588 143.557 153.316 143.557 151.748C143.557 150.179 142.286 148.907 140.717 148.907C139.148 148.907 137.877 150.179 137.877 151.748C137.877 153.316 139.148 154.588 140.717 154.588Z" fill="#878787"/>
<path d="M151.748 154.588C153.317 154.588 154.588 153.317 154.588 151.748C154.588 150.179 153.317 148.908 151.748 148.908C150.179 148.908 148.908 150.179 148.908 151.748C148.908 153.317 150.179 154.588 151.748 154.588Z" fill="#878787"/>
<path d="M157.263 154.589C158.832 154.589 160.103 153.317 160.103 151.748C160.103 150.18 158.832 148.908 157.263 148.908C155.694 148.908 154.423 150.18 154.423 151.748C154.423 153.317 155.694 154.589 157.263 154.589Z" fill="#878787"/>
<path d="M57.9905 160.103C59.5591 160.103 60.8308 158.831 60.8308 157.263C60.8308 155.694 59.5591 154.422 57.9905 154.422C56.4218 154.422 55.1502 155.694 55.1502 157.263C55.1502 158.831 56.4218 160.103 57.9905 160.103Z" fill="#878787"/>
<path d="M63.5074 160.103C65.0761 160.103 66.3477 158.832 66.3477 157.263C66.3477 155.694 65.0761 154.423 63.5074 154.423C61.9388 154.423 60.6671 155.694 60.6671 157.263C60.6671 158.832 61.9388 160.103 63.5074 160.103Z" fill="#878787"/>
<path d="M85.5674 160.102C87.136 160.102 88.4077 158.831 88.4077 157.262C88.4077 155.694 87.136 154.422 85.5674 154.422C83.9988 154.422 82.7271 155.694 82.7271 157.262C82.7271 158.831 83.9988 160.102 85.5674 160.102Z" fill="#878787"/>
<path d="M91.082 160.103C92.6506 160.103 93.9223 158.832 93.9223 157.263C93.9223 155.694 92.6506 154.423 91.082 154.423C89.5133 154.423 88.2417 155.694 88.2417 157.263C88.2417 158.832 89.5133 160.103 91.082 160.103Z" fill="#878787"/>
<path d="M96.5979 160.103C98.1665 160.103 99.4381 158.831 99.4381 157.263C99.4381 155.694 98.1665 154.422 96.5979 154.422C95.0292 154.422 93.7576 155.694 93.7576 157.263C93.7576 158.831 95.0292 160.103 96.5979 160.103Z" fill="#878787"/>
<path d="M102.112 160.103C103.68 160.103 104.952 158.832 104.952 157.263C104.952 155.694 103.68 154.423 102.112 154.423C100.543 154.423 99.2712 155.694 99.2712 157.263C99.2712 158.832 100.543 160.103 102.112 160.103Z" fill="#878787"/>
<path d="M113.142 160.103C114.711 160.103 115.982 158.832 115.982 157.263C115.982 155.694 114.711 154.423 113.142 154.423C111.573 154.423 110.302 155.694 110.302 157.263C110.302 158.832 111.573 160.103 113.142 160.103Z" fill="#878787"/>
<path d="M129.688 160.103C131.257 160.103 132.528 158.831 132.528 157.263C132.528 155.694 131.257 154.422 129.688 154.422C128.12 154.422 126.848 155.694 126.848 157.263C126.848 158.831 128.12 160.103 129.688 160.103Z" fill="#878787"/>
<path d="M135.204 160.103C136.772 160.103 138.044 158.831 138.044 157.263C138.044 155.694 136.772 154.422 135.204 154.422C133.635 154.422 132.363 155.694 132.363 157.263C132.363 158.831 133.635 160.103 135.204 160.103Z" fill="#878787"/>
<path d="M140.717 160.102C142.286 160.102 143.558 158.831 143.558 157.262C143.558 155.694 142.286 154.422 140.717 154.422C139.149 154.422 137.877 155.694 137.877 157.262C137.877 158.831 139.149 160.102 140.717 160.102Z" fill="#878787"/>
<path d="M146.233 160.102C147.801 160.102 149.073 158.831 149.073 157.262C149.073 155.694 147.801 154.422 146.233 154.422C144.664 154.422 143.392 155.694 143.392 157.262C143.392 158.831 144.664 160.102 146.233 160.102Z" fill="#878787"/>
<path d="M151.749 160.103C153.318 160.103 154.59 158.831 154.59 157.263C154.59 155.694 153.318 154.422 151.749 154.422C150.181 154.422 148.909 155.694 148.909 157.263C148.909 158.831 150.181 160.103 151.749 160.103Z" fill="#878787"/>
<path d="M157.263 160.102C158.832 160.102 160.103 158.831 160.103 157.262C160.103 155.694 158.832 154.422 157.263 154.422C155.694 154.422 154.423 155.694 154.423 157.262C154.423 158.831 155.694 160.102 157.263 160.102Z" fill="#878787"/>
<path d="M162.778 160.104C164.347 160.104 165.618 158.832 165.618 157.264C165.618 155.695 164.347 154.423 162.778 154.423C161.21 154.423 159.938 155.695 159.938 157.264C159.938 158.832 161.21 160.104 162.778 160.104Z" fill="#878787"/>
<path d="M57.9906 165.618C59.5592 165.618 60.8308 164.346 60.8308 162.777C60.8308 161.209 59.5592 159.937 57.9906 159.937C56.4219 159.937 55.1503 161.209 55.1503 162.777C55.1503 164.346 56.4219 165.618 57.9906 165.618Z" fill="#878787"/>
<path d="M63.5058 165.619C65.0745 165.619 66.3461 164.347 66.3461 162.778C66.3461 161.21 65.0745 159.938 63.5058 159.938C61.9372 159.938 60.6655 161.21 60.6655 162.778C60.6655 164.347 61.9372 165.619 63.5058 165.619Z" fill="#878787"/>
<path d="M80.0521 165.617C81.6208 165.617 82.8924 164.345 82.8924 162.777C82.8924 161.208 81.6208 159.937 80.0521 159.937C78.4835 159.937 77.2119 161.208 77.2119 162.777C77.2119 164.345 78.4835 165.617 80.0521 165.617Z" fill="#878787"/>
<path d="M85.5673 165.618C87.136 165.618 88.4076 164.346 88.4076 162.777C88.4076 161.209 87.136 159.937 85.5673 159.937C83.9987 159.937 82.7271 161.209 82.7271 162.777C82.7271 164.346 83.9987 165.618 85.5673 165.618Z" fill="#878787"/>
<path d="M96.5977 165.619C98.1664 165.619 99.438 164.347 99.438 162.779C99.438 161.21 98.1664 159.938 96.5977 159.938C95.0291 159.938 93.7574 161.21 93.7574 162.779C93.7574 164.347 95.0291 165.619 96.5977 165.619Z" fill="#878787"/>
<path d="M102.113 165.619C103.682 165.619 104.953 164.347 104.953 162.778C104.953 161.21 103.682 159.938 102.113 159.938C100.544 159.938 99.2727 161.21 99.2727 162.778C99.2727 164.347 100.544 165.619 102.113 165.619Z" fill="#878787"/>
<path d="M113.142 165.619C114.711 165.619 115.982 164.347 115.982 162.778C115.982 161.21 114.711 159.938 113.142 159.938C111.573 159.938 110.302 161.21 110.302 162.778C110.302 164.347 111.573 165.619 113.142 165.619Z" fill="#878787"/>
<path d="M118.658 165.619C120.226 165.619 121.498 164.347 121.498 162.778C121.498 161.21 120.226 159.938 118.658 159.938C117.089 159.938 115.817 161.21 115.817 162.778C115.817 164.347 117.089 165.619 118.658 165.619Z" fill="#878787"/>
<path d="M124.171 165.618C125.74 165.618 127.011 164.346 127.011 162.778C127.011 161.209 125.74 159.938 124.171 159.938C122.602 159.938 121.331 161.209 121.331 162.778C121.331 164.346 122.602 165.618 124.171 165.618Z" fill="#878787"/>
<path d="M151.748 165.618C153.317 165.618 154.588 164.346 154.588 162.778C154.588 161.209 153.317 159.938 151.748 159.938C150.179 159.938 148.908 161.209 148.908 162.778C148.908 164.346 150.179 165.618 151.748 165.618Z" fill="#878787"/>
<path d="M162.778 165.618C164.347 165.618 165.619 164.346 165.619 162.778C165.619 161.209 164.347 159.938 162.778 159.938C161.21 159.938 159.938 161.209 159.938 162.778C159.938 164.346 161.21 165.618 162.778 165.618Z" fill="#878787"/>
<path d="M57.9903 171.134C59.5589 171.134 60.8305 169.862 60.8305 168.293C60.8305 166.725 59.5589 165.453 57.9903 165.453C56.4216 165.453 55.15 166.725 55.15 168.293C55.15 169.862 56.4216 171.134 57.9903 171.134Z" fill="#878787"/>
<path d="M80.0516 171.134C81.6202 171.134 82.8919 169.862 82.8919 168.293C82.8919 166.725 81.6202 165.453 80.0516 165.453C78.4829 165.453 77.2113 166.725 77.2113 168.293C77.2113 169.862 78.4829 171.134 80.0516 171.134Z" fill="#878787"/>
<path d="M91.0805 171.134C92.6492 171.134 93.9208 169.862 93.9208 168.293C93.9208 166.725 92.6492 165.453 91.0805 165.453C89.5119 165.453 88.2402 166.725 88.2402 168.293C88.2402 169.862 89.5119 171.134 91.0805 171.134Z" fill="#878787"/>
<path d="M113.142 171.133C114.711 171.133 115.982 169.862 115.982 168.293C115.982 166.724 114.711 165.453 113.142 165.453C111.573 165.453 110.302 166.724 110.302 168.293C110.302 169.862 111.573 171.133 113.142 171.133Z" fill="#878787"/>
<path d="M118.657 171.133C120.226 171.133 121.498 169.862 121.498 168.293C121.498 166.724 120.226 165.453 118.657 165.453C117.089 165.453 115.817 166.724 115.817 168.293C115.817 169.862 117.089 171.133 118.657 171.133Z" fill="#878787"/>
<path d="M146.232 171.133C147.801 171.133 149.073 169.862 149.073 168.293C149.073 166.724 147.801 165.453 146.232 165.453C144.664 165.453 143.392 166.724 143.392 168.293C143.392 169.862 144.664 171.133 146.232 171.133Z" fill="#878787"/>
<path d="M151.748 171.134C153.316 171.134 154.588 169.863 154.588 168.294C154.588 166.725 153.316 165.454 151.748 165.454C150.179 165.454 148.907 166.725 148.907 168.294C148.907 169.863 150.179 171.134 151.748 171.134Z" fill="#878787"/>
<path d="M157.262 171.132C158.83 171.132 160.102 169.86 160.102 168.291C160.102 166.723 158.83 165.451 157.262 165.451C155.693 165.451 154.421 166.723 154.421 168.291C154.421 169.86 155.693 171.132 157.262 171.132Z" fill="#878787"/>
<path d="M49.6381 19.5787C49.6381 18.4757 48.8109 17.3727 47.9836 16.8212C49.0866 16.2696 49.6381 15.4424 49.6381 14.0636C49.6381 12.4091 48.2594 11.0303 46.6048 11.0303C45.5018 11.0303 44.3988 11.8575 43.8473 12.6848C43.2957 11.5818 42.4685 11.0303 41.0897 11.0303C39.7109 11.0303 38.8837 11.8575 38.3321 12.6848C38.0564 11.8575 36.9534 11.0303 35.8503 11.0303C34.4716 11.0303 33.6443 11.8575 33.0928 12.6848C32.5413 11.8575 31.4382 11.0303 30.3352 11.0303C29.2322 11.0303 28.1292 11.8575 27.5777 12.6848C27.0261 11.8575 26.1989 11.0303 24.8201 11.0303C23.7171 11.0303 22.614 11.8575 22.0625 12.6848C21.7868 11.8575 20.6838 11.0303 19.5807 11.0303C18.4777 11.0303 17.3747 11.8575 16.8232 12.6848C16.2717 11.8575 15.1686 11.0303 14.0656 11.0303C12.4111 11.0303 11.0323 12.4091 11.0323 14.0636C11.0323 15.1666 11.8596 16.2696 12.6868 16.8212C11.8596 17.0969 11.0323 18.1999 11.0323 19.5787C11.0323 20.9575 11.8596 21.7848 12.6868 22.3363C11.8596 22.612 11.0323 23.7151 11.0323 24.8181C11.0323 25.9211 11.8596 27.0241 12.6868 27.5756C11.8596 28.1272 11.0323 29.2302 11.0323 30.3332C11.0323 31.4362 11.8596 32.5393 12.6868 33.0908C11.8596 33.6423 11.0323 34.4695 11.0323 35.8483C11.0323 36.9513 11.8596 38.0544 12.6868 38.6059C11.5838 39.1574 11.0323 39.9847 11.0323 41.3634C11.0323 42.7422 11.8596 43.5695 12.6868 44.121C11.5838 44.6725 11.0323 45.4998 11.0323 46.8786C11.0323 48.2573 12.4111 49.6361 14.0656 49.6361C15.1686 49.6361 16.2717 48.8089 16.8232 47.9816C17.3747 49.0846 18.2019 49.6361 19.5807 49.6361C20.9595 49.6361 21.7868 48.8089 22.3383 47.9816C22.614 48.8089 23.7171 49.6361 24.8201 49.6361C25.9231 49.6361 27.0261 48.8089 27.5777 47.9816C28.1292 48.8089 29.2322 49.6361 30.3352 49.6361C31.4382 49.6361 32.5413 48.8089 33.0928 47.9816C33.6443 48.8089 34.4716 49.6361 35.8503 49.6361C36.9534 49.6361 38.0564 48.8089 38.6079 47.9816C39.1594 49.0846 39.9867 49.6361 41.3655 49.6361C42.7442 49.6361 43.5715 48.8089 44.123 47.9816C44.6745 49.0846 45.5018 49.6361 46.8806 49.6361C48.5351 49.6361 49.9139 48.2573 49.9139 46.6028C49.9139 45.4998 49.0866 44.3968 48.2594 43.8453C49.3624 43.2937 49.9139 42.4665 49.9139 41.0877C49.9139 39.7089 49.0866 38.8816 48.2594 38.3301C48.8109 38.0544 49.6381 36.9513 49.6381 35.8483C49.6381 34.7453 48.8109 33.6423 47.9836 33.0908C48.8109 32.5393 49.6381 31.4362 49.6381 30.3332C49.6381 29.2302 48.8109 28.1272 47.9836 27.5756C48.8109 27.0241 49.6381 26.1969 49.6381 24.8181C49.6381 23.7151 48.8109 22.612 47.9836 22.0605C48.8109 21.7848 49.6381 20.6817 49.6381 19.5787ZM43.8473 45.4998C43.2957 44.3968 42.4685 43.8453 41.0897 43.8453C39.7109 43.8453 38.8837 44.6725 38.3321 45.4998C37.7806 44.3968 36.9534 43.8453 35.5746 43.8453C34.4716 43.8453 33.3685 44.6725 32.817 45.4998C32.2655 44.3968 31.4382 43.8453 30.0595 43.8453C28.6807 43.8453 27.8534 44.6725 27.3019 45.4998C26.7504 44.3968 25.9231 43.8453 24.5443 43.8453C23.4413 43.8453 22.3383 44.6725 21.7868 45.4998C21.2353 44.3968 20.408 43.8453 19.0292 43.8453C17.6504 43.8453 16.8232 44.6725 16.2717 45.4998C16.5474 44.6725 15.9959 44.121 15.1686 43.8453C16.2717 43.2937 16.8232 42.4665 16.8232 41.0877C16.8232 39.7089 15.9959 38.8816 15.1686 38.3301C16.2717 37.7786 16.8232 36.9513 16.8232 35.5726C16.8232 34.4695 15.9959 33.3665 15.1686 32.815C16.2717 32.2635 16.8232 31.4362 16.8232 30.0574C16.8232 28.6787 16.2717 28.1272 15.1686 27.5756C16.2717 27.0241 16.8232 26.1969 16.8232 24.8181C16.8232 23.7151 15.9959 22.612 15.1686 22.0605C16.2717 21.509 16.8232 20.6817 16.8232 19.303C16.8232 17.9242 15.9959 17.0969 15.1686 16.5454C15.9959 16.5454 16.5474 15.9939 16.8232 15.1666C17.3747 16.2696 18.2019 16.8212 19.5807 16.8212C20.9595 16.8212 21.7868 15.9939 22.3383 15.1666C22.8898 16.2696 23.7171 16.8212 25.0958 16.8212C26.1989 16.8212 27.3019 15.9939 27.8534 15.1666C28.4049 16.2696 29.2322 16.8212 30.611 16.8212C31.9898 16.8212 32.817 15.9939 33.3685 15.1666C33.92 16.2696 34.7473 16.8212 36.1261 16.8212C37.2291 16.8212 38.3321 15.9939 38.8837 15.1666C39.4352 16.2696 40.2624 16.8212 41.6412 16.8212C43.02 16.8212 43.8473 15.9939 44.3988 15.1666C44.123 15.9939 44.6745 16.5454 45.5018 16.8212C44.3988 17.3727 43.8473 18.1999 43.8473 19.5787C43.8473 20.9575 44.6745 21.7848 45.5018 22.3363C44.3988 22.8878 43.8473 23.7151 43.8473 25.0938C43.8473 26.1969 44.6745 27.2999 45.5018 27.8514C44.3988 28.4029 43.8473 29.2302 43.8473 30.609C43.8473 31.9877 44.6745 32.815 45.5018 33.3665C44.3988 33.918 43.8473 34.7453 43.8473 36.1241C43.8473 37.2271 44.6745 38.3301 45.5018 38.8816C44.3988 39.4332 43.8473 40.2604 43.8473 41.6392C43.8473 43.018 44.6745 43.8453 45.5018 44.3968C44.6745 44.121 44.123 44.6725 43.8473 45.4998Z" fill="#878787"/>
<path d="M170.967 19.5768C170.967 18.4737 170.14 17.3707 169.313 16.8192C170.416 16.2677 170.967 15.4404 170.967 14.0616C170.967 12.4071 169.588 11.0283 167.934 11.0283C166.831 11.0283 165.728 11.8556 165.176 12.6829C164.625 11.5798 163.797 11.0283 162.419 11.0283C161.04 11.0283 160.213 11.8556 159.661 12.6829C159.385 11.8556 158.282 11.0283 157.179 11.0283C155.8 11.0283 154.973 11.8556 154.422 12.6829C153.87 11.8556 152.767 11.0283 151.664 11.0283C150.561 11.0283 149.458 11.8556 148.907 12.6829C148.355 11.8556 147.528 11.0283 146.149 11.0283C145.046 11.0283 143.943 11.8556 143.391 12.6829C143.116 11.8556 142.013 11.0283 140.91 11.0283C139.807 11.0283 138.704 11.8556 138.152 12.6829C137.601 11.8556 136.498 11.0283 135.395 11.0283C133.74 11.0283 132.361 12.4071 132.361 14.0616C132.361 15.1647 133.188 16.2677 134.016 16.8192C133.188 17.095 132.361 18.198 132.361 19.5768C132.361 20.9555 133.188 21.7828 134.016 22.3343C133.188 22.6101 132.361 23.7131 132.361 24.8161C132.361 25.9192 133.188 27.0222 134.016 27.5737C133.188 28.1252 132.361 29.2282 132.361 30.3312C132.361 31.4343 133.188 32.5373 134.016 33.0888C133.188 33.6403 132.361 34.4676 132.361 35.8464C132.361 36.9494 133.188 38.0524 134.016 38.6039C132.913 39.1554 132.361 39.9827 132.361 41.3615C132.361 42.7403 133.188 43.5675 134.016 44.1191C132.913 44.6706 132.361 45.4978 132.361 46.8766C132.361 48.2554 133.74 49.6342 135.395 49.6342C136.498 49.6342 137.601 48.8069 138.152 47.9796C138.704 49.0827 139.531 49.6342 140.91 49.6342C142.288 49.6342 143.116 48.8069 143.667 47.9796C143.943 48.8069 145.046 49.6342 146.149 49.6342C147.252 49.6342 148.355 48.8069 148.907 47.9796C149.458 48.8069 150.561 49.6342 151.664 49.6342C152.767 49.6342 153.87 48.8069 154.422 47.9796C154.973 48.8069 155.8 49.6342 157.179 49.6342C158.282 49.6342 159.385 48.8069 159.937 47.9796C160.488 49.0827 161.316 49.6342 162.694 49.6342C164.073 49.6342 164.9 48.8069 165.452 47.9796C166.003 49.0827 166.831 49.6342 168.209 49.6342C169.864 49.6342 171.243 48.2554 171.243 46.6009C171.243 45.4978 170.416 44.3948 169.588 43.8433C170.691 43.2918 171.243 42.4645 171.243 41.0857C171.243 39.707 170.416 38.8797 169.588 38.3282C170.14 38.0524 170.967 36.9494 170.967 35.8464C170.967 34.7433 170.14 33.6403 169.313 33.0888C170.14 32.5373 170.967 31.4343 170.967 30.3312C170.967 29.2282 170.14 28.1252 169.313 27.5737C170.14 27.0222 170.967 26.1949 170.967 24.8161C170.967 23.7131 170.14 22.6101 169.313 22.0586C170.14 21.7828 170.967 20.6798 170.967 19.5768ZM165.176 45.4978C164.625 44.3948 163.797 43.8433 162.419 43.8433C161.04 43.8433 160.213 44.6706 159.661 45.4978C159.11 44.3948 158.282 43.8433 156.903 43.8433C155.8 43.8433 154.697 44.6706 154.146 45.4978C153.594 44.3948 152.767 43.8433 151.388 43.8433C150.01 43.8433 149.182 44.6706 148.631 45.4978C148.079 44.3948 147.252 43.8433 145.873 43.8433C144.77 43.8433 143.667 44.6706 143.116 45.4978C142.564 44.3948 141.737 43.8433 140.358 43.8433C138.979 43.8433 138.152 44.6706 137.601 45.4978C137.876 44.6706 137.325 44.1191 136.498 43.8433C137.601 43.2918 138.152 42.4645 138.152 41.0857C138.152 39.707 137.325 38.8797 136.498 38.3282C137.601 37.7767 138.152 36.9494 138.152 35.5706C138.152 34.4676 137.325 33.3646 136.498 32.8131C137.601 32.2615 138.152 31.4343 138.152 30.0555C138.152 28.6767 137.601 28.1252 136.498 27.5737C137.601 27.0222 138.152 26.1949 138.152 24.8161C138.152 23.7131 137.325 22.6101 136.498 22.0586C137.601 21.5071 138.152 20.6798 138.152 19.301C138.152 17.9222 137.325 17.095 136.498 16.5434C137.325 16.5434 137.876 15.9919 138.152 15.1647C138.704 16.2677 139.531 16.8192 140.91 16.8192C142.288 16.8192 143.116 15.9919 143.667 15.1647C144.219 16.2677 145.046 16.8192 146.425 16.8192C147.528 16.8192 148.631 15.9919 149.182 15.1647C149.734 16.2677 150.561 16.8192 151.94 16.8192C153.319 16.8192 154.146 15.9919 154.697 15.1647C155.249 16.2677 156.076 16.8192 157.455 16.8192C158.558 16.8192 159.661 15.9919 160.213 15.1647C160.764 16.2677 161.591 16.8192 162.97 16.8192C164.349 16.8192 165.176 15.9919 165.728 15.1647C165.452 15.9919 166.003 16.5434 166.831 16.8192C165.728 17.3707 165.176 18.198 165.176 19.5768C165.176 20.9555 166.003 21.7828 166.831 22.3343C165.728 22.8858 165.176 23.7131 165.176 25.0919C165.176 26.1949 166.003 27.2979 166.831 27.8494C165.728 28.401 165.176 29.2282 165.176 30.607C165.176 31.9858 166.003 32.8131 166.831 33.3646C165.728 33.9161 165.176 34.7433 165.176 36.1221C165.176 37.2252 166.003 38.3282 166.831 38.8797C165.728 39.4312 165.176 40.2585 165.176 41.6373C165.176 43.016 166.003 43.8433 166.831 44.3948C166.003 44.1191 165.452 44.6706 165.176 45.4978Z" fill="#878787"/>
<path d="M49.6342 140.91C49.6342 139.807 48.8069 138.704 47.9796 138.152C49.0827 137.601 49.6342 136.773 49.6342 135.395C49.6342 133.74 48.2554 132.361 46.6009 132.361C45.4978 132.361 44.3948 133.189 43.8433 134.016C43.2918 132.913 42.4645 132.361 41.0857 132.361C39.707 132.361 38.8797 133.189 38.3282 134.016C38.0524 133.189 36.9494 132.361 35.8464 132.361C34.4676 132.361 33.6403 133.189 33.0888 134.016C32.5373 133.189 31.4343 132.361 30.3312 132.361C29.2282 132.361 28.1252 133.189 27.5737 134.016C27.0222 133.189 26.1949 132.361 24.8161 132.361C23.7131 132.361 22.6101 133.189 22.0586 134.016C21.7828 133.189 20.6798 132.361 19.5768 132.361C18.4737 132.361 17.3707 133.189 16.8192 134.016C16.2677 133.189 15.1647 132.361 14.0616 132.361C12.4071 132.361 11.0283 133.74 11.0283 135.395C11.0283 136.498 11.8556 137.601 12.6829 138.152C11.8556 138.428 11.0283 139.531 11.0283 140.91C11.0283 142.289 11.8556 143.116 12.6829 143.667C11.8556 143.943 11.0283 145.046 11.0283 146.149C11.0283 147.252 11.8556 148.355 12.6829 148.907C11.8556 149.458 11.0283 150.561 11.0283 151.664C11.0283 152.767 11.8556 153.87 12.6829 154.422C11.8556 154.973 11.0283 155.801 11.0283 157.179C11.0283 158.282 11.8556 159.385 12.6829 159.937C11.5798 160.488 11.0283 161.316 11.0283 162.695C11.0283 164.073 11.8556 164.901 12.6829 165.452C11.5798 166.004 11.0283 166.831 11.0283 168.21C11.0283 169.588 12.4071 170.967 14.0616 170.967C15.1647 170.967 16.2677 170.14 16.8192 169.313C17.3707 170.416 18.198 170.967 19.5768 170.967C20.9555 170.967 21.7828 170.14 22.3343 169.313C22.6101 170.14 23.7131 170.967 24.8161 170.967C25.9191 170.967 27.0222 170.14 27.5737 169.313C28.1252 170.14 29.2282 170.967 30.3312 170.967C31.4343 170.967 32.5373 170.14 33.0888 169.313C33.6403 170.14 34.4676 170.967 35.8464 170.967C36.9494 170.967 38.0524 170.14 38.6039 169.313C39.1554 170.416 39.9827 170.967 41.3615 170.967C42.7403 170.967 43.5675 170.14 44.1191 169.313C44.6706 170.416 45.4978 170.967 46.8766 170.967C48.5311 170.967 49.9099 169.588 49.9099 167.934C49.9099 166.831 49.0827 165.728 48.2554 165.176C49.3584 164.625 49.9099 163.798 49.9099 162.419C49.9099 161.04 49.0827 160.213 48.2554 159.661C48.8069 159.385 49.6342 158.282 49.6342 157.179C49.6342 156.076 48.8069 154.973 47.9796 154.422C48.8069 153.87 49.6342 152.767 49.6342 151.664C49.6342 150.561 48.8069 149.458 47.9796 148.907C48.8069 148.355 49.6342 147.528 49.6342 146.149C49.6342 145.046 48.8069 143.943 47.9796 143.392C48.8069 143.116 49.6342 142.013 49.6342 140.91ZM43.8433 166.831C43.2918 165.728 42.4645 165.176 41.0857 165.176C39.707 165.176 38.8797 166.004 38.3282 166.831C37.7767 165.728 36.9494 165.176 35.5706 165.176C34.4676 165.176 33.3646 166.004 32.8131 166.831C32.2615 165.728 31.4343 165.176 30.0555 165.176C28.6767 165.176 27.8494 166.004 27.2979 166.831C26.7464 165.728 25.9191 165.176 24.5404 165.176C23.4373 165.176 22.3343 166.004 21.7828 166.831C21.2313 165.728 20.404 165.176 19.0252 165.176C17.6465 165.176 16.8192 166.004 16.2677 166.831C16.5434 166.004 15.9919 165.452 15.1647 165.176C16.2677 164.625 16.8192 163.798 16.8192 162.419C16.8192 161.04 15.9919 160.213 15.1647 159.661C16.2677 159.11 16.8192 158.282 16.8192 156.904C16.8192 155.801 15.9919 154.698 15.1647 154.146C16.2677 153.595 16.8192 152.767 16.8192 151.389C16.8192 150.01 16.2677 149.458 15.1647 148.907C16.2677 148.355 16.8192 147.528 16.8192 146.149C16.8192 145.046 15.9919 143.943 15.1647 143.392C16.2677 142.84 16.8192 142.013 16.8192 140.634C16.8192 139.255 15.9919 138.428 15.1647 137.876C15.9919 137.876 16.5434 137.325 16.8192 136.498C17.3707 137.601 18.198 138.152 19.5768 138.152C20.9555 138.152 21.7828 137.325 22.3343 136.498C22.8858 137.601 23.7131 138.152 25.0919 138.152C26.1949 138.152 27.2979 137.325 27.8494 136.498C28.401 137.601 29.2282 138.152 30.607 138.152C31.9858 138.152 32.8131 137.325 33.3646 136.498C33.9161 137.601 34.7433 138.152 36.1221 138.152C37.2252 138.152 38.3282 137.325 38.8797 136.498C39.4312 137.601 40.2585 138.152 41.6372 138.152C43.016 138.152 43.8433 137.325 44.3948 136.498C44.1191 137.325 44.6706 137.876 45.4978 138.152C44.3948 138.704 43.8433 139.531 43.8433 140.91C43.8433 142.289 44.6706 143.116 45.4978 143.667C44.3948 144.219 43.8433 145.046 43.8433 146.425C43.8433 147.528 44.6706 148.631 45.4978 149.182C44.3948 149.734 43.8433 150.561 43.8433 151.94C43.8433 153.319 44.6706 154.146 45.4978 154.698C44.3948 155.249 43.8433 156.076 43.8433 157.455C43.8433 158.558 44.6706 159.661 45.4978 160.213C44.3948 160.764 43.8433 161.591 43.8433 162.97C43.8433 164.349 44.6706 165.176 45.4978 165.728C44.6706 165.452 44.1191 166.004 43.8433 166.831Z" fill="#878787"/>
<path d="M24.8176 27.5762C26.3405 27.5762 27.5751 26.3416 27.5751 24.8186C27.5751 23.2956 26.3405 22.061 24.8176 22.061C23.2946 22.061 22.06 23.2956 22.06 24.8186C22.06 26.3416 23.2946 27.5762 24.8176 27.5762Z" fill="#878787"/>
<path d="M30.3338 27.5771C31.8568 27.5771 33.0914 26.3425 33.0914 24.8196C33.0914 23.2966 31.8568 22.062 30.3338 22.062C28.8108 22.062 27.5762 23.2966 27.5762 24.8196C27.5762 26.3425 28.8108 27.5771 30.3338 27.5771Z" fill="#878787"/>
<path d="M35.8486 27.5766C37.3716 27.5766 38.6062 26.342 38.6062 24.8191C38.6062 23.2961 37.3716 22.0615 35.8486 22.0615C34.3257 22.0615 33.0911 23.2961 33.0911 24.8191C33.0911 26.342 34.3257 27.5766 35.8486 27.5766Z" fill="#878787"/>
<path d="M24.819 33.0928C26.3419 33.0928 27.5765 31.8582 27.5765 30.3352C27.5765 28.8122 26.3419 27.5776 24.819 27.5776C23.296 27.5776 22.0614 28.8122 22.0614 30.3352C22.0614 31.8582 23.296 33.0928 24.819 33.0928Z" fill="#878787"/>
<path d="M30.334 33.0918C31.857 33.0918 33.0916 31.8572 33.0916 30.3342C33.0916 28.8113 31.857 27.5767 30.334 27.5767C28.8111 27.5767 27.5765 28.8113 27.5765 30.3342C27.5765 31.8572 28.8111 33.0918 30.334 33.0918Z" fill="#878787"/>
<path d="M35.8469 33.0923C37.3699 33.0923 38.6045 31.8577 38.6045 30.3347C38.6045 28.8118 37.3699 27.5771 35.8469 27.5771C34.324 27.5771 33.0894 28.8118 33.0894 30.3347C33.0894 31.8577 34.324 33.0923 35.8469 33.0923Z" fill="#878787"/>
<path d="M24.8194 38.6069C26.3423 38.6069 27.577 37.3723 27.577 35.8494C27.577 34.3264 26.3423 33.0918 24.8194 33.0918C23.2964 33.0918 22.0618 34.3264 22.0618 35.8494C22.0618 37.3723 23.2964 38.6069 24.8194 38.6069Z" fill="#878787"/>
<path d="M30.3323 38.6069C31.8553 38.6069 33.0899 37.3723 33.0899 35.8494C33.0899 34.3264 31.8553 33.0918 30.3323 33.0918C28.8094 33.0918 27.5748 34.3264 27.5748 35.8494C27.5748 37.3723 28.8094 38.6069 30.3323 38.6069Z" fill="#878787"/>
<path d="M35.8488 38.6074C37.3718 38.6074 38.6064 37.3728 38.6064 35.8498C38.6064 34.3269 37.3718 33.0923 35.8488 33.0923C34.3258 33.0923 33.0912 34.3269 33.0912 35.8498C33.0912 37.3728 34.3258 38.6074 35.8488 38.6074Z" fill="#878787"/>
<path d="M146.15 27.5762C147.673 27.5762 148.908 26.3416 148.908 24.8186C148.908 23.2956 147.673 22.061 146.15 22.061C144.627 22.061 143.393 23.2956 143.393 24.8186C143.393 26.3416 144.627 27.5762 146.15 27.5762Z" fill="#878787"/>
<path d="M151.665 27.5771C153.188 27.5771 154.422 26.3425 154.422 24.8196C154.422 23.2966 153.188 22.062 151.665 22.062C150.142 22.062 148.907 23.2966 148.907 24.8196C148.907 26.3425 150.142 27.5771 151.665 27.5771Z" fill="#878787"/>
<path d="M157.181 27.5771C158.704 27.5771 159.939 26.3425 159.939 24.8196C159.939 23.2966 158.704 22.062 157.181 22.062C155.658 22.062 154.424 23.2966 154.424 24.8196C154.424 26.3425 155.658 27.5771 157.181 27.5771Z" fill="#878787"/>
<path d="M146.15 33.0928C147.673 33.0928 148.907 31.8582 148.907 30.3352C148.907 28.8122 147.673 27.5776 146.15 27.5776C144.627 27.5776 143.392 28.8122 143.392 30.3352C143.392 31.8582 144.627 33.0928 146.15 33.0928Z" fill="#878787"/>
<path d="M151.667 33.0923C153.19 33.0923 154.424 31.8577 154.424 30.3347C154.424 28.8118 153.19 27.5771 151.667 27.5771C150.144 27.5771 148.909 28.8118 148.909 30.3347C148.909 31.8577 150.144 33.0923 151.667 33.0923Z" fill="#878787"/>
<path d="M157.18 33.0918C158.703 33.0918 159.937 31.8572 159.937 30.3342C159.937 28.8113 158.703 27.5767 157.18 27.5767C155.657 27.5767 154.422 28.8113 154.422 30.3342C154.422 31.8572 155.657 33.0918 157.18 33.0918Z" fill="#878787"/>
<path d="M146.152 38.6074C147.675 38.6074 148.91 37.3728 148.91 35.8498C148.91 34.3269 147.675 33.0923 146.152 33.0923C144.629 33.0923 143.394 34.3269 143.394 35.8498C143.394 37.3728 144.629 38.6074 146.152 38.6074Z" fill="#878787"/>
<path d="M151.665 38.6064C153.188 38.6064 154.423 37.3718 154.423 35.8489C154.423 34.3259 153.188 33.0913 151.665 33.0913C150.142 33.0913 148.908 34.3259 148.908 35.8489C148.908 37.3718 150.142 38.6064 151.665 38.6064Z" fill="#878787"/>
<path d="M157.18 38.6074C158.703 38.6074 159.937 37.3728 159.937 35.8498C159.937 34.3269 158.703 33.0923 157.18 33.0923C155.657 33.0923 154.422 34.3269 154.422 35.8498C154.422 37.3728 155.657 38.6074 157.18 38.6074Z" fill="#878787"/>
<path d="M24.818 148.906C26.3409 148.906 27.5755 147.672 27.5755 146.149C27.5755 144.626 26.3409 143.391 24.818 143.391C23.295 143.391 22.0604 144.626 22.0604 146.149C22.0604 147.672 23.295 148.906 24.818 148.906Z" fill="#878787"/>
<path d="M30.3326 148.907C31.8555 148.907 33.0901 147.672 33.0901 146.149C33.0901 144.626 31.8555 143.392 30.3326 143.392C28.8096 143.392 27.575 144.626 27.575 146.149C27.575 147.672 28.8096 148.907 30.3326 148.907Z" fill="#878787"/>
<path d="M35.851 148.907C37.374 148.907 38.6086 147.672 38.6086 146.149C38.6086 144.626 37.374 143.392 35.851 143.392C34.328 143.392 33.0934 144.626 33.0934 146.149C33.0934 147.672 34.328 148.907 35.851 148.907Z" fill="#878787"/>
<path d="M24.818 154.422C26.3409 154.422 27.5755 153.187 27.5755 151.664C27.5755 150.141 26.3409 148.907 24.818 148.907C23.295 148.907 22.0604 150.141 22.0604 151.664C22.0604 153.187 23.295 154.422 24.818 154.422Z" fill="#878787"/>
<path d="M30.3345 154.422C31.8574 154.422 33.092 153.187 33.092 151.664C33.092 150.141 31.8574 148.907 30.3345 148.907C28.8115 148.907 27.5769 150.141 27.5769 151.664C27.5769 153.187 28.8115 154.422 30.3345 154.422Z" fill="#878787"/>
<path d="M35.8474 154.422C37.3704 154.422 38.605 153.188 38.605 151.665C38.605 150.142 37.3704 148.907 35.8474 148.907C34.3244 148.907 33.0898 150.142 33.0898 151.665C33.0898 153.188 34.3244 154.422 35.8474 154.422Z" fill="#878787"/>
<path d="M24.8199 159.937C26.3428 159.937 27.5774 158.702 27.5774 157.179C27.5774 155.656 26.3428 154.422 24.8199 154.422C23.2969 154.422 22.0623 155.656 22.0623 157.179C22.0623 158.702 23.2969 159.937 24.8199 159.937Z" fill="#878787"/>
<path d="M30.3328 159.937C31.8558 159.937 33.0904 158.702 33.0904 157.179C33.0904 155.656 31.8558 154.422 30.3328 154.422C28.8099 154.422 27.5753 155.656 27.5753 157.179C27.5753 158.702 28.8099 159.937 30.3328 159.937Z" fill="#878787"/>
<path d="M35.8478 159.936C37.3708 159.936 38.6054 158.701 38.6054 157.178C38.6054 155.656 37.3708 154.421 35.8478 154.421C34.3249 154.421 33.0903 155.656 33.0903 157.178C33.0903 158.701 34.3249 159.936 35.8478 159.936Z" fill="#878787"/>
</svg>
