<svg width="217" height="179" viewBox="0 0 217 179" fill="none" xmlns="http://www.w3.org/2000/svg">
<path d="M18.7185 5.39658C17.3416 6.65104 15.512 6.30224 14.6002 5.11715C13.8801 3.58937 13.77 2.17786 15.1468 0.923396C16.3319 0.0116246 18.0861 0.0931991 19.2651 1.20282C20.2524 2.65514 20.1708 4.40933 18.7185 5.39658ZM129.919 162.107C128.577 164.506 125.643 163.314 125.04 161.177C124.854 159.498 126.731 156.948 128.862 158.366L129.919 162.107ZM193.459 124.54C195.213 124.622 195.933 126.15 196.119 127.828C195.428 129.466 194.051 130.721 192.488 130.297C189.932 130.441 190.781 127.316 188.8 126.433C180.168 130.603 194.253 139.608 181.967 141.058C179.877 138.764 178.842 140.21 176.397 141.766C178.946 143.643 177.296 146.994 175.193 148.742C171.72 149.723 170.738 146.25 168.34 144.907C167.305 146.354 167.108 148.718 164.401 148.328C162.763 147.637 160.591 147.096 160.713 144.465C163.391 141.689 162.561 138.749 159.552 137.291C158.025 138.011 157.176 141.136 154.969 139.451C153.598 138.684 150.781 136.883 152.391 134.409L154.459 131.516C152.154 124.377 140.872 134.488 143.232 123.435C144.835 122.982 146.027 120.049 143.779 119.241C143.895 118.631 142.942 118.323 142.6 118.132C142.21 120.838 139.161 120.257 137.366 121.053C133.87 116.847 132.562 120.39 128.026 119.651C125.894 118.234 125.68 113.389 128.695 112.826C129.572 112.867 129.688 112.257 130.147 111.839L125.007 108.963C125.152 111.519 121.76 110.746 121.144 112.651C122.63 112.808 123.885 114.185 123.536 116.014C123.455 117.769 121.927 118.489 120.248 118.674C118.61 117.983 117.774 117.065 117.855 115.311L120.115 112.076C118.669 111.042 116.805 109.548 114.894 110.954C120.22 115.509 109.217 121.501 115.077 125.905C114.119 127.619 111.604 126.886 110.645 128.6C114.153 128.763 115.744 132.353 115.012 134.868C111.422 136.459 115 138.911 115.795 140.706C116.672 140.747 120.228 138.011 121.592 140.8C122.237 142.06 122.347 143.472 121.046 144.993C119.059 146.132 117.195 144.638 115.824 143.871C115.551 145.968 111.275 147.176 114.969 149.018C116.456 149.175 121.464 145.452 122.48 150.07C124.646 152.632 121.892 155.141 120.097 155.937C122.688 156.936 123.175 159.684 125.04 161.177L123.82 160.944C122.814 165.556 119.573 165.318 122.57 170.819C122.255 173.793 119.74 173.06 117.945 173.856C114.971 173.542 115.628 170.76 114.833 168.965L116.826 165.805C115.798 165.23 113.933 163.737 111.946 164.875C111.865 166.629 115.587 171.637 110.702 172.728C109.442 173.373 107.763 173.558 106.241 172.257C105.144 169.393 105.533 166.686 107.787 165.473C104.373 159.512 98.2433 168.457 96.5136 160.29C99.1918 157.513 98.3616 154.574 95.2775 152.849C93.3315 153.11 90.1597 155.16 89.8639 152.069C89.1439 150.542 88.8073 148.328 91.3631 148.184C94.1168 145.675 96.0852 150.601 97.7761 146.372L97.1724 144.235C95.4936 144.42 91.6711 147.231 89.2785 143.868C87.8731 141.956 89.6334 140.016 90.3249 138.379C93.3049 136.671 98.6655 142.37 97.1213 135.882C94.798 134.807 90.5166 138.036 89.9189 133.877C87.9036 131.849 90.1229 129.491 91.5752 128.504C87.5915 121.55 83.6691 132.18 80.179 125.952C78.4656 124.994 77.3091 129.071 74.8349 127.462C71.3326 125.277 69.4682 123.784 66.633 128.047C69.0725 128.512 68.9502 131.144 69.7457 132.939C69.0134 135.454 66.5739 134.989 64.5871 136.127C62.1476 135.662 63.0716 132.804 61.091 131.921C55.9324 135.109 62.4495 136.73 62.7452 139.821C62.8268 138.067 64.3546 137.347 66.0333 137.161C67.5958 137.585 68.583 139.037 68.426 140.524C68.0772 142.354 66.5494 143.074 64.8707 143.26L61.9028 140.924C60.6769 142.713 58.4924 146.215 61.501 147.674C62.1109 147.79 65.6662 145.055 67.298 147.768C67.9426 149.028 68.1282 150.707 66.7514 151.961C64.8401 153.367 62.9758 151.874 61.5296 150.84C56.3711 154.028 63.7469 161.754 55.8469 163.409C57.4848 164.1 59.6572 164.641 59.2676 167.347C58.8433 168.91 58.0356 171.158 55.596 170.693L51.5593 168.659C47.847 172.881 48.3814 172.73 47.6022 178.144C46.0744 178.864 44.6629 178.974 43.4085 177.597C41.7359 175.761 43.9551 173.403 45.2565 171.882C43.694 171.458 41.4462 170.65 41.5686 168.018C39.6226 168.28 36.41 171.207 34.0174 167.843C34.9761 166.13 33.4952 163.951 36.1673 163.197C38.6476 162.784 39.1759 164.655 41.7664 165.654C42.4579 164.016 44.3345 161.467 42.0112 160.392C39.4961 159.66 35.2902 163.156 34.8088 158.387C33.6298 157.277 33.9786 155.447 35.0127 154.001C36.0061 153.432 38.5211 154.164 38.6027 152.41C36.6568 152.671 33.3462 150.144 34.9556 147.67C36.4079 146.683 37.4074 144.092 39.5389 145.51L41.287 147.613L45.9927 142.821C44.163 142.473 43.1758 141.02 43.2574 139.266C44.0998 138.162 44.9075 135.915 47.4633 135.77L51.192 138.756C60.579 137.259 46.8901 123.525 60.0344 128.18C60.6035 129.173 60.2547 131.003 61.4744 131.235C61.6376 127.727 65.866 129.418 66.4066 127.246C64.8094 125.677 61.301 125.514 61.9578 122.732C63.4509 120.867 63.4224 117.702 66.1291 118.091C68.1097 118.974 69.8578 121.077 71.8445 119.939C72.9195 117.616 69.1622 111.464 73.7456 109.304C67.3448 107.072 77.721 93.7547 67.3631 101.008C69.001 101.7 69.9128 102.885 69.8312 104.639C69.7497 106.393 68.2219 107.113 66.5432 107.299C64.7135 106.95 63.9934 105.422 63.8078 103.743L66.4105 100.7C62.8103 93.0613 58.1618 104.184 54.788 97.3468C45.7845 98.1587 55.4836 106.96 47.1715 106.134C44.7728 104.792 45.813 101.324 48.2179 100.645L48.6014 99.9598C47.4224 98.8502 43.1593 96.0149 42.0028 100.092C42.9145 101.278 43.9426 101.853 44.1282 103.531C43.1695 105.245 42.3618 107.493 39.9222 107.028L35.9263 104.117C34.7759 106.173 32.3649 108.874 29.9661 107.531C27.8693 107.258 24.9769 105.19 23.9366 108.657L25.4461 114.002C23.6858 115.941 19.184 116.347 18.5456 113.065L17.593 112.757C16.1754 114.889 13.7644 117.59 11.0984 116.323C7.9857 111.432 5.49313 115.886 1.75832 114.922L0.173405 109.31L5.25037 107.876C5.36052 109.288 7.03924 109.102 7.53287 109.828C8.29981 108.458 9.48491 107.546 9.10755 106.21C6.17436 105.019 2.69454 108.021 -2.22965e-07 103.589C0.00611039 101.567 0.662901 98.7851 2.45789 97.9896C5.32171 96.8922 8.62614 101.441 9.63173 96.8289C7.80817 94.4587 8.43028 90.5322 11.753 89.0166C14.9595 88.111 18.6821 93.1186 20.3384 87.7458C17.8642 86.1365 18.6372 82.7443 21.3501 81.1125C22.4536 81.9549 25.3174 80.8575 25.9967 83.2624C24.887 84.4414 25.9845 87.3052 23.8468 87.909C25.7519 88.525 27.0411 91.0461 29.2195 89.5653C29.3766 88.0783 25.8457 82.728 30.5392 81.9794C31.9915 80.9921 33.7457 81.0737 34.733 82.526C35.2266 83.2522 34.9533 85.349 36.324 86.116C36.6381 83.142 38.8981 79.9069 41.8313 81.0981C44.9379 88.0109 49.1275 77.3062 53.0011 82.8482C59.1815 82.2567 53.3865 68.8901 62.4064 75.2868C65.8046 74.0384 63.7485 72.888 63.5282 70.065C61.4721 68.9146 58.9796 73.3694 56.9296 70.1976C55.9423 68.7453 56.0239 66.9911 57.4762 66.0038C59.312 64.3312 61.1764 65.8243 62.6226 66.8585C63.0468 65.296 64.5746 64.576 64.1218 62.9727C61.8739 62.165 58.4696 65.4347 56.3442 61.9957C52.1218 58.2834 60.6378 54.724 54.5797 52.6842C52.6277 54.9667 47.7832 55.1809 46.953 52.2416C44.3687 49.2207 41.3009 54.7036 38.6818 50.5385C39.6405 48.825 38.694 46.4956 40.8317 45.8919L36.0403 41.1862C35.9587 42.9404 34.5064 43.9276 32.7522 43.846C31.6487 43.0036 29.2091 42.5385 29.256 39.64C31.9342 36.8639 31.255 34.459 28.1708 32.7334L22.8267 34.2429L21.3172 28.8987C26.5104 26.8548 19.1918 25.4597 19.5814 22.7529C18.6982 24.7335 16.4503 23.9258 14.998 24.913C13.3601 24.2216 13.9006 22.0492 13.1806 20.5214C13.7966 18.6163 16.3116 19.3486 17.154 18.245L19.512 20.4643C20.4707 18.7509 21.9638 16.8865 20.5584 14.9753C19.1469 15.0854 13.7966 18.6163 13.048 13.9228C12.0607 12.4705 12.1423 10.7163 13.5946 9.72906C17.6496 5.69846 20.8317 12.8784 23.4813 6.93659C22.1922 4.41543 22.39 2.05136 24.0341 0.721423C26.4797 -0.834931 28.5358 0.3155 29.4068 2.37768C29.4415 3.52199 30.3186 3.56278 30.6613 3.75453C31.5037 2.65101 32.2359 0.135973 34.6 0.333825C36.3134 1.2925 38.4103 1.56583 38.2879 4.19712C37.521 5.56783 35.9116 8.04207 38.2349 9.11701C39.7913 11.5627 42.394 8.51935 44.1135 7.45662C42.4348 7.64225 39.7341 5.23128 41.2272 3.36693L45.2354 2.23484L46.292 5.97576C44.8805 6.0859 45.0661 7.76463 44.3399 8.25825C45.7861 9.2924 47.883 9.56573 48.1033 12.3888L54.4 11.1873C54.3939 13.2087 56.7866 16.5723 53.2782 16.4091C50.2573 18.9935 50.2695 14.9507 48.4807 13.7248C47.5975 15.7054 44.3094 18.3653 47.5852 19.7482C49.7229 19.1444 54.4572 17.5187 56.2399 20.766C59.167 23.9786 50.8774 28.3397 57.2782 30.5711C58.3878 29.3922 59.3057 28.5559 60.9845 28.3702C62.4307 29.4044 64.7947 29.6022 64.4806 32.5762L61.5699 36.5721C64.6193 37.1534 64.5724 40.0519 66.4368 41.545C67.0875 40.7842 67.4363 38.9545 68.5051 38.6526C69.9513 39.6868 71.63 39.5012 72.0829 41.1044C70.8978 42.0162 71.0834 43.6949 69.4801 44.1478L65.368 41.8469C63.2997 44.7393 63.4853 46.418 65.8433 48.6373C66.7611 47.801 67.9462 46.8892 69.625 46.7036C70.804 47.8132 72.9008 48.0865 73.1211 50.9095C70.4429 53.6857 71.1222 56.0905 73.9391 57.8916C75.1997 57.2471 76.3093 56.0681 77.7208 55.9579C79.0915 56.7249 81.6066 57.4571 81.4087 59.8212L79.1079 63.9334C80.7458 64.6249 83.2955 66.5014 84.1033 64.2536C83.6504 62.6504 82.5183 58.6422 85.4984 56.935C87.2118 57.8936 89.5412 56.9472 90.145 59.0848C98.8527 55.1827 86.8875 51.6377 92.7375 46.8116C92.0929 45.551 92.3663 43.4541 90.3856 42.5709C90.3041 44.3251 88.7763 45.0452 87.0976 45.2308C85.4596 44.5393 84.5478 43.3542 84.6294 41.6C84.711 39.8458 86.2388 39.1258 87.9175 38.9402L91.2281 41.4674C92.9129 39.2604 92.3091 37.1227 91.5544 34.4506C89.6085 34.7117 86.3958 37.6388 84.0032 34.2752C83.173 31.336 86.3795 30.4303 87.5299 28.3742C84.8232 27.9846 85.2127 25.2778 84.4172 23.4829C85.1495 20.9678 87.5136 21.1657 89.3086 20.3702C91.9684 23.6583 93.9613 20.4987 95.4543 18.6343C93.5492 18.0183 94.3569 15.7705 93.3697 14.3182C93.8347 11.8786 96.1988 12.0765 98.261 11.2055C101.043 11.8623 100.311 14.3773 101.449 16.364C97.8939 19.0993 101.512 20.674 103.11 22.2426C105.172 21.3716 107.001 21.7204 109.133 23.138C111.224 25.4328 108.127 27.7499 106.902 29.5388C109.417 30.2711 108.952 32.7106 110.014 34.4302C103.363 39.4827 113.614 42.069 108.676 48.0802C110.877 51.7865 117 44.8635 117.894 52.1128L115.059 56.3759C117.608 58.2525 119.705 58.5258 122.61 56.5513C125.09 56.1393 128.319 60.4207 130.428 56.6512C130.167 54.7053 127.24 51.4927 130.679 49.3672C133.427 48.8797 134.03 51.0174 136.354 52.0923L140.258 47.5273C138.428 47.1785 137.441 45.7262 137.522 43.972C138.098 42.944 138.83 40.429 141.194 40.6268C144.237 43.2295 146.909 42.4748 148.56 39.1235C145.475 37.3979 147.509 33.3612 149.612 31.6131C152.174 29.4468 155.699 36.8185 157.012 31.254C154.236 28.5759 155.242 23.9639 158.565 22.4484C163.107 21.1654 165.453 27.4274 168.294 21.1429C166.54 21.0613 165.82 19.5335 165.634 17.8548C166.669 16.4086 166.942 14.3118 169.498 14.1669C170.944 15.2011 173.383 15.6661 173.261 18.2974L170.885 22.1424C173.016 23.56 175.717 25.971 174.45 28.637C167.462 31.4763 178.724 40.7021 168.233 41.3569C166.671 40.9327 165.19 38.7542 163.546 40.0841L164.678 44.0923L170.975 42.8908C171.236 44.8368 173.553 47.9331 170.195 48.3044C166.297 50.848 166.885 45.7771 164.829 44.6267C165.09 46.5726 163.405 48.7797 161.343 49.6506C161.337 51.672 164.339 55.1519 160.976 57.5445C158.153 57.7648 157.624 55.8944 155.301 54.8194L150.787 59.2682C151.507 60.7959 154.632 61.6445 152.947 63.8515C151.419 64.5715 150.495 67.4292 148.288 65.7444C147.411 65.7036 147.342 63.415 145.547 64.2105C143.827 65.2732 144.849 67.8698 145.227 69.2059C146.981 69.2875 150.803 66.4767 152.853 69.6485C154.677 72.0187 151.923 74.5276 150.547 75.7821C153.81 81.2078 164.099 71.6658 162.54 82.4928C161.314 84.2817 158.677 86.1807 156.429 85.373C155.03 81.4403 152.845 84.9426 151.05 85.7381C150.551 87.0334 153.211 90.3215 151.032 91.8024C149.504 92.5224 147.75 92.4408 146.571 91.3312C145.09 89.1527 146.583 87.2884 147.693 86.1094L144.382 83.5821L141.629 86.0911C143.609 86.9743 143.069 89.1466 143.981 90.3317C143.324 93.1139 140.809 92.3817 139.089 93.4444L135.854 91.1844L132.717 94.3786C133.437 95.9064 135.952 96.6387 134.534 98.7702L131.699 103.033C133.488 104.259 134.969 106.438 133.97 109.028L130.298 112.373L134.143 114.75C134.608 112.31 136.972 112.508 139.034 111.637L143.524 115.274C143.913 112.567 146.696 113.224 148.491 112.428L152.486 115.339C152.876 112.632 155.583 113.022 157.378 112.226C161.025 116.967 162.675 113.616 166.19 111.757L165.806 112.443C170.016 120.198 177.72 107.635 180.437 117.254C181.698 116.61 182.622 113.752 184.753 115.17C185.474 116.697 188.331 117.621 186.838 119.486L184.886 121.768C187.744 122.692 187.964 125.515 189.828 127.008C190.253 125.446 191.705 124.459 193.459 124.54ZM166.381 111.415C166.381 111.415 166.114 111.49 166.19 111.757L166.381 111.415ZM123.261 55.7905C121.774 55.6334 119.148 53.4896 120.566 51.3581L124.307 50.3015C126.706 51.6436 125.665 55.1112 123.261 55.7905ZM165.673 105.844L168.415 107.378L166.381 111.415C164.935 110.38 163.524 110.491 163.071 108.887C164.256 107.976 164.07 106.297 165.673 105.844ZM90.308 17.7797C88.7802 18.4997 87.1015 18.6853 86.1143 17.233C84.8598 15.8562 85.2841 14.2937 86.051 12.923C87.5788 12.203 89.2575 12.0173 90.512 13.3942C91.4992 14.8465 91.4176 16.6007 90.308 17.7797ZM162.881 20.3637C161.62 21.0083 159.941 21.1939 158.687 19.8171C157.775 18.632 157.857 16.8778 159.158 15.3561C160.686 14.6361 162.365 14.4505 163.352 15.9028C164.072 17.4305 164.258 19.1093 162.881 20.3637ZM52.952 61.2227C51.4997 62.2099 49.821 62.3955 48.5665 61.0187C47.5793 59.5664 47.7363 58.0794 48.7705 56.6332C50.2983 55.9132 51.977 55.7276 53.2315 57.1044C54.2187 58.5567 54.1371 60.3109 52.952 61.2227ZM6.01318 95.2542C4.75261 95.8988 3.07389 96.0844 1.55222 94.7831C0.83218 93.2553 0.797496 92.111 2.09886 90.5893C3.62664 89.8693 5.30536 89.6837 6.29261 91.136C7.27986 92.5883 7.19828 94.3425 6.01318 95.2542ZM204.053 51.7249C205.767 52.6836 207.939 53.2241 207.741 55.5882L204.104 60.0777C207.195 59.7819 209.128 63.5636 208.204 66.4213C206.903 67.943 204.876 69.9583 202.552 68.8834L200.27 66.9313C194.124 68.6672 200.343 80.4713 192.2 74.1154C191.405 72.3204 192.288 70.3398 193.282 69.7707L189.326 65.9829L183.715 67.5678L182.206 62.2236C183.623 60.0921 188.392 59.6107 188.955 62.6254L190.326 63.3924C190.297 60.2267 193.806 60.3898 195.299 58.5255C193.469 58.1767 192.749 56.6489 192.563 54.9702C192.494 52.6816 196.502 51.5495 198.175 53.3853C199.731 55.8309 197.512 58.1889 195.45 59.0599C197.965 59.7922 200.735 64.4918 202.501 60.5306C203.111 60.6468 203.762 59.886 203.954 59.5433C202.24 58.5846 199.992 57.7769 200.457 55.3373C200.957 54.0421 201.765 51.7943 204.053 51.7249ZM186.724 69.0262C189.239 69.7585 188.849 72.4652 189.912 74.1848C189.18 76.6998 186.397 76.043 184.753 77.3729L181.484 73.9686C180.258 75.7575 178.346 77.1629 175.715 77.0405C173.351 76.8426 172.939 74.3623 171.075 72.8692C170.575 74.1645 169.767 76.4123 167.136 76.2899C165.765 75.523 163.326 75.0579 163.64 72.0839C164.482 70.9804 165.023 68.8081 167.578 68.6632L171.842 71.4985C171.964 68.8672 175.321 68.4959 177.233 67.0905C175.328 66.4745 174.34 65.0222 174.497 63.5352C174.352 60.9794 178.093 59.9228 179.842 62.0258C181.398 64.4715 179.179 66.8294 177.384 67.625C179.899 68.3572 180.235 70.5703 181.565 72.2144C182.297 69.6994 184.737 70.1644 186.724 69.0262ZM215.792 54.4683C216.512 55.9961 216.547 57.1404 215.246 58.6621C213.985 59.3067 212.306 59.4923 210.785 58.1909C210.065 56.6631 209.879 54.9844 211.331 53.9972C212.859 53.2771 214.538 53.0915 215.792 54.4683ZM168.749 85.067C167.379 84.3 164.782 85.322 164.178 83.1843C164.87 81.5464 163.848 78.9498 165.985 78.346C167.623 79.0374 170.22 78.0155 170.824 80.1532C169.865 81.8666 171.154 84.3877 168.749 85.067ZM136.483 123.033C137.743 122.389 139.422 122.203 140.944 123.504C141.664 125.032 141.849 126.711 140.397 127.698C138.945 128.685 137.19 128.604 136.203 127.151C135.216 125.699 135.448 124.479 136.483 123.033ZM181.084 143.039C182.269 142.127 184.023 142.209 185.278 143.586C186.114 144.504 186.033 146.258 184.998 147.704C183.471 148.424 181.792 148.61 180.805 147.157C179.55 145.78 179.899 143.951 181.084 143.039Z" fill="#FFEE5A"/>
</svg>
