<svg width="194" height="179" viewBox="0 0 194 179" fill="none" xmlns="http://www.w3.org/2000/svg" xmlns:xlink="http://www.w3.org/1999/xlink">
<path d="M101.909 0C152.766 7.95187e-05 193.993 39.8536 193.994 89.0156C193.994 138.178 152.766 178.032 101.909 178.032C51.0512 178.032 9.82275 138.178 9.82275 89.0156C9.82291 39.8535 51.0513 0 101.909 0ZM101.909 50.6475C81.5657 50.6475 65.0737 67.4822 65.0737 88.249C65.0737 109.016 81.5657 125.851 101.909 125.851C122.251 125.85 138.743 109.016 138.743 88.249C138.743 67.4824 122.251 50.6477 101.909 50.6475Z" fill="black"/>
<path d="M92.085 0.332031C142.942 0.332031 184.171 40.1856 184.171 89.3477C184.171 138.51 142.942 178.364 92.085 178.364C41.2276 178.364 0 138.51 0 89.3477C0.000232098 40.1857 41.2277 0.332161 92.085 0.332031ZM92.085 50.9795C71.742 50.9795 55.251 67.8143 55.251 88.5811C55.251 109.348 71.742 126.183 92.085 126.183C112.428 126.183 128.919 109.348 128.919 88.5811C128.919 67.8143 112.428 50.9795 92.085 50.9795Z" fill="url(#pattern0_324_4)"/>
<defs>
<pattern id="pattern0_324_4" patternUnits="userSpaceOnUse" patternTransform="matrix(6.20744 0 0 6.20744 0 0.332031)" preserveAspectRatio="none" viewBox="0 0 42.3 42.3" width="1" height="1">
<g id="pattern0_324_4_inner">
<circle cx="15" cy="15" r="15" fill="#878787"/>
</g>
</pattern></defs>
</svg>
